<svg width="34" height="24" viewBox="0 0 34 24" fill="none" xmlns="http://www.w3.org/2000/svg">
<path d="M9.90678 23.5721L9.9032 24.5721H9.90678V23.5721ZM4.77184 22.1978L4.23847 23.0436L4.77184 22.1978ZM1.43732 18.2667L0.527603 18.6819L1.43732 18.2667ZM0.276101 12.109L1.2761 12.112V12.1119L0.276101 12.109ZM1.44798 5.99393L0.541591 5.57146L0.54013 5.57463L1.44798 5.99393ZM4.77184 2.16936L4.25363 1.3141L4.25176 1.31524L4.77184 2.16936ZM15.0417 2.18001L14.5204 3.0334L14.5235 3.03526L15.0417 2.18001ZM18.3762 6.00458L19.2826 5.58212L18.3762 6.00458ZM19.5375 12.109L18.5375 12.106V12.109H19.5375ZM18.3656 18.288L19.2753 18.7032L18.3656 18.288ZM15.0311 22.2191L15.5633 23.0657L15.5644 23.065L15.0311 22.2191ZM12.421 17.1587L11.5695 16.6343L11.5686 16.6359L12.421 17.1587ZM13.4011 12.109H12.4011L12.4011 12.1121L13.4011 12.109ZM12.9537 8.43356L13.9079 8.13447L12.9537 8.43356ZM11.7179 6.32419L11.0579 7.07553L11.0637 7.08055L11.7179 6.32419ZM7.40323 7.18711L6.55458 6.65816L7.40323 7.18711ZM6.41246 12.109L5.41248 12.1027L5.41248 12.1043L6.41246 12.109ZM6.84925 15.8803L5.892 16.1695L5.89258 16.1715L6.84925 15.8803ZM8.08505 18.0536L7.41942 18.7999L7.42442 18.8043L8.08505 18.0536ZM9.91037 22.5721C8.08534 22.5655 6.56396 22.1456 5.3052 21.3519L4.23847 23.0436C5.86324 24.0681 7.76516 24.5644 9.9032 24.572L9.91037 22.5721ZM5.3052 21.3519C4.04506 20.5573 3.05617 19.4051 2.34704 17.8514L0.527603 18.6819C1.38098 20.5515 2.6151 22.02 4.23847 23.0436L5.3052 21.3519ZM2.34704 17.8514C1.63967 16.3016 1.26931 14.3991 1.2761 12.112L-0.723895 12.106C-0.731313 14.6058 -0.327522 16.8084 0.527603 18.6819L2.34704 17.8514ZM1.2761 12.1119C1.2829 9.81378 1.6572 7.92585 2.35582 6.41323L0.54013 5.57463C-0.309541 7.41428 -0.71649 9.60306 -0.723895 12.106L1.2761 12.1119ZM2.35435 6.4164C3.06101 4.9003 4.04268 3.78415 5.29192 3.02347L4.25176 1.31524C2.63168 2.30172 1.39744 3.73528 0.541596 5.57147L2.35435 6.4164ZM5.29005 3.02461C6.54995 2.26122 8.07553 1.85899 9.90678 1.85899V-0.141014C7.77497 -0.141014 5.87725 0.330331 4.25363 1.3141L5.29005 3.02461ZM9.90678 1.85899C11.7366 1.85899 13.261 2.26411 14.5204 3.03339L15.563 1.32662C13.9389 0.334548 12.04 -0.141014 9.90678 -0.141014V1.85899ZM14.5235 3.03526C15.7795 3.79629 16.7638 4.91228 17.4699 6.42705L19.2826 5.58212C18.4262 3.74462 17.1874 2.31088 15.5599 1.32475L14.5235 3.03526ZM17.4699 6.42705C18.1736 7.93682 18.5443 9.81792 18.5375 12.106L20.5375 12.112C20.5449 9.61312 20.1414 7.42462 19.2826 5.58212L17.4699 6.42705ZM18.5375 12.109C18.5375 14.412 18.1634 16.3225 17.4559 17.8727L19.2753 18.7032C20.1302 16.8301 20.5375 14.6213 20.5375 12.109H18.5375ZM17.4559 17.8727C16.7467 19.4264 15.7579 20.5786 14.4977 21.3732L15.5644 23.065C17.1878 22.0413 18.4219 20.5729 19.2753 18.7032L17.4559 17.8727ZM14.4988 21.3725C13.249 22.1583 11.7324 22.5721 9.90678 22.5721V24.5721C12.0442 24.5721 13.9439 24.0838 15.5633 23.0657L14.4988 21.3725ZM9.90678 19.7567C11.3584 19.7567 12.485 18.967 13.2734 17.6815L11.5686 16.6359C11.0501 17.4811 10.5007 17.7567 9.90678 17.7567V19.7567ZM13.2725 17.6831C14.082 16.3687 14.4084 14.4549 14.4011 12.1059L12.4011 12.1121C12.408 14.3511 12.081 15.8038 11.5695 16.6343L13.2725 17.6831ZM14.4011 12.109C14.4011 10.5546 14.2477 9.21855 13.9079 8.13447L11.9994 8.73265C12.2562 9.55198 12.4011 10.6663 12.4011 12.109H14.4011ZM13.9079 8.13447C13.5769 7.07855 13.0866 6.18586 12.372 5.56782L11.0637 7.08055C11.4002 7.3716 11.7338 7.88516 11.9994 8.73265L13.9079 8.13447ZM12.3778 5.57287C11.675 4.95551 10.8383 4.63171 9.90678 4.63171V6.63171C10.3389 6.63171 10.7096 6.76957 11.0579 7.0755L12.3778 5.57287ZM9.90678 4.63171C8.46715 4.63171 7.34207 5.39472 6.55458 6.65816L8.25188 7.71606C8.75701 6.90564 9.30096 6.63171 9.90678 6.63171V4.63171ZM6.55458 6.65816C5.75855 7.9353 5.42702 9.8056 5.41249 12.1027L7.41245 12.1153C7.42632 9.92374 7.75529 8.51279 8.25188 7.71606L6.55458 6.65816ZM5.41248 12.1043C5.40511 13.6879 5.55467 15.0531 5.892 16.1695L7.80651 15.5911C7.54725 14.733 7.40561 13.5841 7.41245 12.1136L5.41248 12.1043ZM5.89258 16.1715C6.22144 17.252 6.70825 18.1656 7.41944 18.7999L8.75067 17.3073C8.41071 17.0041 8.07366 16.4688 7.80593 15.5891L5.89258 16.1715ZM7.42442 18.8043C8.13154 19.4266 8.97116 19.7567 9.90678 19.7567V17.7567C9.47877 17.7567 9.1039 17.6181 8.74568 17.3029L7.42442 18.8043ZM33.014 1.15728H34.014V0.157281H33.014V1.15728ZM33.014 22.9755V23.9755H34.014V22.9755H33.014ZM27.0907 22.9755H26.0907V23.9755H27.0907V22.9755ZM27.0907 6.61183H28.0907V5.61183H27.0907V6.61183ZM26.9629 6.61183V5.61183H26.6866L26.4495 5.75366L26.9629 6.61183ZM22.1902 9.46694H21.1902V11.2304L22.7035 10.3251L22.1902 9.46694ZM22.1902 4.43853L21.6687 3.58525L21.1902 3.8777V4.43853H22.1902ZM27.5595 1.15728V0.157281H27.2781L27.038 0.303999L27.5595 1.15728ZM32.014 1.15728V22.9755H34.014V1.15728H32.014ZM33.014 21.9755H27.0907V23.9755H33.014V21.9755ZM28.0907 22.9755V6.61183H26.0907V22.9755H28.0907ZM27.0907 5.61183H26.9629V7.61183H27.0907V5.61183ZM26.4495 5.75366L21.6768 8.60877L22.7035 10.3251L27.4763 7.47L26.4495 5.75366ZM23.1902 9.46694V4.43853H21.1902V9.46694H23.1902ZM22.7116 5.29181L28.0809 2.01056L27.038 0.303999L21.6687 3.58525L22.7116 5.29181ZM27.5595 2.15728H33.014V0.157281H27.5595V2.15728Z" fill="#BBBBBB"/>
</svg>
