<svg width="39" height="24" viewBox="0 0 39 24" fill="none" xmlns="http://www.w3.org/2000/svg">
<path d="M9.79741 23.5721L9.79382 24.5721H9.79741V23.5721ZM4.66246 22.1978L4.1291 23.0436L4.66246 22.1978ZM1.32795 18.2667L0.418228 18.6819L1.32795 18.2667ZM0.166726 12.109L1.16672 12.112V12.1119L0.166726 12.109ZM1.3386 5.99393L0.432216 5.57146L0.430755 5.57463L1.3386 5.99393ZM4.66246 2.16936L4.14425 1.3141L4.14238 1.31524L4.66246 2.16936ZM14.9324 2.18001L14.4111 3.0334L14.4141 3.03526L14.9324 2.18001ZM18.2669 6.00458L19.1732 5.58212L18.2669 6.00458ZM19.4281 12.109L18.4281 12.106V12.109H19.4281ZM18.2562 18.288L19.1659 18.7032L18.2562 18.288ZM14.9217 22.2191L15.454 23.0657L15.4551 23.065L14.9217 22.2191ZM12.3116 17.1587L11.4601 16.6343L11.4592 16.6359L12.3116 17.1587ZM13.2917 12.109H12.2917L12.2917 12.1121L13.2917 12.109ZM12.8443 8.43356L13.7985 8.13447L12.8443 8.43356ZM11.6085 6.32419L10.9485 7.07553L10.9543 7.08055L11.6085 6.32419ZM7.29386 7.18711L6.44521 6.65816L7.29386 7.18711ZM6.30309 12.109L5.30311 12.1027L5.3031 12.1043L6.30309 12.109ZM6.73988 15.8803L5.78262 16.1695L5.78321 16.1715L6.73988 15.8803ZM7.97568 18.0536L7.31005 18.7999L7.31505 18.8043L7.97568 18.0536ZM9.80099 22.5721C7.97596 22.5655 6.45458 22.1456 5.19583 21.3519L4.1291 23.0436C5.75387 24.0681 7.65579 24.5644 9.79383 24.572L9.80099 22.5721ZM5.19583 21.3519C3.93569 20.5573 2.94679 19.4051 2.23767 17.8514L0.418228 18.6819C1.2716 20.5515 2.50572 22.02 4.1291 23.0436L5.19583 21.3519ZM2.23767 17.8514C1.53029 16.3016 1.15993 14.3991 1.16672 12.112L-0.83327 12.106C-0.840688 14.6058 -0.436897 16.8084 0.418228 18.6819L2.23767 17.8514ZM1.16672 12.1119C1.17352 9.81378 1.54782 7.92585 2.24645 6.41323L0.430755 5.57463C-0.418916 7.41428 -0.825865 9.60306 -0.83327 12.106L1.16672 12.1119ZM2.24498 6.4164C2.95163 4.9003 3.9333 3.78415 5.18255 3.02347L4.14238 1.31524C2.52231 2.30172 1.28807 3.73528 0.432221 5.57147L2.24498 6.4164ZM5.18067 3.02461C6.44058 2.26122 7.96616 1.85899 9.79741 1.85899V-0.141014C7.66559 -0.141014 5.76788 0.330331 4.14426 1.3141L5.18067 3.02461ZM9.79741 1.85899C11.6272 1.85899 13.1517 2.26411 14.4111 3.03339L15.4536 1.32662C13.8295 0.334548 11.9307 -0.141014 9.79741 -0.141014V1.85899ZM14.4141 3.03526C15.6702 3.79629 16.6545 4.91228 17.3605 6.42705L19.1732 5.58212C18.3168 3.74462 17.0781 2.31088 15.4506 1.32475L14.4141 3.03526ZM17.3605 6.42705C18.0642 7.93682 18.4349 9.81792 18.4281 12.106L20.4281 12.112C20.4355 9.61312 20.032 7.42462 19.1732 5.58212L17.3605 6.42705ZM18.4281 12.109C18.4281 14.412 18.0541 16.3225 17.3465 17.8727L19.1659 18.7032C20.0209 16.8301 20.4281 14.6213 20.4281 12.109H18.4281ZM17.3465 17.8727C16.6374 19.4264 15.6485 20.5786 14.3883 21.3732L15.4551 23.065C17.0784 22.0413 18.3126 20.5729 19.1659 18.7032L17.3465 17.8727ZM14.3894 21.3725C13.1396 22.1583 11.623 22.5721 9.79741 22.5721V24.5721C11.9348 24.5721 13.8345 24.0838 15.454 23.0657L14.3894 21.3725ZM9.79741 19.7567C11.249 19.7567 12.3756 18.967 13.1641 17.6815L11.4592 16.6359C10.9408 17.4811 10.3913 17.7567 9.79741 17.7567V19.7567ZM13.1631 17.6831C13.9726 16.3687 14.299 14.4549 14.2917 12.1059L12.2917 12.1121C12.2987 14.3511 11.9716 15.8038 11.4601 16.6343L13.1631 17.6831ZM14.2917 12.109C14.2917 10.5546 14.1383 9.21855 13.7985 8.13447L11.8901 8.73265C12.1469 9.55198 12.2917 10.6663 12.2917 12.109H14.2917ZM13.7985 8.13447C13.4676 7.07855 12.9772 6.18586 12.2626 5.56782L10.9543 7.08055C11.2909 7.3716 11.6244 7.88516 11.8901 8.73265L13.7985 8.13447ZM12.2684 5.57287C11.5656 4.95551 10.7289 4.63171 9.79741 4.63171V6.63171C10.2295 6.63171 10.6003 6.76957 10.9485 7.0755L12.2684 5.57287ZM9.79741 4.63171C8.35778 4.63171 7.23269 5.39472 6.44521 6.65816L8.14251 7.71606C8.64764 6.90564 9.19159 6.63171 9.79741 6.63171V4.63171ZM6.44521 6.65816C5.64918 7.9353 5.31765 9.8056 5.30311 12.1027L7.30307 12.1153C7.31694 9.92374 7.64592 8.51279 8.14251 7.71606L6.44521 6.65816ZM5.3031 12.1043C5.29574 13.6879 5.44529 15.0531 5.78262 16.1695L7.69714 15.5911C7.43788 14.733 7.29624 13.5841 7.30308 12.1136L5.3031 12.1043ZM5.78321 16.1715C6.11206 17.252 6.59888 18.1656 7.31006 18.7999L8.64129 17.3073C8.30134 17.0041 7.96429 16.4688 7.69655 15.5891L5.78321 16.1715ZM7.31505 18.8043C8.02216 19.4266 8.86178 19.7567 9.79741 19.7567V17.7567C9.3694 17.7567 8.99453 17.6181 8.6363 17.3029L7.31505 18.8043ZM22.2086 22.9755H21.2086V23.9755H22.2086V22.9755ZM22.2086 18.7141L21.5712 17.9436L21.2086 18.2435V18.7141H22.2086ZM30.3478 11.9811L30.9852 12.7517L30.986 12.751L30.3478 11.9811ZM31.7328 10.724L31.0193 10.0233L31.0192 10.0235L31.7328 10.724ZM32.6277 9.4989L31.7362 9.04561L31.7302 9.05778L32.6277 9.4989ZM32.585 6.66509L31.7234 7.17283L31.7303 7.18407L32.585 6.66509ZM31.6049 5.7489L31.1398 6.63422L31.1517 6.64029L31.6049 5.7489ZM28.7072 5.7489L28.2421 4.86364L28.2358 4.86697L28.7072 5.7489ZM27.7484 6.71836L26.8661 6.24777V6.24777L27.7484 6.71836ZM27.4075 8.27376V9.27376H28.4075V8.27376H27.4075ZM21.7825 8.27376H20.7825V9.27376H21.7825V8.27376ZM22.8159 4.31069L21.9667 3.78265L22.8159 4.31069ZM25.7349 1.75387L26.1637 2.6573L25.7349 1.75387ZM34.6944 1.70061L34.2925 2.61632L34.2987 2.61896L34.6944 1.70061ZM37.6667 4.04436L36.8437 4.61237L36.8464 4.61627L37.6667 4.04436ZM38.1994 10.0955L39.1206 10.4846L39.1218 10.4818L38.1994 10.0955ZM36.3244 12.8334L37.0674 13.5027L36.3244 12.8334ZM32.4785 16.413L33.1187 17.1812L32.4785 16.413ZM30.4331 18.1175L29.7929 17.3493L29.4331 17.6491V18.1175H30.4331ZM30.4331 18.2453H29.4331V19.2453H30.4331V18.2453ZM38.9558 18.2453H39.9558V17.2453H38.9558V18.2453ZM38.9558 22.9755V23.9755H39.9558V22.9755H38.9558ZM23.2086 22.9755V18.7141H21.2086V22.9755H23.2086ZM22.846 19.4846L30.9852 12.7517L29.7104 11.2106L21.5712 17.9436L22.846 19.4846ZM30.986 12.751C31.5452 12.2875 32.0334 11.8453 32.4463 11.4246L31.0192 10.0235C30.6652 10.3841 30.23 10.7799 29.7096 11.2113L30.986 12.751ZM32.4462 11.4248C32.8976 10.9652 33.264 10.4713 33.5251 9.94002L31.7302 9.05778C31.5794 9.36452 31.3492 9.68743 31.0193 10.0233L32.4462 11.4248ZM33.5191 9.95215C33.8096 9.38064 33.9473 8.75809 33.9473 8.1033H31.9473C31.9473 8.47125 31.8718 8.77909 31.7363 9.04565L33.5191 9.95215ZM33.9473 8.1033C33.9473 7.39703 33.7942 6.72974 33.4398 6.14612L31.7303 7.18407C31.8589 7.3959 31.9473 7.68742 31.9473 8.1033H33.9473ZM33.4466 6.1574C33.1136 5.59233 32.6438 5.15529 32.0582 4.85752L31.1517 6.64029C31.4041 6.76865 31.5877 6.9424 31.7235 7.17279L33.4466 6.1574ZM32.0701 4.86366C31.4867 4.55717 30.8397 4.41864 30.1561 4.41864V6.41864C30.5662 6.41864 30.8851 6.50029 31.1398 6.63414L32.0701 4.86366ZM30.1561 4.41864C29.4724 4.41864 28.8254 4.55717 28.2421 4.86366L29.1723 6.63414C29.4271 6.50029 29.746 6.41864 30.1561 6.41864V4.41864ZM28.2358 4.86697C27.643 5.18383 27.1832 5.65314 26.8661 6.24777L28.6308 7.18895C28.7682 6.93131 28.9476 6.75432 29.1786 6.63083L28.2358 4.86697ZM26.8661 6.24777C26.5437 6.85209 26.4075 7.54131 26.4075 8.27376H28.4075C28.4075 7.78462 28.4985 7.4369 28.6308 7.18895L26.8661 6.24777ZM27.4075 7.27376H21.7825V9.27376H27.4075V7.27376ZM22.7825 8.27376C22.7825 6.89302 23.0909 5.76212 23.6651 4.83873L21.9667 3.78265C21.163 5.07517 20.7825 6.58632 20.7825 8.27376H22.7825ZM23.6651 4.83873C24.2459 3.90462 25.0677 3.17739 26.1637 2.6573L25.3062 0.850447C23.8879 1.52353 22.7637 2.50086 21.9667 3.78265L23.6651 4.83873ZM26.1637 2.6573C27.2611 2.13647 28.5827 1.85899 30.1561 1.85899V-0.141014C28.3487 -0.141014 26.7229 0.178093 25.3062 0.850447L26.1637 2.6573ZM30.1561 1.85899C31.7986 1.85899 33.1684 2.12293 34.2925 2.6163L35.0963 0.784916C33.6636 0.156126 32.0079 -0.141014 30.1561 -0.141014V1.85899ZM34.2987 2.61896C35.4368 3.10943 36.2689 3.77951 36.8437 4.61236L38.4898 3.47635C37.6725 2.29216 36.5231 1.39973 35.0902 0.78225L34.2987 2.61896ZM36.8464 4.61627C37.4205 5.43975 37.7214 6.41782 37.7214 7.59194H39.7214C39.7214 6.05299 39.3192 4.66601 38.487 3.47245L36.8464 4.61627ZM37.7214 7.59194C37.7214 8.28768 37.5777 8.9913 37.277 9.7092L39.1218 10.4818C39.5171 9.53775 39.7214 8.57234 39.7214 7.59194H37.7214ZM37.2782 9.70637C36.9897 10.3895 36.4427 11.2079 35.5814 12.1642L37.0674 13.5027C38.0101 12.4561 38.7131 11.4492 39.1206 10.4846L37.2782 9.70637ZM35.5814 12.1642C34.7244 13.1156 33.4827 14.2744 31.8383 15.6447L33.1187 17.1812C34.7982 15.7816 36.1204 14.5541 37.0674 13.5027L35.5814 12.1642ZM31.8383 15.6447L29.7929 17.3493L31.0732 18.8857L33.1187 17.1812L31.8383 15.6447ZM29.4331 18.1175V18.2453H31.4331V18.1175H29.4331ZM30.4331 19.2453H38.9558V17.2453H30.4331V19.2453ZM37.9558 18.2453V22.9755H39.9558V18.2453H37.9558ZM38.9558 21.9755H22.2086V23.9755H38.9558V21.9755Z" fill="#BBBBBB"/>
</svg>
