<svg width="41" height="24" viewBox="0 0 41 24" fill="none" xmlns="http://www.w3.org/2000/svg">
<path d="M10.3726 23.5721L10.369 24.5721H10.3726V23.5721ZM5.23766 22.1978L4.70429 23.0436L5.23766 22.1978ZM1.90314 18.2667L0.993423 18.6819L1.90314 18.2667ZM0.741921 12.109L1.74192 12.112V12.1119L0.741921 12.109ZM1.9138 5.99393L1.00741 5.57146L1.00595 5.57463L1.9138 5.99393ZM5.23766 2.16936L4.71945 1.3141L4.71758 1.31524L5.23766 2.16936ZM15.5075 2.18001L14.9863 3.0334L14.9893 3.03526L15.5075 2.18001ZM18.8421 6.00458L19.7484 5.58212L18.8421 6.00458ZM20.0033 12.109L19.0033 12.106V12.109H20.0033ZM18.8314 18.288L19.7411 18.7032L18.8314 18.288ZM15.4969 22.2191L16.0292 23.0657L16.0303 23.065L15.4969 22.2191ZM12.8868 17.1587L12.0353 16.6343L12.0344 16.6359L12.8868 17.1587ZM13.8669 12.109H12.8669L12.8669 12.1121L13.8669 12.109ZM13.4195 8.43356L14.3737 8.13447L13.4195 8.43356ZM12.1837 6.32419L11.5237 7.07553L11.5295 7.08055L12.1837 6.32419ZM7.86905 7.18711L7.0204 6.65816L7.86905 7.18711ZM6.87828 12.109L5.8783 12.1027L5.8783 12.1043L6.87828 12.109ZM7.31507 15.8803L6.35782 16.1695L6.3584 16.1715L7.31507 15.8803ZM8.55087 18.0536L7.88524 18.7999L7.89024 18.8043L8.55087 18.0536ZM10.3762 22.5721C8.55116 22.5655 7.02978 22.1456 5.77103 21.3519L4.70429 23.0436C6.32906 24.0681 8.23098 24.5644 10.369 24.572L10.3762 22.5721ZM5.77103 21.3519C4.51088 20.5573 3.52199 19.4051 2.81286 17.8514L0.993423 18.6819C1.8468 20.5515 3.08092 22.02 4.70429 23.0436L5.77103 21.3519ZM2.81286 17.8514C2.10549 16.3016 1.73513 14.3991 1.74192 12.112L-0.258075 12.106C-0.265492 14.6058 0.138298 16.8084 0.993423 18.6819L2.81286 17.8514ZM1.74192 12.1119C1.74872 9.81378 2.12302 7.92585 2.82164 6.41323L1.00595 5.57463C0.15628 7.41428 -0.250669 9.60306 -0.258075 12.106L1.74192 12.1119ZM2.82018 6.4164C3.52683 4.9003 4.5085 3.78415 5.75774 3.02347L4.71758 1.31524C3.0975 2.30172 1.86327 3.73528 1.00742 5.57147L2.82018 6.4164ZM5.75587 3.02461C7.01577 2.26122 8.54135 1.85899 10.3726 1.85899V-0.141014C8.24079 -0.141014 6.34307 0.330331 4.71945 1.3141L5.75587 3.02461ZM10.3726 1.85899C12.2024 1.85899 13.7269 2.26411 14.9863 3.03339L16.0288 1.32662C14.4047 0.334548 12.5059 -0.141014 10.3726 -0.141014V1.85899ZM14.9893 3.03526C16.2453 3.79629 17.2296 4.91228 17.9357 6.42705L19.7484 5.58212C18.892 3.74462 17.6533 2.31088 16.0258 1.32475L14.9893 3.03526ZM17.9357 6.42705C18.6394 7.93682 19.0101 9.81792 19.0033 12.106L21.0033 12.112C21.0107 9.61312 20.6072 7.42462 19.7484 5.58212L17.9357 6.42705ZM19.0033 12.109C19.0033 14.412 18.6293 16.3225 17.9217 17.8727L19.7411 18.7032C20.5961 16.8301 21.0033 14.6213 21.0033 12.109H19.0033ZM17.9217 17.8727C17.2126 19.4264 16.2237 20.5786 14.9635 21.3732L16.0303 23.065C17.6536 22.0413 18.8878 20.5729 19.7411 18.7032L17.9217 17.8727ZM14.9646 21.3725C13.7148 22.1583 12.1982 22.5721 10.3726 22.5721V24.5721C12.51 24.5721 14.4097 24.0838 16.0292 23.0657L14.9646 21.3725ZM10.3726 19.7567C11.8242 19.7567 12.9508 18.967 13.7392 17.6815L12.0344 16.6359C11.516 17.4811 10.9665 17.7567 10.3726 17.7567V19.7567ZM13.7383 17.6831C14.5478 16.3687 14.8742 14.4549 14.8669 12.1059L12.8669 12.1121C12.8739 14.3511 12.5468 15.8038 12.0353 16.6343L13.7383 17.6831ZM14.8669 12.109C14.8669 10.5546 14.7135 9.21855 14.3737 8.13447L12.4653 8.73265C12.7221 9.55198 12.8669 10.6663 12.8669 12.109H14.8669ZM14.3737 8.13447C14.0427 7.07855 13.5524 6.18586 12.8378 5.56782L11.5295 7.08055C11.8661 7.3716 12.1996 7.88516 12.4653 8.73265L14.3737 8.13447ZM12.8436 5.57287C12.1408 4.95551 11.3041 4.63171 10.3726 4.63171V6.63171C10.8047 6.63171 11.1754 6.76957 11.5237 7.0755L12.8436 5.57287ZM10.3726 4.63171C8.93297 4.63171 7.80789 5.39472 7.0204 6.65816L8.7177 7.71606C9.22283 6.90564 9.76678 6.63171 10.3726 6.63171V4.63171ZM7.0204 6.65816C6.22437 7.9353 5.89284 9.8056 5.8783 12.1027L7.87827 12.1153C7.89214 9.92374 8.22112 8.51279 8.7177 7.71606L7.0204 6.65816ZM5.8783 12.1043C5.87093 13.6879 6.02049 15.0531 6.35782 16.1695L8.27233 15.5911C8.01307 14.733 7.87144 13.5841 7.87827 12.1136L5.8783 12.1043ZM6.3584 16.1715C6.68726 17.252 7.17407 18.1656 7.88526 18.7999L9.21649 17.3073C8.87653 17.0041 8.53948 16.4688 8.27175 15.5891L6.3584 16.1715ZM7.89024 18.8043C8.59736 19.4266 9.43698 19.7567 10.3726 19.7567V17.7567C9.94459 17.7567 9.56973 17.6181 9.2115 17.3029L7.89024 18.8043ZM26.7256 22.3895L26.3158 23.3017L26.3217 23.3043L26.7256 22.3895ZM23.5935 19.9286L24.402 19.3401L23.5935 19.9286ZM22.4429 16.3277V15.3277H21.4377L21.4429 16.333L22.4429 16.3277ZM28.4088 16.3277L29.4087 16.3108L29.392 15.3277H28.4088V16.3277ZM28.7923 17.457L27.9903 18.0543L27.9975 18.0639L28.0048 18.0733L28.7923 17.457ZM29.8364 18.224L29.4497 19.1462L29.8364 18.224ZM32.798 18.2134L33.2142 19.1228L33.2268 19.1168L32.798 18.2134ZM33.7781 17.3931L34.6076 17.9517L33.7781 17.3931ZM34.1191 16.1999L33.1192 16.1838L33.1189 16.1998L33.1192 16.2158L34.1191 16.1999ZM33.7142 15.028L32.9301 15.6488L32.9381 15.6586L33.7142 15.028ZM28.6645 13.9414H27.6645V14.9414H28.6645V13.9414ZM28.6645 9.85046V8.85046H27.6645V9.85046H28.6645ZM32.4358 9.56282L32.0471 8.64144L32.0419 8.64368L32.4358 9.56282ZM33.4905 8.76382L32.6904 8.16376L32.6825 8.17464L33.4905 8.76382ZM33.8634 7.59194L32.8635 7.57528L32.8632 7.59167L32.8635 7.60807L33.8634 7.59194ZM33.5544 6.46268L32.7168 7.00895V7.00895L33.5544 6.46268ZM32.6595 5.69563L32.2191 6.59345L32.2257 6.59664L32.6595 5.69563ZM29.9003 5.70629L29.4899 4.79435L29.4842 4.79698L29.9003 5.70629ZM28.9095 6.50529L29.7256 7.08331V7.08331L28.9095 6.50529ZM28.5367 7.67717V8.67717H29.5207L29.5365 7.69329L28.5367 7.67717ZM22.8691 7.67717L21.8691 7.67185L21.8637 8.67717H22.8691V7.67717ZM23.9664 4.14024L23.153 3.55846L23.1503 3.56222L23.9664 4.14024ZM26.9706 1.73256L27.3871 2.64171L26.9706 1.73256ZM35.6212 1.6793L35.2165 2.59376L35.2184 2.59461L35.6212 1.6793ZM38.5296 3.93782L37.7203 4.5253L37.7253 4.53204L38.5296 3.93782ZM39.5736 7.20842L38.5736 7.20264L38.5736 7.21134L38.5737 7.22005L39.5736 7.20842ZM38.3165 10.2127L37.6408 9.47552L37.6377 9.47835L38.3165 10.2127ZM35.0992 11.5976L34.9905 10.6035L34.0992 10.701V11.5976H35.0992ZM35.0992 11.7681H34.0992V12.6651L34.9909 12.7622L35.0992 11.7681ZM39.0729 13.3874L38.3658 14.0945L38.3686 14.0973L39.0729 13.3874ZM40.3833 16.7113L39.3833 16.7006L39.3832 16.7087L39.3833 16.7168L40.3833 16.7113ZM39.2327 20.1097L38.4458 19.4926L38.443 19.4961L39.2327 20.1097ZM36.026 22.4321L35.6472 21.5067L35.6455 21.5074L36.026 22.4321ZM31.3066 22.2738C29.7025 22.2738 28.3169 21.9989 27.1295 21.4747L26.3217 23.3043C27.8047 23.9591 29.4731 24.2738 31.3066 24.2738V22.2738ZM27.1353 21.4773C25.9454 20.9428 25.0469 20.2261 24.402 19.3401L22.785 20.5171C23.6599 21.7191 24.8495 22.6431 26.3158 23.3017L27.1353 21.4773ZM24.402 19.3401C23.7719 18.4745 23.449 17.4806 23.4429 16.3225L21.4429 16.333C21.4511 17.8879 21.8952 19.2946 22.785 20.5171L24.402 19.3401ZM22.4429 17.3277H28.4088V15.3277H22.4429V17.3277ZM27.409 16.3447C27.4196 16.9715 27.6157 17.5512 27.9903 18.0543L29.5944 16.8597C29.4718 16.6951 29.4123 16.522 29.4087 16.3108L27.409 16.3447ZM28.0048 18.0733C28.3808 18.5537 28.8758 18.9056 29.4497 19.1462L30.2231 17.3018C29.9162 17.1732 29.7153 17.0137 29.5799 16.8407L28.0048 18.0733ZM29.4497 19.1462C30.0334 19.391 30.6729 19.501 31.3492 19.501V17.501C30.889 17.501 30.5201 17.4264 30.2231 17.3018L29.4497 19.1462ZM31.3492 19.501C32.0132 19.501 32.6424 19.3843 33.2142 19.1227L32.3819 17.3041C32.1156 17.426 31.7789 17.501 31.3492 17.501V19.501ZM33.2268 19.1168C33.7903 18.8494 34.2627 18.4638 34.6076 17.9517L32.9487 16.8345C32.8249 17.0183 32.6438 17.1797 32.3693 17.31L33.2268 19.1168ZM34.6076 17.9517C34.9639 17.4226 35.129 16.8215 35.1189 16.184L33.1192 16.2158C33.1233 16.4732 33.0611 16.6676 32.9487 16.8345L34.6076 17.9517ZM35.1189 16.216C35.1298 15.5412 34.9161 14.9214 34.4903 14.3974L32.9381 15.6586C33.0664 15.8165 33.1225 15.9779 33.1192 16.1838L35.1189 16.216ZM34.4983 14.4073C34.0975 13.901 33.559 13.5405 32.9387 13.2978L32.2099 15.1603C32.5697 15.301 32.7912 15.4732 32.9302 15.6487L34.4983 14.4073ZM32.9387 13.2978C32.3105 13.052 31.6183 12.9414 30.8804 12.9414V14.9414C31.4209 14.9414 31.858 15.0225 32.2099 15.1603L32.9387 13.2978ZM30.8804 12.9414H28.6645V14.9414H30.8804V12.9414ZM29.6645 13.9414V9.85046H27.6645V13.9414H29.6645ZM28.6645 10.8505H30.8804V8.85046H28.6645V10.8505ZM30.8804 10.8505C31.5774 10.8505 32.2345 10.7371 32.8297 10.482L32.0419 8.64368C31.7423 8.77209 31.3624 8.85046 30.8804 8.85046V10.8505ZM32.8245 10.4842C33.4177 10.2339 33.926 9.86392 34.2985 9.35299L32.6825 8.17464C32.5579 8.34553 32.363 8.50819 32.0471 8.64146L32.8245 10.4842ZM34.2905 9.36382C34.684 8.83909 34.8738 8.23001 34.8632 7.57581L32.8635 7.60807C32.8672 7.83455 32.8083 8.00672 32.6905 8.16382L34.2905 9.36382ZM34.8632 7.6086C34.8733 7.00217 34.7243 6.42585 34.392 5.91641L32.7168 7.00895C32.8107 7.15292 32.8676 7.32944 32.8635 7.57528L34.8632 7.6086ZM34.392 5.91641C34.0703 5.42301 33.6258 5.05099 33.0933 4.79463L32.2257 6.59664C32.4603 6.70959 32.6125 6.84894 32.7168 7.00895L34.392 5.91641ZM33.1 4.79785C32.5633 4.53456 31.9709 4.41864 31.3492 4.41864V6.41864C31.7218 6.41864 32.003 6.48739 32.2191 6.59342L33.1 4.79785ZM31.3492 4.41864C30.6897 4.41864 30.0636 4.53621 29.4899 4.79436L30.3107 6.61821C30.5893 6.49284 30.9291 6.41864 31.3492 6.41864V4.41864ZM29.4842 4.79698C28.9219 5.05427 28.447 5.42817 28.0935 5.92728L29.7256 7.08331C29.855 6.9006 30.0406 6.74182 30.3164 6.61559L29.4842 4.79698ZM28.0935 5.92728C27.729 6.44184 27.547 7.03069 27.5368 7.66104L29.5365 7.69329C29.5406 7.44296 29.6071 7.25056 29.7256 7.08331L28.0935 5.92728ZM28.5367 6.67717H22.8691V8.67717H28.5367V6.67717ZM23.869 7.68249C23.8751 6.53834 24.1845 5.56228 24.7824 4.71825L23.1503 3.56222C22.2993 4.76365 21.8772 6.14554 21.8691 7.67185L23.869 7.68249ZM24.7797 4.72201C25.3987 3.85658 26.2562 3.15978 27.3871 2.64171L26.5541 0.82342C25.1424 1.47012 23.997 2.37844 23.153 3.55846L24.7797 4.72201ZM27.3871 2.64171C28.5065 2.12892 29.8198 1.85899 31.3492 1.85899V-0.141014C29.5831 -0.141014 27.9774 0.171434 26.5541 0.82342L27.3871 2.64171ZM31.3492 1.85899C32.8485 1.85899 34.1303 2.11309 35.2165 2.59376L36.0259 0.764838C34.6404 0.151753 33.0743 -0.141014 31.3492 -0.141014V1.85899ZM35.2184 2.59461C36.3233 3.08073 37.1428 3.72972 37.7203 4.52528L39.3388 3.35036C38.5243 2.22831 37.4049 1.37162 36.0239 0.763983L35.2184 2.59461ZM37.7253 4.53204C38.2949 5.3031 38.5795 6.18094 38.5736 7.20264L40.5736 7.2142C40.5819 5.77851 40.1705 4.47595 39.3339 3.3436L37.7253 4.53204ZM38.5737 7.22005C38.5848 8.17552 38.2704 8.8984 37.6408 9.47552L38.9922 10.9498C40.0672 9.96446 40.5908 8.68449 40.5735 7.19679L38.5737 7.22005ZM37.6377 9.47835C36.9708 10.0948 36.1075 10.4815 34.9905 10.6035L35.2078 12.5917C36.6903 12.4297 37.9718 11.8931 38.9953 10.947L37.6377 9.47835ZM34.0992 11.5976V11.7681H36.0992V11.5976H34.0992ZM34.9909 12.7622C36.6172 12.9393 37.6939 13.4226 38.3658 14.0945L39.78 12.6803C38.6763 11.5766 37.1039 10.9804 35.2074 10.774L34.9909 12.7622ZM38.3686 14.0973C39.0505 14.7738 39.3949 15.6153 39.3833 16.7006L41.3832 16.7219C41.4001 15.1368 40.8708 13.7624 39.7771 12.6775L38.3686 14.0973ZM39.3833 16.7168C39.3891 17.7742 39.0778 18.6866 38.4458 19.4926L40.0196 20.7268C40.9358 19.5584 41.3916 18.2051 41.3832 16.7057L39.3833 16.7168ZM38.443 19.4961C37.8016 20.3217 36.8861 20.9996 35.6472 21.5067L36.4048 23.3576C37.9074 22.7426 39.1297 21.8721 40.0223 20.7232L38.443 19.4961ZM35.6455 21.5074C34.425 22.0096 32.9853 22.2738 31.3066 22.2738V24.2738C33.1931 24.2738 34.8998 23.9769 36.4065 23.3569L35.6455 21.5074Z" fill="#BBBBBB"/>
</svg>
