<svg width="85" height="85" viewBox="0 0 85 85" fill="none" xmlns="http://www.w3.org/2000/svg">
<path d="M83.7983 45.7558L67.2363 31.5602V22.5869C67.2363 22.5636 67.2337 22.5409 67.2331 22.5182C67.2616 21.834 67.0094 21.1537 66.5068 20.6512L56.5458 10.6909C56.0789 10.2239 55.4453 9.9613 54.7852 9.9613H29.8828V2.4906C29.8828 1.11514 28.768 0.000366211 27.3926 0.000366211H12.4512C11.0757 0.000366211 9.96094 1.11514 9.96094 2.4906V9.9613H2.49023C1.11477 9.9613 0 11.0761 0 12.4515V22.4125C0 23.7879 1.11477 24.9027 2.49023 24.9027H9.96094V80.0199H3.1543C1.77883 80.0199 0.664062 81.1347 0.664062 82.5101C0.664062 83.8849 1.77883 85.0004 3.1543 85.0004H36.6895C38.0649 85.0004 39.1797 83.8849 39.1797 82.5101C39.1797 81.1347 38.0649 80.0199 36.6895 80.0199H29.8828V24.9027H62.2559V31.5602L45.6939 45.7558C44.9027 46.4342 44.6173 47.5334 44.9786 48.5107C45.3398 49.4879 46.2723 50.1371 47.3145 50.1371H82.1777C83.2199 50.1371 84.1518 49.4879 84.513 48.5107C84.8748 47.5334 84.5895 46.4342 83.7983 45.7558ZM14.9414 4.98083H24.9023V9.9613H14.9414V4.98083ZM24.9023 61.3464L16.1288 52.5728L24.9023 43.7001V61.3464ZM14.9414 58.4288L23.3725 66.8599L14.9414 75.2917V58.4288ZM14.9414 46.6903V28.8242L23.7727 37.7585L14.9414 46.6903ZM24.9023 14.9418V19.9222H14.9414V14.9418H24.9023ZM4.98047 19.9222V14.9418H9.96094V19.9222H4.98047ZM17.2565 80.0199L24.9023 72.3741V80.0199H17.2565ZM24.9023 31.817L18.0678 24.9027H24.9023V31.817ZM29.8828 19.9222V14.9418H53.7534L58.7339 19.9222H29.8828ZM54.0459 45.1566L64.7461 35.9855L75.4457 45.1566H54.0459Z" fill="#40C782"/>
<path d="M79.6875 55.1175H49.8047C48.4292 55.1175 47.3145 56.2323 47.3145 57.6078V82.5101C47.3145 83.8856 48.4292 85.0003 49.8047 85.0003H79.6875C81.063 85.0003 82.1777 83.8856 82.1777 82.5101V57.6078C82.1777 56.2323 81.063 55.1175 79.6875 55.1175ZM67.2363 80.0199H62.2559V70.0589H67.2363V80.0199ZM77.1973 80.0199H72.2168V67.5687C72.2168 66.1932 71.102 65.0785 69.7266 65.0785H59.7656C58.3902 65.0785 57.2754 66.1932 57.2754 67.5687V80.0199H52.2949V60.098H77.1973V80.0199Z" fill="#40C782"/>
<rect x="56.8027" y="59.2784" width="16.0762" height="22.5067" fill="#40C782"/>
</svg>
