<svg width="41" height="42" viewBox="0 0 41 42" fill="none" xmlns="http://www.w3.org/2000/svg">
<path d="M21.6539 1.01373C22.4244 1.11004 23.2018 1.18573 23.9654 1.32332C28.6896 2.11393 32.9525 4.62902 35.929 8.38179C38.2263 11.1885 39.6771 14.5912 40.1118 18.1921C40.4366 20.7245 40.259 23.296 39.589 25.7596C38.9291 28.2306 37.7805 30.5442 36.2111 32.5636C36.1336 32.6479 36.0851 32.7548 36.0727 32.8687C36.0603 32.9826 36.0847 33.0975 36.1423 33.1965C37.0366 35.2604 37.9241 37.3242 38.8184 39.3881C38.921 39.5788 38.9646 39.7957 38.9438 40.0113C38.923 40.2268 38.8387 40.4313 38.7015 40.5989C38.5741 40.7575 38.4044 40.8765 38.2119 40.9423C38.0195 41.0081 37.8123 41.0178 37.6145 40.9704C34.615 40.4407 31.6224 39.9041 28.6229 39.3881C27.9662 39.1907 27.2699 39.1646 26.6003 39.3124C23.2318 40.4241 19.62 40.5742 16.1708 39.7459C12.2176 38.8102 8.64993 36.6763 5.95559 33.6359C3.26125 30.5956 1.57181 26.7972 1.1183 22.7602C0.573028 17.8177 1.92599 12.8527 4.90331 8.87017C7.88063 4.88764 12.2599 2.18507 17.1546 1.30955C17.8907 1.16508 18.6406 1.09631 19.3905 1L21.6539 1.01373ZM34.9865 35.9002C34.6219 35.0402 34.2642 34.1734 33.872 33.3272C33.7363 33.081 33.6832 32.7978 33.7203 32.5192C33.7575 32.2406 33.883 31.9813 34.0784 31.7793C35.494 30.1057 36.5669 28.1702 37.2361 26.083C38.0015 23.7247 38.2575 21.2308 37.9872 18.7663C37.7168 16.3017 36.9264 13.9226 35.668 11.7863C34.4096 9.65002 32.7121 7.80522 30.6876 6.37392C28.6631 4.94263 26.3578 3.95744 23.9241 3.48352C19.5387 2.63028 14.993 3.48851 11.2205 5.88197C7.44802 8.27544 4.73512 12.0225 3.63892 16.3536C2.54271 20.6847 3.14639 25.2712 5.326 29.1711C7.50561 33.071 11.0957 35.9885 15.359 37.3242C18.7463 38.4526 22.4081 38.4526 25.7954 37.3242C26.6853 37.04 27.6344 36.9949 28.5472 37.1935C30.9757 37.6545 33.4111 38.0604 35.8465 38.4869C35.9358 38.4938 36.0255 38.4938 36.1148 38.4869C35.7433 37.6132 35.3787 36.767 35.014 35.9208" fill="#40C782"/>
<path d="M34.9865 35.9002C34.6219 35.0402 34.2642 34.1734 33.872 33.3272C33.7363 33.081 33.6832 32.7978 33.7203 32.5192C33.7575 32.2406 33.883 31.9813 34.0784 31.7793C35.494 30.1057 36.5669 28.1702 37.2362 26.083C38.0015 23.7247 38.2575 21.2308 37.9872 18.7663C37.7168 16.3017 36.9264 13.9226 35.668 11.7863C34.4096 9.65002 32.7121 7.80522 30.6876 6.37392C28.6631 4.94263 26.3578 3.95744 23.9241 3.48352C19.5387 2.63028 14.993 3.48851 11.2205 5.88197C7.44802 8.27544 4.73512 12.0225 3.63892 16.3536C2.54271 20.6847 3.14639 25.2712 5.326 29.1711C7.50561 33.071 11.0957 35.9885 15.359 37.3242C18.7463 38.4526 22.4081 38.4526 25.7954 37.3242C26.6853 37.04 27.6344 36.9949 28.5472 37.1935C30.9757 37.6545 33.4111 38.0604 35.8465 38.4869C35.9358 38.4938 36.0255 38.4938 36.1148 38.4869C35.7433 37.6132 35.3787 36.767 35.014 35.9208M21.6539 1.01373C22.4244 1.11004 23.2018 1.18573 23.9654 1.32332C28.6896 2.11393 32.9525 4.62902 35.929 8.38179C38.2263 11.1885 39.6771 14.5912 40.1118 18.1921C40.4366 20.7245 40.259 23.296 39.589 25.7596C38.9291 28.2306 37.7805 30.5442 36.2111 32.5636C36.1336 32.6479 36.0851 32.7548 36.0727 32.8687C36.0603 32.9826 36.0847 33.0975 36.1423 33.1965C37.0366 35.2604 37.9241 37.3242 38.8184 39.3881C38.921 39.5788 38.9646 39.7957 38.9438 40.0113C38.923 40.2268 38.8387 40.4313 38.7015 40.5989C38.5741 40.7575 38.4043 40.8765 38.2119 40.9423C38.0195 41.0081 37.8123 41.0178 37.6145 40.9704C34.615 40.4407 31.6224 39.9041 28.6229 39.3881C27.9662 39.1907 27.2699 39.1647 26.6003 39.3124C23.2318 40.4241 19.62 40.5742 16.1708 39.7459C12.2176 38.8102 8.64993 36.6763 5.95559 33.6359C3.26125 30.5956 1.57181 26.7972 1.1183 22.7602C0.573028 17.8177 1.92599 12.8527 4.90331 8.87017C7.88063 4.88764 12.2599 2.18507 17.1546 1.30955C17.8907 1.16508 18.6406 1.09631 19.3905 1L21.6539 1.01373Z" stroke="#40C782"/>
<path d="M20.6565 24.2048H27.2059C27.3755 24.2185 27.5459 24.1912 27.7026 24.1252C27.8594 24.0592 27.998 23.9563 28.1066 23.8254C28.2153 23.6945 28.2908 23.5394 28.3268 23.3731C28.3628 23.2068 28.3583 23.0343 28.3135 22.8702C28.2596 22.6615 28.143 22.4744 27.9794 22.3341C27.8157 22.1939 27.613 22.1072 27.3985 22.0859C27.2679 22.079 27.137 22.079 27.0064 22.0859H14.2929C13.4398 22.0859 12.917 22.4712 12.917 23.1385C12.917 23.8058 13.4192 24.2186 14.2929 24.2186H20.6565" fill="#40C782"/>
<path d="M20.6565 24.2048H27.2059C27.3755 24.2185 27.5459 24.1912 27.7026 24.1252C27.8594 24.0592 27.998 23.9563 28.1066 23.8254C28.2153 23.6945 28.2908 23.5394 28.3268 23.3731C28.3628 23.2068 28.3583 23.0343 28.3135 22.8702C28.2596 22.6615 28.143 22.4744 27.9794 22.3341C27.8157 22.1939 27.613 22.1072 27.3985 22.0859C27.2679 22.079 27.137 22.079 27.0064 22.0859H14.2929C13.4398 22.0859 12.917 22.4712 12.917 23.1385C12.917 23.8058 13.4192 24.2186 14.2929 24.2186H20.6565" stroke="#40C782"/>
<path d="M22.9423 18.6886C24.2962 18.6886 25.6501 18.6886 27.0041 18.6886C27.2192 18.7013 27.4355 18.681 27.6394 18.629C27.8433 18.5769 28.0305 18.4943 28.189 18.3863C28.3475 18.2782 28.474 18.1471 28.5606 18.0012C28.6471 17.8553 28.6918 17.6977 28.6918 17.5385C28.6918 17.3792 28.6471 17.2216 28.5606 17.0757C28.474 16.9298 28.3475 16.7987 28.189 16.6907C28.0305 16.5826 27.8433 16.5 27.6394 16.4479C27.4355 16.3959 27.2192 16.3756 27.0041 16.3883C24.2763 16.3883 21.5518 16.3883 18.8306 16.3883C18.6169 16.3756 18.4019 16.3958 18.1992 16.4475C17.9966 16.4991 17.8106 16.5812 17.653 16.6886C17.4955 16.796 17.3697 16.9262 17.2837 17.0712C17.1977 17.2162 17.1533 17.3728 17.1533 17.5311C17.1533 17.6894 17.1977 17.846 17.2837 17.991C17.3697 18.136 17.4955 18.2662 17.653 18.3736C17.8106 18.481 17.9966 18.5631 18.1992 18.6148C18.4019 18.6664 18.6169 18.6866 18.8306 18.6739C20.2045 18.6739 21.5784 18.6739 22.9522 18.6739" fill="#40C782"/>
<path d="M22.9423 18.6886C24.2962 18.6886 25.6501 18.6886 27.0041 18.6886C27.2192 18.7013 27.4355 18.681 27.6394 18.629C27.8433 18.5769 28.0305 18.4943 28.189 18.3863C28.3475 18.2782 28.474 18.1471 28.5606 18.0012C28.6471 17.8553 28.6918 17.6977 28.6918 17.5385C28.6918 17.3792 28.6471 17.2216 28.5606 17.0757C28.474 16.9298 28.3475 16.7987 28.189 16.6907C28.0305 16.5826 27.8433 16.5 27.6394 16.4479C27.4355 16.3959 27.2192 16.3756 27.0041 16.3883C24.2763 16.3883 21.5518 16.3883 18.8306 16.3883C18.6169 16.3756 18.4019 16.3958 18.1992 16.4475C17.9966 16.4991 17.8106 16.5812 17.653 16.6886C17.4955 16.796 17.3697 16.9262 17.2837 17.0712C17.1977 17.2162 17.1533 17.3728 17.1533 17.5311C17.1533 17.6894 17.1977 17.846 17.2837 17.991C17.3697 18.136 17.4955 18.2662 17.653 18.3736C17.8106 18.481 17.9966 18.5631 18.1992 18.6148C18.4019 18.6664 18.6169 18.6866 18.8306 18.6739C20.2045 18.6739 21.5784 18.6739 22.9522 18.6739" stroke="#40C782"/>
</svg>
