<svg width="45" height="42" viewBox="0 0 45 42" fill="none" xmlns="http://www.w3.org/2000/svg">
<path d="M44.2575 31.0249C44.2575 25.5234 39.7818 21.0481 34.2807 21.0481C32.9271 21.0481 31.6359 21.3196 30.4578 21.8102L28.1951 17.891C28.2343 17.8613 28.2728 17.8313 28.3116 17.8009C28.3656 17.7644 28.4159 17.7225 28.4642 17.6776C30.6864 15.8465 32.1052 13.0743 32.1052 9.97666C32.1052 4.4752 27.6299 -0.00012207 22.1288 -0.00012207C16.6276 -0.00012207 12.152 4.4752 12.152 9.97666C12.152 13.0737 13.5705 15.8455 15.7919 17.6766C15.8409 17.7219 15.8919 17.7647 15.9469 17.8015C15.9851 17.8316 16.0236 17.8613 16.0621 17.891L13.7994 21.8099C12.6213 21.3196 11.3301 21.0481 9.97644 21.0481C4.47532 21.0481 0 25.5234 0 31.0249C0 34.1219 1.41884 36.8941 3.64029 38.7255C3.68891 38.7704 3.73956 38.8126 3.79426 38.8494C5.49505 40.196 7.64356 41.0013 9.97644 41.0013C12.31 41.0013 14.4589 40.1957 16.16 38.8484C16.2137 38.8123 16.2636 38.7708 16.3112 38.7265C18.2187 37.1551 19.5342 34.8901 19.8688 32.3215H24.388C24.723 34.8897 26.0382 37.1541 27.9446 38.7255C27.9932 38.7704 28.0438 38.8126 28.0979 38.8491C29.799 40.196 31.9475 41.0013 34.2807 41.0013C36.6143 41.0013 38.7631 40.1957 40.4643 38.8484C40.5176 38.8123 40.5672 38.7708 40.6149 38.7269C42.838 36.8958 44.2575 34.1229 44.2575 31.0249ZM14.7452 9.97666C14.7452 5.90552 18.0576 2.59309 22.1288 2.59309C26.1999 2.59309 29.512 5.90552 29.512 9.97666C29.512 11.7085 28.9113 13.3019 27.9091 14.5624C27.2807 13.6777 26.4592 12.9528 25.5161 12.4385C26.0203 11.7467 26.3188 10.8961 26.3188 9.97666C26.3188 7.6664 24.439 5.78666 22.1288 5.78666C19.8182 5.78666 17.9388 7.6664 17.9388 9.97666C17.9388 10.8961 18.2372 11.7467 18.741 12.4382C17.798 12.9524 16.9764 13.6774 16.3484 14.5624C15.3462 13.3019 14.7452 11.7085 14.7452 9.97666ZM18.3058 19.1913C19.4839 19.682 20.7751 19.9534 22.1288 19.9534C23.4824 19.9534 24.7736 19.682 25.9517 19.1913L28.214 23.1102C26.1628 24.6867 24.7385 27.0409 24.3884 29.7283H19.8691C19.5187 27.0409 18.0948 24.6867 16.0431 23.1102L18.3058 19.1913ZM15.7568 35.6106C15.1288 34.7256 14.3072 34.0007 13.3642 33.4864C13.868 32.7949 14.1664 31.9443 14.1664 31.0249C14.1664 28.7146 12.287 26.8349 9.97644 26.8349C7.66619 26.8349 5.78644 28.7146 5.78644 31.0249C5.78644 31.9443 6.08493 32.7949 6.58906 33.4864C5.64598 34.0007 4.82446 34.7256 4.19608 35.6106C3.19424 34.3498 2.59321 32.7567 2.59321 31.0249C2.59321 26.9534 5.9053 23.6413 9.97644 23.6413C14.0479 23.6413 17.36 26.9534 17.36 31.0249C17.36 32.7567 16.7593 34.3498 15.7568 35.6106ZM26.8972 31.0249C26.8972 26.9534 30.2096 23.6413 34.2807 23.6413C38.3522 23.6413 41.6643 26.9534 41.6643 31.0249C41.6643 32.7567 41.0633 34.3498 40.0611 35.6106C39.4327 34.7256 38.6115 34.0007 37.6684 33.4864C38.1722 32.7949 38.4707 31.9443 38.4707 31.0249C38.4707 28.7146 36.591 26.8349 34.2807 26.8349C31.9705 26.8349 30.0907 28.7146 30.0907 31.0249C30.0907 31.9443 30.3892 32.7949 30.893 33.4864C29.9499 34.0007 29.1287 34.7256 28.5004 35.6106C27.4982 34.3498 26.8972 32.7567 26.8972 31.0249Z" fill="white"/>
</svg>
