<?xml version="1.0" encoding="utf-8"?>
<!-- Generator: Adobe Illustrator 26.3.1, SVG Export Plug-In . SVG Version: 6.00 Build 0)  -->
<svg version="1.1" id="Layer_1" xmlns="http://www.w3.org/2000/svg" xmlns:xlink="http://www.w3.org/1999/xlink" x="0px" y="0px"
	 viewBox="0 0 512 512" style="enable-background:new 0 0 512 512;" xml:space="preserve">
<style type="text/css">
	.st0{fill:#FFFFFF;}
</style>
<g>
	<polygon class="st0" points="35.8,328.2 35.8,328.2 39.5,324.4 43.2,328.1 39.5,331.9 	"/>
	<polygon class="st0" points="43.2,328.1 43.2,328.1 46.8,324.5 50.5,328.1 46.8,331.9 	"/>
	<polygon class="st0" points="52,359.6 52,359.6 55.6,356 59.3,359.7 55.6,363.4 	"/>
	<polygon class="st0" points="59.3,359.6 62.9,356 66.7,359.7 63,363.4 	"/>
	<polygon class="st0" points="98.2,328.4 98.2,328.4 101.8,324.7 105.6,328.5 102,332.2 	"/>
	<polygon class="st0" points="102,321.1 102,321.1 105.6,317.4 109.3,321.1 105.6,324.8 	"/>
	<polygon class="st0" points="105.6,328.4 109.3,324.7 113,328.5 109.3,332.2 	"/>
	<polygon class="st0" points="124.6,359.6 124.6,359.6 128.2,356 132,359.7 128.3,363.4 	"/>
	<path class="st0" d="M137.2,325.6v23h-6.4v-14.6h-5.2v14.6h-6.4v-14.6H114v14.6h-5.8v-11H103v11h-5.9V341h-5.1v7.5H78.4v-14.6h-5.2
		v19.7c0,1.1-0.4,2.1-1,2.6c-0.6,0.6-1.6,0.9-2.9,0.9h-0.6v5h0.7c1.2,0.1,2.3-0.1,3.4-0.3c1.1-0.2,2-0.8,2.9-1.4
		c0.8-0.6,1.4-1.5,1.9-2.6c0.5-1.2,0.8-2.5,1-4.2h64v-28.2H137.2z"/>
	<rect x="146.4" y="325.6" class="st0" width="5.2" height="28.2"/>
	<path class="st0" d="M175.3,348.5v-3.1c0-1.1-0.2-2-0.5-2.7c-0.3-0.8-0.7-1.4-1.2-1.9c-0.3-0.3-0.7-0.5-1.1-0.6
		c-0.4-0.3-0.8-0.4-1.2-0.6c-0.4-0.1-0.9-0.2-1.5-0.3c-0.7-0.1-1.4-0.1-2.4-0.1v-5.2h1.7c1.4,0,2.6,0.1,3.8,0.5
		c1.2,0.4,2.3,0.8,3.3,1.6c1.4,0.9,2.4,2.2,3.2,3.8c0.6,1.5,1,3.4,1,5.5v8.4h-16.7v-5.2L175.3,348.5L175.3,348.5z"/>
	<path class="st0" d="M183.5,357.2h0.7c1.2,0,2.2-0.3,2.8-0.9c0.7-0.6,1.1-1.5,1.1-2.6v-19.7h5.1v18.6v1v0.8c0,1-0.3,1.9-0.5,2.7
		c-0.3,0.8-0.6,1.5-1,2c-0.7,0.9-1.3,1.6-2.1,2.1c-0.9,0.5-1.8,0.8-2.8,0.9c-0.3,0-0.7,0.1-1.1,0.1h-1.2h-0.8L183.5,357.2
		L183.5,357.2z"/>
	<rect x="197.1" y="325.6" class="st0" width="5.2" height="28.2"/>
	<rect x="257.5" y="325.6" class="st0" width="5.2" height="28.2"/>
	<polygon class="st0" points="279.6,328.2 279.6,328.2 283.4,324.4 287.1,328.1 283.3,331.9 	"/>
	<polygon class="st0" points="287.1,328.1 287.1,328.1 290.7,324.5 294.4,328.1 290.7,331.9 	"/>
	<polygon class="st0" points="295.8,359.6 295.8,359.6 299.5,356 303.2,359.7 299.5,363.4 	"/>
	<polygon class="st0" points="303.2,359.6 306.8,356 310.5,359.7 306.9,363.4 	"/>
	<polygon class="st0" points="335.9,328.1 339.6,324.5 343.2,328.1 339.5,331.9 	"/>
	<polygon class="st0" points="344.6,328.1 344.6,328.1 348.3,324.5 351.9,328.1 348.3,331.9 	"/>
	<polygon class="st0" points="352.1,328.1 352.1,328.1 355.7,324.5 359.3,328.1 355.7,331.9 	"/>
	<polygon class="st0" points="378.6,328.2 378.6,328.2 382.4,324.5 386,328.1 382.4,331.9 	"/>
	<polygon class="st0" points="386,328.2 386,328.2 389.7,324.5 393.4,328.1 389.7,331.9 	"/>
	<path class="st0" d="M393.6,333.9L393.6,333.9v20.7c0,2.5-0.7,4.3-2,5.7c-1.4,1.3-3.4,1.9-5.9,1.9h-7.3c-2.6,0-4.6-0.6-5.9-1.9
		c-1.4-1.3-2.1-3.2-2.1-5.7v-6.1h5.2v6.7c0,0.5,0.2,0.8,0.3,1.1c0.2,0.2,0.5,0.4,0.7,0.6c0.4,0,0.7,0.1,1.3,0.1h8.2
		c0.6,0,1-0.1,1.3-0.1c0.3-0.2,0.6-0.3,0.8-0.6c0-0.3,0.2-0.6,0.2-1.1v-0.9v-9.6v-5.5h-1.3c-1.1,0-1.8,0.3-2.4,0.8
		c-0.5,0.5-0.9,1.3-0.9,2.2c0,0.9,0.3,1.7,0.6,2.5c0.3,0.8,0.8,1.3,1.4,2v6.3c-0.6-0.1-1-0.4-1.4-0.6c-1.3-0.7-2.2-1.5-3.2-2.6
		c-0.9-1-1.6-2.1-2.1-3.5c-0.4-1.3-0.6-2.6-0.6-4.1c0-1.2,0.1-2.3,0.4-3.3c0.3-0.9,0.8-1.8,1.6-2.6c0.7-0.7,1.7-1.3,2.8-1.7
		c1.1-0.4,2.5-0.7,4.2-0.7L393.6,333.9L393.6,333.9z"/>
	<path class="st0" d="M397.5,362.2L397.5,362.2V357h7.1c0.6,0,1-0.1,1.2-0.2c0.4-0.2,0.6-0.3,0.7-0.5c0.1-0.1,0.2-0.2,0.2-0.5
		c0.1-0.1,0.1-0.3,0.1-0.6v-1.5h-1.2c-1.6,0-3-0.3-4.2-1c-1.2-0.6-2.2-1.5-2.9-2.7c-0.7-1.2-1-2.5-1.1-4.2v-3.9
		c0.1-1.6,0.4-2.9,1.1-4.1c0.6-1.2,1.7-2,2.9-2.8c1.2-0.7,2.6-0.9,4.2-1.1h6.4v20.7c0,2.4-0.7,4.3-2.1,5.7c-1.3,1.3-3.3,1.9-5.9,1.9
		L397.5,362.2L397.5,362.2z M406.9,339.2h-1.4c-1,0-1.6,0.3-2.2,0.8c-0.5,0.5-0.7,1.3-0.7,2.3v3c0,1.1,0.2,2,0.7,2.4
		c0.5,0.6,1.2,0.9,2.2,0.9h1.4V339.2z"/>
	<polygon class="st0" points="438,328.1 441.7,324.5 445.4,328.1 441.7,331.9 	"/>
	<path class="st0" d="M475.9,348.5h-11.8v-9.4h8.9c0.9,0,1.7,0.3,2.2,0.8c0.5,0.5,0.7,1.3,0.7,2.3L475.9,348.5L475.9,348.5z
		 M480,337.8c-0.8-1.2-1.7-2.1-3-2.8c-1.1-0.7-2.6-0.9-4.2-1.1h-14v14.6h-2.9v-8.4h-5.2v8.4h-6.3v-14.6h-5.2v14.6h-6.4v-3.2
		c0-2.1-0.4-4-1.1-5.5c-0.7-1.6-1.7-2.9-3.1-3.8c-1-0.7-2.1-1.2-3.2-1.6c-1.2-0.4-2.5-0.5-3.9-0.5h-1.6v5.2c0.8,0,1.7,0,2.3,0.1
		c0.6,0,1.2,0.2,1.6,0.3c0.4,0.2,0.8,0.3,1.1,0.6c0.3,0.1,0.8,0.3,1.1,0.6c0.5,0.5,0.9,1.2,1.3,1.9c0.2,0.8,0.3,1.6,0.3,2.7v3.1
		h-11.4v5.2H481v-11.9C481,340.3,480.7,339,480,337.8"/>
	<path class="st0" d="M60.4,333.9v14.6H49.5v-14.6c-2.6,0.2-5,0.7-7.1,1.8c-2.2,0.9-4.1,2.2-5.6,3.9c-1.6,1.7-3,3.7-3.9,6
		c-1,2.4-1.6,5.2-1.9,8.1l10.5-0.1v-5.1h-3.8c0.2-0.4,0.3-0.8,0.4-1.1c0.7-1.9,1.6-3.4,2.7-4.7c1.1-1.1,2.1-2,3.4-2.4v13.4h21.4
		v-19.8H60.4z"/>
	<path class="st0" d="M325.2,345.6c0,1-0.2,1.9-0.7,2.4c-0.5,0.6-1.1,0.8-2.1,0.8H321v-6.4c0-1,0.4-1.9,0.8-2.3
		c0.4-0.5,1.2-0.8,2.1-0.8h1.3L325.2,345.6L325.2,345.6z M353.1,333.9v14.6h-11v-14.6h-5v14.6h-6.5v-14.6h-6.5
		c-1.6,0.1-3.1,0.4-4.3,1.1c-1.2,0.7-2.1,1.6-2.9,2.8c-0.7,1.2-1.1,2.5-1.1,4.1v6.7h-6.4v-14.6h-5.2v14.6h-11v-14.6
		c-2.5,0.2-4.8,0.7-7,1.8c-2.1,0.9-4.1,2.2-5.7,3.9c-1.5,1.7-2.9,3.7-3.9,6c-0.9,2.4-1.6,5.2-1.9,8.1l10.7-0.1v-5.1h-3.9
		c0.1-0.4,0.3-0.8,0.4-1.1c0.7-1.9,1.6-3.4,2.7-4.7c0.9-1.1,2.1-2,3.2-2.3v13.3h70.3v-19.8H353.1z"/>
	<path class="st0" d="M237,345.6c0,1-0.2,1.9-0.8,2.4c-0.4,0.6-1.2,0.8-2,0.8h-1.3v-6.4c0-1,0.2-1.9,0.7-2.3
		c0.5-0.5,1.2-0.8,2.1-0.8h1.4L237,345.6L237,345.6z M215.7,348.5h-1.4c-0.9,0-1.6-0.2-2.1-0.8c-0.5-0.4-0.7-1.3-0.7-2.4v-2.9
		c0-1,0.2-1.9,0.7-2.3c0.5-0.5,1.2-0.8,2.1-0.8h1.4V348.5z M248.4,325.6v23h-6.2v-14.6h-6.4c-1.7,0.1-3.1,0.4-4.3,1.1
		c-1.2,0.7-2.2,1.6-2.9,2.8c-0.6,1.2-1,2.5-1,4.1v6.7H221v-14.6h-6.5c-1.7,0.1-3,0.4-4.3,1.1c-1.2,0.7-2.2,1.6-2.9,2.8
		c-0.7,1.2-1,2.5-1,4.1v3.9c0,1.7,0.3,3,1,4.2c0.7,1.2,1.7,2.1,2.9,2.7c1.3,0.7,2.6,1,4.3,1h1.1v1.5c0,0.2-0.1,0.5-0.1,0.5
		c-0.1,0.4-0.1,0.5-0.2,0.6c-0.1,0.2-0.4,0.4-0.7,0.5c-0.3,0.1-0.7,0.2-1.3,0.2h-7.1v5.2h6.7c2.6,0,4.5-0.6,5.9-1.9
		c1.3-1.3,2.1-3.2,2.1-5.7v-0.9h32.6v-28.2L248.4,325.6L248.4,325.6z"/>
	<path class="st0" d="M200.1,306.6h72h28H481v-74c0-36.4-36.8-65.8-82.2-65.8h-127v35.5H394c21,0,38.1,13.7,38.1,30.5v38.4H314.3
		v-48.8h-42.2v48.8v0.3H241C232.2,286.6,217.8,299,200.1,306.6"/>
	<path class="st0" d="M153.6,271.4c20.9,0,37.7-14.4,37.7-32.1v-37.1h-20.7v41.7h-42.2v-41.7v-35.5h111.7v71.2
		c0,37.9-36.2,68.7-80.8,68.7H31v-35.5L153.6,271.4z"/>
	<polygon class="st0" points="155.2,124.7 86.3,124.7 86.3,193.6 119.2,193.6 119.2,157.5 155.2,157.5 	"/>
	<polygon class="st0" points="419.2,222.3 350.3,222.3 350.3,271.1 383.2,271.1 383.2,255.2 419.2,255.2 	"/>
	<polygon class="st0" points="31,373.4 35.2,373.4 35.2,378.1 39.7,378.1 39.7,373.4 44.1,373.4 44.1,386.9 39.7,386.9 39.7,381.4 
		35.2,381.4 35.2,386.9 31,386.9 	"/>
	<path class="st0" d="M55.6,373.4h4.2v8c0,0.8-0.2,1.6-0.4,2.4c-0.3,0.7-0.7,1.3-1.2,1.8c-0.5,0.5-1.2,0.9-1.8,1.2
		c-0.9,0.2-1.7,0.4-2.9,0.4c-0.6,0-1.4,0-2.1-0.1c-0.8-0.1-1.4-0.3-1.9-0.6c-0.5-0.3-1-0.7-1.4-1.2c-0.5-0.4-0.9-1-0.9-1.4
		c-0.2-0.9-0.4-1.6-0.4-2.4v-8H51v8.2c0,0.8,0.2,1.3,0.6,1.7c0.3,0.5,1,0.6,1.6,0.6c0.7,0,1.3-0.1,1.8-0.6c0.4-0.4,0.6-0.9,0.6-1.7
		L55.6,373.4L55.6,373.4z"/>
	<polygon class="st0" points="62.5,373.4 68.1,373.4 70.2,381.6 72.3,373.4 77.9,373.4 77.9,386.9 74.3,386.9 74.3,376.6 
		71.8,386.9 68.7,386.9 66,376.6 66,386.9 62.5,386.9 	"/>
	<path class="st0" d="M87.9,381.8l-1.5-5l-1.5,5H87.9z M88.8,384.7H84l-0.5,2.2h-4.4l5.1-13.5h4.6l5,13.5h-4.4L88.8,384.7z"/>
	<polygon class="st0" points="95.3,373.4 99.2,373.4 104.4,380.9 104.4,373.4 108.2,373.4 108.2,386.9 104.4,386.9 99.2,379.5 
		99.2,386.9 95.3,386.9 	"/>
	<path class="st0" d="M121.6,378.9h1.9c0.2,0,0.6,0,1.1-0.2c0.3,0,0.5-0.2,0.6-0.4c0.2-0.3,0.4-0.5,0.4-0.8c0-0.3-0.1-0.7-0.4-0.9
		c-0.2-0.3-0.8-0.4-1.6-0.4h-1.9L121.6,378.9L121.6,378.9z M117.4,386.9v-13.5h7c1.3,0,2.3,0,2.9,0.3c0.6,0.2,1.2,0.6,1.8,1.2
		c0.3,0.6,0.5,1.4,0.5,2.2c0,0.9-0.2,1.4-0.5,2c-0.3,0.6-0.7,0.9-1.3,1.4c-0.3,0.2-0.9,0.3-1.6,0.5c0.6,0.2,0.9,0.3,1.3,0.5
		c0.1,0.1,0.3,0.4,0.6,0.8c0.3,0.3,0.5,0.6,0.6,0.8l2,3.9h-4.6l-2.4-4.1c-0.2-0.6-0.5-0.9-0.7-1c-0.3-0.3-0.6-0.4-1-0.4h-0.4v5.5
		L117.4,386.9L117.4,386.9z"/>
	<polygon class="st0" points="132.1,373.4 143.3,373.4 143.3,376.3 136.3,376.3 136.3,378.5 142.9,378.5 142.9,381.2 136.3,381.2 
		136.3,383.9 143.5,383.9 143.5,386.9 132.1,386.9 	"/>
	<path class="st0" d="M145.1,382.5l4-0.3c0,0.7,0.2,1.2,0.4,1.5c0.5,0.5,1.2,0.8,1.9,0.8c0.6,0,1-0.1,1.3-0.5c0.5-0.2,0.6-0.6,0.6-1
		c0-0.4-0.2-0.6-0.5-0.9c-0.3-0.4-1.1-0.6-2.1-0.8c-1.9-0.4-3.3-1-3.9-1.6c-0.8-0.8-1.2-1.6-1.2-2.7c0-0.7,0.3-1.4,0.6-1.9
		c0.4-0.7,1-1.1,1.8-1.5c0.8-0.5,2-0.5,3.3-0.5c1.8,0,3.1,0.2,4,0.9c1,0.7,1.4,1.7,1.6,3.2l-4,0.2c0-0.6-0.2-1-0.6-1.3
		c-0.3-0.3-0.8-0.5-1.3-0.5c-0.5,0-0.9,0.1-1.1,0.3c-0.3,0.3-0.4,0.5-0.4,0.8c0,0.1,0.1,0.4,0.3,0.6c0.3,0.1,0.7,0.3,1.5,0.5
		c1.7,0.4,3.2,0.8,4,1.2c0.7,0.4,1.3,0.9,1.7,1.5c0.4,0.6,0.5,1.3,0.5,2c0,0.9-0.2,1.7-0.7,2.4c-0.4,0.8-1.1,1.4-2,1.7
		c-0.8,0.3-2,0.6-3.3,0.6c-2.2,0-3.8-0.4-4.7-1.4C145.7,385,145.2,383.9,145.1,382.5"/>
	<path class="st0" d="M163.1,380.1c0,1.4,0.3,2.4,0.8,3c0.7,0.6,1.3,0.9,2.1,0.9c0.9,0,1.6-0.2,2.1-0.9c0.5-0.6,0.7-1.6,0.7-3.2
		c0-1.2-0.3-2.2-0.7-2.7c-0.7-0.7-1.3-0.9-2.1-0.9c-0.9,0-1.5,0.2-2.1,0.9C163.4,377.8,163.1,378.8,163.1,380.1 M159.1,380.1
		c0-2.2,0.6-3.9,1.8-5.1c1.3-1.3,2.9-1.8,5.2-1.8c2.3,0,4,0.5,5.2,1.7c1.2,1.3,1.8,3,1.8,5.1c0,1.6-0.2,3-0.8,4
		c-0.5,1-1.2,1.8-2.2,2.4c-1,0.5-2.3,0.8-3.7,0.8c-1.6,0-2.9-0.3-3.9-0.7c-1-0.5-1.9-1.3-2.5-2.3C159.3,383,159.1,381.8,159.1,380.1
		"/>
	<path class="st0" d="M184.2,373.4h4.1v8c0,0.8,0,1.6-0.3,2.4c-0.3,0.7-0.7,1.3-1.2,1.8c-0.6,0.5-1.1,0.9-1.7,1.2
		c-0.8,0.2-1.8,0.4-2.9,0.4c-0.7,0-1.4,0-2.2-0.1c-0.8-0.1-1.4-0.3-1.9-0.6c-0.5-0.3-1-0.7-1.4-1.2c-0.5-0.4-0.7-1-0.9-1.4
		c-0.3-0.9-0.3-1.6-0.3-2.4v-8h4.2v8.2c0,0.8,0.1,1.3,0.6,1.7c0.4,0.5,1,0.6,1.7,0.6c0.7,0,1.2-0.1,1.7-0.6c0.3-0.4,0.7-0.9,0.7-1.7
		L184.2,373.4L184.2,373.4z"/>
	<path class="st0" d="M195.5,378.9h1.7c0.2,0,0.5,0,1.1-0.2c0.2,0,0.4-0.2,0.6-0.4c0.3-0.3,0.3-0.5,0.3-0.8c0-0.3-0.1-0.7-0.4-0.9
		c-0.3-0.3-0.8-0.4-1.6-0.4h-1.7V378.9z M191.2,386.9v-13.5h7c1.3,0,2.2,0,3,0.3c0.7,0.2,1.2,0.6,1.7,1.2c0.4,0.6,0.7,1.4,0.7,2.2
		c0,0.9-0.3,1.4-0.5,2c-0.4,0.6-0.9,0.9-1.4,1.4c-0.4,0.2-0.9,0.3-1.6,0.5c0.6,0.2,0.9,0.3,1.1,0.5c0.2,0.1,0.4,0.4,0.6,0.8
		c0.5,0.3,0.6,0.6,0.6,0.8l2.1,3.9h-4.8l-2.2-4.1c-0.3-0.6-0.5-0.9-0.7-1c-0.3-0.3-0.6-0.4-1.1-0.4h-0.3v5.5L191.2,386.9
		L191.2,386.9z"/>
	<path class="st0" d="M214.5,381.4l3.7,1.1c-0.2,1-0.6,1.9-1.2,2.6c-0.5,0.7-1.2,1.3-2,1.5c-0.9,0.4-1.9,0.6-3.1,0.6
		c-1.4,0-2.8-0.3-3.6-0.6c-1-0.4-1.8-1.2-2.4-2.3c-0.7-1.1-1.2-2.4-1.2-4.2c0-2.2,0.7-4,1.9-5.2c1.1-1.2,2.8-1.7,5-1.7
		c1.7,0,3.1,0.2,4.1,1c0.9,0.7,1.6,1.7,2.1,3.1l-3.7,0.8c-0.1-0.4-0.3-0.7-0.4-0.8c-0.2-0.5-0.4-0.6-0.8-0.8
		c-0.3-0.1-0.7-0.3-1.1-0.3c-1,0-1.7,0.4-2.2,1.2c-0.4,0.5-0.7,1.5-0.7,2.5c0,1.6,0.2,2.6,0.7,3.2c0.5,0.6,1.2,0.8,1.9,0.8
		c0.9,0,1.5-0.1,1.9-0.6C214.1,383,214.4,382.3,214.5,381.4"/>
	<polygon class="st0" points="220.3,373.4 231.6,373.4 231.6,376.3 224.5,376.3 224.5,378.5 231,378.5 231,381.2 224.5,381.2 
		224.5,383.9 231.8,383.9 231.8,386.9 220.3,386.9 	"/>
	<path class="st0" d="M260.8,376.5v7.4h0.9c0.9,0,1.5-0.1,1.9-0.3c0.3-0.2,0.6-0.6,0.9-1c0.1-0.5,0.2-1.3,0.2-2.4
		c0-1.4-0.2-2.3-0.7-2.9c-0.4-0.5-1.2-0.8-2.3-0.8L260.8,376.5L260.8,376.5z M256.5,373.4h6.2c1.3,0,2.3,0.1,3,0.5
		c0.7,0.3,1.4,0.7,1.9,1.4c0.4,0.6,0.8,1.4,1,2.1c0.2,1,0.3,1.7,0.3,2.7c0,1.4-0.1,2.6-0.4,3.4c-0.4,0.8-0.8,1.5-1.4,2
		c-0.7,0.5-1.2,0.9-1.9,1.1c-0.9,0.2-1.8,0.3-2.6,0.3h-6.2V373.4z"/>
	<polygon class="st0" points="271.2,373.4 282.5,373.4 282.5,376.3 275.4,376.3 275.4,378.5 281.9,378.5 281.9,381.2 275.4,381.2 
		275.4,383.9 282.7,383.9 282.7,386.9 271.2,386.9 	"/>
	<polygon class="st0" points="283.6,373.4 287.9,373.4 291,383.2 294.1,373.4 298.3,373.4 293.3,386.9 288.7,386.9 	"/>
	<polygon class="st0" points="299.7,373.4 310.8,373.4 310.8,376.3 303.9,376.3 303.9,378.5 310.4,378.5 310.4,381.2 303.9,381.2 
		303.9,383.9 311.1,383.9 311.1,386.9 299.7,386.9 	"/>
	<polygon class="st0" points="313.3,373.4 317.6,373.4 317.6,383.6 324.2,383.6 324.2,386.9 313.3,386.9 	"/>
	<path class="st0" d="M329.4,380.1c0,1.4,0.3,2.4,0.7,3c0.6,0.6,1.3,0.9,2.2,0.9c0.9,0,1.6-0.2,2-0.9c0.6-0.6,0.8-1.6,0.8-3.2
		c0-1.2-0.3-2.2-0.8-2.7c-0.6-0.7-1.2-0.9-2.1-0.9c-0.9,0-1.6,0.2-2,0.9C329.7,377.8,329.4,378.8,329.4,380.1 M325.1,380.1
		c0-2.2,0.7-3.9,1.9-5.1c1.3-1.3,3-1.8,5.2-1.8c2.2,0,4,0.5,5.2,1.7c1.2,1.3,1.8,3,1.8,5.1c0,1.6-0.2,3-0.7,4
		c-0.4,1-1.4,1.8-2.3,2.4c-1,0.5-2.3,0.8-3.7,0.8c-1.6,0-2.9-0.3-3.9-0.7c-0.9-0.5-1.7-1.3-2.4-2.3
		C325.4,383,325.1,381.8,325.1,380.1"/>
	<path class="st0" d="M345.7,379.2h1c0.8,0,1.4-0.2,1.7-0.4c0.3-0.3,0.5-0.6,0.5-1.1c0-0.4-0.1-0.8-0.4-1.1
		c-0.3-0.3-0.8-0.4-1.5-0.4h-1.2V379.2z M341.5,373.4h7c1.5,0,2.7,0.3,3.4,1c0.9,0.8,1.2,1.8,1.2,3.1c0,1.4-0.5,2.4-1.3,3.2
		c-0.8,0.8-2.1,1.2-3.8,1.2h-2.3v5h-4.2V373.4z"/>
	<polygon class="st0" points="355.1,373.4 360.7,373.4 362.8,381.6 364.9,373.4 370.5,373.4 370.5,386.9 367,386.9 367,376.6 
		364.4,386.9 361.3,386.9 358.7,376.6 358.7,386.9 355.1,386.9 	"/>
	<polygon class="st0" points="373.1,373.4 384.4,373.4 384.4,376.3 377.3,376.3 377.3,378.5 383.8,378.5 383.8,381.2 377.3,381.2 
		377.3,383.9 384.5,383.9 384.5,386.9 373.1,386.9 	"/>
	<polygon class="st0" points="386.8,373.4 390.8,373.4 395.9,380.9 395.9,373.4 400,373.4 400,386.9 395.9,386.9 390.8,379.5 
		390.8,386.9 386.8,386.9 	"/>
	<polygon class="st0" points="401.7,373.4 414.4,373.4 414.4,376.8 410.2,376.8 410.2,386.9 406,386.9 406,376.8 401.7,376.8 	"/>
	<polygon class="st0" points="422.6,373.4 433.1,373.4 433.1,376.3 426.9,376.3 426.9,378.7 432.2,378.7 432.2,381.4 426.9,381.4 
		426.9,386.9 422.6,386.9 	"/>
	<path class="st0" d="M444.2,373.4h4.1v8c0,0.8-0.1,1.6-0.4,2.4c-0.2,0.7-0.6,1.3-1.2,1.8c-0.6,0.5-1.1,0.9-1.7,1.2
		c-0.8,0.2-1.8,0.4-2.9,0.4c-0.6,0-1.4,0-2.2-0.1c-0.7-0.1-1.5-0.3-2-0.6c-0.5-0.3-0.9-0.7-1.4-1.2c-0.4-0.4-0.7-1-0.9-1.4
		c-0.3-0.9-0.3-1.6-0.3-2.4v-8h4.2v8.2c0,0.8,0.1,1.3,0.6,1.7c0.4,0.5,1,0.6,1.7,0.6c0.8,0,1.3-0.1,1.7-0.6c0.4-0.4,0.6-0.9,0.6-1.7
		L444.2,373.4L444.2,373.4z"/>
	<polygon class="st0" points="451,373.4 455,373.4 460.2,380.9 460.2,373.4 464.2,373.4 464.2,386.9 460.2,386.9 455.1,379.5 
		455.1,386.9 451,386.9 	"/>
	<path class="st0" d="M471.2,376.5v7.4h1c0.9,0,1.5-0.1,2-0.3c0.3-0.2,0.6-0.6,0.7-1c0.3-0.5,0.5-1.3,0.5-2.4c0-1.4-0.3-2.3-0.8-2.9
		c-0.4-0.5-1.3-0.8-2.3-0.8L471.2,376.5L471.2,376.5z M467,373.4h6.3c1.2,0,2.2,0.1,2.9,0.5c0.7,0.3,1.3,0.7,1.9,1.4
		c0.6,0.6,0.9,1.4,1.1,2.1c0.3,1,0.4,1.7,0.4,2.7c0,1.4-0.2,2.6-0.5,3.4c-0.4,0.8-0.7,1.5-1.4,2c-0.5,0.5-1.1,0.9-1.8,1.1
		c-0.9,0.2-1.9,0.3-2.5,0.3H467L467,373.4L467,373.4z"/>
	<path class="st0" d="M234.4,382.6l4.1-0.2c0,0.6,0.3,1.1,0.5,1.5c0.4,0.5,1.1,0.7,2,0.7c0.5,0,1.1-0.1,1.3-0.4
		c0.3-0.3,0.4-0.6,0.4-1c0-0.4-0.1-0.7-0.4-1c-0.2-0.2-1-0.4-2.1-0.8c-1.8-0.4-3.1-0.9-4-1.6c-0.7-0.7-1-1.6-1-2.6
		c0-0.7,0.2-1.4,0.5-2c0.4-0.6,1-1.1,2-1.4c0.8-0.4,1.9-0.5,3.3-0.5c1.8,0,3,0.3,3.9,1c1,0.7,1.5,1.7,1.6,3.1l-3.8,0.2
		c-0.1-0.7-0.3-1-0.7-1.3c-0.3-0.3-0.8-0.4-1.4-0.4c-0.5,0-0.9,0.1-1.1,0.3c-0.3,0.2-0.3,0.4-0.3,0.7c0,0.2,0,0.4,0.2,0.6
		c0.2,0.2,0.7,0.4,1.5,0.5c1.8,0.4,3.1,0.8,3.9,1.2c0.8,0.3,1.3,0.8,1.7,1.5c0.3,0.6,0.5,1.3,0.5,1.9c0,0.9-0.3,1.7-0.7,2.4
		c-0.5,0.8-1.2,1.3-2,1.8c-0.9,0.3-1.9,0.5-3.3,0.5c-2.3,0-3.9-0.5-4.8-1.3C235.1,385.1,234.7,384,234.4,382.6"/>
</g>
</svg>
