<svg width="87" height="87" viewBox="0 0 87 87" fill="none" xmlns="http://www.w3.org/2000/svg">
<path d="M43.2611 0.000366211C34.7049 0.000366211 26.3408 2.53758 19.2265 7.29117C12.1123 12.0448 6.5674 18.8012 3.29307 26.7062C0.0187445 34.6111 -0.83797 43.3094 0.831269 51.7013C2.50051 60.0931 6.62073 67.8015 12.6709 73.8517C18.7211 79.9018 26.4295 84.022 34.8213 85.6913C43.2131 87.3605 51.9115 86.5038 59.8164 83.2295C67.7213 79.9552 74.4778 74.4103 79.2314 67.296C83.985 60.1818 86.5222 51.8177 86.5222 43.2615C86.5087 31.7921 81.9465 20.7963 73.8364 12.6862C65.7263 4.57609 54.7305 0.013897 43.2611 0.000366211ZM43.2611 78.6569C36.2606 78.6569 29.4172 76.581 23.5965 72.6917C17.7757 68.8024 13.239 63.2744 10.56 56.8067C7.88099 50.339 7.18004 43.2222 8.54578 36.3561C9.91153 29.4901 13.2826 23.1832 18.2328 18.2331C23.1829 13.283 29.4898 9.91187 36.3558 8.54613C43.2218 7.18039 50.3387 7.88134 56.8064 10.5603C63.274 13.2393 68.802 17.7761 72.6913 23.5968C76.5806 29.4176 78.6565 36.2609 78.6565 43.2615C78.6451 52.6454 74.9123 61.6417 68.2768 68.2772C61.6414 74.9126 52.645 78.6454 43.2611 78.6569Z" fill="#40C782"/>
<path d="M49.8168 23.5973H36.7048V36.7054H23.5967V49.8175H36.7048V62.9256H49.8168V49.8175H62.9249V36.7054H49.8168V23.5973Z" fill="#40C782"/>
</svg>
