<svg width="23" height="36" viewBox="0 0 23 36" fill="none" xmlns="http://www.w3.org/2000/svg">
<path d="M4.36256 35.9873C4.22485 35.9215 4.11018 35.8156 4.03349 35.6836C3.95679 35.5516 3.92163 35.3996 3.93256 35.2474C4.06414 34.1784 4.33999 33.1322 4.75257 32.1374L5.18256 32.3274C7.54767 33.3288 10.1281 33.7141 12.6826 33.4474H12.8926C12.9843 33.4468 13.0747 33.4256 13.157 33.3853C13.2394 33.345 13.3116 33.2866 13.3683 33.2145C13.425 33.1425 13.4647 33.0585 13.4845 32.969C13.5043 32.8794 13.5036 32.7866 13.4826 32.6974C13.4326 32.3374 13.1226 32.1574 12.7026 32.1774C11.7934 32.2323 10.8817 32.2323 9.97257 32.1774C7.48622 32.0494 5.10639 31.1276 3.18256 29.5473C1.44636 28.0366 0.354914 25.9181 0.132577 23.6274C-0.156666 21.7812 0.0291556 19.8918 0.672555 18.1374C1.27129 16.581 2.31459 15.2352 3.67255 14.2674C3.78869 14.1936 3.92526 14.1586 4.06257 14.1673C4.78147 14.1931 5.47695 14.4296 6.06257 14.8474C7.06685 15.5501 8.15111 16.1308 9.29255 16.5774C11.6903 17.6361 14.1899 18.447 16.7526 18.9974L16.9526 19.0574C17.0024 19.8689 17.0992 20.677 17.2426 21.4774C17.4118 22.3582 17.6802 23.217 18.0425 24.0374C19.41 27.0662 20.4557 30.2302 21.1626 33.4774C21.2826 33.9774 21.3926 34.4774 21.4926 34.9774C21.6126 35.5174 21.4926 35.6874 21.1026 35.9774L4.36256 35.9873ZM7.03257 20.2373L6.75257 19.9873C6.37666 19.6669 5.92604 19.4463 5.44236 19.346C4.95868 19.2457 4.45755 19.2688 3.98518 19.4133C3.51281 19.5578 3.08446 19.8189 2.73969 20.1727C2.39493 20.5265 2.14483 20.9614 2.01255 21.4374C1.8361 22.0202 1.82595 22.6408 1.98319 23.2292C2.14044 23.8175 2.45885 24.3503 2.90257 24.7674C4.10257 25.9474 5.39258 27.0274 6.66258 28.1374C6.78059 28.2379 6.9329 28.2888 7.08762 28.2795C7.24235 28.2701 7.38746 28.2013 7.49256 28.0874C8.49256 27.2074 9.57257 26.3373 10.5626 25.4173C11.0322 24.9798 11.4334 24.4742 11.7526 23.9173C12.0116 23.514 12.1703 23.0546 12.2152 22.5773C12.2602 22.1001 12.1901 21.619 12.0109 21.1744C11.8317 20.7298 11.5486 20.3346 11.1853 20.022C10.8219 19.7093 10.3889 19.4883 9.92255 19.3774C9.4078 19.2529 8.86927 19.2668 8.36167 19.4179C7.85407 19.5689 7.39551 19.8517 7.03257 20.2373Z" fill="white"/>
<path d="M4.68359 12.8173C4.90634 12.4631 5.23456 12.1877 5.62204 12.0299C6.00952 11.872 6.43676 11.8396 6.8436 11.9373C7.6477 12.0905 8.43244 12.332 9.18359 12.6574C10.9349 13.445 12.8242 13.8799 14.7436 13.9373C15.5268 13.9892 16.3054 14.0961 17.0736 14.2573C17.9258 14.4181 18.7338 14.7591 19.4436 15.2573C19.513 15.3242 19.5965 15.3749 19.6879 15.4055C19.7793 15.4362 19.8764 15.4461 19.9721 15.4346C20.0678 15.4232 20.1598 15.3905 20.2413 15.3391C20.3229 15.2877 20.392 15.2188 20.4436 15.1373C20.4959 15.062 20.5312 14.9762 20.5469 14.8859C20.5627 14.7955 20.5585 14.7028 20.5347 14.6143C20.5109 14.5257 20.468 14.4434 20.4091 14.3731C20.3502 14.3028 20.2766 14.2463 20.1936 14.2073C19.7536 13.9273 19.2736 13.7073 18.8236 13.4373C18.6892 13.3652 18.5886 13.2431 18.5436 13.0974C18.0906 10.4282 18.0065 7.70942 18.2936 5.01734C18.4736 3.41734 18.8136 1.83732 19.0836 0.247324C19.0943 0.182567 19.111 0.118953 19.1336 0.0573214C19.7967 -0.0831605 20.4885 0.0368389 21.0656 0.392404C21.6426 0.74797 22.0609 1.31189 22.2336 1.96736C22.3785 2.37545 22.4562 2.80432 22.4636 3.23731C22.5236 6.57731 22.6136 9.90731 22.5636 13.2373C22.5636 14.9473 22.2136 16.6573 22.0236 18.3673C22.0109 18.4382 21.9942 18.5083 21.9736 18.5773L20.2736 18.3474C16.6754 17.8256 13.1575 16.8511 9.80359 15.4473C8.7518 15.0133 7.74667 14.4739 6.80359 13.8374C6.13608 13.4462 5.43697 13.1117 4.71359 12.8374" fill="white"/>
<path d="M16.682 0.0373535H17.822C16.8001 4.25942 16.593 8.63766 17.212 12.9373C16.702 12.8673 16.212 12.7873 15.762 12.7373C14.762 12.6273 13.762 12.6173 12.762 12.4273C11.8692 12.2086 10.9909 11.9348 10.132 11.6073C9.31203 11.3273 8.51201 11.0073 7.68201 10.7673C6.87643 10.5579 6.1741 10.0636 5.70521 9.37585C5.23631 8.68814 5.03267 7.85374 5.13203 7.02734C5.194 6.62181 5.35763 6.23856 5.60767 5.91333C5.85772 5.5881 6.18603 5.33141 6.56202 5.1673C6.68462 5.12003 6.80476 5.06666 6.922 5.00732C7.19398 4.83838 7.4997 4.73113 7.8176 4.69312C8.13551 4.6551 8.45787 4.68729 8.762 4.78735C9.86686 4.97417 10.9824 5.09105 12.102 5.13733C12.8915 5.19294 13.6791 5.00514 14.3586 4.59924C15.0381 4.19335 15.5767 3.58886 15.902 2.86731C16.303 2.08622 16.5605 1.23944 16.662 0.36731C16.662 0.26731 16.662 0.157354 16.662 0.0373535" fill="white"/>
<path d="M9.11328 3.54724L9.3233 3.32727C10.2077 2.48872 10.9777 1.53717 11.6133 0.497251C11.6961 0.336336 11.825 0.203796 11.9836 0.116514C12.1421 0.0292315 12.323 -0.00881936 12.5033 0.00726098C13.4433 0.00726098 14.3733 0.00726098 15.3333 0.00726098C15.2731 1.10118 14.8748 2.14944 14.1933 3.00726C13.9762 3.27233 13.7031 3.48603 13.3936 3.63299C13.0841 3.77996 12.7459 3.85652 12.4033 3.85724C11.3033 3.85724 10.2233 3.73723 9.12329 3.66723C9.12821 3.62739 9.12821 3.58709 9.12329 3.54724" fill="white"/>
<path d="M7.04223 26.8373C6.04223 25.9873 5.16225 25.2073 4.28225 24.3873C3.76266 23.9596 3.39164 23.3786 3.22225 22.7273C3.11451 22.3436 3.14335 21.9344 3.30385 21.5696C3.46436 21.2048 3.74658 20.9071 4.10226 20.7273C4.47012 20.5674 4.88103 20.5356 5.2691 20.6372C5.65716 20.7387 5.99987 20.9677 6.24224 21.2873L6.44225 21.5673C6.49304 21.6828 6.57634 21.781 6.682 21.8499C6.78765 21.9189 6.91109 21.9556 7.03725 21.9556C7.16342 21.9556 7.28685 21.9189 7.39251 21.8499C7.49816 21.781 7.58146 21.6828 7.63225 21.5673C7.72444 21.4199 7.83165 21.2825 7.95223 21.1573C8.21749 20.863 8.57573 20.6687 8.96706 20.6068C9.3584 20.5449 9.75913 20.6192 10.1023 20.8173C10.4499 21.0313 10.7089 21.3633 10.8319 21.7526C10.9549 22.1418 10.9337 22.5623 10.7722 22.9373C10.5752 23.4237 10.2828 23.8657 9.91225 24.2373C9.00225 25.1273 8.03223 25.9473 7.04223 26.8373Z" fill="white"/>
</svg>
