<svg width="42" height="42" viewBox="0 0 42 42" fill="none" xmlns="http://www.w3.org/2000/svg">
<path d="M41.023 26.7216C41.023 26.9115 40.9122 27.1173 40.8489 27.3072C40.569 28.1317 40.0089 28.8319 39.266 29.2858C38.0472 29.9981 36.8442 30.742 35.6096 31.4543C35.5114 31.5097 35.4256 31.5846 35.3575 31.6745C35.2895 31.7643 35.2405 31.8672 35.2139 31.9767C34.9606 33.0847 34.6915 34.1769 34.4383 35.2849C34.2799 36.1392 33.8064 36.9029 33.1116 37.4247C32.4169 37.9465 31.5515 38.1884 30.6869 38.1024C29.2465 38.1024 27.8219 37.8966 26.3973 37.8016C26.2014 37.8014 26.0115 37.8685 25.8591 37.9916C25.0519 38.6722 24.2763 39.3687 23.469 40.0651C22.8244 40.6659 21.976 41.0001 21.0947 41.0001C20.2135 41.0001 19.3651 40.6659 18.7205 40.0651C17.929 39.3845 17.1376 38.6881 16.362 38.0233C16.2043 37.8861 16.0011 37.8127 15.7921 37.8175C14.4942 37.8966 13.1963 37.9916 11.8983 38.1182C11.4322 38.202 10.954 38.192 10.4918 38.0888C10.0296 37.9855 9.59268 37.7912 9.20651 37.517C8.82034 37.2429 8.49271 36.8944 8.24282 36.4921C7.99294 36.0898 7.82579 35.6417 7.75117 35.1741C7.48209 34.1136 7.24466 33.0372 6.95974 32.0083C6.92162 31.8909 6.85984 31.7826 6.77816 31.69C6.69648 31.5974 6.59666 31.5226 6.4849 31.4702L2.97094 29.365C2.55137 29.1614 2.17675 28.8759 1.8691 28.5254C1.56145 28.1749 1.32698 27.7664 1.1795 27.324C1.03202 26.8816 0.974515 26.4141 1.01033 25.9491C1.04615 25.4842 1.17458 25.031 1.38808 24.6164C1.84711 23.4926 2.30617 22.3845 2.74937 21.2607C2.81217 21.0705 2.81217 20.8652 2.74937 20.675C2.30617 19.5512 1.8313 18.4274 1.35644 17.2877C0.960225 16.4614 0.90408 15.5126 1.20008 14.6453C1.49607 13.7781 2.12058 13.0616 2.9393 12.6499C4.01565 12.0009 5.092 11.3836 6.10503 10.7347C6.28652 10.6182 6.42537 10.446 6.50075 10.244C6.91229 8.97769 7.30797 7.69559 7.70369 6.41347C7.92401 5.6153 8.42033 4.92114 9.10435 4.45451C9.78836 3.98787 10.6157 3.77899 11.4393 3.86504L15.5547 4.19743C15.6948 4.21911 15.838 4.20752 15.9728 4.16352C16.1075 4.11952 16.23 4.04434 16.3303 3.94416C16.8685 3.43765 17.4541 2.97863 17.9923 2.47211C18.6658 1.74162 19.5422 1.22902 20.509 1.00006H21.443C22.4328 1.25825 23.3212 1.81008 23.9914 2.58292C24.5137 3.05778 25.0835 3.5168 25.5742 4.00749C25.6793 4.11103 25.8067 4.18914 25.9466 4.23578C26.0866 4.28243 26.2353 4.29639 26.3815 4.2766C27.7269 4.14997 29.0724 4.05498 30.4336 3.96001C31.3218 3.84854 32.219 4.08183 32.9404 4.61184C33.6618 5.14185 34.1525 5.92827 34.3116 6.80919C34.5807 7.90137 34.834 9.00935 35.1189 10.1015C35.1648 10.2924 35.2843 10.4574 35.4513 10.5606C36.6859 11.3203 37.9206 12.0485 39.171 12.7924C39.6074 13.0413 39.9856 13.3803 40.2804 13.7871C40.5752 14.1938 40.7798 14.6587 40.8805 15.1509C40.8805 15.23 40.8805 15.2933 40.8805 15.3724V16.3855C40.7697 16.7179 40.6589 17.0661 40.5323 17.3985C40.0733 18.5065 39.5984 19.6145 39.171 20.7384C39.0998 20.938 39.0998 21.1561 39.171 21.3557C39.7409 22.8277 40.3265 24.284 40.8963 25.7561L41.023 26.7216ZM11.7875 6.27097C10.5054 6.27097 10.2046 6.36598 9.90389 7.44233C9.47652 8.80359 9.04912 10.149 8.63757 11.4945C8.51561 11.9222 8.23171 12.2856 7.84614 12.5075C6.61151 13.2197 5.40854 13.9479 4.18973 14.676C4.01944 14.7381 3.86518 14.8374 3.73813 14.9667C3.61108 15.096 3.51444 15.252 3.4553 15.4234C3.39616 15.5947 3.37601 15.7771 3.39627 15.9572C3.41653 16.1374 3.47672 16.3107 3.57244 16.4646C4.09479 17.7467 4.61713 19.0289 5.1553 20.311C5.26153 20.5278 5.31674 20.766 5.31674 21.0075C5.31674 21.2489 5.26153 21.4871 5.1553 21.7039C4.6013 22.9702 4.09479 24.2365 3.57244 25.5186C3.47034 25.6724 3.4045 25.8475 3.37994 26.0305C3.35539 26.2135 3.37273 26.3997 3.43066 26.575C3.48859 26.7503 3.58561 26.9101 3.71436 27.0425C3.84312 27.1748 4.00028 27.2762 4.17394 27.3389L8.22606 29.7449C8.42374 29.8558 8.59525 30.0079 8.72906 30.1909C8.86287 30.3738 8.95584 30.5834 9.00165 30.8054C9.30239 32.1191 9.6348 33.4171 9.95138 34.715C9.96937 34.9305 10.0491 35.1362 10.1811 35.3074C10.313 35.4787 10.4916 35.6083 10.6953 35.6806C11.0087 35.7441 11.3317 35.7441 11.6451 35.6806C13.2279 35.5856 14.6366 35.459 16.1245 35.3324C16.3452 35.3118 16.5677 35.3378 16.7776 35.4087C16.9876 35.4796 17.1803 35.5938 17.3433 35.7439L20.1133 38.1973C20.2262 38.3254 20.3651 38.4279 20.5206 38.4981C20.6762 38.5683 20.8449 38.6046 21.0156 38.6046C21.1862 38.6046 21.355 38.5683 21.5106 38.4981C21.6661 38.4279 21.8049 38.3254 21.9178 38.1973C22.8201 37.4059 23.7381 36.6145 24.6087 35.8231C24.8141 35.6213 25.0656 35.4726 25.3414 35.3899C25.6172 35.3072 25.909 35.2929 26.1916 35.3482C27.6953 35.4907 29.199 35.6014 30.7027 35.7122C31.5891 35.7122 31.9848 35.459 32.1906 34.5726C32.4913 33.3063 32.8238 32.0558 33.1087 30.7896C33.152 30.5605 33.2454 30.3437 33.3822 30.1549C33.519 29.9661 33.6959 29.8099 33.9001 29.6974L37.9839 27.2598C38.1492 27.1939 38.298 27.0926 38.42 26.9631C38.542 26.8335 38.6341 26.6788 38.6899 26.5099C38.7458 26.3409 38.7639 26.1618 38.7431 25.9851C38.7223 25.8084 38.663 25.6383 38.5695 25.487C38.0472 24.2048 37.5248 22.9227 36.9867 21.6406C36.8804 21.4238 36.8252 21.1856 36.8252 20.9441C36.8252 20.7027 36.8804 20.4645 36.9867 20.2477C37.5248 18.9972 38.0314 17.7309 38.5695 16.4646C38.6774 16.3064 38.7475 16.1255 38.7744 15.9358C38.8013 15.7462 38.7842 15.5529 38.7246 15.3708C38.6649 15.1888 38.5643 15.0229 38.4304 14.886C38.2964 14.7491 38.1329 14.6447 37.9522 14.581L33.9001 12.1592C33.7106 12.0518 33.5452 11.9063 33.4145 11.732C33.2838 11.5577 33.1904 11.3583 33.1403 11.1462C32.8554 9.83244 32.523 8.53449 32.2064 7.23655C32.1928 7.07948 32.1475 6.92681 32.0734 6.78765C31.9994 6.64849 31.8979 6.52569 31.7753 6.42666C31.6526 6.32764 31.5112 6.25439 31.3595 6.21132C31.2078 6.16825 31.0491 6.15624 30.8927 6.17601L25.9541 6.55593C25.748 6.57836 25.5395 6.55599 25.3428 6.49042C25.1461 6.42486 24.9659 6.31762 24.8144 6.17601L22.0603 3.75423C21.9474 3.61811 21.8059 3.50858 21.6459 3.43338C21.4858 3.35819 21.3111 3.31919 21.1343 3.31919C20.9575 3.31919 20.7828 3.35819 20.6228 3.43338C20.4627 3.50858 20.3212 3.61811 20.2083 3.75423L17.4541 6.17601C17.3014 6.31978 17.1181 6.42719 16.918 6.49023C16.718 6.55327 16.5063 6.57033 16.2987 6.54008L11.8825 6.20769" fill="#FF692E"/>
<path d="M11.7875 6.27097C10.5054 6.27097 10.2046 6.36598 9.90389 7.44233C9.47652 8.80359 9.04912 10.149 8.63757 11.4945C8.51561 11.9222 8.23171 12.2856 7.84614 12.5075C6.61151 13.2197 5.40854 13.9479 4.18973 14.676C4.01944 14.7381 3.86518 14.8374 3.73813 14.9667C3.61108 15.096 3.51444 15.252 3.4553 15.4234C3.39616 15.5947 3.37601 15.7771 3.39627 15.9572C3.41653 16.1374 3.47672 16.3107 3.57244 16.4646C4.09479 17.7467 4.61713 19.0289 5.1553 20.311C5.26153 20.5278 5.31674 20.766 5.31674 21.0075C5.31674 21.2489 5.26153 21.4871 5.1553 21.7039C4.6013 22.9702 4.09479 24.2365 3.57244 25.5186C3.47034 25.6724 3.4045 25.8475 3.37994 26.0305C3.35539 26.2135 3.37273 26.3997 3.43066 26.575C3.48859 26.7503 3.58561 26.9101 3.71436 27.0425C3.84312 27.1748 4.00028 27.2762 4.17394 27.3389L8.22606 29.7449C8.42374 29.8558 8.59525 30.0079 8.72906 30.1909C8.86287 30.3738 8.95584 30.5834 9.00165 30.8054C9.30239 32.1191 9.63481 33.4171 9.95138 34.715C9.96937 34.9305 10.0491 35.1362 10.1811 35.3074C10.313 35.4787 10.4916 35.6083 10.6953 35.6806C11.0087 35.7441 11.3317 35.7441 11.6451 35.6806C13.2279 35.5856 14.6366 35.459 16.1245 35.3324C16.3452 35.3118 16.5677 35.3378 16.7776 35.4087C16.9876 35.4796 17.1803 35.5938 17.3433 35.7439L20.1133 38.1973C20.2262 38.3254 20.3651 38.4279 20.5206 38.4981C20.6762 38.5683 20.8449 38.6046 21.0156 38.6046C21.1862 38.6046 21.355 38.5683 21.5106 38.4981C21.6661 38.4279 21.8049 38.3254 21.9178 38.1973C22.8201 37.4059 23.7381 36.6145 24.6087 35.8231C24.8141 35.6213 25.0656 35.4726 25.3414 35.3899C25.6172 35.3072 25.909 35.2929 26.1916 35.3482C27.6953 35.4907 29.199 35.6014 30.7027 35.7122C31.5891 35.7122 31.9848 35.459 32.1906 34.5726C32.4913 33.3063 32.8238 32.0558 33.1087 30.7896C33.152 30.5605 33.2454 30.3437 33.3822 30.1549C33.519 29.9661 33.6959 29.8099 33.9001 29.6974L37.9839 27.2598C38.1492 27.1939 38.298 27.0926 38.42 26.9631C38.542 26.8335 38.6341 26.6788 38.6899 26.5099C38.7458 26.3409 38.7639 26.1618 38.7431 25.9851C38.7223 25.8084 38.663 25.6383 38.5695 25.487C38.0472 24.2048 37.5248 22.9227 36.9867 21.6406C36.8804 21.4238 36.8252 21.1856 36.8252 20.9441C36.8252 20.7027 36.8804 20.4645 36.9867 20.2477C37.5248 18.9972 38.0314 17.7309 38.5695 16.4646C38.6774 16.3064 38.7475 16.1255 38.7744 15.9358C38.8013 15.7462 38.7842 15.5529 38.7246 15.3708C38.6649 15.1888 38.5643 15.0229 38.4304 14.886C38.2964 14.7491 38.1329 14.6447 37.9522 14.581L33.9001 12.1592C33.7106 12.0518 33.5452 11.9063 33.4145 11.732C33.2838 11.5577 33.1904 11.3583 33.1403 11.1462C32.8554 9.83244 32.523 8.53449 32.2064 7.23655C32.1928 7.07948 32.1475 6.92681 32.0734 6.78765C31.9994 6.64849 31.8979 6.52569 31.7753 6.42666C31.6526 6.32764 31.5112 6.25439 31.3595 6.21132C31.2078 6.16825 31.0491 6.15624 30.8927 6.17601L25.9541 6.55593C25.748 6.57836 25.5395 6.55599 25.3428 6.49042C25.1461 6.42486 24.9659 6.31762 24.8144 6.17601L22.0603 3.75423C21.9474 3.61811 21.8059 3.50858 21.6459 3.43338C21.4858 3.35819 21.3111 3.31919 21.1343 3.31919C20.9575 3.31919 20.7828 3.35819 20.6228 3.43338C20.4627 3.50858 20.3212 3.61811 20.2083 3.75423L17.4541 6.17601C17.3014 6.31978 17.1181 6.42719 16.918 6.49023C16.718 6.55327 16.5063 6.57033 16.2987 6.54008L11.8825 6.20769M41.023 26.7216C41.023 26.9115 40.9122 27.1173 40.8489 27.3072C40.569 28.1317 40.0089 28.8319 39.266 29.2858C38.0472 29.9981 36.8442 30.742 35.6096 31.4543C35.5114 31.5097 35.4256 31.5846 35.3575 31.6745C35.2895 31.7643 35.2405 31.8672 35.2139 31.9767C34.9606 33.0847 34.6915 34.1769 34.4383 35.2849C34.2799 36.1392 33.8064 36.9029 33.1116 37.4247C32.4169 37.9465 31.5515 38.1884 30.6869 38.1024C29.2465 38.1024 27.8219 37.8966 26.3973 37.8016C26.2014 37.8014 26.0115 37.8685 25.8591 37.9916C25.0519 38.6722 24.2763 39.3687 23.469 40.0651C22.8244 40.6659 21.976 41.0001 21.0947 41.0001C20.2135 41.0001 19.3651 40.6659 18.7205 40.0651C17.929 39.3845 17.1376 38.6881 16.362 38.0233C16.2043 37.8861 16.0011 37.8127 15.7921 37.8175C14.4942 37.8966 13.1963 37.9916 11.8983 38.1182C11.4322 38.202 10.954 38.192 10.4918 38.0888C10.0296 37.9855 9.59268 37.7912 9.20651 37.517C8.82034 37.2429 8.49271 36.8944 8.24282 36.4921C7.99294 36.0898 7.82579 35.6417 7.75117 35.1741C7.48209 34.1136 7.24466 33.0372 6.95974 32.0083C6.92162 31.8909 6.85984 31.7826 6.77816 31.69C6.69648 31.5974 6.59666 31.5226 6.4849 31.4702L2.97094 29.365C2.55137 29.1614 2.17675 28.8759 1.8691 28.5254C1.56145 28.1749 1.32698 27.7664 1.1795 27.324C1.03202 26.8816 0.974515 26.4141 1.01033 25.9491C1.04615 25.4842 1.17458 25.031 1.38808 24.6164C1.84711 23.4926 2.30617 22.3845 2.74937 21.2607C2.81217 21.0705 2.81217 20.8652 2.74937 20.675C2.30617 19.5512 1.8313 18.4274 1.35644 17.2877C0.960225 16.4614 0.90408 15.5126 1.20008 14.6453C1.49607 13.7781 2.12058 13.0616 2.9393 12.6499C4.01565 12.0009 5.092 11.3836 6.10503 10.7347C6.28652 10.6182 6.42537 10.446 6.50075 10.244C6.91229 8.97769 7.30797 7.69559 7.70369 6.41347C7.92401 5.6153 8.42033 4.92114 9.10435 4.45451C9.78836 3.98787 10.6157 3.77899 11.4393 3.86504L15.5547 4.19743C15.6948 4.21911 15.838 4.20752 15.9728 4.16352C16.1075 4.11952 16.23 4.04434 16.3303 3.94416C16.8685 3.43765 17.4541 2.97863 17.9923 2.47211C18.6658 1.74162 19.5422 1.22902 20.509 1.00006H21.443C22.4328 1.25825 23.3212 1.81008 23.9914 2.58292C24.5137 3.05778 25.0835 3.5168 25.5742 4.00749C25.6793 4.11103 25.8067 4.18914 25.9466 4.23578C26.0866 4.28243 26.2353 4.29639 26.3815 4.2766C27.7269 4.14997 29.0724 4.05498 30.4336 3.96001C31.3218 3.84854 32.219 4.08183 32.9404 4.61184C33.6618 5.14185 34.1525 5.92827 34.3116 6.80919C34.5807 7.90137 34.834 9.00935 35.1189 10.1015C35.1648 10.2924 35.2843 10.4574 35.4513 10.5606C36.6859 11.3203 37.9206 12.0485 39.171 12.7924C39.6074 13.0413 39.9856 13.3803 40.2804 13.7871C40.5752 14.1938 40.7798 14.6587 40.8805 15.1509C40.8805 15.23 40.8805 15.2933 40.8805 15.3724V16.3855C40.7697 16.7179 40.6589 17.0661 40.5323 17.3985C40.0733 18.5065 39.5984 19.6145 39.171 20.7384C39.0998 20.938 39.0998 21.1561 39.171 21.3557C39.7409 22.8277 40.3265 24.284 40.8963 25.7561L41.023 26.7216Z" stroke="#FF692E" stroke-width="0.2"/>
<path d="M21.0161 33.9236C18.4685 33.9205 15.979 33.1622 13.8622 31.7445C11.7455 30.3268 10.0965 28.3135 9.12368 25.9589C8.15091 23.6043 7.89804 21.0141 8.39698 18.5158C8.89592 16.0175 10.1243 13.7232 11.9268 11.9228C13.7294 10.1225 16.0252 8.89692 18.5242 8.40105C21.0231 7.90518 23.6129 8.16127 25.9663 9.13693C28.3197 10.1126 30.3311 11.764 31.7461 13.8825C33.1612 16.001 33.9164 18.4915 33.9164 21.0391C33.9123 24.4578 32.5513 27.7349 30.1325 30.1508C27.7136 32.5666 24.4348 33.9236 21.0161 33.9236ZM10.5059 21.0233C10.5028 23.1076 11.1176 25.1461 12.2727 26.8811C13.4278 28.616 15.0712 29.9697 16.9953 30.7709C18.9195 31.5722 21.038 31.785 23.0831 31.3826C25.1281 30.9802 27.0081 29.9806 28.4852 28.5101C29.9624 27.0395 30.9704 25.1641 31.382 23.1209C31.7936 21.0776 31.5903 18.9582 30.7978 17.0305C30.0052 15.1027 28.659 13.4532 26.9292 12.2903C25.1994 11.1275 23.1637 10.5035 21.0794 10.4973C18.2821 10.493 15.5974 11.5992 13.615 13.5727C11.6325 15.5463 10.5143 18.226 10.5059 21.0233Z" fill="#FF692E"/>
<path d="M10.5059 21.0233C10.5028 23.1076 11.1176 25.1461 12.2727 26.8811C13.4278 28.616 15.0712 29.9697 16.9953 30.7709C18.9195 31.5722 21.038 31.785 23.0831 31.3826C25.1281 30.9802 27.0081 29.9806 28.4852 28.5101C29.9624 27.0395 30.9704 25.1641 31.382 23.1209C31.7936 21.0776 31.5903 18.9582 30.7978 17.0305C30.0052 15.1027 28.659 13.4532 26.9292 12.2903C25.1994 11.1275 23.1637 10.5035 21.0794 10.4973C18.2821 10.493 15.5974 11.5992 13.615 13.5727C11.6325 15.5463 10.5143 18.226 10.5059 21.0233M21.0161 33.9236C18.4685 33.9205 15.979 33.1622 13.8622 31.7445C11.7455 30.3268 10.0965 28.3135 9.12368 25.9589C8.15091 23.6043 7.89804 21.0141 8.39698 18.5158C8.89592 16.0175 10.1243 13.7232 11.9268 11.9228C13.7294 10.1225 16.0252 8.89692 18.5242 8.40105C21.0231 7.90518 23.6129 8.16127 25.9663 9.13693C28.3197 10.1126 30.3311 11.764 31.7461 13.8825C33.1612 16.001 33.9164 18.4915 33.9164 21.0391C33.9123 24.4578 32.5513 27.7349 30.1325 30.1508C27.7136 32.5666 24.4348 33.9236 21.0161 33.9236Z" stroke="#FF692E" stroke-width="0.2"/>
<path d="M19.9551 22.9544C20.0318 22.8091 20.1218 22.6713 20.2241 22.5428C22.1341 20.6117 24.0547 18.6912 25.9858 16.7812C26.1279 16.6081 26.3173 16.48 26.5308 16.4126C26.7444 16.3452 26.9729 16.3413 27.1887 16.4013C27.4009 16.4488 27.5941 16.5585 27.7435 16.7164C27.893 16.8743 27.9919 17.0733 28.0276 17.2877C28.0697 17.5058 28.0523 17.7311 27.977 17.94C27.9018 18.1489 27.7717 18.3337 27.6003 18.4749L22.0286 24.0465C21.6012 24.4739 21.1897 24.9013 20.7623 25.3128C20.6539 25.4453 20.5175 25.5521 20.3628 25.6254C20.2081 25.6986 20.0391 25.7366 19.868 25.7366C19.6968 25.7366 19.5278 25.6986 19.3732 25.6254C19.2185 25.5521 19.0821 25.4453 18.9737 25.3128C17.3908 23.73 15.9188 22.2896 14.415 20.77C14.2678 20.6778 14.1429 20.5541 14.0494 20.4077C13.9559 20.2613 13.8961 20.0959 13.8744 19.9235C13.8527 19.7511 13.8696 19.5761 13.9239 19.4111C13.9782 19.2461 14.0685 19.0952 14.1883 18.9694C14.3082 18.8436 14.4544 18.746 14.6166 18.6838C14.7788 18.6215 14.9528 18.5961 15.126 18.6093C15.2992 18.6226 15.4673 18.6742 15.6181 18.7605C15.7689 18.8467 15.8987 18.9654 15.9979 19.108L19.4802 22.5745C19.6102 22.7137 19.7476 22.8457 19.8917 22.9702" fill="#FF692E"/>
<path d="M19.9551 22.9544C20.0318 22.8091 20.1218 22.6713 20.2241 22.5428C22.1341 20.6117 24.0547 18.6912 25.9858 16.7812C26.1279 16.6081 26.3173 16.48 26.5308 16.4126C26.7444 16.3452 26.9729 16.3413 27.1887 16.4013C27.4009 16.4488 27.5941 16.5585 27.7435 16.7164C27.893 16.8743 27.9919 17.0733 28.0276 17.2877C28.0697 17.5058 28.0523 17.7311 27.977 17.94C27.9018 18.1489 27.7717 18.3337 27.6003 18.4749L22.0286 24.0465C21.6012 24.4739 21.1897 24.9013 20.7623 25.3128C20.6539 25.4453 20.5175 25.5521 20.3628 25.6254C20.2081 25.6986 20.0391 25.7366 19.868 25.7366C19.6968 25.7366 19.5278 25.6986 19.3732 25.6254C19.2185 25.5521 19.0821 25.4453 18.9737 25.3128C17.3908 23.73 15.9188 22.2896 14.415 20.77C14.2678 20.6778 14.1429 20.5541 14.0494 20.4077C13.9559 20.2613 13.8961 20.0959 13.8744 19.9235C13.8527 19.7511 13.8696 19.5761 13.9239 19.4111C13.9782 19.2461 14.0685 19.0952 14.1883 18.9694C14.3082 18.8436 14.4544 18.746 14.6166 18.6838C14.7788 18.6215 14.9528 18.5961 15.126 18.6093C15.2992 18.6226 15.4673 18.6742 15.6181 18.7605C15.7689 18.8467 15.8987 18.9654 15.9979 19.108L19.4802 22.5745C19.6102 22.7137 19.7476 22.8457 19.8917 22.9702" stroke="#FF692E" stroke-width="0.2"/>
</svg>
