<svg width="57" height="57" viewBox="0 0 57 57" fill="none" xmlns="http://www.w3.org/2000/svg">
<path d="M16.5553 20.0973C16.963 20.3404 17.5009 20.193 17.7351 19.7762C17.939 19.4198 18.4576 19.4162 18.6634 19.7762C18.9183 20.2061 19.4486 20.3237 19.8519 20.0973C20.2684 19.863 20.4071 19.3339 20.1729 18.9175C19.7652 18.1974 19.0278 17.7725 18.2035 17.7725C17.3707 17.7725 16.6333 18.1974 16.2255 18.9175C15.9913 19.3339 16.1389 19.863 16.5553 20.0973Z" fill="#40C782"/>
<path d="M25.5513 20.0973C25.9678 20.3404 26.497 20.193 26.7312 19.7762C26.9311 19.4265 27.4492 19.4087 27.6594 19.7762C27.904 20.1883 28.4303 20.332 28.848 20.0973C29.9387 19.4837 28.8224 17.7725 27.1997 17.7725C26.3755 17.7725 25.6381 18.1974 25.2217 18.9175C24.9874 19.3339 25.1348 19.863 25.5513 20.0973Z" fill="#40C782"/>
<path d="M24.0768 23.1684C23.7385 22.8303 23.1832 22.8303 22.8449 23.1684C22.7494 23.2726 22.6541 23.2726 22.5499 23.1684C22.2116 22.8303 21.6649 22.8303 21.3267 23.1684C20.9796 23.5068 20.9796 24.0533 21.3267 24.3918C22.7281 25.8258 25.1635 24.2554 24.0768 23.1684Z" fill="#40C782"/>
<path d="M18.6806 25.8753C18.325 26.1964 18.299 26.7513 18.6198 27.0987C20.7965 29.4845 24.5662 29.5197 26.775 27.0987C27.0958 26.7513 27.0785 26.1964 26.7229 25.8753C26.3671 25.5542 25.8206 25.5805 25.4909 25.9359C24.115 27.4929 21.498 27.6646 19.9039 25.9359C19.5829 25.5805 19.0364 25.5542 18.6806 25.8753Z" fill="#40C782"/>
<path d="M56.3323 45.1435C57.2224 44.3443 57.2227 42.9587 56.3323 42.1592C54.9567 40.8444 54.6999 40.8454 54.7967 40.5542L55.404 38.6801C55.7747 37.5125 55.0555 36.3452 53.9118 36.0948L51.9858 35.6873C51.6676 35.6132 51.7991 35.3554 51.3611 33.5443C51.1124 32.4072 49.9404 31.6824 48.7758 32.0523L46.902 32.6594C46.611 32.7565 46.5821 32.4671 45.2969 31.1153C44.5336 30.2736 43.0674 30.2736 42.3126 31.1153C41.0151 32.4724 40.9885 32.756 40.699 32.6594L38.825 32.0523C37.7009 31.6894 36.4958 32.3743 36.2398 33.5443L35.832 35.4704C35.7838 35.7584 35.3951 35.6997 34.9732 35.8258C32.8303 34.7761 31.0084 34.0475 30.1322 33.7091V31.705C32.2317 29.753 33.5937 26.9855 33.7759 23.8801C35.3288 23.6543 36.5348 22.3008 36.5348 20.6784C36.5348 19.3254 35.7019 18.1626 34.522 17.6856C36.1704 12.8446 36.3352 9.39178 35.0425 7.1619C34.3138 5.89531 33.134 5.07986 31.529 4.74182C29.1693 -0.194493 24.979 -0.0559727 22.6886 0.022395L22.2375 0.030867C17.4833 0.126179 14.0564 1.65329 12.0698 4.57704C9.25892 8.68901 10.0832 14.467 10.8639 17.6856C9.6927 18.1626 8.86846 19.3254 8.86846 20.6784C8.86846 22.3008 10.0571 23.6454 11.61 23.8801C11.7227 26.8297 12.9373 29.5539 15.0802 31.5923C15.1408 31.6533 15.2016 31.7139 15.2711 31.766V33.7091C13.8482 34.2559 9.85759 35.8779 6.06629 38.1858C2.82165 40.1725 0.618038 43.4258 0.0107944 47.1218C-0.0413095 47.4514 0.0976342 47.7809 0.375204 47.9716C11.3071 55.5421 23.3821 57.9642 36.0316 52.7694C36.2034 53.2849 36.1257 54.4719 37.2027 55.0772C37.6972 55.3635 38.2872 55.4241 38.825 55.2504L40.699 54.6434C40.9888 54.5467 41.0173 54.8328 42.3126 56.1875C43.1299 57.0791 44.5033 57.0534 45.2969 56.1875C46.5834 54.8343 46.6111 54.5463 46.902 54.6434L48.7758 55.2504C49.885 55.6085 51.1006 54.9495 51.3611 53.7585C51.7793 52.0295 51.6798 51.6747 51.9772 51.6239L53.9118 51.2079C55.065 50.973 55.7707 49.7681 55.404 48.6311C54.8623 46.7922 54.6454 46.6684 54.8747 46.4622L56.3323 45.1435ZM51.6214 49.9235C50.8494 50.0888 50.2421 50.6958 50.0772 51.468C49.6606 53.199 49.7284 53.4986 49.5307 53.5759C49.3562 53.7079 49.1819 53.5094 47.4399 52.9947C46.6851 52.752 45.861 52.9689 45.3317 53.559L44.0043 55.0251C43.8656 55.181 43.7441 55.181 43.5966 55.0251L42.2779 53.559C41.7074 52.9374 40.834 52.7634 40.1698 52.9947L38.2872 53.6022C38.1432 53.6546 37.9822 53.5565 37.9401 53.4027C37.9218 53.3159 37.5058 51.342 37.5324 51.468C37.3709 50.6606 36.697 50.0676 35.9795 49.9235L35.6932 49.863C33.2768 49.2679 33.6587 50.0037 34.4612 47.2862C34.7042 46.5317 34.4786 45.7074 33.8974 45.1783C32.5653 43.9057 32.3445 43.911 32.3445 43.6516C32.3445 43.4108 32.5304 43.4304 33.8974 42.1245C34.4786 41.5954 34.7042 40.7711 34.4612 40.0162C33.9485 38.2799 33.7488 38.0986 33.88 37.9257C33.9507 37.7482 34.2474 37.7693 34.4353 37.7088L34.7389 37.6393C35.6297 37.3941 36.3548 37.4759 36.9686 36.8412C37.2461 36.5807 37.4457 36.2249 37.5324 35.8347C37.9896 33.943 37.8504 33.8932 38.0703 33.7264C38.2791 33.6022 38.4577 33.8022 40.1698 34.3076C40.9246 34.5508 41.7488 34.3339 42.2779 33.7438L43.5966 32.2777C43.7441 32.1218 43.8656 32.1218 44.0043 32.2777L45.3317 33.7438C45.861 34.3339 46.6851 34.5508 47.4399 34.3076C49.059 33.8296 49.3539 33.5949 49.5307 33.7264C49.7331 33.8492 49.6207 33.9458 50.0772 35.8347C50.2421 36.607 50.8494 37.214 51.6214 37.3788C54.4027 38.051 53.9495 37.2741 53.1396 40.0162C52.8967 40.7711 53.1223 41.5954 53.7123 42.1245C55.0537 43.406 55.2651 43.4288 55.2651 43.6516C55.2651 43.8922 54.9814 43.9658 53.7123 45.1783C53.1223 45.7074 52.8967 46.5317 53.1396 47.2862C53.7006 49.1858 53.8408 49.1051 53.7296 49.386C53.565 49.6054 53.4993 49.4701 51.6214 49.9235ZM1.82405 46.8613C2.46603 43.8943 4.3225 41.2917 6.96858 39.6692C8.52153 38.7237 10.1004 37.8909 11.5145 37.214L8.54758 39.8429C7.70716 40.5912 7.79081 41.942 8.76447 42.5672L10.9767 43.9375L8.85978 46.089C8.29595 46.6618 8.20911 47.5378 8.64289 48.2147L10.8205 51.5896C7.81007 50.4615 4.7997 48.8738 1.82405 46.8613ZM18.5244 31.922C15.6328 30.4771 13.4323 27.4439 13.3365 23.6716V19.2992C13.5917 17.6514 13.9348 15.3078 14.5336 13.3652C15.2379 11.0804 16.9881 9.98145 18.5677 9.98145C25.1116 9.8566 28.8614 8.32096 30.4879 13.3652C31.4216 16.168 31.9602 19.7761 32.0668 19.7761C32.0668 19.9891 32.0668 23.2423 32.0668 23.151C32.0668 27.0321 29.9117 30.3381 26.8788 31.8962C24.2139 32.6091 21.4245 32.5917 18.5244 31.922ZM26.8788 33.8133C26.8788 33.9006 26.8788 34.7334 26.8788 34.6461C26.7916 34.7009 22.4299 37.4394 22.706 37.2661C22.6189 37.211 18.2462 34.4442 18.5244 34.6202C18.5244 34.5329 18.5244 33.7433 18.5244 33.8306C21.1072 34.8914 24.1365 34.9396 26.8788 33.8133ZM20.3202 42.8357L19.0276 53.5937C18.7665 53.5731 18.7608 53.5628 18.6718 53.5501C15.7395 49.1691 15.8176 44.6924 16.4509 38.958L17.3618 42.3935C17.4661 42.7754 17.8166 43.0441 18.2033 43.0441C18.7057 43.0441 18.8897 42.6828 19.7823 42.0203L20.3202 42.8357ZM24.1809 38.6369L27.8506 36.2596C27.8273 36.3479 26.611 40.9499 26.688 40.6584C26.6011 40.5883 24.0939 38.5669 24.1809 38.6369ZM17.5353 36.2596L21.2137 38.6369C21.1267 38.7068 18.6108 40.7282 18.6979 40.6584C18.6746 40.5701 17.4582 35.9681 17.5353 36.2596ZM25.0831 42.8357L25.6122 42.0203C26.4816 42.6315 26.752 43.2093 27.4515 43.0009C27.7377 42.9052 27.9459 42.6798 28.0241 42.3935L28.9437 38.9233C29.577 44.6577 29.6551 49.117 26.7575 53.4895C26.6273 53.5153 26.4972 53.5327 26.3583 53.5416L25.0831 42.8357Z" fill="#40C782"/>
<path d="M43.805 36.2859C39.7038 36.2859 36.4395 39.6203 36.4395 43.6516C36.4395 46.5435 38.1226 49.219 40.9334 50.4357H40.9421C45.7368 52.4781 51.1705 48.957 51.1705 43.6516C51.1705 39.5824 47.8738 36.2859 43.805 36.2859ZM47.5615 43.5559L46.6158 44.4666C46.4163 44.6666 46.3209 44.9529 46.3816 45.2215L46.5984 46.5055C46.7113 47.1998 46.0086 47.7199 45.384 47.4251V47.4166C45.3753 47.4166 45.3579 47.4166 45.3492 47.4077C45.2618 47.3621 44.1166 46.7635 44.204 46.8092C43.6023 46.4966 43.2509 46.958 42.2434 47.4077C41.6187 47.7377 40.8814 47.2082 40.9941 46.5055L41.2197 45.2215C41.2718 44.9529 41.1763 44.6666 40.9767 44.4666L40.0398 43.5559C39.5367 43.0615 39.8229 42.194 40.5169 42.0898C40.6043 42.0774 41.897 41.8953 41.8097 41.9076C42.406 41.8081 42.5495 41.2208 42.6425 41.0659L43.0242 40.2678C43.3451 39.6345 44.2474 39.6345 44.5685 40.2678L45.1497 41.4391C45.2712 41.6818 45.514 41.864 45.7917 41.9076L47.0756 42.0898C47.7871 42.194 48.0647 43.0615 47.5615 43.5559Z" fill="#40C782"/>
<path d="M42.4053 18.0893L39.8295 21.4193C39.3708 22.0085 39.7812 22.9265 40.5707 22.9265H41.6826V25.9439C41.6705 26.4103 42.0787 26.8517 42.5907 26.8517C43.549 26.7957 43.9524 26.9844 44.3512 26.5861C44.5242 26.4133 44.6168 26.1845 44.6168 25.9376L44.6229 22.9265H45.7226C46.5195 22.9126 46.9386 22.0257 46.4638 21.4189L43.8879 18.0893C43.5221 17.623 42.7915 17.5973 42.4053 18.0893Z" fill="#40C782"/>
<path d="M53.0285 30.2655C53.6886 30.2271 53.9609 30.3551 54.232 30.0842C54.5365 29.78 54.3658 29.481 54.4178 27.8569H55.1696C55.7131 27.8476 56.0013 27.2419 55.6762 26.8263L53.9153 24.5502C53.6646 24.2302 53.1646 24.2146 52.9018 24.5502L51.1409 26.8267C50.993 27.0165 50.9678 27.2782 51.0775 27.4977C51.3298 28.0336 51.9246 27.8036 52.4078 27.8569V29.6449C52.3994 29.9687 52.6826 30.2655 53.0285 30.2655Z" fill="#40C782"/>
<path d="M49.7982 12.6395H50.9101V15.6569C50.8981 16.1262 51.3092 16.5651 51.8182 16.5651L52.9363 16.5588C53.414 16.5714 53.8442 16.1818 53.8444 15.651L53.8504 12.6395H54.9501C55.7444 12.6266 56.1674 11.7408 55.6913 11.1323L53.1154 7.80277C52.9364 7.57445 52.6706 7.4444 52.3741 7.4444C52.0839 7.43847 51.8119 7.57403 51.6327 7.80277L49.057 11.1323C48.5989 11.721 49.0073 12.6395 49.7982 12.6395Z" fill="#40C782"/>
<path d="M39.5316 6.52055H40.6436V9.5375C40.6314 10.0049 41.0406 10.4457 41.5516 10.4457L42.6697 10.4394C43.1557 10.4522 43.5777 10.0551 43.5777 9.53156L43.5838 6.52055H44.6835C45.4802 6.50666 45.8996 5.6196 45.4247 5.01293L42.8488 1.68336C42.6697 1.45503 42.4041 1.32541 42.1076 1.32541C41.8172 1.31905 41.5454 1.45503 41.3662 1.68336L38.7904 5.01335C38.3317 5.60281 38.7422 6.52055 39.5316 6.52055Z" fill="#40C782"/>
</svg>
