<svg width="33" height="33" viewBox="0 0 33 33" fill="none" xmlns="http://www.w3.org/2000/svg">
<path d="M16.5 32C25.0457 32 32 25.0457 32 16.5C32 7.95435 25.0457 1 16.5 1C7.95426 1 1 7.95435 1 16.5C1 25.0457 7.95435 32 16.5 32ZM16.5 3.06663C23.909 3.06663 29.9334 9.09094 29.9334 16.5C29.9334 23.9091 23.9091 29.9334 16.5 29.9334C9.09094 29.9334 3.06663 23.9091 3.06663 16.5C3.06663 9.09094 9.09103 3.06663 16.5 3.06663Z" fill="#40C782" stroke="#40C782"/>
<path d="M21.021 21.4395C21.2122 21.5945 21.4394 21.6669 21.6668 21.6669C21.9716 21.6669 22.2713 21.5325 22.4727 21.2794C22.8293 20.835 22.7569 20.184 22.3126 19.8275L17.5334 16.0042V8.23351C17.5334 7.66517 17.0685 7.2002 16.5001 7.2002C15.9318 7.2002 15.4668 7.66517 15.4668 8.23351V16.5002C15.4668 16.8154 15.6115 17.1099 15.8543 17.3062L21.021 21.4395Z" fill="#40C782" stroke="#40C782"/>
</svg>
