<svg width="42" height="42" viewBox="0 0 42 42" fill="none" xmlns="http://www.w3.org/2000/svg">
<path d="M11.231 30.5154V33.7214C11.2559 33.8731 11.2559 34.0278 11.231 34.1795C11.1443 34.4023 11.0329 34.7241 10.8472 34.7984C10.7207 34.8352 10.5878 34.8443 10.4575 34.8251C10.3272 34.8058 10.2026 34.7588 10.0921 34.687C9.0523 33.87 8.04963 33.0159 7.03458 32.2113L1.4642 27.6188C0.845267 27.1112 0.845267 26.7523 1.4642 26.2448L9.93118 19.2508C10.2035 19.028 10.4635 18.7928 10.8596 18.9785C11.2557 19.1642 11.2557 19.5355 11.2557 19.9069V23.6824C13.5628 24.0031 15.7652 24.8502 17.6926 26.1581V11.2171H17.1355C16.0091 11.2171 14.8826 11.2171 13.7562 11.2171C13.4917 11.1799 13.2498 11.0479 13.0754 10.8457C12.8773 10.6105 13.0011 10.3134 13.1992 10.0906C15.6171 7.15276 18.0351 4.22318 20.453 1.30182C20.812 0.868571 21.2452 0.905678 21.6909 1.38844L26.8156 7.57776L28.821 9.99161C28.9362 10.0921 29.0163 10.2267 29.0497 10.3759C29.0831 10.525 29.068 10.681 29.0066 10.821C28.9356 10.9577 28.8231 11.0685 28.6852 11.1374C28.5474 11.2064 28.3912 11.2299 28.2392 11.2047H24.4266V19.1394C26.3711 17.9252 28.5784 17.195 30.8634 17.0103V13.1358C30.8352 12.985 30.856 12.8291 30.9229 12.6909C30.9897 12.5528 31.099 12.4397 31.2348 12.3683C31.3796 12.3 31.5429 12.2812 31.6994 12.3147C31.856 12.3483 31.9972 12.4323 32.1013 12.554L39.8008 18.9166L40.6921 19.6593C41.2491 20.1173 41.2491 20.4887 40.6921 20.8972L33.3268 26.9875L32.0889 28.0025C31.9805 28.1218 31.8373 28.204 31.6795 28.2374C31.5217 28.2707 31.3575 28.2535 31.21 28.1882C30.8882 28.0273 30.8511 27.7302 30.8511 27.4083V24.029C30.8511 23.9299 30.8511 23.8309 30.8511 23.67C30.393 23.7814 29.9598 23.8557 29.5513 23.9918C28.0683 24.4872 26.7771 25.4335 25.8583 26.6986C24.9395 27.9636 24.4389 29.4842 24.4266 31.0477C24.4266 34.0557 24.4266 37.0637 24.4266 40.0593C24.4266 40.802 24.2161 41.0001 23.4858 41.0001H18.5962C17.9649 41.0001 17.7421 40.7772 17.7421 40.1459C17.8356 38.8531 17.7228 37.5536 17.4079 36.2962C17.0209 34.9312 16.2946 33.6864 15.2968 32.6777C14.299 31.6691 13.0621 30.9295 11.7013 30.5277L11.4662 30.4659H11.2804M23.0897 32.2979V31.06C23.0884 29.9891 23.2857 28.9272 23.6715 27.9282C24.2791 26.3475 25.3275 24.9743 26.6923 23.9715C28.0571 22.9688 29.6809 22.3787 31.371 22.2712C31.9775 22.2712 32.2127 22.4693 32.2251 23.0758V25.7001C32.2251 25.8239 32.2251 25.9353 32.2251 26.1334L39.3799 20.2287L32.2004 14.287V17.4931C32.2004 18.0872 31.9775 18.3224 31.4081 18.3348C28.8177 18.4394 26.3211 19.3335 24.2533 20.8972C24.165 21.0503 24.0216 21.1639 23.8523 21.2148C23.6831 21.2657 23.5008 21.2501 23.3427 21.171C23.1846 21.092 23.0627 20.9555 23.0018 20.7896C22.941 20.6236 22.9459 20.4407 23.0154 20.2782V10.7219C23.0154 10.1278 23.2382 9.89256 23.8448 9.89256H26.9394L21.0101 2.71297L15.1054 9.8802H18.0144C18.819 9.8802 19.0047 10.0659 19.0047 10.8457V26.7894C18.9949 26.9125 19.0145 27.0362 19.0619 27.1503C19.1092 27.2643 19.183 27.3655 19.2771 27.4455C19.6739 27.7947 20.05 28.1666 20.4035 28.5596C21.4291 29.7035 22.3066 30.9719 23.0154 32.335M23.0154 39.7003C23.1471 37.8028 22.8852 35.8986 22.2462 34.1071C21.6071 32.3156 20.6047 30.6756 19.3018 29.2899C17.0499 26.8202 13.9629 25.2722 10.6368 24.945C10.1169 24.945 9.91881 24.6727 9.90643 24.1652C9.89405 23.6576 9.90643 23.4472 9.90643 23.0758V20.9591L2.72681 26.8884L9.90643 32.8178V29.9583C9.90643 29.129 10.1664 28.9185 10.9834 29.0547C13.0442 29.4325 14.9304 30.459 16.3667 31.9844C17.803 33.5098 18.7143 35.4542 18.9676 37.5341C18.9676 38.252 19.0419 38.97 19.079 39.7127L23.0154 39.7003Z" fill="#FF692E"/>
<path d="M11.231 30.5154V33.7214C11.2559 33.8731 11.2559 34.0278 11.231 34.1795C11.1443 34.4023 11.0329 34.7241 10.8472 34.7984C10.7207 34.8352 10.5878 34.8443 10.4575 34.8251C10.3272 34.8058 10.2026 34.7588 10.0921 34.687C9.0523 33.87 8.04963 33.0159 7.03458 32.2113L1.4642 27.6188C0.845267 27.1112 0.845267 26.7523 1.4642 26.2448L9.93118 19.2508C10.2035 19.028 10.4635 18.7928 10.8596 18.9785C11.2557 19.1642 11.2557 19.5355 11.2557 19.9069V23.6824C13.5628 24.0031 15.7652 24.8502 17.6926 26.1581V11.2171H17.1355C16.0091 11.2171 14.8826 11.2171 13.7562 11.2171C13.4917 11.1799 13.2498 11.0479 13.0754 10.8457C12.8773 10.6105 13.0011 10.3134 13.1992 10.0906C15.6171 7.15276 18.0351 4.22318 20.453 1.30182C20.812 0.868571 21.2452 0.905678 21.6909 1.38844L26.8156 7.57776L28.821 9.99161C28.9362 10.0921 29.0163 10.2267 29.0497 10.3759C29.0831 10.525 29.068 10.681 29.0066 10.821C28.9356 10.9577 28.8231 11.0685 28.6852 11.1374C28.5474 11.2064 28.3912 11.2299 28.2392 11.2047H24.4266V19.1394C26.3711 17.9252 28.5784 17.195 30.8634 17.0103V13.1358C30.8352 12.985 30.856 12.8291 30.9229 12.6909C30.9897 12.5528 31.099 12.4397 31.2348 12.3683C31.3796 12.3 31.5429 12.2812 31.6994 12.3147C31.856 12.3483 31.9972 12.4323 32.1013 12.554L39.8008 18.9166L40.6921 19.6593C41.2491 20.1173 41.2491 20.4887 40.6921 20.8972L33.3268 26.9875L32.0889 28.0025C31.9805 28.1218 31.8373 28.204 31.6795 28.2374C31.5217 28.2707 31.3575 28.2535 31.21 28.1882C30.8882 28.0273 30.8511 27.7302 30.8511 27.4083V24.029C30.8511 23.9299 30.8511 23.8309 30.8511 23.67C30.393 23.7814 29.9598 23.8557 29.5513 23.9918C28.0683 24.4872 26.7771 25.4335 25.8583 26.6986C24.9395 27.9636 24.4389 29.4842 24.4266 31.0477C24.4266 34.0557 24.4266 37.0637 24.4266 40.0593C24.4266 40.802 24.2161 41.0001 23.4858 41.0001H18.5962C17.9649 41.0001 17.7421 40.7772 17.7421 40.1459C17.8356 38.8531 17.7228 37.5536 17.4079 36.2962C17.0209 34.9312 16.2946 33.6864 15.2968 32.6777C14.299 31.6691 13.0621 30.9295 11.7013 30.5277L11.4662 30.4659H11.2804M23.0897 32.2979V31.06C23.0884 29.9891 23.2857 28.9272 23.6715 27.9282C24.2791 26.3475 25.3275 24.9743 26.6923 23.9715C28.0571 22.9688 29.6809 22.3787 31.371 22.2712C31.9775 22.2712 32.2127 22.4693 32.2251 23.0758V25.7001C32.2251 25.8239 32.2251 25.9353 32.2251 26.1334L39.3799 20.2287L32.2004 14.287V17.4931C32.2004 18.0872 31.9775 18.3224 31.4081 18.3348C28.8177 18.4394 26.3211 19.3335 24.2533 20.8972C24.165 21.0503 24.0216 21.1639 23.8523 21.2148C23.6831 21.2657 23.5008 21.2501 23.3427 21.171C23.1846 21.092 23.0627 20.9555 23.0018 20.7896C22.941 20.6236 22.9459 20.4407 23.0154 20.2782V10.7219C23.0154 10.1278 23.2382 9.89256 23.8448 9.89256H26.9394L21.0101 2.71297L15.1054 9.8802H18.0144C18.819 9.8802 19.0047 10.0659 19.0047 10.8457V26.7894C18.9949 26.9125 19.0145 27.0362 19.0619 27.1503C19.1092 27.2643 19.183 27.3655 19.2771 27.4455C19.6739 27.7947 20.05 28.1666 20.4035 28.5596C21.4291 29.7035 22.3066 30.9719 23.0154 32.335M23.0154 39.7003C23.1471 37.8028 22.8852 35.8986 22.2462 34.1071C21.6071 32.3156 20.6047 30.6756 19.3018 29.2899C17.0499 26.8202 13.9629 25.2722 10.6368 24.945C10.1169 24.945 9.91881 24.6727 9.90643 24.1652C9.89405 23.6576 9.90643 23.4472 9.90643 23.0758V20.9591L2.72681 26.8884L9.90643 32.8178V29.9583C9.90643 29.129 10.1664 28.9185 10.9834 29.0547C13.0442 29.4325 14.9304 30.459 16.3667 31.9844C17.803 33.5098 18.7143 35.4542 18.9676 37.5341C18.9676 38.252 19.0419 38.97 19.079 39.7127L23.0154 39.7003Z" stroke="#FF692E"/>
</svg>
