<svg width="30" height="30" viewBox="0 0 30 30" fill="none" xmlns="http://www.w3.org/2000/svg">
<path d="M29.8374 29.14C29.7392 29.3627 29.5705 29.547 29.3573 29.6644C29.1441 29.7819 28.8982 29.826 28.6574 29.7899C27.8174 29.7899 26.9674 29.7899 26.1274 29.7899C25.1274 29.7899 24.6974 29.51 24.7574 28.41C24.7574 27.66 24.7574 26.91 24.7574 26.16C24.7452 26.0323 24.6966 25.9108 24.6174 25.8099C24.511 25.6835 24.3939 25.5664 24.2674 25.46C24.1458 25.3298 23.9987 25.2259 23.8353 25.155C23.6719 25.084 23.4956 25.0474 23.3174 25.0474C23.1392 25.0474 22.963 25.084 22.7996 25.155C22.6361 25.2259 22.4891 25.3298 22.3674 25.46C21.7044 26.123 20.8051 26.4955 19.8674 26.4955C18.9297 26.4955 18.0305 26.123 17.3674 25.46C16.7044 24.7969 16.3319 23.8976 16.3319 22.96C16.3319 22.0223 16.7044 21.123 17.3674 20.46C18.5974 19.21 19.8574 17.9799 21.0874 16.7299C21.5257 16.3153 21.8054 15.7609 21.8784 15.162C21.9514 14.5632 21.8132 13.9577 21.4874 13.45C21.3227 13.2174 21.1458 12.9938 20.9574 12.78L17.6674 16.3199L13.6074 12.2599L19.4974 6.17993C19.8264 7.17047 20.3861 8.06872 21.1302 8.80066C21.8743 9.5326 22.7816 10.0773 23.7774 10.39L22.3174 11.7L22.4774 11.89C23.2753 12.7183 23.7135 13.8284 23.6967 14.9785C23.6798 16.1285 23.2092 17.2253 22.3874 18.03C21.1774 19.26 19.9474 20.48 18.7174 21.7C18.4632 21.9282 18.2827 22.2271 18.199 22.5583C18.1153 22.8896 18.1321 23.2383 18.2474 23.5599C18.3364 23.8363 18.4932 24.0859 18.7034 24.2862C18.9136 24.4865 19.1705 24.6309 19.4508 24.7065C19.7312 24.782 20.0259 24.7863 20.3083 24.7188C20.5906 24.6512 20.8516 24.5141 21.0674 24.3199C21.4958 23.8907 22.0308 23.5835 22.6174 23.4299C23.1343 23.3004 23.6762 23.3109 24.1877 23.4603C24.6991 23.6097 25.1615 23.8926 25.5274 24.28C25.6776 24.4576 25.8695 24.5953 26.0858 24.6808C26.3022 24.7663 26.5364 24.7969 26.7674 24.77C27.4074 24.77 28.0474 24.77 28.6874 24.77C28.928 24.7356 29.1732 24.7805 29.3861 24.8977C29.5989 25.015 29.7679 25.1982 29.8674 25.4199L29.8374 29.14Z" fill="white"/>
<path d="M29.838 4.03003C29.778 4.23003 29.738 4.44001 29.678 4.64001C29.4542 5.40986 28.9877 6.0868 28.348 6.57001C27.458 7.28001 26.588 8.00001 25.688 8.70001C25.5538 8.79523 25.3924 8.84437 25.228 8.84003C24.1305 8.74497 23.1008 8.26905 22.3173 7.49469C21.5339 6.72033 21.0459 5.69632 20.938 4.60004C20.9328 4.46172 20.9713 4.32527 21.048 4.21002C21.758 3.28002 22.488 2.37001 23.198 1.45001C23.7753 0.668891 24.638 0.147666 25.598 0H25.698H26.568C27.1064 0.0793788 27.6214 0.273794 28.078 0.570007C27.978 0.650007 27.888 0.710029 27.818 0.780029L25.978 2.60999C25.8539 2.72194 25.7651 2.86762 25.7224 3.02924C25.6798 3.19085 25.6852 3.36142 25.738 3.52002C25.78 3.6712 25.8645 3.80716 25.9815 3.91174C26.0985 4.01632 26.243 4.0851 26.398 4.10999C26.5551 4.14208 26.7179 4.13118 26.8693 4.07837C27.0206 4.02556 27.1549 3.93283 27.258 3.81L29.258 1.81C29.3316 1.9137 29.3953 2.02422 29.448 2.14001L29.808 3.29999L29.838 4.03003Z" fill="white"/>
<path d="M12.2968 13.52L16.2968 17.52C16.2554 17.5747 16.2085 17.6249 16.1568 17.67L11.1568 22.04C10.8359 22.354 10.4346 22.5733 9.99701 22.6739C9.55945 22.7745 9.10262 22.7523 8.67682 22.61C8.61847 22.6048 8.55972 22.6139 8.5057 22.6366C8.45168 22.6593 8.40401 22.6947 8.36682 22.74C7.21348 23.88 6.06682 25.0233 4.92682 26.17C4.82136 26.293 4.68561 26.3862 4.53302 26.4406C4.38042 26.495 4.21627 26.5086 4.05682 26.48C3.90472 26.4492 3.7636 26.3783 3.64813 26.2747C3.53266 26.171 3.44704 26.0383 3.40011 25.8904C3.35319 25.7425 3.34667 25.5847 3.38125 25.4334C3.41584 25.2821 3.49026 25.1429 3.5968 25.03C3.8568 24.75 4.12682 24.49 4.39682 24.22L7.11682 21.5C7.18124 21.4538 7.2275 21.3866 7.24759 21.3099C7.26767 21.2332 7.26031 21.1519 7.2268 21.08C7.10076 20.7336 7.06766 20.3602 7.13083 19.997C7.19399 19.6338 7.35122 19.2935 7.58682 19.01C9.12682 17.19 10.7068 15.4 12.2768 13.6C12.2768 13.6 12.2768 13.6 12.3368 13.6" fill="white"/>
<path d="M2.23741 26.5701C2.41362 26.5694 2.58689 26.6153 2.73967 26.7031C2.89245 26.7909 3.0193 26.9175 3.10741 27.0701C3.18982 27.215 3.22361 27.3826 3.20381 27.5482C3.18402 27.7137 3.11166 27.8686 2.99739 27.9901C2.48739 28.5401 1.99741 29.0701 1.41741 29.5801C1.24889 29.7165 1.03551 29.7851 0.819078 29.7724C0.602642 29.7597 0.398749 29.6667 0.247331 29.5115C0.0959136 29.3563 0.0078899 29.1502 0.000505212 28.9335C-0.00687947 28.7169 0.0669124 28.5052 0.207414 28.3401C0.707414 27.8101 1.2074 27.3401 1.7574 26.8001C1.90334 26.697 2.06563 26.6192 2.23741 26.5701Z" fill="white"/>
<path d="M3.23778 20.05C3.41847 20.0458 3.59592 20.0986 3.74492 20.2009C3.89391 20.3032 4.00686 20.4499 4.06776 20.6201C4.24776 21.1001 4.40778 21.6201 4.55778 22.0801C4.6164 22.293 4.59184 22.5202 4.48912 22.7157C4.3864 22.9112 4.21318 23.0603 4.00459 23.1328C3.796 23.2053 3.56765 23.1958 3.36583 23.1061C3.16401 23.0165 3.00383 22.8535 2.91777 22.6501C2.72777 22.1501 2.54776 21.65 2.40776 21.11C2.3796 20.9843 2.37971 20.854 2.40806 20.7283C2.43642 20.6027 2.49232 20.4849 2.57173 20.3835C2.65114 20.2821 2.75208 20.1996 2.86726 20.1419C2.98244 20.0842 3.109 20.0529 3.23778 20.05Z" fill="white"/>
<path d="M9.72718 26.5101C9.72151 26.6371 9.68806 26.7614 9.62916 26.8741C9.57026 26.9869 9.48736 27.0853 9.3863 27.1625C9.28524 27.2397 9.16847 27.2939 9.04423 27.3211C8.91998 27.3483 8.79127 27.348 8.66718 27.3201C8.14718 27.1801 7.66717 27 7.12717 26.81C6.91922 26.7315 6.75088 26.5738 6.65903 26.3713C6.56719 26.1689 6.55933 25.9382 6.63718 25.73C6.71035 25.5182 6.86247 25.3427 7.0618 25.2403C7.26114 25.1378 7.49233 25.1162 7.70719 25.18C8.19719 25.33 8.70719 25.4901 9.14719 25.6601C9.31785 25.7165 9.46651 25.825 9.57233 25.9703C9.67816 26.1155 9.73583 26.2903 9.73719 26.4701" fill="white"/>
<path d="M2.72798 24.6099C2.73761 24.7503 2.7122 24.891 2.65404 25.0192C2.59588 25.1474 2.50679 25.2592 2.39476 25.3445C2.28273 25.4297 2.15126 25.4858 2.01219 25.5077C1.87312 25.5296 1.73079 25.5166 1.59798 25.4699C1.18914 25.3172 0.797096 25.1228 0.427996 24.8899C0.250359 24.7764 0.122575 24.5995 0.0705738 24.3952C0.0185721 24.1909 0.0462505 23.9745 0.147997 23.7899C0.243116 23.6002 0.404975 23.4524 0.602495 23.3749C0.800015 23.2974 1.01923 23.2956 1.21797 23.3699C1.60199 23.5344 1.97599 23.7214 2.338 23.9299C2.45724 23.9987 2.55612 24.0979 2.62462 24.2174C2.69312 24.3368 2.72878 24.4722 2.72798 24.6099Z" fill="white"/>
<path d="M5.51646 29.7201C5.37121 29.7107 5.23098 29.6632 5.10987 29.5825C4.98876 29.5017 4.89103 29.3906 4.82645 29.2601C4.64645 28.9401 4.47645 28.6101 4.32645 28.2601C4.22302 28.0533 4.20598 27.8138 4.27912 27.5944C4.35226 27.3749 4.50957 27.1936 4.71644 27.0901C4.92331 26.9867 5.16279 26.9696 5.38221 27.0428C5.60163 27.1159 5.78302 27.2732 5.88645 27.4801C6.06645 27.8101 6.23644 28.1401 6.37644 28.4801C6.43661 28.6182 6.46035 28.7694 6.44538 28.9192C6.43041 29.0691 6.37726 29.2126 6.29096 29.336C6.20467 29.4594 6.08813 29.5586 5.95252 29.6241C5.81692 29.6896 5.66678 29.7193 5.51646 29.7101" fill="white"/>
</svg>
