<svg width="41" height="41" viewBox="0 0 41 41" fill="none" xmlns="http://www.w3.org/2000/svg">
<path d="M4.82121 26.6699L0.0453236 31.4458C-0.0349966 31.5224 -0.00496661 31.6608 0.106985 31.6941L5.85897 33.4413C6.67498 33.6896 7.31082 34.3254 7.55899 35.1413L9.30625 40.8933C9.33941 41.0053 9.47794 41.0353 9.5545 40.955L15.9447 34.5648C11.2167 33.3903 7.31338 30.4427 4.82121 26.6699Z" fill="white"/>
<path d="M40.9552 31.4458L36.1793 26.6699C33.7049 30.4157 29.8137 33.3829 25.0557 34.5648L31.4459 40.9551C31.5224 41.0354 31.661 41.0054 31.6941 40.8934L33.4414 35.1414C33.6896 34.3254 34.3255 33.6896 35.1415 33.4414L40.8935 31.6941C41.0058 31.6607 41.0354 31.5221 40.9552 31.4458Z" fill="white"/>
<path d="M36.8567 16.3577C36.8567 7.33849 29.5191 0.00012207 20.4991 0.00012207C11.4792 0.00012207 4.1416 7.33849 4.1416 16.3577C4.1416 24.5126 10.1459 31.3095 17.9855 32.523C27.916 34.0677 36.8567 26.3383 36.8567 16.3577ZM7.74832 20.344C5.05067 11.7193 11.5447 3.00064 20.4991 3.00064C30.5022 3.00064 37.1138 13.7513 32.2377 22.7295C26.6086 33.0559 11.2912 31.6132 7.74832 20.344Z" fill="white"/>
<path d="M20.5004 5.40271C14.4602 5.40271 9.54492 10.3171 9.54492 16.3574C9.54492 25.244 19.6203 30.4265 26.8354 25.2901C28.3813 24.1928 29.6401 22.6928 30.4501 20.9402C33.816 13.6941 28.4504 5.40271 20.5004 5.40271ZM26.0298 14.8208C25.893 14.9223 19.2373 19.8622 19.1991 19.8905C18.7184 20.2488 18.0345 20.2008 17.6071 19.748C14.5499 16.4899 14.7945 16.75 14.7211 16.673C14.2074 16.126 14.3146 15.2412 14.9574 14.8345C14.9582 14.8336 14.959 14.8328 14.9598 14.8328C15.437 14.5333 16.0737 14.603 16.4733 15.029C17.1198 15.7181 16.6846 15.2543 18.6266 17.3233C18.8359 17.1672 21.299 15.3399 24.6876 12.8252C25.2202 12.4296 25.9729 12.541 26.3676 13.0735C26.7294 13.5591 26.7282 14.3033 26.0298 14.8208Z" fill="white"/>
</svg>
