<svg width="41" height="42" viewBox="0 0 41 42" fill="none" xmlns="http://www.w3.org/2000/svg">
<path d="M39.9899 32.1802C38.714 31.1102 31.2309 26.3716 29.9872 26.5891C29.4032 26.6927 28.9565 27.1905 27.7609 28.6168C27.208 29.3188 26.6008 29.9763 25.9449 30.5832C24.7432 30.2929 23.5799 29.8617 22.4793 29.2985C18.163 27.1971 14.676 23.7091 12.5759 19.3922C12.0127 18.2916 11.5815 17.1283 11.2912 15.9265C11.8981 15.2706 12.5556 14.6634 13.2576 14.1105C14.6824 12.9149 15.1817 12.4711 15.2853 11.8843C15.5028 10.6376 10.7599 3.15749 9.69419 1.88161C9.24749 1.35315 8.84165 0.998413 8.32196 0.998413C6.81542 0.998413 0.000976562 9.4245 0.000976562 10.5164C0.000976562 10.6055 0.146959 19.3776 11.2255 30.6488C22.4968 41.7274 31.2689 41.8734 31.3579 41.8734C32.4499 41.8734 40.876 35.059 40.876 33.5524C40.876 33.0327 40.5212 32.6269 39.9899 32.1802Z" fill="#40C782"/>
<path d="M30.6574 19.9761H33.577C33.5735 16.8798 32.342 13.9113 30.1526 11.7219C27.9632 9.5325 24.9947 8.30096 21.8984 8.29749V11.2171C24.2207 11.2194 26.4473 12.143 28.0894 13.7851C29.7315 15.4272 30.655 17.6538 30.6574 19.9761Z" fill="#40C782"/>
<path d="M37.9565 19.9761H40.8761C40.8703 14.9447 38.869 10.121 35.3113 6.56325C31.7535 3.0055 26.9299 1.00421 21.8984 0.998413V3.91806C26.1558 3.92308 30.2373 5.61652 33.2476 8.62689C36.258 11.6373 37.9515 15.7188 37.9565 19.9761Z" fill="#40C782"/>
</svg>
