<svg width="54" height="54" viewBox="0 0 54 54" fill="none" xmlns="http://www.w3.org/2000/svg">
<path d="M20.0323 0H13.0645C5.86074 0 0 5.86074 0 13.0645V17.2356C0 21.4606 2.09903 25.3817 5.61339 27.7246L6.09677 28.0469V27C7.23687 25.8599 8.04513 24.4324 8.43619 22.8681L8.70968 21.7742L7.67061 21.0818C6.68729 20.4259 6.09677 19.3224 6.09677 18.1405C6.09677 16.7801 7.19942 15.6774 8.55987 15.6774C9.2131 15.6774 9.84019 15.937 10.3018 16.3986L11.3226 17.4194L12.4479 12.4679C12.8085 10.8819 14.2185 9.75658 15.8455 9.75658H20.0323L20.9468 9.64335C21.1271 9.89942 21.296 10.1625 21.458 10.4298C23.6485 9.80623 25.2581 7.78819 25.2581 5.40174V5.22581C25.2581 2.34377 22.9143 0 20.0323 0Z" fill="#40C782"/>
<path d="M30.4839 20.9032C28.5625 20.9032 27 19.3407 27 17.4194C27 15.498 28.5625 13.9355 30.4839 13.9355C32.4052 13.9355 33.9677 15.498 33.9677 17.4194C33.9677 19.3407 32.4052 20.9032 30.4839 20.9032Z" fill="#40C782"/>
<path d="M25.2584 33.0968C23.8178 33.0968 22.6455 31.9245 22.6455 30.4839C22.6455 29.0434 23.8178 27.871 25.2584 27.871C26.699 27.871 27.8713 29.0434 27.8713 30.4839C27.8713 31.9245 26.699 33.0968 25.2584 33.0968Z" fill="#40C782"/>
<path d="M25.2584 33.0968C23.8178 33.0968 22.6455 31.9245 22.6455 30.4839C22.6455 29.0434 23.8178 27.871 25.2584 27.871C26.699 27.871 27.8713 29.0434 27.8713 30.4839C27.8713 31.9245 26.699 33.0968 25.2584 33.0968Z" fill="#40C782"/>
<path d="M37.4518 27.8709C36.0112 27.8709 34.8389 26.6986 34.8389 25.258C34.8389 23.8175 36.0112 22.6451 37.4518 22.6451C38.8924 22.6451 40.0647 23.8175 40.0647 25.258C40.0647 26.6986 38.8924 27.8709 37.4518 27.8709Z" fill="#40C782"/>
<path d="M30.4839 20.9032C28.5625 20.9032 27 19.3407 27 17.4194C27 15.498 28.5625 13.9355 30.4839 13.9355C32.4052 13.9355 33.9677 15.498 33.9677 17.4194C33.9677 19.3407 32.4052 20.9032 30.4839 20.9032Z" fill="#40C782"/>
<path d="M30.4839 20.9032C28.5625 20.9032 27 19.3407 27 17.4194C27 15.498 28.5625 13.9355 30.4839 13.9355C32.4052 13.9355 33.9677 15.498 33.9677 17.4194C33.9677 19.3407 32.4052 20.9032 30.4839 20.9032Z" fill="#40C782"/>
<path d="M25.2584 33.0968C23.8178 33.0968 22.6455 31.9245 22.6455 30.4839C22.6455 29.0434 23.8178 27.871 25.2584 27.871C26.699 27.871 27.8713 29.0434 27.8713 30.4839C27.8713 31.9245 26.699 33.0968 25.2584 33.0968Z" fill="#40C782"/>
<path d="M18.2906 18.2903C19.7312 18.2903 20.9035 17.1179 20.9035 15.6774H19.1616C19.1616 16.1573 18.7705 16.5483 18.2906 16.5483C17.8107 16.5483 17.4197 16.1573 17.4197 15.6774H15.6777C15.6777 17.1179 16.8501 18.2903 18.2906 18.2903Z" fill="#40C782"/>
<path d="M52.2581 26.1291H43.5484C42.5877 26.1291 41.8064 26.9103 41.8064 27.871V31.3549H33.0968C32.1361 31.3549 31.3548 32.1361 31.3548 33.0968V34.8387H22.6452C21.6845 34.8387 20.9032 35.62 20.9032 36.5807V45.2903H19.1613V41.5077C19.1613 38.1989 17.9019 35.0887 15.6243 32.704L15.0599 29.3168C15.8246 29.5128 16.6172 29.6129 17.4194 29.6129C20.3014 29.6129 22.6452 27.2691 22.6452 24.3871V21.5312L25.3034 20.6446L25.2555 19.9713C25.2372 19.7118 24.7703 13.5662 21.6592 9.1417L21.3587 8.71405L19.9783 8.88563H15.8455C13.7987 8.88563 12.0525 10.2801 11.5995 12.2754L10.8226 15.6914C10.2043 15.1191 9.40645 14.8065 8.56074 14.8065C6.72126 14.8065 5.22581 16.3019 5.22581 18.1414C5.22581 19.6177 5.95916 20.9877 7.18723 21.8064L7.7159 22.1592L7.59135 22.6574C7.23948 24.0675 6.50961 25.3565 5.481 26.3842L5.22581 26.6394V29.9665C1.99016 31.7999 0 35.1871 0 38.9392V47.0323C0 50.8741 3.1259 54 6.96774 54H30.4839C31.0578 54 31.6031 53.8824 32.1047 53.6795C32.3922 53.8798 32.7336 54 33.0968 54H41.8064C42.1252 54 42.4205 53.9077 42.6774 53.7579C42.9344 53.9077 43.2296 54 43.5484 54H52.2581C53.2187 54 54 53.2188 54 52.2581V27.871C54 26.9103 53.2187 26.1291 52.2581 26.1291ZM43.5484 27.871H52.2581V31.3549H50.5161V29.6129H48.7742V31.3549H47.0323V29.6129H45.2903V31.3549H43.5484V27.871ZM48.7742 45.2903V47.0323H47.0323V45.2903H45.2903V47.0323H43.5484V43.5484H52.2589V47.0323H50.5161V45.2903H48.7742ZM38.3226 45.2903V47.0323H36.5806V45.2903H34.8387V47.0323H33.9451C33.7021 46.7109 33.4173 46.427 33.0968 46.184V43.5484H41.8064V47.0323H40.0645V45.2903H38.3226ZM41.8064 38.3226V41.8065H40.0645V40.0645H38.3226V41.8065H36.5806V40.0645H34.8387V41.8065H33.0968V38.3226H41.8064ZM50.5161 41.8065V40.0645H48.7742V41.8065H47.0323V40.0645H45.2903V41.8065H43.5484V38.3226H52.2589V41.8065H50.5161ZM50.5161 36.5807V34.8387H48.7742V36.5807H47.0323V34.8387H45.2903V36.5807H43.5484V33.0968H52.2581V36.5807H50.5161ZM41.8064 33.0968V36.5807H40.0645V34.8387H38.3226V36.5807H36.5806V34.8387H34.8387V36.5807H33.0968V33.0968H41.8064ZM31.3548 36.5807V40.0645H29.6129V38.3226H27.871V40.0645H26.129V38.3226H24.3871V40.0645H22.6452V36.5807H31.3548ZM22.6452 41.8065H31.3548V45.3783C31.0735 45.3208 30.7817 45.2903 30.4839 45.2903H29.2758C28.6749 44.2121 27.5513 43.5484 26.3058 43.5484C25.3974 43.5484 24.543 43.902 23.9002 44.5448L23.1555 45.2903H22.6452V41.8065ZM6.96774 27.351C8.08519 26.1465 8.88213 24.6771 9.28103 23.0798L9.70345 21.3901L8.15313 20.3571C7.41106 19.8616 6.96774 19.0333 6.96774 18.1414C6.96774 17.2626 7.68194 16.5484 8.56074 16.5484C8.98577 16.5484 9.38555 16.7139 9.6869 17.0152L11.8225 19.1509L13.2979 12.6613C13.5697 11.4637 14.6175 10.6276 15.8455 10.6276H20.0323L20.5235 10.5727C22.5633 13.7439 23.2487 17.8418 23.4473 19.4278L20.9032 20.2753V24.3871C20.9032 26.3085 19.3407 27.871 17.4194 27.871C16.3585 27.871 15.3212 27.6559 14.3596 27.243L12.629 26.2458L11.711 27.7247L12.15 28.0173C12.4818 28.2385 12.8241 28.4371 13.1769 28.6139L13.7726 32.1901C11.4428 32.0272 9.17739 31.3165 7.16632 30.1102L6.96774 29.9909V27.351ZM1.74194 47.0323V38.9392C1.74194 35.8221 3.40461 33.021 6.09068 31.496L6.26923 31.6031C8.73406 33.082 11.5412 33.885 14.4102 33.9538C16.3472 36.0076 17.4194 38.6727 17.4194 41.5077V45.2903H8.70968V41.4624C8.70968 39.2354 8.05645 37.0789 6.82142 35.2263L5.37213 36.1922C6.41642 37.7591 6.96774 39.5811 6.96774 41.4624V45.7999L5.481 47.2866L6.71255 48.5182L8.19929 47.0323H22.6452V52.2581H6.96774C4.08571 52.2581 1.74194 49.9143 1.74194 47.0323ZM24.3871 52.2581V46.5219L25.1326 45.7763C25.4418 45.468 25.8695 45.2903 26.3067 45.2903C26.9399 45.2903 27.5086 45.6422 27.7917 46.2083L28.2037 47.0323H30.4839C31.9245 47.0323 33.0968 48.2046 33.0968 49.6452C33.0968 51.0858 31.9245 52.2581 30.4839 52.2581H24.3871ZM40.0645 52.2581V50.5161H38.3226V52.2581H36.5806V50.5161H34.8387V52.2572H33.946C34.4982 51.5273 34.8387 50.6294 34.8387 49.6452C34.8387 49.3473 34.8082 49.0555 34.7507 48.7742H41.8064V52.2581H40.0645ZM50.5161 52.2581V50.5161H48.7742V52.2581H47.0323V50.5161H45.2903V52.2581H43.5484V48.7742H52.2589V52.2581H50.5161Z" fill="#40C782"/>
<path d="M47.0317 20.8153V22.6452H48.7737V20.9032H52.2575V16.5484C52.2575 14.1471 50.3039 12.1936 47.9027 12.1936C46.4621 12.1936 45.2898 11.0212 45.2898 9.58066V6.96776H47.9027C49.3433 6.96776 50.5156 8.14008 50.5156 9.58066V12.1936H52.2575V9.58066C52.2575 7.47815 50.7586 5.71879 48.7737 5.31379V3.48389H47.0317V5.22582H43.5479V9.58066C43.5479 11.9819 45.5014 13.9355 47.9027 13.9355C49.3433 13.9355 50.5156 15.1078 50.5156 16.5484V19.1613H47.9027C46.4621 19.1613 45.2898 17.989 45.2898 16.5484V13.9355H43.5479V16.5484C43.5479 18.6509 45.0468 20.4103 47.0317 20.8153Z" fill="#40C782"/>
<path d="M39.8028 24.139L43.2937 20.6481L42.0621 19.4166L38.5713 22.9074C39.1104 23.1652 39.545 23.5998 39.8028 24.139Z" fill="#40C782"/>
<path d="M32.0625 20.5069L35.1727 24.0056C35.461 23.4839 35.9122 23.0676 36.4679 22.8402L33.3742 19.3607C33.0458 19.8485 32.5886 20.2369 32.0625 20.5069Z" fill="#40C782"/>
<path d="M30.0472 20.8588C29.4454 20.7822 28.8932 20.5601 28.4281 20.2161L25.3623 27.8815C25.9824 27.9058 26.5425 28.1471 26.9788 28.5321L30.0472 20.8588Z" fill="#40C782"/>
<path d="M27 1.74194H30.4839V3.48388H27V1.74194Z" fill="#40C782"/>
<path d="M32.2256 1.74194H41.8062V3.48388H32.2256V1.74194Z" fill="#40C782"/>
<path d="M27 5.22577H33.9677V6.9677H27V5.22577Z" fill="#40C782"/>
<path d="M35.709 5.22577H41.8058V6.9677H35.709V5.22577Z" fill="#40C782"/>
<path d="M32.2256 8.70966H41.8062V10.4516H32.2256V8.70966Z" fill="#40C782"/>
</svg>
