<svg width="42" height="42" viewBox="0 0 42 42" fill="none" xmlns="http://www.w3.org/2000/svg">
<path d="M37.4049 41.0001C36.4741 40.7861 35.6337 40.2858 35.002 39.5694C32.5441 37.0931 30.0863 34.6169 27.6651 32.2324C27.1191 31.7695 26.7395 31.1408 26.5838 30.4421C26.4282 29.7435 26.5052 29.0131 26.803 28.3622C26.841 28.2617 26.841 28.1508 26.803 28.0504L23.6114 24.8771C20.9516 27.2085 17.4896 28.4145 13.957 28.2402C10.4243 28.066 7.09776 26.5251 4.68027 23.9433C2.26279 21.3615 0.943737 17.941 1.00184 14.4045C1.05995 10.868 2.49062 7.49267 4.99161 4.99168C7.49261 2.49068 10.868 1.06001 14.4044 1.0019C17.9409 0.943798 21.3615 2.26285 23.9433 4.68034C26.5251 7.09782 28.0659 10.4243 28.2402 13.957C28.4144 17.4896 27.2084 20.9517 24.8771 23.6115L25.8308 24.5286C26.3628 25.0605 26.9314 25.5741 27.4267 26.1427C27.5806 26.3768 27.812 26.5492 28.0803 26.6297C28.3486 26.7102 28.6367 26.6937 28.894 26.5829C29.433 26.4133 30.0092 26.4009 30.555 26.5471C31.1008 26.6933 31.5935 26.9921 31.9755 27.4084L39.9728 35.4056C40.5005 35.952 40.8575 36.6405 41 37.3866V38.157C40.8133 38.6723 40.5927 39.1748 40.3396 39.661C40.0867 40.0159 39.7645 40.3158 39.3925 40.5428C39.0205 40.7698 38.6065 40.919 38.1753 40.9817L37.4049 41.0001ZM14.6604 26.4362C16.2083 26.4338 17.7407 26.1263 19.1697 25.5311C20.5986 24.9359 21.8962 24.0648 22.9883 22.9677C24.0803 21.8706 24.9452 20.5689 25.5337 19.1372C26.1222 17.7054 26.4226 16.1717 26.4178 14.6238C26.3985 11.4791 25.1395 8.46895 22.9141 6.247C20.6888 4.02506 17.6767 2.77069 14.532 2.75626C12.984 2.75385 11.4508 3.05664 10.02 3.64735C8.58915 4.23806 7.2888 5.10508 6.19337 6.19881C5.09795 7.29253 4.22891 8.59148 3.63598 10.0214C3.04304 11.4513 2.73784 12.9841 2.73784 14.532C2.76188 17.6849 4.02634 20.7017 6.25758 22.9295C8.48881 25.1573 11.5074 26.417 14.6604 26.4362ZM37.5883 39.1658C37.8905 39.1967 38.1947 39.1319 38.458 38.9805C38.7213 38.8291 38.9304 38.5987 39.0557 38.322C39.1764 38.0583 39.2095 37.7629 39.1501 37.479C39.0907 37.1952 38.9418 36.9378 38.7255 36.7446L30.6733 28.7107C30.5444 28.5806 30.3911 28.4772 30.2223 28.4063C30.0535 28.3355 29.8723 28.2986 29.6892 28.2977C29.5061 28.2969 29.3247 28.3321 29.1552 28.4013C28.9857 28.4706 28.8315 28.5726 28.7014 28.7015C28.5714 28.8304 28.4679 28.9836 28.3971 29.1524C28.3262 29.3213 28.2893 29.5024 28.2885 29.6855C28.2876 29.8686 28.3229 30.0501 28.3922 30.2196C28.4614 30.3891 28.5634 30.5432 28.6923 30.6733C31.3703 33.3513 34.0482 36.0476 36.7446 38.7073C36.9994 38.9043 37.2843 39.0591 37.5883 39.1658Z" fill="#FF692E"/>
<path d="M14.6604 26.4362C16.2083 26.4338 17.7407 26.1263 19.1697 25.5311C20.5986 24.9359 21.8962 24.0648 22.9883 22.9677C24.0803 21.8706 24.9452 20.5689 25.5337 19.1372C26.1222 17.7054 26.4226 16.1717 26.4178 14.6238C26.3985 11.4791 25.1395 8.46895 22.9141 6.247C20.6888 4.02506 17.6767 2.77069 14.532 2.75626C12.984 2.75385 11.4508 3.05664 10.02 3.64735C8.58915 4.23806 7.2888 5.10508 6.19337 6.19881C5.09795 7.29253 4.22891 8.59148 3.63598 10.0214C3.04304 11.4513 2.73784 12.9841 2.73784 14.532C2.76188 17.6849 4.02634 20.7017 6.25758 22.9295C8.48881 25.1573 11.5074 26.417 14.6604 26.4362M37.5883 39.1658C37.8905 39.1967 38.1947 39.1319 38.458 38.9805C38.7213 38.8291 38.9304 38.5987 39.0557 38.322C39.1764 38.0583 39.2095 37.7629 39.1501 37.479C39.0907 37.1952 38.9419 36.9378 38.7255 36.7446L30.6732 28.7107C30.5444 28.5806 30.3911 28.4772 30.2223 28.4063C30.0535 28.3355 29.8723 28.2986 29.6892 28.2977C29.5061 28.2969 29.3247 28.3321 29.1552 28.4013C28.9857 28.4706 28.8315 28.5726 28.7014 28.7015C28.5714 28.8304 28.4679 28.9836 28.3971 29.1524C28.3262 29.3213 28.2893 29.5024 28.2885 29.6855C28.2876 29.8686 28.3229 30.0501 28.3922 30.2196C28.4614 30.3891 28.5634 30.5432 28.6923 30.6733C31.3703 33.3513 34.0482 36.0476 36.7446 38.7073C36.9994 38.9043 37.2843 39.0591 37.5883 39.1658M37.4049 41.0001C36.4741 40.7861 35.6337 40.2858 35.002 39.5694C32.5441 37.0931 30.0863 34.6169 27.6651 32.2324C27.1191 31.7695 26.7395 31.1408 26.5838 30.4421C26.4282 29.7435 26.5052 29.013 26.803 28.3622C26.841 28.2617 26.841 28.1508 26.803 28.0504L23.6114 24.8771C20.9516 27.2085 17.4896 28.4145 13.957 28.2402C10.4243 28.066 7.09776 26.5251 4.68027 23.9433C2.26279 21.3615 0.943737 17.941 1.00184 14.4045C1.05995 10.868 2.49062 7.49267 4.99161 4.99168C7.49261 2.49068 10.868 1.06001 14.4044 1.0019C17.9409 0.943798 21.3615 2.26285 23.9433 4.68034C26.5251 7.09782 28.0659 10.4243 28.2402 13.957C28.4144 17.4896 27.2084 20.9517 24.8771 23.6115L25.8308 24.5286C26.3628 25.0605 26.9314 25.5741 27.4267 26.1428C27.5806 26.3768 27.812 26.5492 28.0803 26.6297C28.3486 26.7102 28.6367 26.6937 28.894 26.5829C29.433 26.4133 30.0092 26.4009 30.555 26.5471C31.1008 26.6933 31.5935 26.9921 31.9755 27.4084L39.9728 35.4056C40.5005 35.952 40.8575 36.6405 41 37.3866V38.157C40.8133 38.6723 40.5927 39.1748 40.3396 39.661C40.0867 40.0159 39.7645 40.3158 39.3925 40.5428C39.0205 40.7698 38.6065 40.919 38.1753 40.9817L37.4049 41.0001Z" stroke="#FF692E" stroke-width="0.8"/>
<mask id="path-3-inside-1_353_665" fill="white">
<path d="M14.8076 20.9885C12.9903 20.9743 11.2014 20.5358 9.58368 19.7078C7.96592 18.8798 6.56396 17.6853 5.48962 16.2195C5.23283 15.871 4.99439 15.5041 4.75594 15.119C4.64535 14.9636 4.58594 14.7777 4.58594 14.5871C4.58594 14.3964 4.64535 14.2104 4.75594 14.0551C5.62993 12.5186 6.84531 11.2034 8.30826 10.2112C9.7712 9.21891 11.4426 8.57609 13.1934 8.33232C14.9357 8.08386 16.7124 8.26853 18.3664 8.86997C20.0203 9.47142 21.5006 10.4711 22.6764 11.7806C23.303 12.4898 23.885 13.2371 24.4189 14.0184C24.5352 14.1783 24.5979 14.371 24.5979 14.5687C24.5979 14.7664 24.5352 14.9591 24.4189 15.119C23.584 16.5565 22.4546 17.8014 21.1049 18.7719C19.7551 19.7423 18.2154 20.4165 16.5868 20.7501C15.9802 20.863 15.3678 20.9426 14.7525 20.9885M14.4407 17.3201C14.9747 17.3373 15.502 17.1966 15.9564 16.9155C16.4108 16.6344 16.7722 16.2255 16.9952 15.7399C17.2183 15.2543 17.293 14.7138 17.2102 14.1859C17.1273 13.658 16.8906 13.1663 16.5295 12.7724C16.1684 12.3785 15.6992 12.1 15.1805 11.9716C14.6618 11.8433 14.1167 11.8708 13.6136 12.0509C13.1106 12.2309 12.6718 12.5554 12.3523 12.9837C12.0329 13.412 11.8469 13.9251 11.8178 14.4587C11.7955 14.8203 11.8463 15.1827 11.9672 15.5242C12.088 15.8658 12.2766 16.1795 12.5214 16.4465C12.7662 16.7136 13.0623 16.9287 13.3921 17.0787C13.7219 17.2288 14.0785 17.3109 14.4407 17.3201ZM15.5596 19.1543C16.9785 18.9569 18.3378 18.4547 19.5441 17.6821C20.7505 16.9095 21.7753 15.885 22.548 14.6788C21.8039 13.5142 20.8233 12.519 19.67 11.7575C18.5167 10.996 17.2164 10.4852 15.8531 10.2582C16.8143 10.5625 17.6497 11.1726 18.232 11.9957C18.8142 12.8189 19.1114 13.8098 19.0782 14.8175C19.0449 15.8252 18.6831 16.7944 18.0479 17.5773C17.4126 18.3603 16.5388 18.9141 15.5596 19.1543ZM13.2118 19.1543C12.2745 18.8549 11.4567 18.2653 10.8764 17.4707C10.2961 16.6761 9.98341 15.7177 9.98341 14.7338C9.98341 13.7499 10.2961 12.7914 10.8764 11.9969C11.4567 11.2023 12.2745 10.6127 13.2118 10.3133C11.8489 10.5413 10.5489 11.0525 9.39577 11.8139C8.24261 12.5753 7.26183 13.57 6.51679 14.7338C7.28751 15.88 8.28946 16.8523 9.45824 17.5883C10.627 18.3243 11.9368 18.8077 13.3035 19.0075"/>
</mask>
<path d="M14.8076 20.9885C12.9903 20.9743 11.2014 20.5358 9.58368 19.7078C7.96592 18.8798 6.56396 17.6853 5.48962 16.2195C5.23283 15.871 4.99439 15.5041 4.75594 15.119C4.64535 14.9636 4.58594 14.7777 4.58594 14.5871C4.58594 14.3964 4.64535 14.2104 4.75594 14.0551C5.62993 12.5186 6.84531 11.2034 8.30826 10.2112C9.7712 9.21891 11.4426 8.57609 13.1934 8.33232C14.9357 8.08386 16.7124 8.26853 18.3664 8.86997C20.0203 9.47142 21.5006 10.4711 22.6764 11.7806C23.303 12.4898 23.885 13.2371 24.4189 14.0184C24.5352 14.1783 24.5979 14.371 24.5979 14.5687C24.5979 14.7664 24.5352 14.9591 24.4189 15.119C23.584 16.5565 22.4546 17.8014 21.1049 18.7719C19.7551 19.7423 18.2154 20.4165 16.5868 20.7501C15.9802 20.863 15.3678 20.9426 14.7525 20.9885M14.4407 17.3201C14.9747 17.3373 15.502 17.1966 15.9564 16.9155C16.4108 16.6344 16.7722 16.2255 16.9952 15.7399C17.2183 15.2543 17.293 14.7138 17.2102 14.1859C17.1273 13.658 16.8906 13.1663 16.5295 12.7724C16.1684 12.3785 15.6992 12.1 15.1805 11.9716C14.6618 11.8433 14.1167 11.8708 13.6136 12.0509C13.1106 12.2309 12.6718 12.5554 12.3523 12.9837C12.0329 13.412 11.8469 13.9251 11.8178 14.4587C11.7955 14.8203 11.8463 15.1827 11.9672 15.5242C12.088 15.8658 12.2766 16.1795 12.5214 16.4465C12.7662 16.7136 13.0623 16.9287 13.3921 17.0787C13.7219 17.2288 14.0785 17.3109 14.4407 17.3201ZM15.5596 19.1543C16.9785 18.9569 18.3378 18.4547 19.5441 17.6821C20.7505 16.9095 21.7753 15.885 22.548 14.6788C21.8039 13.5142 20.8233 12.519 19.67 11.7575C18.5167 10.996 17.2164 10.4852 15.8531 10.2582C16.8143 10.5625 17.6497 11.1726 18.232 11.9957C18.8142 12.8189 19.1114 13.8098 19.0782 14.8175C19.0449 15.8252 18.6831 16.7944 18.0479 17.5773C17.4126 18.3603 16.5388 18.9141 15.5596 19.1543ZM13.2118 19.1543C12.2745 18.8549 11.4567 18.2653 10.8764 17.4707C10.2961 16.6761 9.98341 15.7177 9.98341 14.7338C9.98341 13.7499 10.2961 12.7914 10.8764 11.9969C11.4567 11.2023 12.2745 10.6127 13.2118 10.3133C11.8489 10.5413 10.5489 11.0525 9.39577 11.8139C8.24261 12.5753 7.26183 13.57 6.51679 14.7338C7.28751 15.88 8.28946 16.8523 9.45824 17.5883C10.627 18.3243 11.9368 18.8077 13.3035 19.0075" fill="#FF692E"/>
<path d="M5.48962 16.2195L6.29617 15.6283L6.29468 15.6263L5.48962 16.2195ZM4.75594 15.119L5.6062 14.5926L5.58924 14.5652L5.57055 14.539L4.75594 15.119ZM4.75594 14.0551L5.57055 14.6351L5.60003 14.5937L5.62516 14.5495L4.75594 14.0551ZM13.1934 8.33232L13.3313 9.32277L13.3346 9.3223L13.1934 8.33232ZM22.6764 11.7806L23.4258 11.1185L23.4205 11.1126L22.6764 11.7806ZM24.4189 14.0184L23.5933 14.5826L23.6016 14.5948L23.6102 14.6066L24.4189 14.0184ZM24.4189 15.119L23.6102 14.5307L23.58 14.5723L23.5542 14.6167L24.4189 15.119ZM16.5868 20.7501L16.7697 21.7332L16.7786 21.7315L16.7874 21.7297L16.5868 20.7501ZM14.4407 17.3201L14.473 16.3206L14.466 16.3204L14.4407 17.3201ZM11.8178 14.4587L12.8159 14.5202L12.8163 14.5132L11.8178 14.4587ZM22.548 14.6788L23.3901 15.2182L23.7352 14.6794L23.3907 14.1403L22.548 14.6788ZM15.8531 10.2582L16.0173 9.27182L15.5514 11.2116L15.8531 10.2582ZM9.98341 14.7338H10.9834H9.98341ZM13.2118 10.3133L13.5161 11.2658L13.0468 9.32698L13.2118 10.3133ZM6.51679 14.7338L5.67459 14.1946L5.3208 14.7473L5.68695 15.2918L6.51679 14.7338ZM14.8154 19.9886C13.1539 19.9756 11.5184 19.5746 10.0393 18.8176L9.12807 20.598C10.8845 21.4969 12.8267 21.9731 14.7998 21.9885L14.8154 19.9886ZM10.0393 18.8176C8.5602 18.0606 7.27842 16.9685 6.29617 15.6283L4.68307 16.8107C5.84951 18.4021 7.37164 19.699 9.12807 20.598L10.0393 18.8176ZM6.29468 15.6263C6.06053 15.3085 5.83801 14.9671 5.6062 14.5926L3.90567 15.6453C4.15077 16.0412 4.40513 16.4335 4.68456 16.8127L6.29468 15.6263ZM5.57055 14.539C5.58056 14.553 5.58594 14.5699 5.58594 14.5871H3.58594C3.58594 14.9856 3.71014 15.3743 3.94132 15.699L5.57055 14.539ZM5.58594 14.5871C5.58594 14.6042 5.5806 14.621 5.57055 14.6351L3.94132 13.4751C3.7101 13.7999 3.58594 14.1886 3.58594 14.5871H5.58594ZM5.62516 14.5495C6.4234 13.1462 7.53344 11.945 8.86958 11.0388L7.74693 9.38357C6.15718 10.4618 4.83646 11.891 3.88671 13.5607L5.62516 14.5495ZM8.86958 11.0388C10.2057 10.1325 11.7323 9.54541 13.3313 9.32276L13.0555 7.34187C11.153 7.60677 9.33669 8.3053 7.74693 9.38357L8.86958 11.0388ZM13.3346 9.3223C14.9143 9.09704 16.5251 9.26447 18.0246 9.80977L18.7081 7.93018C16.8997 7.27259 14.9572 7.07068 13.0523 7.34233L13.3346 9.3223ZM18.0246 9.80977C19.5242 10.3551 20.8663 11.2614 21.9323 12.4487L23.4205 11.1126C22.135 9.68073 20.5165 8.58777 18.7081 7.93018L18.0246 9.80977ZM21.927 12.4428C22.5262 13.1209 23.0827 13.8356 23.5933 14.5826L25.2445 13.4542C24.6872 12.6387 24.0798 11.8586 23.4258 11.1185L21.927 12.4428ZM23.6102 14.6066C23.6022 14.5956 23.5979 14.5823 23.5979 14.5687H25.5979C25.5979 14.1597 25.4683 13.761 25.2276 13.4302L23.6102 14.6066ZM23.5979 14.5687C23.5979 14.5551 23.6022 14.5417 23.6102 14.5307L25.2276 15.7072C25.4683 15.3764 25.5979 14.9778 25.5979 14.5687H23.5979ZM23.5542 14.6167C22.7901 15.9324 21.7564 17.0718 20.5211 17.9599L21.6886 19.5838C23.1528 18.5311 24.378 17.1806 25.2837 15.6212L23.5542 14.6167ZM20.5211 17.9599C19.2857 18.8481 17.8766 19.4651 16.3861 19.7704L16.7874 21.7297C18.5542 21.3678 20.2244 20.6365 21.6886 19.5838L20.5211 17.9599ZM16.4038 19.7669C15.8331 19.8732 15.257 19.9481 14.678 19.9913L14.827 21.9857C15.4787 21.9371 16.1273 21.8527 16.7697 21.7332L16.4038 19.7669ZM14.4084 18.3195C15.1392 18.3431 15.8607 18.1505 16.4825 17.7659L15.4304 16.065C15.1433 16.2426 14.8103 16.3315 14.473 16.3206L14.4084 18.3195ZM16.4825 17.7659C17.1043 17.3813 17.5988 16.8217 17.904 16.1573L16.0865 15.3225C15.9457 15.6292 15.7174 15.8874 15.4304 16.065L16.4825 17.7659ZM17.904 16.1573C18.2091 15.4929 18.3115 14.7532 18.1981 14.0308L16.2223 14.3409C16.2746 14.6744 16.2274 15.0158 16.0865 15.3225L17.904 16.1573ZM18.1981 14.0308C18.0847 13.3086 17.7608 12.6357 17.2667 12.0967L15.7924 13.4481C16.0204 13.6969 16.1699 14.0075 16.2223 14.3409L18.1981 14.0308ZM17.2667 12.0967C16.7726 11.5577 16.1304 11.1765 15.4207 11.0009L14.9403 12.9423C15.2679 13.0234 15.5643 13.1994 15.7924 13.4481L17.2667 12.0967ZM15.4207 11.0009C14.7109 10.8253 13.9651 10.863 13.2767 11.1094L13.9506 12.9924C14.2684 12.8787 14.6126 12.8613 14.9403 12.9423L15.4207 11.0009ZM13.2767 11.1094C12.5883 11.3557 11.9879 11.7998 11.5507 12.3858L13.1539 13.5816C13.3557 13.3111 13.6328 13.1061 13.9506 12.9924L13.2767 11.1094ZM11.5507 12.3858C11.1136 12.972 10.8591 13.674 10.8192 14.4041L12.8163 14.5132C12.8347 14.1762 12.9521 13.8521 13.1539 13.5816L11.5507 12.3858ZM10.8196 14.3971C10.7891 14.8929 10.8587 15.3897 11.0245 15.8579L12.9098 15.1906C12.8338 14.9757 12.8018 14.7477 12.8159 14.5202L10.8196 14.3971ZM11.0245 15.8579C11.1902 16.3261 11.4486 16.7562 11.7842 17.1223L13.2585 15.7708C13.1045 15.6028 12.9859 15.4054 12.9098 15.1906L11.0245 15.8579ZM11.7842 17.1223C12.1198 17.4883 12.5257 17.7831 12.9779 17.9889L13.8063 16.1686C13.5989 16.0742 13.4126 15.9389 13.2585 15.7708L11.7842 17.1223ZM12.9779 17.9889C13.43 18.1947 13.9189 18.3072 14.4154 18.3197L14.466 16.3204C14.2381 16.3146 14.0138 16.263 13.8063 16.1686L12.9779 17.9889ZM15.6974 20.1448C17.2592 19.9275 18.7555 19.3746 20.0834 18.5242L19.0048 16.84C17.92 17.5347 16.6977 17.9864 15.4218 18.1638L15.6974 20.1448ZM20.0834 18.5242C21.4113 17.6738 22.5394 16.546 23.3901 15.2182L21.706 14.1393C21.0111 15.224 20.0896 16.1453 19.0048 16.84L20.0834 18.5242ZM23.3907 14.1403C22.5711 12.8577 21.4912 11.7616 20.221 10.923L19.119 12.592C20.1555 13.2763 21.0366 14.1707 21.7054 15.2172L23.3907 14.1403ZM20.221 10.923C18.9509 10.0843 17.5187 9.52175 16.0173 9.27182L15.6889 11.2447C16.914 11.4486 18.0826 11.9076 19.119 12.592L20.221 10.923ZM15.5514 11.2116C16.3046 11.45 16.9593 11.9282 17.4156 12.5732L19.0484 11.4183C18.3402 10.4171 17.3241 9.67488 16.1548 9.30485L15.5514 11.2116ZM17.4156 12.5732C17.8719 13.2183 18.1048 13.9949 18.0787 14.7845L20.0776 14.8505C20.1181 13.6248 19.7566 12.4194 19.0484 11.4183L17.4156 12.5732ZM18.0787 14.7845C18.0527 15.5742 17.7691 16.3337 17.2713 16.9473L18.8244 18.2074C19.5971 17.255 20.0372 16.0762 20.0776 14.8505L18.0787 14.7845ZM17.2713 16.9473C16.7735 17.5609 16.0887 17.9949 15.3214 18.1831L15.7978 20.1255C16.9889 19.8333 18.0518 19.1597 18.8244 18.2074L17.2713 16.9473ZM13.5161 18.2017C12.7808 17.9668 12.1392 17.5043 11.684 16.8809L10.0688 18.0605C10.7742 19.0263 11.7683 19.7429 12.9075 20.1069L13.5161 18.2017ZM11.684 16.8809C11.2287 16.2576 10.9834 15.5057 10.9834 14.7338H8.98341C8.98341 15.9297 9.36349 17.0947 10.0688 18.0605L11.684 16.8809ZM10.9834 14.7338C10.9834 13.9619 11.2287 13.21 11.684 12.5866L10.0688 11.4071C9.36349 12.3729 8.98341 13.5379 8.98341 14.7338H10.9834ZM11.684 12.5866C12.1392 11.9633 12.7808 11.5007 13.5161 11.2658L12.9075 9.3607C11.7683 9.72465 10.7742 10.4413 10.0688 11.4071L11.684 12.5866ZM13.0468 9.32698C11.546 9.57807 10.1146 10.141 8.84476 10.9794L9.94677 12.6484C10.9833 11.964 12.1518 11.5045 13.3768 11.2996L13.0468 9.32698ZM8.84476 10.9794C7.57497 11.8178 6.49499 12.9131 5.67459 14.1946L7.35899 15.2729C8.02867 14.2269 8.91025 13.3328 9.94677 12.6484L8.84476 10.9794ZM5.68695 15.2918C6.53549 16.5537 7.6386 17.6242 8.92536 18.4345L9.99111 16.7421C8.94032 16.0804 8.03953 15.2062 7.34663 14.1758L5.68695 15.2918ZM8.92536 18.4345C10.2121 19.2448 11.6542 19.777 13.1588 19.997L13.4481 18.018C12.2194 17.8384 11.0419 17.4038 9.99111 16.7421L8.92536 18.4345Z" fill="#FF692E" mask="url(#path-3-inside-1_353_665)"/>
</svg>
