<svg width="496" height="496" viewBox="0 0 496 496" fill="none" xmlns="http://www.w3.org/2000/svg">
<path d="M472 0H24C17.6348 0 11.5303 2.52856 7.02944 7.02944C2.52856 11.5303 0 17.6348 0 24V376C0 382.365 2.52856 388.47 7.02944 392.971C11.5303 397.471 17.6348 400 24 400H189.76L177.76 448H137.888C133.428 447.984 129.053 449.219 125.26 451.563C121.466 453.908 118.405 457.268 116.424 461.264L104.84 484.424C104.23 485.644 103.943 487 104.004 488.362C104.066 489.724 104.475 491.048 105.193 492.208C105.91 493.368 106.912 494.325 108.103 494.989C109.295 495.653 110.636 496.001 112 496H384C385.367 496.007 386.714 495.664 387.91 495.004C389.107 494.343 390.115 493.386 390.837 492.225C391.559 491.064 391.972 489.738 392.035 488.372C392.099 487.006 391.811 485.647 391.2 484.424L379.616 461.264C377.632 457.262 374.565 453.898 370.763 451.553C366.962 449.208 362.578 447.977 358.112 448H318.24L306.24 400H472C478.365 400 484.47 397.471 488.971 392.971C493.471 388.47 496 382.365 496 376V24C496 17.6348 493.471 11.5303 488.971 7.02944C484.47 2.52856 478.365 0 472 0ZM24 16H472C474.122 16 476.157 16.8429 477.657 18.3431C479.157 19.8434 480 21.8783 480 24V64H16V24C16 21.8783 16.8429 19.8434 18.3431 18.3431C19.8434 16.8429 21.8783 16 24 16ZM480 80V320H16V80H480ZM365.264 468.424L371.056 480H124.944L130.736 468.424C131.4 467.095 132.421 465.978 133.684 465.196C134.947 464.415 136.403 464.001 137.888 464H358.112C359.597 464.001 361.053 464.415 362.316 465.196C363.579 465.978 364.6 467.095 365.264 468.424ZM301.76 448H194.24L206.24 400H289.76L301.76 448ZM472 384H24C21.8783 384 19.8434 383.157 18.3431 381.657C16.8429 380.157 16 378.122 16 376V336H480V376C480 378.122 479.157 380.157 477.657 381.657C476.157 383.157 474.122 384 472 384Z" fill="white"/>
<path d="M232 32H264V48H232V32Z" fill="white"/>
<path d="M280 32H296V48H280V32Z" fill="white"/>
<path d="M200 32H216V48H200V32Z" fill="white"/>
<path d="M48 352H112V368H48V352Z" fill="white"/>
<path d="M128 352H144V368H128V352Z" fill="white"/>
<path d="M40 256H144V280C144 282.122 144.843 284.157 146.343 285.657C147.843 287.157 149.878 288 152 288H344C346.122 288 348.157 287.157 349.657 285.657C351.157 284.157 352 282.122 352 280V256H456C458.122 256 460.157 255.157 461.657 253.657C463.157 252.157 464 250.122 464 248V136C464 133.878 463.157 131.843 461.657 130.343C460.157 128.843 458.122 128 456 128H352V104C352 101.878 351.157 99.8434 349.657 98.3431C348.157 96.8429 346.122 96 344 96H152C149.878 96 147.843 96.8429 146.343 98.3431C144.843 99.8434 144 101.878 144 104V128H40C37.8783 128 35.8434 128.843 34.3431 130.343C32.8429 131.843 32 133.878 32 136V248C32 250.122 32.8429 252.157 34.3431 253.657C35.8434 255.157 37.8783 256 40 256ZM160 267.312L219.504 207.808C222.23 205.085 225.514 202.986 229.129 201.655C232.744 200.323 236.605 199.791 240.445 200.095C244.286 200.399 248.015 201.533 251.376 203.416C254.736 205.3 257.649 207.89 259.912 211.008L304.288 272H160V267.312ZM324.072 272L290.072 225.24L304 211.32C306.154 209.26 309.02 208.111 312 208.111C314.98 208.111 317.846 209.26 320 211.32L336 227.32V272H324.072ZM448 144V240H352V144H448ZM336 112V204.688L331.312 200C326.105 195.041 319.191 192.274 312 192.274C304.809 192.274 297.895 195.041 292.688 200L280.544 212.144L272.848 201.6C269.222 196.616 264.558 192.477 259.179 189.468C253.799 186.459 247.832 184.652 241.687 184.171C235.542 183.69 229.366 184.546 223.583 186.68C217.801 188.815 212.55 192.177 208.192 196.536L160 244.688V112H336ZM48 144H144V240H48V144Z" fill="white"/>
<path d="M280 176C284.747 176 289.387 174.592 293.334 171.955C297.28 169.318 300.357 165.57 302.173 161.184C303.99 156.799 304.465 151.973 303.539 147.318C302.613 142.662 300.327 138.386 296.971 135.029C293.614 131.673 289.338 129.387 284.682 128.461C280.027 127.535 275.201 128.01 270.816 129.827C266.43 131.643 262.682 134.72 260.045 138.666C257.408 142.613 256 147.253 256 152C256 158.365 258.529 164.47 263.029 168.971C267.53 173.471 273.635 176 280 176ZM280 144C281.582 144 283.129 144.469 284.445 145.348C285.76 146.227 286.786 147.477 287.391 148.939C287.997 150.4 288.155 152.009 287.846 153.561C287.538 155.113 286.776 156.538 285.657 157.657C284.538 158.776 283.113 159.538 281.561 159.846C280.009 160.155 278.4 159.997 276.939 159.391C275.477 158.786 274.227 157.76 273.348 156.445C272.469 155.129 272 153.582 272 152C272 149.878 272.843 147.843 274.343 146.343C275.843 144.843 277.878 144 280 144Z" fill="white"/>
<path d="M371.8 222.808C372.959 223.524 374.281 223.932 375.642 223.994C377.003 224.055 378.357 223.768 379.576 223.16L427.576 199.16C428.907 198.497 430.027 197.475 430.81 196.21C431.593 194.945 432.007 193.487 432.007 192C432.007 190.513 431.593 189.055 430.81 187.79C430.027 186.525 428.907 185.503 427.576 184.84L379.576 160.84C378.356 160.23 377 159.943 375.638 160.004C374.276 160.066 372.952 160.475 371.792 161.193C370.632 161.91 369.675 162.912 369.011 164.103C368.347 165.295 367.999 166.636 368 168V216C368 217.365 368.349 218.707 369.014 219.898C369.68 221.09 370.639 222.092 371.8 222.808ZM384 180.944L406.112 192L384 203.056V180.944Z" fill="white"/>
<path d="M64 168H128V184H64V168Z" fill="white"/>
<path d="M64 200H128V216H64V200Z" fill="white"/>
</svg>
