<svg width="49" height="50" viewBox="0 0 49 50" fill="none" xmlns="http://www.w3.org/2000/svg">
<path d="M24.2613 0.497467C19.4629 0.497467 14.7722 1.92037 10.7824 4.58623C6.7927 7.25209 3.68307 11.0412 1.84679 15.4744C0.0105121 19.9075 -0.469942 24.7857 0.466184 29.4919C1.40231 34.1981 3.71297 38.5211 7.10597 41.9141C10.499 45.3071 14.8219 47.6177 19.5281 48.5538C24.2344 49.49 29.1125 49.0095 33.5457 47.1732C37.9788 45.337 41.7679 42.2273 44.4338 38.2376C47.0997 34.2478 48.5226 29.5572 48.5226 24.7587C48.515 18.3266 45.9564 12.16 41.4082 7.61181C36.86 3.06358 30.6934 0.505055 24.2613 0.497467ZM24.2613 44.6089C20.3353 44.6089 16.4975 43.4447 13.2331 41.2635C9.9688 39.0824 7.42456 35.9822 5.92215 32.3551C4.41974 28.7279 4.02664 24.7367 4.79257 20.8862C5.55849 17.0356 7.44903 13.4987 10.2251 10.7226C13.0012 7.94649 16.5382 6.05594 20.3887 5.29002C24.2393 4.5241 28.2305 4.9172 31.8576 6.41961C35.4847 7.92202 38.5849 10.4663 40.7661 13.7306C42.9472 16.9949 44.1114 20.8328 44.1114 24.7587C44.105 30.0214 42.0116 35.0666 38.2904 38.7878C34.5691 42.509 29.5239 44.6025 24.2613 44.6089Z" fill="white"/>
<path d="M27.937 13.7309H20.5836V21.0821H13.2324V28.4354H20.5836V35.7866H27.937V28.4354H35.2881V21.0821H27.937V13.7309Z" fill="white"/>
</svg>
