<svg width="16" height="18" viewBox="0 0 16 18" fill="none" xmlns="http://www.w3.org/2000/svg">
<path d="M8 17.6596C7.9225 17.6599 7.8457 17.6448 7.77412 17.6151C7.70254 17.5854 7.63761 17.5417 7.58315 17.4865L3.05281 12.9562C2.07312 11.9775 1.40572 10.7303 1.13504 9.37219C0.864353 8.01413 1.00255 6.60629 1.53215 5.32679C2.06176 4.04729 2.95896 2.95361 4.11026 2.18412C5.26156 1.41463 6.61522 1.00391 8 1.00391C9.38478 1.00391 10.7384 1.41463 11.8897 2.18412C13.041 2.95361 13.9382 4.04729 14.4678 5.32679C14.9974 6.60629 15.1356 8.01413 14.865 9.37219C14.5943 10.7303 13.9269 11.9775 12.9472 12.9562L8.41685 17.4865C8.36239 17.5417 8.29746 17.5854 8.22588 17.6151C8.1543 17.6448 8.0775 17.6599 8 17.6596ZM8 2.18879C6.84946 2.1896 5.72497 2.53138 4.76859 3.17097C3.81221 3.81056 3.06684 4.71926 2.62666 5.78226C2.18648 6.84527 2.07122 8.01489 2.29546 9.14336C2.5197 10.2718 3.07337 11.3085 3.88652 12.1225L8 16.236L12.1135 12.1225C12.9266 11.3085 13.4803 10.2718 13.7045 9.14336C13.9288 8.01489 13.8135 6.84527 13.3733 5.78226C12.9332 4.71926 12.1878 3.81056 11.2314 3.17097C10.275 2.53138 9.15054 2.1896 8 2.18879Z" fill="#40C782" stroke="#40C782" stroke-width="0.3"/>
<path d="M8.00022 10.6044C7.41688 10.6044 6.84663 10.4315 6.3616 10.1074C5.87657 9.78328 5.49853 9.32264 5.2753 8.7837C5.05206 8.24477 4.99365 7.65173 5.10746 7.0796C5.22126 6.50746 5.50217 5.98192 5.91465 5.56944C6.32714 5.15695 6.85268 4.87605 7.42481 4.76224C7.99695 4.64844 8.58998 4.70684 9.12892 4.93008C9.66786 5.15332 10.1285 5.53135 10.4526 6.01639C10.7767 6.50142 10.9497 7.07166 10.9497 7.655C10.9497 8.43724 10.6389 9.18744 10.0858 9.74057C9.53266 10.2937 8.78246 10.6044 8.00022 10.6044ZM8.00022 5.88534C7.65021 5.88534 7.30807 5.98913 7.01705 6.18358C6.72603 6.37804 6.49921 6.65442 6.36527 6.97778C6.23132 7.30115 6.19628 7.65697 6.26456 8.00025C6.33284 8.34353 6.50139 8.65885 6.74888 8.90634C6.99637 9.15384 7.31169 9.32238 7.65498 9.39066C7.99826 9.45895 8.35408 9.4239 8.67744 9.28996C9.0008 9.15602 9.27719 8.9292 9.47164 8.63818C9.66609 8.34716 9.76988 8.00501 9.76988 7.655C9.76988 7.18566 9.58344 6.73554 9.25156 6.40366C8.91968 6.07179 8.46956 5.88534 8.00022 5.88534Z" fill="#40C782" stroke="#40C782" stroke-width="0.3"/>
</svg>
