<svg width="233" height="263" viewBox="0 0 233 263" fill="none" xmlns="http://www.w3.org/2000/svg">
<path d="M145.675 6.51661V102.412L59.2207 1.00005H140.012C140.75 0.982813 141.483 1.11276 142.17 1.38227C142.856 1.65178 143.481 2.05545 144.009 2.56945C144.536 3.08345 144.956 3.69744 145.242 4.37533C145.528 5.05322 145.675 5.78114 145.675 6.51661Z" fill="#FF692E"/>
<path d="M232.043 107.929V203.868L145.589 102.412H226.423C227.156 102.407 227.882 102.545 228.561 102.819C229.239 103.093 229.858 103.498 230.379 104.01C230.901 104.523 231.317 105.132 231.602 105.805C231.887 106.477 232.037 107.199 232.043 107.929Z" fill="#F2ECD2"/>
<path d="M86.5841 65.6488V161.588L0.129883 60.132H80.9647C81.6985 60.1206 82.4273 60.255 83.1086 60.5271C83.7899 60.7992 84.4101 61.2038 84.933 61.7172C85.456 62.2306 85.8714 62.8426 86.1549 63.5176C86.4383 64.1926 86.5842 64.9171 86.5841 65.6488Z" fill="#02533B"/>
<path d="M172.736 167.061V263L86.2812 161.588H167.116C167.846 161.576 168.571 161.709 169.25 161.978C169.928 162.248 170.547 162.648 171.069 163.157C171.592 163.666 172.008 164.273 172.294 164.943C172.58 165.613 172.73 166.333 172.736 167.061Z" fill="#40C782"/>
</svg>
