<svg width="107" height="25" viewBox="0 0 107 25" fill="none" xmlns="http://www.w3.org/2000/svg">
<path d="M37.0315 19.3133L34.6793 11.9401H27.0914L24.7411 19.3133H22.5508L28.615 0.480225H33.1575L39.2218 19.3133H37.0315ZM27.7054 10.07H34.0653L31.2064 1.10172H30.5642L27.7054 10.07Z" fill="#40C782"/>
<path d="M42.0527 19.3133V7.61041C42.0527 6.35613 42.6403 5.74029 43.8965 5.7949L51.2696 6.03408V7.93245L44.243 7.66502V19.3133H42.0527Z" fill="#40C782"/>
<path d="M57.8938 17.7106L62.57 17.4432V19.3133L57.519 19.5807C56.2647 19.6598 55.6753 18.9931 55.6753 17.7633V7.93249H52.7637V6.03412H55.6753V2.60839L57.8938 1.93982V6.02659H62.0371V7.92496H57.8938V17.7106Z" fill="#40C782"/>
<path d="M69.1965 17.7106L73.8709 17.4432V19.3133L68.8217 19.5807C67.5656 19.6598 66.978 18.9931 66.978 17.7633V7.93249H64.0664V6.03412H66.978V2.60839L69.1965 1.93982V6.02659H73.3398V7.92496H69.1965V17.7106Z" fill="#40C782"/>
<path d="M82.6594 5.76855C86.8818 5.76855 89.6597 8.81386 89.6597 12.6614C89.6597 16.5618 86.8818 19.5807 82.6594 19.5807C78.4371 19.5807 75.6328 16.5674 75.6328 12.6614C75.6328 8.82327 78.4126 5.76855 82.6594 5.76855ZM82.6594 17.7106C85.7593 17.7106 87.443 15.4393 87.443 12.6614C87.443 9.88357 85.7593 7.66504 82.6594 7.66504C79.5068 7.66504 77.825 9.90806 77.825 12.6614C77.825 15.4148 79.5068 17.7106 82.6594 17.7106Z" fill="#40C782"/>
<path d="M92.8398 6.0341H95.0301V7.9852L94.6836 9.5088H95.2976C95.8625 7.42398 97.6479 5.76855 100.667 5.76855C104.514 5.76855 107 8.73287 107 12.6878C107 16.6427 104.514 19.5807 100.667 19.5807C97.6536 19.5807 95.8588 17.9234 95.2976 15.8668H94.6836L95.0301 17.3904V24.1703H92.8398V6.0341ZM100.027 17.7106C102.778 17.7106 104.808 16.1606 104.808 12.6878C104.808 9.215 102.778 7.66504 100.027 7.66504C97.275 7.66504 95.0301 9.16038 95.0301 12.6878C95.0301 16.2152 97.3014 17.7106 100.027 17.7106Z" fill="#40C782"/>
<path d="M15.59 0H1.23733C0.908993 0.000498988 0.594277 0.131279 0.362287 0.363623C0.130296 0.595966 -3.79169e-07 0.91088 0 1.23921V18.4601C-3.79169e-07 18.7885 0.130296 19.1034 0.362287 19.3357C0.594277 19.5681 0.908993 19.6989 1.23733 19.6994H15.59C15.9185 19.6989 16.2334 19.5681 16.4657 19.3359C16.698 19.1036 16.8287 18.7887 16.8292 18.4601V1.23921C16.8287 0.910707 16.698 0.595798 16.4657 0.363508C16.2334 0.131218 15.9185 0.000498116 15.59 0ZM15.59 18.9272H1.23733C1.16703 18.9271 1.09767 18.9111 1.03441 18.8805C0.971148 18.8498 0.915616 18.8053 0.871965 18.7502L8.42213 9.84968H0.772156V9.38827L8.08879 0.766506H8.42213V9.84403L15.9553 18.7332C15.9135 18.7915 15.8588 18.8394 15.7954 18.8731C15.732 18.9067 15.6617 18.9252 15.59 18.9272ZM16.057 9.38827L8.74794 0.775923H15.59C15.7137 0.776419 15.8322 0.825785 15.9197 0.913268C16.0072 1.00075 16.0565 1.11926 16.057 1.24298V9.38827Z" fill="#40C782"/>
</svg>
