<svg width="33" height="35" viewBox="0 0 33 35" fill="none" xmlns="http://www.w3.org/2000/svg">
<path d="M29.3535 1.04096C27.4014 -0.0177411 25.1623 -0.0785884 22.9968 0.0474647C22.1682 0.0957009 22.1562 1.37634 22.9968 1.34629C30.9894 0.487315 33.2882 7.20313 29.1595 13.1785C25.1378 18.1632 16.441 14.9041 15.7309 8.84861C15.326 5.39536 17.6588 2.41492 20.9222 1.47871C20.9771 1.46181 21.0242 1.42599 21.0551 1.37763C21.086 1.32926 21.0988 1.27149 21.0911 1.21461C21.0834 1.15773 21.0557 1.10543 21.0131 1.06702C20.9704 1.02862 20.9155 1.0066 20.8581 1.00489C17.604 0.97663 15.1507 3.63415 14.5633 6.67773C10.9617 6.65883 7.35637 6.93805 3.75639 6.86915C0.755422 6.81331 0.495733 10.2388 0.443549 12.5208C0.412234 17.8136 -1.98311 25.6546 4.68921 27.8283C8.04806 28.9728 11.6461 28.0821 15.0924 28.5458C15.819 31.6311 18.946 35.1284 22.2669 34.8724C23.6935 35.1214 22.9757 33.5942 22.4886 32.9785C21.8086 31.4727 22.0344 29.7515 21.5332 28.2018C23.7055 28.0959 26.5147 29.1365 28.0428 27.0752C29.9149 23.4646 28.9457 18.9705 29.5157 15.0208C33.2339 11.6205 34.2826 3.82245 29.3535 1.04096ZM27.9767 24.9517C27.4428 29.9105 19.4914 25.4509 20.5135 28.0178C20.4533 29.8985 20.3664 31.9548 21.2183 33.6944C18.457 32.8245 16.6589 30.3271 15.9026 27.6506C15.1099 26.1936 9.33453 27.3681 7.49789 26.8564C0.470559 26.1906 1.24961 21.1346 1.62182 15.6846C1.67891 5.02832 1.81734 8.28697 14.4467 7.65546C13.8467 14.7243 22.7434 19.5721 28.5336 15.7681C28.2887 18.8195 28.414 21.9274 27.9767 24.9517Z" fill="#40C782"/>
<path d="M20.6603 5.05063C20.8671 5.04345 21.063 4.95624 21.2068 4.8074C21.3505 4.65856 21.4309 4.45971 21.4309 4.25278C21.4309 4.04584 21.3505 3.847 21.2068 3.69815C21.063 3.54931 20.8671 3.46211 20.6603 3.45493C20.4535 3.46211 20.2575 3.54931 20.1138 3.69815C19.97 3.847 19.8896 4.04584 19.8896 4.25278C19.8896 4.45971 19.97 4.65856 20.1138 4.8074C20.2575 4.95624 20.4535 5.04345 20.6603 5.05063Z" fill="#40C782"/>
<path d="M26.3947 5.20255C27.4174 5.50118 27.938 3.93118 26.8849 3.63278C25.918 3.33336 25.4017 4.92542 26.3947 5.20255Z" fill="#40C782"/>
<path d="M25.2163 10.5698C22.8612 12.0479 20.2647 9.90191 19.5575 7.61077C19.414 7.22855 18.7627 7.2437 18.792 7.71441C18.8416 11.1488 23.0796 13.7663 26.0216 11.7243C26.8636 11.1286 27.7648 10.0719 27.6015 8.97942C27.5195 8.43024 26.7883 8.47971 26.5333 8.83978C26.1825 9.47343 25.9054 10.2008 25.2163 10.5698Z" fill="#40C782"/>
<path d="M9.14592 12.931C9.95223 12.8488 14.202 13.6884 12.4219 11.9307C11.7876 11.7561 3.44573 11.228 5.8909 12.8182C6.9777 12.8756 8.05822 12.9018 9.14592 12.931Z" fill="#40C782"/>
<path d="M15.0489 15.2628C14.2981 15.4412 3.60044 14.5645 6.28462 16.2107C9.20309 16.3883 12.1264 16.3924 15.0489 16.4195C15.428 16.4085 15.8155 16.4465 16.0769 16.1297C16.5061 15.4882 15.5538 15.1982 15.0489 15.2628Z" fill="#40C782"/>
<path d="M11.9652 19.3148C11.4872 18.7294 4.56219 18.5725 6.72937 19.9534C7.5166 19.7642 13.1674 20.9517 11.9652 19.3148Z" fill="#40C782"/>
</svg>
