<svg width="15" height="13" viewBox="0 0 15 13" fill="none" xmlns="http://www.w3.org/2000/svg">
<path d="M14.0739 0.0995749C13.4099 -0.258011 12.6691 0.431619 12.2349 0.840288C11.2388 1.81088 10.396 2.93472 9.45087 3.95639C8.40365 5.08023 7.43306 6.20407 6.36031 7.30241C5.7473 7.91542 5.08322 8.5795 4.67455 9.34576C3.75504 8.45175 2.96324 7.48116 1.94157 6.68941C1.20086 6.12749 -0.025149 5.71882 0.000392812 7.07254C0.0514765 8.83496 1.60953 10.7251 2.75891 11.9255C3.2442 12.4363 3.88275 12.9727 4.62346 12.9982C5.51743 13.0493 6.43693 11.9766 6.97331 11.3891C7.9184 10.3674 8.68466 9.21801 9.55304 8.17083C10.6769 6.79158 11.8263 5.43782 12.9246 4.03302C13.6142 3.16459 15.7852 1.01904 14.0739 0.0995749ZM1.12419 6.97037C1.09865 6.97037 1.07311 6.97037 1.02202 6.99587C0.919857 6.97037 0.843231 6.94478 0.741064 6.8937C0.81769 6.84262 0.945399 6.86816 1.12419 6.97037Z" fill="#40C782"/>
</svg>
