<svg width="91" height="91" viewBox="0 0 91 91" fill="none" xmlns="http://www.w3.org/2000/svg">
<path d="M54.1759 65.8776L44.8899 62.2409C41.864 61.0471 39.9066 58.1878 39.9066 54.9536V53.5655C43.0159 49.4846 45.0007 43.4466 45.0007 36.6868C45.0007 36.6312 44.9732 36.5896 44.9593 36.534L46.2779 29.7465C46.6666 27.7754 46.1529 25.7489 44.876 24.1943C43.5852 22.6396 41.6973 21.7513 39.6847 21.7513L38.8517 20.6131C37.0749 18.184 33.9518 16.9903 30.0933 17.2678C28.7052 17.3373 21.5704 17.9618 17.573 22.6813C15.4215 25.2214 14.5468 28.4555 14.9633 32.3144C14.9772 32.356 14.9772 32.4115 14.9911 32.4531L15.9349 36.8671C15.9626 43.5438 17.9336 49.5124 21.0154 53.5655V54.9536C21.0154 58.1878 19.058 61.0471 16.046 62.2409L6.73221 65.8776C2.6514 67.4878 0 71.3604 0 75.7466V88.836C0 89.5995 0.624896 90.224 1.38806 90.224H59.5339C60.2971 90.224 60.922 89.5995 60.922 88.836V75.7466C60.922 71.3604 58.2706 67.4878 54.1759 65.8776ZM18.7249 37.8805C20.6822 37.3252 22.1811 35.6457 22.4173 33.522L22.4312 33.3415C22.5698 32.1339 23.4167 31.1346 24.5546 30.8708C28.4968 29.9547 32.4529 29.9685 36.2979 30.8985C37.3528 31.1484 38.1854 32.0784 38.3661 33.2027L38.463 33.7718C38.7964 35.7984 40.2536 37.3808 42.1971 37.8944C41.9887 43.6826 40.2397 48.7906 37.6165 52.1358C37.5331 52.2052 37.4775 52.2885 37.4084 52.3718C35.451 54.7453 33.0636 56.1612 30.4539 56.1612C27.8584 56.1612 25.4571 54.7453 23.5 52.3579C23.4445 52.2746 23.3889 52.2052 23.3194 52.1358C20.6961 48.7906 18.9472 43.6826 18.7249 37.8805ZM2.77611 87.4479V75.7466C2.77611 72.5125 4.73349 69.6531 7.74546 68.4593L17.0593 64.8226C17.9756 64.4617 18.8082 63.9759 19.5717 63.393L26.1094 87.4479H2.77611ZM22.4173 60.1449C23.0558 58.9928 23.5 57.7158 23.6803 56.3555C25.7068 58.0073 28.0112 58.9373 30.4539 58.9373C32.9108 58.9373 35.2151 58.0073 37.2417 56.3555C37.4219 57.7852 37.9079 59.1316 38.6158 60.3392C33.841 63.9898 27.1227 63.9204 22.4173 60.1449ZM58.1459 87.4479H35.1457L41.5861 63.5595C42.2944 64.0592 43.0436 64.5034 43.8766 64.8226L53.1626 68.4593C56.1885 69.6531 58.1459 72.5125 58.1459 75.7466V87.4479Z" fill="#40C782"/>
<path d="M87.4472 0.000366211H54.5642C53.0311 0.000366211 51.7881 1.24321 51.7881 2.77648V23.2087C51.7881 24.7419 53.0311 25.9848 54.5642 25.9848H57.6179V32.1651C57.6179 33.6035 59.1299 34.5408 60.418 33.9009L76.3566 25.9848H87.4472C88.9806 25.9848 90.2233 24.7419 90.2233 23.2087V2.77648C90.2233 1.24321 88.9806 0.000366211 87.4472 0.000366211ZM65.6551 5.552H76.357C77.1235 5.552 77.745 6.17283 77.745 6.94005C77.745 7.70728 77.1235 8.32811 76.357 8.32811H65.6551C64.8885 8.32811 64.267 7.70728 64.267 6.94005C64.267 6.17283 64.8885 5.552 65.6551 5.552ZM76.357 20.4329H65.6551C64.8885 20.4329 64.267 19.8121 64.267 19.0449C64.267 18.2777 64.8885 17.6568 65.6551 17.6568H76.357C77.1235 17.6568 77.745 18.2777 77.745 19.0449C77.745 19.8121 77.1235 20.4329 76.357 20.4329ZM83.283 14.3805H58.729C57.9625 14.3805 57.341 13.7597 57.341 12.9925C57.341 12.2252 57.9625 11.6044 58.729 11.6044H83.283C84.0495 11.6044 84.6711 12.2252 84.6711 12.9925C84.6711 13.7597 84.0495 14.3805 83.283 14.3805Z" fill="#40C782"/>
</svg>
