<svg width="43" height="44" viewBox="0 0 43 44" fill="none" xmlns="http://www.w3.org/2000/svg">
<path d="M21.9983 42.8859C21.3986 42.7063 20.8569 42.3714 20.4281 41.9152C20.0142 41.4442 19.5574 41.016 19.0864 40.4878C18.8286 40.8751 18.4711 41.1857 18.0515 41.3867C17.6319 41.5877 17.1659 41.6717 16.7025 41.6297C16.248 41.5707 15.822 41.3755 15.4806 41.0697C15.1392 40.764 14.8983 40.362 14.7897 39.9168C14.4422 40.0457 14.0685 40.0887 13.7008 40.042C13.333 39.9953 12.982 39.8603 12.6777 39.6485C12.3734 39.4368 12.1248 39.1546 11.9532 38.8259C11.7816 38.4973 11.692 38.1321 11.6922 37.7614C10.122 37.4616 9.57954 36.9192 9.36542 35.4489C9.10848 35.4489 8.85154 35.3633 8.60888 35.2919C8.24402 35.1716 7.91619 34.9596 7.65687 34.6762C7.39754 34.3928 7.21545 34.0475 7.12802 33.6734C7.0406 33.2993 7.0508 32.9091 7.15764 32.5401C7.26449 32.1711 7.46438 31.8358 7.73815 31.5663C8.72309 30.5385 9.73656 29.5535 10.75 28.5543C10.8537 28.4595 10.9688 28.378 11.0927 28.3117L7.18143 24.4861L7.26707 24.3576L7.11007 24.4861C7.01102 24.5961 6.88995 24.6842 6.75469 24.7444C6.61944 24.8046 6.47305 24.8357 6.325 24.8357C6.17694 24.8357 6.03051 24.8046 5.89526 24.7444C5.76 24.6842 5.63893 24.5961 5.53988 24.4861L1.40029 20.2752C1.27548 20.1763 1.17465 20.0504 1.10533 19.9071C1.03601 19.7637 1 19.6065 1 19.4472C1 19.288 1.03601 19.1308 1.10533 18.9874C1.17465 18.8441 1.27548 18.7182 1.40029 18.6193C3.95066 16.0499 6.51533 13.4853 9.09424 10.9254C9.19336 10.8057 9.31765 10.7093 9.45829 10.6431C9.59894 10.577 9.75243 10.5427 9.90786 10.5427C10.0633 10.5427 10.2168 10.577 10.3575 10.6431C10.4981 10.7093 10.6224 10.8057 10.7215 10.9254C12.149 12.3528 13.5764 13.7803 14.9182 15.1221C15.4749 15.693 15.4321 16.1213 14.804 16.9064L18.0586 20.1609L18.7295 19.49C19.3576 18.7579 20.2014 18.2434 21.1399 18.0203C22.0785 17.7972 23.0635 17.877 23.9539 18.2482C24.5175 18.4667 25.1326 18.5156 25.7236 18.3887C26.3146 18.2619 26.8556 17.9649 27.2799 17.5345C27.7367 17.1062 28.1792 16.6494 28.7073 16.107C28.5577 16.0417 28.4183 15.9552 28.2934 15.8501C28.1739 15.7523 28.0777 15.6293 28.0116 15.4898C27.9455 15.3503 27.9111 15.1979 27.9111 15.0436C27.9111 14.8892 27.9455 14.7368 28.0116 14.5973C28.0777 14.4578 28.1739 14.3348 28.2934 14.2371L31.862 10.6684C32.0904 10.44 32.3187 10.1974 32.5614 9.9833C32.6575 9.88088 32.7737 9.79924 32.9025 9.74344C33.0314 9.68764 33.1704 9.65884 33.3109 9.65884C33.4513 9.65884 33.5903 9.68764 33.7192 9.74344C33.8481 9.79924 33.9641 9.88088 34.0603 9.9833C35.3307 11.2252 36.5725 12.4813 37.8287 13.7374C37.8935 13.7934 37.946 13.8624 37.9826 13.9398C38.0192 14.0173 38.0392 14.1016 38.0413 14.1872C38.0434 14.2729 38.0275 14.358 37.9947 14.4371C37.9619 14.5163 37.9128 14.5877 37.8508 14.6468C37.7887 14.7058 37.715 14.7513 37.6343 14.7801C37.5536 14.8089 37.4678 14.8206 37.3824 14.8143C37.2969 14.8079 37.2137 14.7838 37.1382 14.7434C37.0626 14.703 36.9964 14.6472 36.9437 14.5796L33.5464 11.1966L33.3322 10.9968L29.3068 15.0507L36.8152 22.5733L40.8692 18.4909C40.341 17.9627 39.7558 17.406 39.1848 16.8207C39.0706 16.7065 38.8993 16.5353 38.8993 16.4068C38.8916 16.2908 38.9094 16.1744 38.9513 16.0659C38.9932 15.9574 39.0583 15.8595 39.142 15.7787C39.2474 15.7225 39.365 15.6931 39.4845 15.6931C39.604 15.6931 39.7217 15.7225 39.8271 15.7787C40.5837 16.4782 41.2546 17.2062 41.9968 17.9484C42.0805 18.0524 42.1428 18.1718 42.1802 18.2998C42.2176 18.4279 42.2294 18.5622 42.2148 18.6948C42.2002 18.8274 42.1596 18.9558 42.0952 19.0727C42.0309 19.1896 41.9441 19.2926 41.8398 19.3759L39.2419 21.9738L37.8144 23.4013C37.7129 23.5544 37.575 23.68 37.4131 23.7668C37.2512 23.8537 37.0703 23.8992 36.8866 23.8992C36.7028 23.8992 36.522 23.8537 36.3601 23.7668C36.1982 23.68 36.0603 23.5544 35.9587 23.4013L35.8017 23.2728L30.6772 28.3973L31.3624 29.0825L32.4615 30.1959C32.8534 30.545 33.126 31.0081 33.2412 31.5202C33.3564 32.0322 33.3084 32.5674 33.1038 33.0508C32.9366 33.5239 32.6276 33.934 32.2189 34.2252C31.8102 34.5164 31.3217 34.6745 30.8199 34.6781H30.5773C30.5876 35.0401 30.5261 35.4006 30.3962 35.7387C30.2663 36.0769 30.0708 36.3859 29.8207 36.648C29.5572 36.9042 29.2438 37.1036 28.9001 37.2337C28.5563 37.3638 28.1895 37.422 27.8223 37.4045C27.8449 37.7688 27.7905 38.1338 27.6626 38.4757C27.5347 38.8175 27.3362 39.1286 27.08 39.3886C26.8337 39.64 26.5376 39.8372 26.2107 39.9675C25.8838 40.0977 25.5332 40.1583 25.1815 40.1452C25.0861 40.6308 24.9524 41.1081 24.7819 41.5726C24.6114 41.9378 24.3571 42.2575 24.0395 42.5056C23.722 42.7536 23.3503 42.9231 22.9547 43.0001L21.9983 42.8859ZM6.41064 23.5012L9.45111 20.4465C9.66522 20.2466 9.85078 20.0182 10.0649 19.8469C10.1192 19.7925 10.1838 19.7494 10.2548 19.72C10.3258 19.6905 10.4019 19.6754 10.4788 19.6754C10.5557 19.6754 10.6319 19.6905 10.7029 19.72C10.7739 19.7494 10.8384 19.7925 10.8928 19.8469C11.0035 19.9591 11.0656 20.1104 11.0656 20.268C11.0656 20.4256 11.0035 20.5769 10.8928 20.6891C10.7954 20.8053 10.6905 20.9149 10.5788 21.0174L8.09502 23.4869L12.049 27.3696C13.6192 26.7843 14.5899 27.2554 15.3607 29.0682C15.7626 28.9829 16.1802 29.0096 16.5679 29.1456C16.9555 29.2815 17.2984 29.5214 17.559 29.839C17.8198 30.1572 17.9915 30.5389 18.0567 30.9452C18.1219 31.3514 18.0782 31.7677 17.9301 32.1515C18.2589 32.242 18.5643 32.4023 18.8254 32.6215C19.0865 32.8408 19.2973 33.1138 19.4432 33.4219C19.5839 33.7337 19.6566 34.0719 19.6566 34.414C19.6566 34.7561 19.5839 35.0943 19.4432 35.4061C19.8748 35.5346 20.2592 35.7871 20.5485 36.1323C20.8378 36.4774 21.0193 36.9 21.0705 37.3474C21.0984 37.7954 21.009 38.243 20.8113 38.646C20.6136 39.049 20.3142 39.3935 19.9428 39.6456C20.5138 40.2309 21.0419 40.8018 21.6129 41.3442C21.8502 41.5629 22.161 41.6844 22.4836 41.6844C22.8063 41.6844 23.1172 41.5629 23.3544 41.3442C23.5958 41.1251 23.7471 40.824 23.7788 40.4994C23.8104 40.1749 23.7202 39.8502 23.5257 39.5885C23.5257 39.5029 23.3829 39.4315 23.3258 39.3316C23.2387 39.2154 23.2004 39.0698 23.219 38.9258C23.2377 38.7818 23.3119 38.6508 23.4258 38.5607C23.5315 38.4712 23.6655 38.422 23.8041 38.422C23.9426 38.422 24.0766 38.4712 24.1823 38.5607C24.268 38.5607 24.3394 38.7035 24.4393 38.7606C24.6403 38.9183 24.8845 39.011 25.1396 39.0263C25.3946 39.0416 25.6483 38.9788 25.8667 38.8462C26.0918 38.74 26.2778 38.5657 26.3982 38.3479C26.5186 38.1302 26.5674 37.88 26.5376 37.6329C26.495 37.3416 26.3877 37.0636 26.2236 36.8193C25.9809 36.4481 25.9381 36.1483 26.2236 35.9057C26.5091 35.663 26.766 35.6487 27.1657 35.9057C27.3495 36.0492 27.5684 36.1411 27.7995 36.1721C28.0307 36.203 28.266 36.1718 28.4811 36.0817C28.6962 35.9915 28.8835 35.8458 29.0236 35.6593C29.1637 35.4728 29.2516 35.2524 29.2783 35.0207C29.2991 34.816 29.2754 34.6093 29.2089 34.4147C29.1424 34.22 29.0346 34.0421 28.8929 33.893C28.8345 33.8395 28.7878 33.7744 28.7559 33.7019C28.724 33.6295 28.7075 33.5511 28.7075 33.4719C28.7075 33.3927 28.724 33.3143 28.7559 33.2418C28.7878 33.1693 28.8345 33.1043 28.8929 33.0508C29.0037 32.9485 29.1489 32.8916 29.2997 32.8916C29.4505 32.8916 29.5958 32.9485 29.7065 33.0508L29.9349 33.2364C30.1455 33.3793 30.3941 33.4558 30.6486 33.4558C30.9032 33.4558 31.1518 33.3793 31.3624 33.2364C31.5746 33.1245 31.7489 32.9522 31.8632 32.7414C31.9775 32.5305 32.0268 32.2905 32.0047 32.0516C31.9954 31.8469 31.9422 31.6466 31.8486 31.4643C31.755 31.2821 31.6232 31.1221 31.4623 30.9953L23.9967 23.6297C23.8633 23.4577 23.6924 23.3186 23.4969 23.2228C23.3015 23.1271 23.0867 23.0774 22.8691 23.0774C22.6515 23.0774 22.4367 23.1271 22.2413 23.2228C22.0458 23.3186 21.8748 23.4577 21.7414 23.6297C21.1847 24.1864 20.6565 24.743 20.0856 25.2855C19.8552 25.5502 19.5729 25.7646 19.256 25.9154C18.9392 26.0662 18.5947 26.1501 18.244 26.1619C17.8933 26.1738 17.5439 26.1132 17.2177 25.9841C16.8914 25.855 16.5952 25.6601 16.3476 25.4115C16.1 25.1628 15.9063 24.8659 15.7784 24.5391C15.6506 24.2123 15.5914 23.8627 15.6046 23.5121C15.6178 23.1615 15.7031 22.8173 15.8552 22.5011C16.0072 22.1849 16.2228 21.9033 16.4884 21.674L17.1022 21.0888L13.7763 17.7343C13.525 18.0473 13.2582 18.3474 12.9769 18.6336C12.9106 18.7126 12.8251 18.7731 12.7286 18.8093C12.632 18.8456 12.5278 18.8564 12.4259 18.8406C12.324 18.8248 12.2279 18.783 12.1469 18.7193C12.0659 18.6555 12.0027 18.5719 11.9634 18.4766C11.9092 18.3424 11.9008 18.1942 11.9395 18.0548C11.9782 17.9154 12.0619 17.7927 12.1775 17.7057L13.9047 15.9785L9.8365 11.9103L2.34241 19.3902C3.68421 20.732 5.04026 22.0737 6.42489 23.4726M29.4211 17.0348L28.3648 18.134C27.7453 18.8253 26.9276 19.3087 26.0232 19.5182C25.1189 19.7277 24.1719 19.6531 23.3116 19.3045C22.7237 19.0719 22.0798 19.0195 21.462 19.1543C20.8442 19.289 20.2806 19.6047 19.8429 20.0611C19.015 20.8604 18.2156 21.674 17.4162 22.4877C17.2804 22.6133 17.1721 22.7657 17.098 22.9352C17.0239 23.1047 16.9857 23.2876 16.9857 23.4726C16.9857 23.6576 17.0239 23.8406 17.098 24.0101C17.1721 24.1796 17.2804 24.3319 17.4162 24.4576C17.546 24.5831 17.7 24.6808 17.8688 24.7448C18.0377 24.8088 18.2178 24.8377 18.3982 24.8297C18.5786 24.8217 18.7554 24.7769 18.9179 24.6982C19.0804 24.6195 19.2252 24.5085 19.3433 24.3719L20.9991 22.7161C21.4234 22.265 21.9906 21.9745 22.6046 21.8938C23.2186 21.8132 23.8415 21.9473 24.3679 22.2736C24.5799 22.4021 24.8169 22.4839 25.0631 22.5134C25.3093 22.5429 25.5589 22.5196 25.7953 22.4449C26.7089 22.1594 27.651 21.9024 28.5789 21.6455L28.9357 21.5599C29.0808 21.5432 29.2267 21.5827 29.3436 21.6703C29.4604 21.7579 29.5392 21.887 29.5638 22.0309C29.602 22.1635 29.5895 22.3056 29.5288 22.4296C29.4682 22.5535 29.3636 22.6506 29.2355 22.7018C29.0601 22.7785 28.8787 22.8406 28.693 22.8874L26.0237 23.6439L29.7636 27.3838L34.7883 22.3449L29.4639 17.0348M11.7207 36.5623C11.9696 36.4707 12.2048 36.3459 12.4202 36.1912C13.8476 34.7637 15.2751 33.3363 16.7025 31.9088C16.8827 31.66 16.9779 31.3596 16.9737 31.0524C16.9735 30.8664 16.9118 30.6858 16.7982 30.5386C16.6846 30.3915 16.5255 30.286 16.3456 30.2387C16.152 30.1671 15.9413 30.1547 15.7406 30.2029C15.5398 30.2512 15.3579 30.3581 15.218 30.5099L12.3631 33.3648L11.0356 34.6924C10.8862 34.8376 10.7875 35.027 10.7541 35.2327C10.7206 35.4383 10.7543 35.6493 10.85 35.8343C10.9395 36.0138 11.0727 36.168 11.2373 36.2827C11.4019 36.3975 11.5927 36.469 11.7921 36.4909M9.49393 34.1642C9.73436 34.0799 9.96058 33.9596 10.1648 33.8073C11.4495 32.5654 12.7056 31.295 13.9618 30.0246C14.0902 29.8992 14.183 29.7419 14.2306 29.5688C14.2783 29.3958 14.2791 29.2131 14.233 29.0397C14.1965 28.8647 14.113 28.7031 13.9916 28.5719C13.8702 28.4408 13.7154 28.3452 13.5438 28.2953C13.3722 28.2454 13.1902 28.2432 13.0174 28.2888C12.8446 28.3345 12.6875 28.4262 12.5629 28.5543C11.264 29.8105 10.0078 31.0952 8.73738 32.3656C8.66811 32.4318 8.6102 32.509 8.56605 32.594C8.48474 32.7562 8.44544 32.9363 8.4517 33.1176C8.45797 33.299 8.50959 33.4759 8.60191 33.6321C8.69422 33.7883 8.82428 33.9188 8.98011 34.0118C9.13595 34.1048 9.31261 34.1572 9.49393 34.1642ZM14.2616 38.7463C14.4878 38.6475 14.6991 38.5178 14.8897 38.3609C16.0031 37.276 17.1022 36.1769 18.1871 35.0778C18.3124 34.9928 18.4173 34.8812 18.4945 34.751C18.5716 34.6208 18.6191 34.4751 18.6334 34.3244C18.6477 34.1737 18.6286 34.0217 18.5773 33.8792C18.5261 33.7368 18.444 33.6074 18.337 33.5004C18.2299 33.3933 18.1006 33.3113 17.9581 33.2601C17.8157 33.2088 17.6637 33.1897 17.513 33.204C17.3623 33.2183 17.2166 33.2657 17.0864 33.3429C16.9561 33.4201 16.8446 33.525 16.7596 33.6503L15.061 35.349L13.3908 37.0334C13.2359 37.1715 13.1309 37.3569 13.0922 37.5609C13.0535 37.7648 13.0832 37.9758 13.1767 38.1611C13.2733 38.365 13.4311 38.5337 13.6282 38.6437C13.8252 38.7537 14.0515 38.7996 14.2758 38.7748M17.2449 40.3879C17.42 40.3514 17.5854 40.2785 17.7303 40.1738C18.444 39.5029 19.1577 38.8177 19.8001 38.0897C19.9574 37.897 20.0335 37.6506 20.0122 37.4028C19.9909 37.1549 19.8738 36.9251 19.6859 36.7621C19.5053 36.6006 19.2715 36.5114 19.0293 36.5114C18.787 36.5114 18.5532 36.6006 18.3726 36.7621C17.6732 37.4188 16.9452 38.1039 16.3314 38.8177C16.2016 38.9615 16.1218 39.1435 16.1038 39.3364C16.0858 39.5293 16.1306 39.7229 16.2315 39.8883C16.328 40.0695 16.4752 40.2187 16.6552 40.3176C16.8352 40.4165 17.0402 40.4608 17.2449 40.445" fill="#FF692E"/>
<path d="M6.41064 23.5012L9.45111 20.4465C9.66522 20.2466 9.85078 20.0182 10.0649 19.8469C10.1192 19.7925 10.1838 19.7494 10.2548 19.72C10.3258 19.6905 10.4019 19.6754 10.4788 19.6754C10.5557 19.6754 10.6319 19.6905 10.7029 19.72C10.7739 19.7494 10.8384 19.7925 10.8928 19.8469C11.0035 19.9591 11.0656 20.1104 11.0656 20.268C11.0656 20.4256 11.0035 20.5769 10.8928 20.6891C10.7954 20.8053 10.6905 20.9149 10.5788 21.0174L8.09502 23.4869L12.049 27.3696C13.6192 26.7843 14.5899 27.2554 15.3607 29.0682C15.7626 28.9829 16.1802 29.0096 16.5679 29.1456C16.9555 29.2815 17.2984 29.5214 17.559 29.839C17.8198 30.1572 17.9915 30.5389 18.0567 30.9452C18.1219 31.3514 18.0782 31.7677 17.9301 32.1515C18.2589 32.242 18.5643 32.4023 18.8254 32.6215C19.0865 32.8408 19.2973 33.1138 19.4432 33.4219C19.5839 33.7337 19.6566 34.0719 19.6566 34.414C19.6566 34.7561 19.5839 35.0943 19.4432 35.4061C19.8748 35.5346 20.2592 35.7871 20.5485 36.1323C20.8378 36.4774 21.0193 36.9 21.0705 37.3474C21.0984 37.7954 21.009 38.243 20.8113 38.646C20.6136 39.049 20.3142 39.3935 19.9428 39.6456C20.5138 40.2309 21.0419 40.8018 21.6129 41.3442C21.8502 41.5629 22.161 41.6844 22.4836 41.6844C22.8063 41.6844 23.1172 41.5629 23.3544 41.3442C23.5958 41.1251 23.7471 40.824 23.7788 40.4994C23.8104 40.1749 23.7202 39.8502 23.5257 39.5885C23.5257 39.5029 23.3829 39.4315 23.3258 39.3316C23.2387 39.2154 23.2004 39.0698 23.219 38.9258C23.2377 38.7818 23.3119 38.6508 23.4258 38.5607C23.5315 38.4712 23.6655 38.422 23.8041 38.422C23.9426 38.422 24.0766 38.4712 24.1823 38.5607C24.268 38.5607 24.3394 38.7035 24.4393 38.7606C24.6403 38.9183 24.8845 39.011 25.1396 39.0263C25.3946 39.0416 25.6483 38.9788 25.8667 38.8462C26.0918 38.7401 26.2778 38.5657 26.3982 38.3479C26.5186 38.1302 26.5674 37.88 26.5376 37.6329C26.495 37.3416 26.3877 37.0636 26.2236 36.8193C25.9809 36.4481 25.9381 36.1483 26.2236 35.9057C26.5091 35.663 26.766 35.6487 27.1657 35.9057C27.3495 36.0492 27.5684 36.1411 27.7995 36.1721C28.0307 36.203 28.266 36.1718 28.4811 36.0817C28.6962 35.9915 28.8835 35.8458 29.0236 35.6593C29.1637 35.4728 29.2516 35.2524 29.2783 35.0207C29.2991 34.816 29.2754 34.6093 29.2089 34.4147C29.1424 34.22 29.0346 34.0421 28.8929 33.893C28.8345 33.8395 28.7878 33.7744 28.7559 33.7019C28.724 33.6295 28.7075 33.5511 28.7075 33.4719C28.7075 33.3927 28.724 33.3143 28.7559 33.2418C28.7878 33.1693 28.8345 33.1043 28.8929 33.0508C29.0037 32.9485 29.1489 32.8916 29.2997 32.8916C29.4505 32.8916 29.5958 32.9485 29.7065 33.0508L29.9349 33.2364C30.1455 33.3793 30.3941 33.4558 30.6486 33.4558C30.9032 33.4558 31.1518 33.3793 31.3624 33.2364C31.5746 33.1245 31.7489 32.9522 31.8632 32.7414C31.9775 32.5305 32.0268 32.2905 32.0047 32.0516C31.9954 31.8469 31.9422 31.6466 31.8486 31.4643C31.755 31.2821 31.6232 31.1221 31.4623 30.9953L23.9967 23.6297C23.8633 23.4577 23.6924 23.3186 23.4969 23.2228C23.3015 23.1271 23.0867 23.0774 22.8691 23.0774C22.6515 23.0774 22.4367 23.1271 22.2413 23.2228C22.0458 23.3186 21.8748 23.4577 21.7414 23.6297C21.1847 24.1864 20.6565 24.743 20.0855 25.2855C19.8552 25.5502 19.5729 25.7646 19.256 25.9154C18.9392 26.0662 18.5947 26.1501 18.244 26.1619C17.8933 26.1738 17.5439 26.1132 17.2177 25.9841C16.8914 25.855 16.5952 25.6601 16.3476 25.4115C16.1 25.1628 15.9063 24.8659 15.7784 24.5391C15.6506 24.2123 15.5914 23.8627 15.6046 23.5121C15.6178 23.1615 15.7031 22.8173 15.8552 22.5011C16.0072 22.1849 16.2228 21.9033 16.4884 21.674L17.1022 21.0888L13.7763 17.7343C13.525 18.0473 13.2582 18.3474 12.9769 18.6336C12.9106 18.7126 12.8251 18.7731 12.7286 18.8093C12.632 18.8456 12.5278 18.8564 12.4259 18.8406C12.324 18.8248 12.2279 18.783 12.1469 18.7193C12.0659 18.6555 12.0027 18.5719 11.9634 18.4766C11.9092 18.3424 11.9008 18.1942 11.9395 18.0548C11.9782 17.9154 12.0619 17.7927 12.1775 17.7057L13.9047 15.9785L9.8365 11.9103L2.34241 19.3902C3.68421 20.732 5.04026 22.0737 6.42489 23.4726M29.4211 17.0348L28.3648 18.134C27.7453 18.8253 26.9276 19.3087 26.0232 19.5182C25.1189 19.7277 24.172 19.6531 23.3116 19.3045C22.7237 19.0719 22.0798 19.0195 21.462 19.1543C20.8442 19.289 20.2806 19.6047 19.8429 20.0611C19.015 20.8604 18.2156 21.674 17.4162 22.4877C17.2804 22.6133 17.1721 22.7657 17.098 22.9352C17.0239 23.1047 16.9857 23.2876 16.9857 23.4726C16.9857 23.6576 17.0239 23.8406 17.098 24.0101C17.1721 24.1796 17.2804 24.3319 17.4162 24.4576C17.546 24.5831 17.7 24.6808 17.8688 24.7448C18.0377 24.8088 18.2178 24.8377 18.3982 24.8297C18.5786 24.8217 18.7554 24.7769 18.9179 24.6982C19.0804 24.6195 19.2252 24.5085 19.3433 24.3719L20.9991 22.7161C21.4234 22.265 21.9906 21.9745 22.6046 21.8938C23.2186 21.8132 23.8415 21.9473 24.3679 22.2736C24.5799 22.4021 24.8169 22.4839 25.0631 22.5134C25.3093 22.5429 25.5589 22.5196 25.7953 22.4449C26.7089 22.1594 27.651 21.9024 28.5789 21.6455L28.9357 21.5599C29.0808 21.5432 29.2267 21.5827 29.3436 21.6703C29.4604 21.7579 29.5392 21.887 29.5638 22.0309C29.602 22.1635 29.5895 22.3056 29.5288 22.4296C29.4682 22.5535 29.3636 22.6506 29.2355 22.7018C29.0601 22.7785 28.8787 22.8406 28.693 22.8874L26.0237 23.6439L29.7636 27.3838L34.7883 22.3449L29.4639 17.0348M11.7207 36.5623C11.9696 36.4707 12.2048 36.3459 12.4202 36.1912C13.8476 34.7637 15.2751 33.3363 16.7025 31.9088C16.8827 31.66 16.9779 31.3596 16.9737 31.0524C16.9735 30.8664 16.9118 30.6858 16.7982 30.5386C16.6846 30.3915 16.5255 30.286 16.3456 30.2387C16.152 30.1671 15.9413 30.1547 15.7406 30.2029C15.5398 30.2512 15.3579 30.3581 15.218 30.5099L12.3631 33.3648L11.0356 34.6924C10.8862 34.8376 10.7875 35.027 10.7541 35.2327C10.7206 35.4383 10.7543 35.6493 10.85 35.8343C10.9395 36.0138 11.0727 36.168 11.2373 36.2827C11.4019 36.3975 11.5927 36.469 11.7921 36.4909M9.49393 34.1642C9.73436 34.0799 9.96058 33.9596 10.1648 33.8073C11.4495 32.5654 12.7056 31.295 13.9618 30.0246C14.0902 29.8992 14.183 29.7419 14.2306 29.5688C14.2783 29.3958 14.2791 29.2131 14.233 29.0397C14.1965 28.8647 14.113 28.7031 13.9916 28.5719C13.8702 28.4408 13.7154 28.3452 13.5438 28.2953C13.3722 28.2454 13.1902 28.2432 13.0174 28.2888C12.8446 28.3345 12.6875 28.4262 12.5629 28.5543C11.264 29.8105 10.0078 31.0952 8.73738 32.3656C8.66811 32.4318 8.6102 32.509 8.56605 32.594C8.48474 32.7562 8.44544 32.9363 8.4517 33.1176C8.45797 33.299 8.50959 33.4759 8.60191 33.6321C8.69422 33.7883 8.82428 33.9188 8.98011 34.0118C9.13595 34.1048 9.31261 34.1572 9.49393 34.1642M14.2616 38.7463C14.4878 38.6475 14.6991 38.5178 14.8897 38.3609C16.0031 37.276 17.1022 36.1769 18.1871 35.0778C18.3124 34.9928 18.4173 34.8812 18.4945 34.751C18.5716 34.6208 18.6191 34.4751 18.6334 34.3244C18.6477 34.1737 18.6286 34.0217 18.5773 33.8792C18.5261 33.7368 18.444 33.6074 18.337 33.5004C18.2299 33.3933 18.1006 33.3113 17.9581 33.2601C17.8157 33.2088 17.6637 33.1897 17.513 33.204C17.3623 33.2183 17.2166 33.2657 17.0864 33.3429C16.9561 33.4201 16.8446 33.525 16.7596 33.6503L15.061 35.349L13.3908 37.0334C13.2359 37.1715 13.1309 37.3569 13.0922 37.5609C13.0535 37.7648 13.0832 37.9758 13.1767 38.1611C13.2733 38.365 13.4311 38.5337 13.6282 38.6437C13.8252 38.7537 14.0515 38.7996 14.2758 38.7748M17.2449 40.3879C17.42 40.3514 17.5854 40.2785 17.7303 40.1738C18.444 39.5029 19.1577 38.8177 19.8001 38.0897C19.9574 37.897 20.0335 37.6506 20.0122 37.4028C19.9909 37.1549 19.8738 36.9251 19.6859 36.7621C19.5053 36.6006 19.2715 36.5114 19.0293 36.5114C18.787 36.5114 18.5532 36.6006 18.3726 36.7621C17.6732 37.4188 16.9452 38.1039 16.3314 38.8177C16.2016 38.9615 16.1218 39.1435 16.1038 39.3364C16.0858 39.5293 16.1306 39.7229 16.2315 39.8883C16.328 40.0695 16.4752 40.2187 16.6552 40.3176C16.8352 40.4165 17.0402 40.4608 17.2449 40.445M21.9983 42.8859C21.3986 42.7063 20.8569 42.3714 20.4281 41.9152C20.0142 41.4442 19.5574 41.016 19.0864 40.4878C18.8286 40.8751 18.4711 41.1857 18.0515 41.3867C17.6319 41.5877 17.1659 41.6717 16.7025 41.6297C16.248 41.5707 15.822 41.3755 15.4806 41.0697C15.1392 40.764 14.8983 40.362 14.7897 39.9168C14.4422 40.0457 14.0685 40.0887 13.7008 40.042C13.333 39.9953 12.982 39.8603 12.6777 39.6485C12.3734 39.4368 12.1248 39.1546 11.9532 38.8259C11.7816 38.4973 11.692 38.1321 11.6922 37.7614C10.122 37.4616 9.57954 36.9192 9.36542 35.4489C9.10848 35.4489 8.85154 35.3633 8.60888 35.2919C8.24402 35.1716 7.91619 34.9596 7.65687 34.6762C7.39754 34.3928 7.21545 34.0475 7.12802 33.6734C7.0406 33.2993 7.0508 32.9091 7.15764 32.5401C7.26449 32.1711 7.46438 31.8358 7.73815 31.5663C8.72309 30.5385 9.73656 29.5535 10.75 28.5543C10.8537 28.4595 10.9688 28.378 11.0927 28.3117L7.18143 24.4861L7.26707 24.3576L7.11008 24.4861C7.01102 24.5961 6.88995 24.6842 6.75469 24.7444C6.61944 24.8046 6.47305 24.8357 6.325 24.8357C6.17694 24.8357 6.03051 24.8046 5.89526 24.7444C5.76 24.6842 5.63893 24.5961 5.53988 24.4861L1.40029 20.2752C1.27548 20.1763 1.17465 20.0504 1.10533 19.9071C1.03601 19.7637 1 19.6065 1 19.4472C1 19.288 1.03601 19.1308 1.10533 18.9874C1.17465 18.8441 1.27548 18.7182 1.40029 18.6193C3.95066 16.0499 6.51533 13.4853 9.09425 10.9254C9.19336 10.8057 9.31765 10.7093 9.45829 10.6431C9.59894 10.577 9.75243 10.5427 9.90786 10.5427C10.0633 10.5427 10.2168 10.577 10.3575 10.6431C10.4981 10.7093 10.6224 10.8057 10.7215 10.9254C12.149 12.3528 13.5764 13.7803 14.9182 15.1221C15.4749 15.693 15.4321 16.1213 14.804 16.9064L18.0586 20.1609L18.7295 19.49C19.3576 18.7579 20.2014 18.2434 21.1399 18.0203C22.0785 17.7972 23.0635 17.877 23.9539 18.2482C24.5175 18.4667 25.1326 18.5156 25.7236 18.3887C26.3146 18.2619 26.8556 17.9649 27.2799 17.5345C27.7367 17.1062 28.1792 16.6494 28.7073 16.107C28.5577 16.0417 28.4183 15.9552 28.2934 15.8501C28.1739 15.7523 28.0777 15.6293 28.0116 15.4898C27.9455 15.3503 27.9111 15.1979 27.9111 15.0436C27.9111 14.8892 27.9455 14.7368 28.0116 14.5973C28.0777 14.4578 28.1739 14.3348 28.2934 14.2371L31.862 10.6684C32.0904 10.44 32.3187 10.1974 32.5614 9.9833C32.6575 9.88088 32.7737 9.79924 32.9025 9.74344C33.0314 9.68764 33.1704 9.65884 33.3109 9.65884C33.4513 9.65884 33.5903 9.68764 33.7192 9.74344C33.8481 9.79924 33.9641 9.88088 34.0603 9.9833C35.3307 11.2252 36.5725 12.4813 37.8287 13.7374C37.8935 13.7934 37.946 13.8624 37.9826 13.9398C38.0192 14.0173 38.0392 14.1016 38.0413 14.1872C38.0434 14.2729 38.0275 14.358 37.9947 14.4371C37.9619 14.5163 37.9128 14.5877 37.8508 14.6468C37.7887 14.7058 37.715 14.7513 37.6343 14.7801C37.5536 14.8089 37.4678 14.8206 37.3823 14.8143C37.2969 14.8079 37.2137 14.7838 37.1382 14.7434C37.0626 14.703 36.9964 14.6472 36.9437 14.5796L33.5464 11.1966L33.3322 10.9968L29.3068 15.0507L36.8152 22.5733L40.8692 18.4909C40.341 17.9627 39.7558 17.406 39.1848 16.8207C39.0706 16.7065 38.8993 16.5353 38.8993 16.4068C38.8916 16.2908 38.9094 16.1744 38.9513 16.0659C38.9932 15.9574 39.0583 15.8595 39.142 15.7787C39.2474 15.7225 39.365 15.6931 39.4845 15.6931C39.604 15.6931 39.7217 15.7225 39.8271 15.7787C40.5837 16.4782 41.2546 17.2062 41.9968 17.9484C42.0805 18.0524 42.1428 18.1718 42.1802 18.2998C42.2176 18.4279 42.2294 18.5622 42.2148 18.6948C42.2002 18.8274 42.1596 18.9558 42.0952 19.0727C42.0309 19.1896 41.9441 19.2926 41.8398 19.3759L39.2419 21.9738L37.8144 23.4013C37.7129 23.5544 37.575 23.68 37.4131 23.7668C37.2512 23.8537 37.0703 23.8992 36.8866 23.8992C36.7028 23.8992 36.522 23.8537 36.3601 23.7668C36.1982 23.68 36.0603 23.5544 35.9587 23.4013L35.8017 23.2728L30.6772 28.3973L31.3624 29.0825L32.4615 30.1959C32.8534 30.545 33.126 31.0081 33.2412 31.5202C33.3564 32.0322 33.3084 32.5674 33.1038 33.0508C32.9366 33.5239 32.6276 33.934 32.2189 34.2252C31.8102 34.5164 31.3217 34.6745 30.8199 34.6781H30.5773C30.5876 35.0401 30.5261 35.4006 30.3962 35.7387C30.2663 36.0769 30.0708 36.3859 29.8207 36.648C29.5572 36.9042 29.2438 37.1036 28.9001 37.2337C28.5563 37.3638 28.1895 37.422 27.8223 37.4045C27.8449 37.7688 27.7905 38.1338 27.6626 38.4757C27.5347 38.8175 27.3362 39.1286 27.08 39.3886C26.8337 39.64 26.5376 39.8372 26.2107 39.9675C25.8838 40.0977 25.5332 40.1583 25.1815 40.1452C25.0861 40.6308 24.9524 41.1081 24.7819 41.5726C24.6114 41.9378 24.3571 42.2575 24.0395 42.5056C23.722 42.7536 23.3503 42.9231 22.9547 43.0001L21.9983 42.8859Z" stroke="#FF692E" stroke-width="0.8"/>
<path d="M14.4756 8.12758C14.4779 6.41894 15.0931 4.76786 16.2094 3.47431C17.3258 2.18076 18.8691 1.33058 20.559 1.0783C22.2489 0.826025 23.9733 1.18837 25.4187 2.09949C26.8642 3.01061 27.9348 4.41006 28.436 6.04352C28.6216 6.64305 28.5216 6.99991 28.122 7.1141C27.7223 7.2283 27.4368 7.02844 27.2512 6.38609C26.836 5.05092 25.9619 3.90566 24.7835 3.15295C23.6052 2.40024 22.1986 2.0886 20.8126 2.27317C19.4266 2.45774 18.1505 3.12665 17.2102 4.1615C16.2699 5.19635 15.726 6.53046 15.6746 7.92776C15.6379 9.38353 16.1387 10.8018 17.0814 11.9117C18.0241 13.0217 19.3425 13.7455 20.785 13.945C22.2275 14.1446 23.693 13.8058 24.9015 12.9933C26.1101 12.1809 26.9771 10.9518 27.3369 9.54074C27.3541 9.45804 27.3779 9.37691 27.4082 9.29809C27.4213 9.2136 27.4518 9.13277 27.4979 9.06077C27.544 8.98877 27.6047 8.92719 27.676 8.87998C27.7473 8.83278 27.8276 8.80102 27.9119 8.78667C27.9962 8.77233 28.0825 8.77572 28.1654 8.79669C28.2483 8.81766 28.3259 8.85573 28.3932 8.90843C28.4605 8.96113 28.5161 9.02729 28.5564 9.10272C28.5966 9.17814 28.6207 9.26114 28.627 9.34641C28.6333 9.43167 28.6217 9.51731 28.593 9.59785C28.3683 10.7563 27.8414 11.8347 27.0657 12.724C26.1723 13.7976 24.9835 14.5856 23.6466 14.9902C22.3098 15.3948 20.8835 15.3982 19.5447 15.0001C18.2059 14.6019 17.0134 13.8197 16.1149 12.7504C15.2163 11.681 14.6513 10.3714 14.4899 8.98405C14.4822 8.91766 14.4822 8.85058 14.4899 8.78419V8.12758" fill="#FF692E"/>
<path d="M14.4756 8.12758C14.4779 6.41894 15.0931 4.76786 16.2094 3.47431C17.3258 2.18076 18.8691 1.33058 20.559 1.0783C22.2489 0.826025 23.9733 1.18837 25.4187 2.09949C26.8642 3.01061 27.9348 4.41006 28.436 6.04352C28.6216 6.64305 28.5216 6.99991 28.122 7.1141C27.7223 7.2283 27.4368 7.02844 27.2512 6.38609C26.836 5.05092 25.9619 3.90566 24.7835 3.15295C23.6052 2.40024 22.1986 2.0886 20.8126 2.27317C19.4266 2.45774 18.1505 3.12665 17.2102 4.1615C16.2699 5.19635 15.726 6.53046 15.6746 7.92776C15.6379 9.38353 16.1387 10.8018 17.0814 11.9117C18.0241 13.0217 19.3425 13.7455 20.785 13.945C22.2275 14.1446 23.693 13.8058 24.9015 12.9933C26.1101 12.1809 26.9771 10.9518 27.3369 9.54074C27.3541 9.45804 27.3779 9.37691 27.4082 9.29809C27.4213 9.2136 27.4518 9.13277 27.4979 9.06077C27.544 8.98877 27.6047 8.92719 27.676 8.87998C27.7473 8.83278 27.8276 8.80102 27.9119 8.78667C27.9962 8.77233 28.0825 8.77572 28.1654 8.79669C28.2483 8.81766 28.3259 8.85573 28.3932 8.90843C28.4605 8.96113 28.5161 9.02729 28.5564 9.10272C28.5966 9.17814 28.6207 9.26114 28.627 9.3464C28.6333 9.43167 28.6217 9.51731 28.593 9.59785C28.3683 10.7563 27.8414 11.8347 27.0657 12.724C26.1723 13.7976 24.9835 14.5856 23.6466 14.9902C22.3098 15.3948 20.8835 15.3982 19.5447 15.0001C18.2059 14.6019 17.0134 13.8197 16.1149 12.7504C15.2163 11.681 14.6513 10.3714 14.4899 8.98405C14.4822 8.91766 14.4822 8.85058 14.4899 8.78419V8.12758" stroke="#FF692E" stroke-width="0.8"/>
<path d="M21.071 9.2981L24.0686 6.30046C24.1615 6.19817 24.2617 6.10273 24.3684 6.01495C24.4857 5.93709 24.6262 5.90194 24.7664 5.91537C24.9065 5.9288 25.0378 5.99003 25.1382 6.08874C25.2386 6.18746 25.302 6.31768 25.3177 6.45759C25.3335 6.59749 25.3007 6.73858 25.2249 6.85718C25.1658 6.93522 25.0988 7.00696 25.025 7.07129L21.7419 10.3687C21.2851 10.8112 21.0139 10.8112 20.5571 10.3687C19.7435 9.54077 18.9155 8.74138 18.1162 7.89919C18.0324 7.80674 17.9678 7.69859 17.9261 7.58097C17.8845 7.46335 17.8666 7.33863 17.8735 7.21404C17.9592 6.72871 18.5444 6.62877 18.9298 7.01418C19.5722 7.62798 20.2003 8.25605 20.8141 8.88413C20.9092 9.01598 20.9951 9.15431 21.071 9.2981Z" fill="#FF692E"/>
<path d="M21.071 9.2981L24.0686 6.30046C24.1615 6.19817 24.2617 6.10273 24.3684 6.01495C24.4857 5.93709 24.6262 5.90194 24.7664 5.91537C24.9065 5.9288 25.0378 5.99003 25.1382 6.08874C25.2386 6.18746 25.302 6.31768 25.3177 6.45759C25.3335 6.59749 25.3007 6.73858 25.2249 6.85718C25.1658 6.93522 25.0988 7.00696 25.025 7.07129L21.7419 10.3687C21.2851 10.8112 21.0139 10.8112 20.5571 10.3687C19.7435 9.54077 18.9155 8.74138 18.1162 7.89919C18.0324 7.80674 17.9678 7.69859 17.9261 7.58097C17.8845 7.46335 17.8666 7.33863 17.8735 7.21404C17.9592 6.72871 18.5444 6.62877 18.9298 7.01418C19.5722 7.62798 20.2003 8.25605 20.8141 8.88413C20.9092 9.01598 20.9951 9.15431 21.071 9.2981" stroke="#FF692E" stroke-width="0.8"/>
</svg>
