<svg width="32" height="32" viewBox="0 0 32 32" fill="none" xmlns="http://www.w3.org/2000/svg">
<path d="M2.8602 5.58936V13.2194C2.8602 13.3394 2.8602 13.4593 2.8602 13.5793C2.86682 13.7038 2.91791 13.8217 3.00418 13.9116C3.09044 14.0016 3.20614 14.0575 3.3302 14.0693C3.45855 14.0975 3.59279 14.0761 3.70596 14.0093C3.81913 13.9425 3.90284 13.8353 3.94021 13.7094C3.98265 13.5599 3.99954 13.4044 3.9902 13.2493C3.9902 9.62933 3.9902 6.00266 3.9902 2.36932C3.9834 2.10245 4.01712 1.83611 4.09021 1.57935C4.21444 1.20784 4.46386 0.891047 4.79583 0.683105C5.12781 0.475164 5.52174 0.388976 5.91021 0.439331C6.29367 0.493348 6.6479 0.674467 6.91623 0.953674C7.18456 1.23288 7.35145 1.59401 7.39019 1.97931C7.38481 2.05588 7.38481 2.13278 7.39019 2.20935C7.39019 2.35787 7.44921 2.50027 7.55423 2.60529C7.65925 2.71031 7.80167 2.76935 7.95019 2.76935C8.09871 2.76935 8.24117 2.71031 8.34619 2.60529C8.45121 2.50027 8.51019 2.35787 8.51019 2.20935C8.51019 1.99935 8.51019 1.78935 8.51019 1.57935C8.54312 1.14971 8.73704 0.748325 9.05316 0.455505C9.36928 0.162686 9.78431 0 10.2152 0C10.6461 0 11.0611 0.162686 11.3772 0.455505C11.6933 0.748325 11.8873 1.14971 11.9202 1.57935C11.9202 1.90935 11.9202 2.23935 11.9202 2.57935C11.9202 2.91935 12.1102 3.26931 12.4602 3.28931C12.8102 3.30931 13.0102 3.10936 13.0602 2.65936C13.0901 2.23863 13.2701 1.84263 13.5674 1.54346C13.8648 1.24429 14.2597 1.06185 14.6802 1.02936C15.0672 1.01353 15.4481 1.12956 15.7606 1.35846C16.0731 1.58736 16.2986 1.91553 16.4002 2.28931C16.4521 2.51568 16.4789 2.74707 16.4802 2.97931C16.4802 3.29931 16.4802 3.62931 16.4802 3.97931C16.4879 4.1093 16.545 4.23149 16.6398 4.32074C16.7346 4.40999 16.86 4.45958 16.9902 4.45935C17.1205 4.47492 17.2519 4.44158 17.359 4.36584C17.4662 4.29011 17.5414 4.17733 17.5702 4.04932C17.5853 3.96331 17.5853 3.87531 17.5702 3.78931C17.6093 3.35928 17.8052 2.95865 18.1205 2.66364C18.4358 2.36862 18.8485 2.19982 19.2802 2.18933C19.7094 2.19827 20.1197 2.3674 20.4306 2.66345C20.7414 2.95951 20.9303 3.36107 20.9602 3.78931C21.0202 4.67931 20.9602 5.58934 20.9602 6.50934C18.991 6.01009 16.9268 6.02371 14.9644 6.54889C13.0019 7.07407 11.2068 8.09329 9.75021 9.50934C8.60438 10.6164 7.69152 11.9415 7.0653 13.4066C6.43909 14.8716 6.11217 16.4471 6.10379 18.0404C6.0954 19.6337 6.40572 21.2125 7.01648 22.6841C7.62723 24.1557 8.5261 25.4902 9.66021 26.6093C10.8338 27.7844 12.2419 28.699 13.7926 29.2934C15.3433 29.8878 17.0019 30.1488 18.6602 30.0593C18.6602 30.4693 18.6602 30.8693 18.6602 31.2693C18.6524 31.4108 18.5894 31.5436 18.4846 31.639C18.3799 31.7344 18.2418 31.7848 18.1002 31.7794H7.09021C6.45021 31.7794 6.28021 31.6193 6.28021 30.9793C6.28021 29.6093 6.28021 28.2393 6.28021 26.8693C6.29925 25.4996 5.83944 24.1662 4.98019 23.0993C3.69019 21.4593 2.40022 19.8093 1.10022 18.1693C0.378584 17.2791 -0.0103775 16.1653 0.000210594 15.0193C0.000210594 13.0193 0.000210594 11.0193 0.000210594 9.01935C-0.00105274 8.285 0.236172 7.57009 0.676205 6.98218C1.11624 6.39426 1.73529 5.96513 2.44021 5.75934L2.85022 5.65936" fill="white"/>
<path d="M29.0599 18.1294C29.0579 20.2707 28.4207 22.3632 27.2288 24.1421C26.0369 25.921 24.3439 27.3062 22.3643 28.1224C20.3847 28.9386 18.2075 29.1491 16.1082 28.7272C14.0089 28.3054 12.0819 27.2701 10.5713 25.7525C9.06075 24.2349 8.03441 22.3032 7.62225 20.202C7.2101 18.1008 7.43067 15.9245 8.25604 13.9487C9.08141 11.9729 10.4745 10.2864 12.2588 9.10274C14.0432 7.91908 16.1387 7.29148 18.2799 7.29939C21.1452 7.30734 23.8901 8.4525 25.9114 10.4832C27.9328 12.514 29.0652 15.2641 29.0599 18.1294ZM18.8199 26.6994C18.1699 26.6994 17.5599 26.6994 16.9699 26.5794C14.8546 26.2562 12.9374 25.1516 11.5969 23.4837C10.2563 21.8157 9.58998 19.7057 9.7294 17.5704C9.86882 15.4351 10.8039 13.4297 12.3499 11.9502C13.8959 10.4707 15.9405 9.6248 18.0799 9.57942C18.5499 9.57942 18.8199 9.34939 18.8099 8.98939C18.7999 8.62939 18.5299 8.4194 18.0499 8.4394C17.5699 8.4594 17.1799 8.4994 16.7499 8.5594C14.9553 8.83967 13.2757 9.61922 11.9031 10.809C10.5306 11.9987 9.52053 13.5507 8.98834 15.2874C8.45616 17.0241 8.42335 18.8755 8.89368 20.63C9.364 22.3844 10.3185 23.9711 11.648 25.2088C12.9775 26.4464 14.6284 27.2849 16.412 27.6286C18.1957 27.9723 20.04 27.8072 21.7342 27.1522C23.4284 26.4972 24.9041 25.3787 25.9927 23.9246C27.0812 22.4705 27.7387 20.7395 27.8899 18.9294C28.0562 17.2119 27.7501 15.4815 27.0046 13.9253C26.2591 12.3691 25.1026 11.0461 23.6599 10.0994C22.7775 9.47884 21.7873 9.02788 20.7399 8.76942C20.6666 8.74137 20.5883 8.72878 20.5098 8.73243C20.4314 8.73608 20.3545 8.75586 20.2841 8.7906C20.2137 8.82534 20.1512 8.87426 20.1006 8.93428C20.05 8.9943 20.0123 9.06415 19.9899 9.13942C19.969 9.21496 19.9637 9.29392 19.9742 9.37159C19.9847 9.44927 20.0108 9.52403 20.051 9.59132C20.0912 9.65861 20.1446 9.71706 20.208 9.76314C20.2714 9.80921 20.3435 9.84195 20.4199 9.85939C20.5233 9.89989 20.6305 9.93007 20.7399 9.94941C21.0199 9.94941 21.1099 10.1294 21.0999 10.4194C21.0999 12.4194 21.0999 14.4194 21.0999 16.4194C21.111 17.109 20.9675 17.7924 20.6799 18.4194C20.2899 19.2794 19.9399 20.1594 19.5199 20.9994C18.9984 22.0362 18.7538 23.1902 18.8099 24.3494C18.8099 25.1194 18.8099 25.8894 18.8099 26.7494M13.0999 21.3094V21.0794C13.0999 20.9282 13.0399 20.7832 12.933 20.6763C12.8261 20.5694 12.6811 20.5094 12.5299 20.5094C12.3788 20.5094 12.2338 20.5694 12.1269 20.6763C12.02 20.7832 11.9599 20.9282 11.9599 21.0794C11.9499 21.2559 11.9499 21.4329 11.9599 21.6094C11.9626 21.7615 12.0248 21.9065 12.1333 22.0131C12.2418 22.1197 12.3878 22.1794 12.5399 22.1794C12.6148 22.1781 12.6887 22.1621 12.7573 22.1322C12.826 22.1024 12.8881 22.0592 12.9401 22.0054C12.9921 21.9515 13.033 21.888 13.0604 21.8183C13.0878 21.7486 13.1013 21.6742 13.0999 21.5994V21.3294M18.8099 11.6194C18.8099 11.7294 18.8099 11.8394 18.8099 11.9494C18.8145 12.0904 18.8713 12.2247 18.9692 12.3263C19.0671 12.4279 19.1992 12.4896 19.3399 12.4994C19.4791 12.5018 19.6146 12.455 19.7226 12.3671C19.8306 12.2793 19.904 12.1562 19.9299 12.0194C19.9399 11.8863 19.9399 11.7525 19.9299 11.6194C19.9299 11.0594 19.7199 10.7794 19.3399 10.7894C18.9599 10.7994 18.7899 11.0594 18.7899 11.6194M16.4999 17.9194C16.4949 18.0093 16.4949 18.0995 16.4999 18.1894C16.4986 18.2638 16.5121 18.3377 16.5396 18.4068C16.5672 18.4759 16.6082 18.5388 16.6604 18.5919C16.7125 18.6449 16.7747 18.6871 16.8433 18.7158C16.9119 18.7446 16.9855 18.7594 17.0599 18.7594C17.1465 18.7723 17.2349 18.765 17.3182 18.7382C17.4016 18.7114 17.4776 18.6659 17.5405 18.6049C17.6034 18.544 17.6513 18.4694 17.6807 18.3869C17.7101 18.3045 17.7201 18.2164 17.7099 18.1294C17.7299 17.8965 17.7299 17.6623 17.7099 17.4294C17.6901 17.2951 17.6205 17.1732 17.5148 17.088C17.4092 17.0027 17.2754 16.9604 17.1399 16.9694C17.0073 16.9735 16.8807 17.0253 16.7833 17.1153C16.6859 17.2054 16.6243 17.3276 16.6099 17.4594C16.6099 17.5894 16.6099 17.7094 16.6099 17.8294M13.1899 18.3894V18.1294C13.1899 17.7494 12.9699 17.5194 12.6299 17.5194C12.5521 17.5165 12.4746 17.5298 12.4022 17.5586C12.3299 17.5874 12.2643 17.6309 12.2097 17.6864C12.1552 17.7419 12.1128 17.8082 12.0853 17.8811C12.0577 17.9539 12.0457 18.0316 12.0499 18.1094C12.0399 18.2859 12.0399 18.4629 12.0499 18.6394C12.0499 18.7151 12.065 18.7901 12.0943 18.8599C12.1235 18.9297 12.1664 18.993 12.2204 19.046C12.2744 19.0991 12.3384 19.1408 12.4087 19.1689C12.479 19.1969 12.5543 19.2108 12.6299 19.2094C12.7048 19.2095 12.7788 19.1944 12.8476 19.1649C12.9163 19.1354 12.9784 19.0921 13.0298 19.0379C13.0813 18.9836 13.1212 18.9194 13.147 18.8491C13.1728 18.7789 13.184 18.7041 13.1799 18.6294C13.1849 18.5395 13.1849 18.4493 13.1799 18.3594M15.4499 18.9394C15.4499 18.8294 15.4499 18.7194 15.4499 18.6094C15.4318 18.475 15.3656 18.3518 15.2636 18.2625C15.1615 18.1733 15.0305 18.1241 14.8949 18.1241C14.7593 18.1241 14.6284 18.1733 14.5263 18.2625C14.4242 18.3518 14.358 18.475 14.3399 18.6094C14.33 18.7325 14.33 18.8562 14.3399 18.9794C14.3399 19.5394 14.5299 19.8194 14.9099 19.8294C15.2899 19.8394 15.4799 19.5494 15.4699 18.9794M18.9099 14.3994C18.9099 14.5094 18.9099 14.6194 18.9099 14.7294C18.9099 14.8656 18.9633 14.9964 19.0587 15.0936C19.1541 15.1909 19.2837 15.2468 19.4199 15.2494C19.5577 15.2696 19.6978 15.2348 19.8101 15.1524C19.9224 15.0701 19.9978 14.9468 20.0199 14.8094C20.0348 14.6765 20.0348 14.5424 20.0199 14.4094C20.0199 13.8394 19.8399 13.5694 19.4499 13.5594C19.0599 13.5494 18.8799 13.8194 18.8799 14.3994M16.5999 14.9694C16.5999 15.0794 16.5999 15.1894 16.5999 15.2994C16.6074 15.4393 16.6669 15.5713 16.7669 15.6694C16.8668 15.7675 16.9999 15.8246 17.1399 15.8294C17.281 15.8379 17.42 15.7918 17.528 15.7006C17.636 15.6093 17.7048 15.48 17.7199 15.3394C17.7199 15.2294 17.7199 15.0994 17.7199 14.9794C17.7199 14.4094 17.5299 14.1394 17.1499 14.1294C16.7699 14.1194 16.5799 14.3994 16.5799 14.9694M13.1499 15.5694V15.3094C13.1554 15.2313 13.1448 15.1528 13.1186 15.079C13.0924 15.0052 13.0513 14.9375 12.9978 14.8803C12.9443 14.823 12.8796 14.7774 12.8077 14.7463C12.7358 14.7152 12.6583 14.6992 12.5799 14.6994C12.4278 14.702 12.2829 14.7643 12.1763 14.8728C12.0697 14.9812 12.0099 15.1273 12.0099 15.2794C11.9999 15.4459 11.9999 15.6129 12.0099 15.7794C12.0044 15.8597 12.0156 15.9403 12.0428 16.0161C12.0701 16.0918 12.1129 16.1611 12.1684 16.2194C12.2239 16.2777 12.2909 16.3238 12.3652 16.3548C12.4395 16.3858 12.5195 16.401 12.5999 16.3994C12.9299 16.3994 13.1299 16.1594 13.1499 15.7694V15.5694ZM18.8599 17.2494C18.8599 17.3594 18.8599 17.4694 18.8599 17.5794C18.8621 17.7142 18.9146 17.8433 19.0071 17.9414C19.0996 18.0395 19.2255 18.0994 19.3599 18.1094C19.4999 18.1269 19.6413 18.0901 19.7548 18.0063C19.8684 17.9225 19.9454 17.7984 19.9699 17.6594C19.9848 17.5265 19.9848 17.3923 19.9699 17.2594C19.9699 16.6894 19.7899 16.4194 19.3999 16.4194C19.0099 16.4194 18.8299 16.6694 18.8299 17.2494M16.5399 23.5394C16.5349 23.626 16.5349 23.7128 16.5399 23.7994C16.5582 23.9363 16.6255 24.0619 16.7295 24.1529C16.8334 24.2439 16.9668 24.2941 17.1049 24.2941C17.243 24.2941 17.3765 24.2439 17.4804 24.1529C17.5843 24.0619 17.6517 23.9363 17.6699 23.7994C17.6899 23.5665 17.6899 23.3323 17.6699 23.0994C17.6524 22.9659 17.5848 22.8442 17.4808 22.7587C17.3768 22.6733 17.2442 22.6307 17.1099 22.6394C16.9756 22.6411 16.8465 22.6918 16.7471 22.7821C16.6476 22.8723 16.5846 22.9959 16.5699 23.1294C16.5699 23.2494 16.5699 23.3694 16.5699 23.4994M17.7099 12.1294C17.7149 12.0428 17.7149 11.956 17.7099 11.8694C17.7113 11.7942 17.6975 11.7194 17.6693 11.6497C17.6411 11.5799 17.5992 11.5165 17.546 11.4633C17.4928 11.4101 17.4294 11.3682 17.3596 11.34C17.2899 11.3119 17.2151 11.298 17.1399 11.2994C17.0647 11.2965 16.9898 11.3094 16.9199 11.3371C16.85 11.3649 16.7866 11.4069 16.7339 11.4606C16.6812 11.5142 16.6402 11.5783 16.6137 11.6487C16.5872 11.7191 16.5757 11.7943 16.5799 11.8694C16.5599 12.0889 16.5599 12.3099 16.5799 12.5294C16.59 12.6523 16.646 12.7669 16.7368 12.8503C16.8277 12.9337 16.9466 12.9798 17.0699 12.9794C17.1981 13.0005 17.3295 12.9718 17.4373 12.8994C17.545 12.8269 17.6211 12.7161 17.6499 12.5894C17.6859 12.4386 17.706 12.2844 17.7099 12.1294ZM15.3999 16.1294C15.3999 16.0194 15.3999 15.9094 15.3999 15.7994C15.3951 15.6594 15.338 15.5263 15.2399 15.4263C15.1418 15.3264 15.0098 15.2668 14.8699 15.2594C14.723 15.2512 14.5787 15.3011 14.4683 15.3984C14.3579 15.4957 14.2902 15.6326 14.2799 15.7794C14.2799 15.8894 14.2799 15.9994 14.2799 16.1094C14.2799 16.6894 14.4599 16.9494 14.8399 16.9594C15.2199 16.9694 15.4199 16.6994 15.4099 16.1294M16.5599 20.6494C16.5599 20.7594 16.5599 20.8794 16.5599 20.9894C16.5675 21.1283 16.6274 21.2592 16.7276 21.3557C16.8278 21.4522 16.9609 21.5071 17.0999 21.5094C17.172 21.5163 17.2446 21.5083 17.3135 21.486C17.3823 21.4637 17.4459 21.4276 17.5002 21.3798C17.5546 21.3321 17.5985 21.2736 17.6294 21.2082C17.6603 21.1428 17.6775 21.0717 17.6799 20.9994C17.6949 20.8464 17.6949 20.6923 17.6799 20.5394C17.6799 20.0694 17.4799 19.8294 17.1199 19.8194C16.7599 19.8094 16.5499 20.0594 16.5399 20.5194V20.6494M15.4099 13.2594C15.4099 13.1294 15.4099 12.9894 15.4099 12.8594C15.391 12.7375 15.3292 12.6263 15.2358 12.5457C15.1424 12.4651 15.0233 12.4203 14.8999 12.4194C14.8362 12.4079 14.7708 12.4092 14.7076 12.4231C14.6444 12.437 14.5845 12.4634 14.5315 12.5006C14.4785 12.5378 14.4334 12.5851 14.3988 12.6398C14.3642 12.6945 14.3408 12.7556 14.3299 12.8194C14.29 13.1147 14.29 13.4141 14.3299 13.7094C14.3565 13.8373 14.4321 13.9497 14.5405 14.0226C14.6489 14.0955 14.7815 14.123 14.9099 14.0994C15.0322 14.0981 15.1499 14.0531 15.2417 13.9723C15.3334 13.8915 15.3932 13.7805 15.4099 13.6594C15.4099 13.5294 15.4099 13.3894 15.4099 13.2594ZM15.4099 21.7994C15.4099 21.6894 15.4099 21.5794 15.4099 21.4694C15.3919 21.3351 15.3256 21.2118 15.2236 21.1225C15.1215 21.0333 14.9905 20.9841 14.8549 20.9841C14.7193 20.9841 14.5884 21.0333 14.4863 21.1225C14.3842 21.2118 14.318 21.3351 14.2999 21.4694C14.2649 21.7216 14.2649 21.9773 14.2999 22.2294C14.3061 22.2961 14.3256 22.361 14.3574 22.42C14.3891 22.479 14.4323 22.531 14.4846 22.573C14.5368 22.615 14.597 22.646 14.6615 22.6643C14.7259 22.6826 14.7934 22.6877 14.8599 22.6794C14.994 22.6825 15.1242 22.6347 15.2244 22.5457C15.3246 22.4566 15.3873 22.3329 15.3999 22.1994C15.3999 22.0794 15.3999 21.9494 15.3999 21.8294" fill="white"/>
<path d="M27.6094 28.7394L28.9094 27.4395L31.3294 29.8795C32.0894 30.6395 32.0894 30.6395 31.3294 31.3995C30.8494 31.8795 30.7594 31.8795 30.2794 31.3995L27.6094 28.7394Z" fill="white"/>
<path d="M27.3794 25.9292L27.9994 26.5592L26.7094 27.8092L26.1094 27.1692L27.3494 25.9292" fill="white"/>
<path d="M19.9707 26.4094C19.9707 26.3094 19.9707 26.2093 19.9707 26.1093C19.9707 25.2893 19.9707 24.4693 19.9707 23.6393C19.9703 23.0387 20.0999 22.4451 20.3507 21.8994C20.8207 20.8394 21.2807 19.7893 21.7607 18.7293C22.0962 17.9881 22.2668 17.1829 22.2607 16.3693C22.2607 14.4493 22.2607 12.5194 22.2607 10.5894C23.7301 11.3355 24.9455 12.5001 25.7535 13.9364C26.5615 15.3727 26.9259 17.0162 26.8007 18.6594C26.683 20.521 25.9519 22.2912 24.7217 23.6934C23.4914 25.0955 21.8312 26.0506 20.0007 26.4094" fill="white"/>
</svg>
