<svg width="17" height="18" viewBox="0 0 17 18" fill="none" xmlns="http://www.w3.org/2000/svg">
<path d="M13.561 10.6947L12.8963 10.3109C12.9552 10.0247 12.9832 9.76022 12.9832 9.49841C12.9832 9.23661 12.9552 8.97214 12.8964 8.68587L13.5611 8.3021C13.6755 8.23606 13.7589 8.12726 13.7931 7.99972C13.8273 7.87212 13.8094 7.73616 13.7434 7.62177L12.7473 5.8965C12.6097 5.65827 12.3052 5.57666 12.0669 5.71422L11.4083 6.0945C10.9954 5.74427 10.5163 5.47058 9.99492 5.28723V4.51794C9.99492 4.24289 9.77192 4.0199 9.49687 4.0199H7.50468C7.22963 4.0199 7.00664 4.24289 7.00664 4.51794V5.28723C6.48528 5.47058 6.00609 5.7443 5.59328 6.0945L4.93463 5.71422C4.69639 5.57663 4.39179 5.65831 4.25429 5.8965L3.2582 7.62177C3.19216 7.73616 3.17426 7.87212 3.20843 7.99972C3.24263 8.12729 3.3261 8.23606 3.44049 8.3021L4.10518 8.68587C4.04631 8.97214 4.01832 9.23661 4.01832 9.49841C4.01832 9.76022 4.04631 10.0247 4.10511 10.311L3.44042 10.6947C3.32604 10.7608 3.24256 10.8696 3.20836 10.9971C3.1742 11.1247 3.19209 11.2607 3.25813 11.3751L4.25423 13.1003C4.39179 13.3386 4.69639 13.4202 4.93456 13.2826L5.59321 12.9023C6.00606 13.2526 6.48521 13.5263 7.00657 13.7096V14.4789C7.00657 14.7539 7.22956 14.9769 7.50462 14.9769H9.4968C9.77186 14.9769 9.99485 14.7539 9.99485 14.4789V13.7096C10.5162 13.5263 10.9954 13.2525 11.4082 12.9023L12.0669 13.2826C12.3051 13.4202 12.6096 13.3385 12.7472 13.1003L13.7433 11.3751C13.8093 11.2607 13.8272 11.1247 13.7931 10.9971C13.7589 10.8695 13.6754 10.7608 13.561 10.6947ZM8.50074 10.9926C7.67687 10.9926 7.0066 10.3223 7.0066 9.49841C7.0066 8.67454 7.67687 8.00427 8.50074 8.00427C9.32461 8.00427 9.99488 8.67454 9.99488 9.49841C9.99488 10.3223 9.32461 10.9926 8.50074 10.9926Z" fill="#40C782"/>
<path d="M15.3126 4.41053L14.6082 2.29749C14.5212 2.03654 14.2392 1.89546 13.9782 1.98249C13.7173 2.06948 13.5763 2.35151 13.6632 2.61248L13.7231 2.79208C13.2762 2.45191 12.7946 2.15212 12.2876 1.90061C11.0976 1.31039 9.78826 0.998413 8.50098 0.998413C6.24283 0.998413 4.11172 1.88593 2.50014 3.49758C0.888496 5.10916 0.000976562 7.2403 0.000976562 9.49841C0.000976562 10.5413 0.220084 11.6098 0.652123 12.6741C0.730682 12.8676 0.917051 12.9849 1.11375 12.9849C1.17613 12.9849 1.23959 12.9731 1.30095 12.9482C1.55581 12.8447 1.67853 12.5542 1.57507 12.2994C1.19151 11.3546 0.99707 10.4123 0.99707 9.49841C0.99707 5.36074 4.3633 1.99451 8.50098 1.99451C10.0197 1.99451 11.5528 2.49973 12.8266 3.37596C12.5831 3.32599 12.3351 3.46444 12.2546 3.70613C12.1676 3.96704 12.3086 4.24913 12.5696 4.33612L14.6826 5.0405C14.8608 5.09986 15.0583 5.05414 15.1923 4.92017C15.3256 4.78679 15.3722 4.58946 15.3126 4.41053Z" fill="#40C782"/>
<path d="M16.3501 6.32277C16.2466 6.06787 15.9561 5.94525 15.7013 6.04865C15.4464 6.15211 15.3237 6.4426 15.4272 6.69747C15.8107 7.6422 16.0052 8.58457 16.0052 9.49842C16.0052 13.6361 12.6389 17.0023 8.50126 17.0023C6.98255 17.0023 5.44943 16.4971 4.17566 15.6209C4.4191 15.6708 4.6671 15.5324 4.74768 15.2907C4.83464 15.0298 4.69363 14.7477 4.43268 14.6607L2.31964 13.9563C2.14074 13.8967 1.94334 13.9432 1.80997 14.0767C1.67656 14.2101 1.62997 14.4074 1.68964 14.5863L2.39398 16.6994C2.46357 16.9081 2.65784 17.0401 2.86642 17.0401C2.91862 17.0401 2.97175 17.0318 3.02397 17.0144C3.28492 16.9274 3.42593 16.6454 3.33897 16.3844L3.27911 16.2048C3.72602 16.545 4.20763 16.8448 4.71464 17.0963C5.90461 17.6864 7.21398 17.9984 8.50126 17.9984C10.7594 17.9984 12.8905 17.1109 14.5021 15.4993C16.1137 13.8877 17.0013 11.7565 17.0013 9.49842C17.0013 8.45551 16.7822 7.38707 16.3501 6.32277Z" fill="#40C782"/>
</svg>
