<svg width="18" height="18" viewBox="0 0 18 18" fill="none" xmlns="http://www.w3.org/2000/svg">
<path d="M7.53684 11.0423C7.52105 11.0111 4.75264 8.31774 4.72763 8.29311C4.39342 7.87976 3.70942 7.7775 3.24926 8.23334C2.82309 8.61345 2.88779 9.31619 3.16884 9.54818L5.88412 12.2476C6.08526 12.4468 6.08526 12.7556 5.88412 12.9548C5.71514 13.1409 5.35058 13.1425 5.18019 12.9548L2.45482 10.2554C2.17148 9.97481 2.01232 9.5942 2.01232 9.19733V4.0199C2.01232 3.47205 1.55977 3.0238 1.00665 3.0238C0.453529 3.0238 0.000976562 3.47205 0.000976562 4.0199V9.48181C0.000976562 9.84041 0.10151 10.1558 0.292588 10.4646L2.41737 13.9808H2.41308C2.74361 14.5274 3.01799 14.8876 3.01799 15.5248C3.01799 16.244 3.01799 16.7627 3.01799 17.5004C3.01799 17.7754 3.24313 17.9984 3.52083 17.9984H8.07987C8.07987 15.9065 8.07987 14.4084 8.07987 12.397C8.07987 11.8509 7.8433 11.3458 7.53684 11.0423Z" fill="#40C782"/>
<path d="M16.1588 3.0238C15.6057 3.0238 15.1532 3.47205 15.1532 4.0199V9.19736C15.1532 9.59424 14.994 9.97484 14.7107 10.2555L11.9853 12.9549C11.8149 13.1425 11.4503 13.141 11.2813 12.9549C11.0802 12.7556 11.0802 12.4469 11.2813 12.2477L13.9966 9.54822C14.2777 9.31623 14.3424 8.61348 13.9162 8.23337C13.456 7.77753 12.772 7.87979 12.4378 8.29314C12.4128 8.31778 9.67793 11.0111 9.66217 11.0424C9.35571 11.3459 9.11914 11.851 9.11914 12.397C9.11914 13.7874 9.11914 14.5458 9.11914 14.9418C9.11914 15.2122 9.11914 15.3172 9.11914 15.3254C9.11914 15.7311 9.11914 16.5492 9.11914 17.9984H13.6447C13.9224 17.9984 14.1475 17.7754 14.1475 17.5004C14.1475 16.7532 14.1475 16.2719 14.1475 15.5248C14.1475 14.8876 14.4219 14.5274 14.7524 13.9808H14.7481L16.8729 10.4646C17.064 10.1558 17.1645 9.8072 17.1645 9.44861V4.0199C17.1645 3.47205 16.712 3.0238 16.1588 3.0238Z" fill="#40C782"/>
<path d="M13.3939 5.01599C12.9774 5.01599 12.6396 5.35048 12.6396 5.76306V7.02953C12.8226 6.97627 13.011 6.93865 13.2053 6.93865C13.5378 6.93865 13.8599 7.02036 14.1482 7.17406V5.76306C14.1482 5.35048 13.8105 5.01599 13.3939 5.01599Z" fill="#40C782"/>
<path d="M3.77183 5.01599C3.35528 5.01599 3.01758 5.35048 3.01758 5.76306V7.17014C3.29897 7.02179 3.62403 6.93862 3.9604 6.93862C4.15442 6.93862 4.34279 6.97657 4.52609 7.03049V5.76306C4.52609 5.35048 4.18838 5.01599 3.77183 5.01599Z" fill="#40C782"/>
<path d="M8.58197 0.998413C7.47114 0.998413 6.53711 1.92352 6.53711 3.0238C6.53711 4.12406 7.47114 5.01599 8.58197 5.01599C9.69281 5.01599 10.6268 4.12406 10.6268 3.0238C10.6268 1.92352 9.69281 0.998413 8.58197 0.998413Z" fill="#40C782"/>
<path d="M8.58311 6.01208C7.29749 6.01208 6.12314 6.61246 5.38672 7.54222C5.4133 7.56928 5.44528 7.59043 5.47019 7.61905C6.7833 8.91301 7.5179 9.60426 7.90737 9.99646H9.29214C9.67886 9.60699 10.3732 8.92267 11.67 7.64485C11.7015 7.60637 11.7435 7.57645 11.7784 7.54059C11.0419 6.61173 9.86806 6.01208 8.58311 6.01208Z" fill="#40C782"/>
</svg>
