<svg width="41" height="40" viewBox="0 0 41 40" fill="none" xmlns="http://www.w3.org/2000/svg">
<path d="M17.7314 23.6325C17.6942 23.559 11.1803 17.2218 11.1215 17.1638C10.3351 16.1912 8.72572 15.9506 7.64299 17.0232C6.64024 17.9175 6.79247 19.5711 7.45377 20.1169L13.8426 26.4685C14.3159 26.9372 14.3159 27.6637 13.8426 28.1325C13.445 28.5704 12.5872 28.574 12.1863 28.1325L5.77371 21.781C5.10705 21.1207 4.73255 20.2252 4.73255 19.2914V7.10924C4.73255 5.82019 3.66773 4.7655 2.36627 4.7655C1.06482 4.7655 0 5.82019 0 7.10924V19.9607C0 20.8045 0.236549 21.5466 0.686141 22.2731L5.68561 30.5466H5.67551C6.45323 31.8326 7.09882 32.6802 7.09882 34.1794C7.09882 35.8716 7.09882 37.0921 7.09882 38.8278C7.09882 39.475 7.62855 39.9997 8.28196 39.9997H19.0091C19.0091 35.0775 19.0091 31.5527 19.0091 26.82C19.0091 25.5351 18.4524 24.3467 17.7314 23.6325Z" fill="#FFF"/>
<path d="M38.021 4.76575C36.7195 4.76575 35.6547 5.82043 35.6547 7.10949V19.2917C35.6547 20.2255 35.2802 21.1211 34.6135 21.7814L28.2008 28.1328C27.7999 28.5743 26.9421 28.5707 26.5445 28.1328C26.0713 27.6641 26.0713 26.9375 26.5445 26.4688L32.9334 20.1172C33.5947 19.5714 33.7469 17.9179 32.7442 17.0235C31.6614 15.9509 30.052 16.1915 29.2657 17.1641C29.2069 17.2221 22.7718 23.5593 22.7347 23.6328C22.0137 24.347 21.457 25.5354 21.457 26.8203C21.457 30.0917 21.457 31.8762 21.457 32.8079C21.457 33.4443 21.457 33.6913 21.457 33.7106C21.457 34.665 21.457 36.59 21.457 39.9999H32.1053C32.7587 39.9999 33.2884 39.4753 33.2884 38.8281C33.2884 37.07 33.2884 35.9375 33.2884 34.1797C33.2884 32.6805 33.934 31.833 34.7117 30.5469H34.7016L39.7011 22.2734C40.1507 21.5468 40.3872 20.7266 40.3872 19.8829V7.10949C40.3872 5.82043 39.3224 4.76575 38.021 4.76575Z" fill="#FFF"/>
<path d="M31.513 9.45312C30.5329 9.45312 29.7383 10.2402 29.7383 11.2109V14.1908C30.1688 14.0655 30.6121 13.977 31.0693 13.977C31.8515 13.977 32.6094 14.1693 33.2877 14.5309V11.2109C33.2877 10.2402 32.4931 9.45312 31.513 9.45312Z" fill="#FFF"/>
<path d="M8.87041 9.45312C7.8903 9.45312 7.0957 10.2402 7.0957 11.2109V14.5217C7.75779 14.1726 8.52265 13.9769 9.31409 13.9769C9.77062 13.9769 10.2138 14.0662 10.6451 14.1931V11.2109C10.6451 10.2402 9.85052 9.45312 8.87041 9.45312Z" fill="#FFF"/>
<path d="M20.1884 0C17.5747 0 15.377 2.17671 15.377 4.7656C15.377 7.35442 17.5747 9.45308 20.1884 9.45308C22.8021 9.45308 24.9998 7.35442 24.9998 4.7656C24.9998 2.17671 22.8021 0 20.1884 0Z" fill="#FFF"/>
<path d="M20.1957 11.7966C17.1707 11.7966 14.4075 13.2093 12.6748 15.3969C12.7374 15.4606 12.8126 15.5104 12.8712 15.5777C15.9609 18.6223 17.6893 20.2488 18.6057 21.1716H21.864C22.7739 20.2552 24.4077 18.645 27.4589 15.6384C27.533 15.5479 27.6318 15.4775 27.714 15.3931C25.9812 13.2076 23.2191 11.7966 20.1957 11.7966Z" fill="#FFF"/>
</svg>
