<svg width="41" height="41" viewBox="0 0 41 41" fill="none" xmlns="http://www.w3.org/2000/svg">
<path d="M32.7034 23.3851L31.1003 22.4596C31.2422 21.7692 31.3097 21.1314 31.3097 20.5C31.3097 19.8686 31.2422 19.2308 31.1004 18.5403L32.7035 17.6148C32.9794 17.4555 33.1807 17.1931 33.2632 16.8855C33.3456 16.5778 33.3024 16.2499 33.1431 15.974L30.7408 11.813C30.409 11.2385 29.6745 11.0417 29.1 11.3734L27.5115 12.2905C26.5158 11.4459 25.3602 10.7858 24.1028 10.3436V8.48828C24.1028 7.82491 23.565 7.28711 22.9016 7.28711H18.0969C17.4336 7.28711 16.8958 7.82491 16.8958 8.48828V10.3436C15.6384 10.7858 14.4827 11.446 13.4871 12.2905L11.8986 11.3734C11.324 11.0416 10.5894 11.2386 10.2578 11.813L7.85543 15.974C7.69615 16.2499 7.65299 16.5778 7.73539 16.8855C7.81787 17.1932 8.01919 17.4555 8.29506 17.6148L9.89814 18.5403C9.75616 19.2308 9.68866 19.8686 9.68866 20.5C9.68866 21.1314 9.75616 21.7692 9.89798 22.4597L8.2949 23.3852C8.01903 23.5445 7.81771 23.8069 7.73523 24.1145C7.65283 24.4222 7.69599 24.7501 7.85527 25.026L10.2576 29.1869C10.5894 29.7616 11.324 29.9584 11.8984 29.6266L13.4869 28.7094C14.4826 29.5541 15.6382 30.2142 16.8956 30.6564V32.5117C16.8956 33.1751 17.4334 33.7129 18.0968 33.7129H22.9015C23.5648 33.7129 24.1026 33.1751 24.1026 32.5117V30.6564C25.36 30.2142 26.5157 29.554 27.5113 28.7094L29.0998 29.6266C29.6743 29.9583 30.4089 29.7614 30.7406 29.1869L33.143 25.026C33.3022 24.7501 33.3454 24.4222 33.263 24.1145C33.1806 23.8068 32.9794 23.5445 32.7034 23.3851ZM20.4992 24.1035C18.5122 24.1035 16.8957 22.487 16.8957 20.5C16.8957 18.513 18.5122 16.8965 20.4992 16.8965C22.4862 16.8965 24.1027 18.513 24.1027 20.5C24.1027 22.487 22.4862 24.1035 20.4992 24.1035Z" fill="white"/>
<path d="M36.9279 8.22923L35.2292 3.13306C35.0194 2.50372 34.3392 2.16347 33.7098 2.37335C33.0805 2.58316 32.7404 3.26334 32.9501 3.89276L33.0945 4.3259C32.0167 3.5055 30.8551 2.78247 29.6323 2.17588C26.7625 0.752414 23.6046 0 20.5 0C15.0539 0 9.91415 2.14049 6.0274 6.0274C2.14049 9.91415 0 15.054 0 20.5C0 23.0152 0.528435 25.5921 1.57041 28.1589C1.75988 28.6256 2.20935 28.9085 2.68374 28.9085C2.8342 28.9085 2.98723 28.8801 3.13522 28.82C3.7499 28.5705 4.04587 27.8699 3.79634 27.2552C2.87128 24.9768 2.40234 22.704 2.40234 20.5C2.40234 10.5209 10.5209 2.40234 20.5 2.40234C24.1628 2.40234 27.8603 3.62081 30.9323 5.73407C30.3451 5.61356 29.7471 5.94748 29.5527 6.53037C29.343 7.15962 29.6831 7.83997 30.3124 8.04977L35.4086 9.74855C35.8384 9.89173 36.3148 9.78146 36.6378 9.45834C36.9595 9.13667 37.0718 8.66077 36.9279 8.22923Z" fill="white"/>
<path d="M39.43 12.8412C39.1804 12.2264 38.4797 11.9307 37.8652 12.18C37.2505 12.4296 36.9546 13.1302 37.2041 13.7448C38.1292 16.0233 38.5981 18.2961 38.5981 20.5001C38.5981 30.4792 30.4795 38.5977 20.5005 38.5977C16.8377 38.5977 13.1402 37.3792 10.0681 35.266C10.6552 35.3864 11.2534 35.0527 11.4477 34.4697C11.6574 33.8404 11.3173 33.1601 10.688 32.9503L5.59183 31.2515C5.16037 31.1076 4.6843 31.2199 4.36263 31.5417C4.04088 31.8635 3.92853 32.3393 4.07243 32.7709L5.77113 37.8671C5.93897 38.3705 6.40751 38.6888 6.91056 38.6888C7.03644 38.6888 7.16456 38.6688 7.29053 38.6269C7.91986 38.4171 8.25995 37.7369 8.05023 37.1075L7.90585 36.6743C8.9837 37.4947 10.1452 38.2177 11.368 38.8243C14.2379 40.2476 17.3958 41.0001 20.5005 41.0001C25.9466 41.0001 31.0863 38.8596 34.973 34.9727C38.86 31.0859 41.0004 25.9461 41.0004 20.5001C41.0004 17.9848 40.472 15.408 39.43 12.8412Z" fill="white"/>
</svg>
