<svg width="654" height="66" viewBox="0 0 654 66" fill="none" xmlns="http://www.w3.org/2000/svg">
<path d="M197.79 23.4199H180.718L167 65.9999H211.448L197.79 23.4199ZM188.089 25.7297H190.479L201.205 59.3719H177.364L188.089 25.7297Z" fill="#F2ECD2"/>
<path d="M260.275 23.4199H243.243L229.545 65.9999H273.973L260.275 23.4199ZM250.554 25.7297H253.024L263.729 59.3719H239.848L250.554 25.7297Z" fill="#F2ECD2"/>
<path d="M322.762 23.4199H305.73L292.012 65.9999H336.46L322.762 23.4199ZM313.041 25.7297H315.451L326.156 59.3719H302.335L313.041 25.7297Z" fill="#F2ECD2"/>
<path d="M198.312 0.000976562L212.01 42.5408H229.042L242.74 0.000976562H198.312ZM221.731 40.1708H219.321L208.616 6.52857H232.437L221.731 40.1708Z" fill="#F2ECD2"/>
<path d="M260.793 0.000976562L274.491 42.5408H291.503L305.241 0.000976562H260.793ZM284.192 40.1708H281.802L271.097 6.60886H294.937L284.192 40.1708Z" fill="#F2ECD2"/>
<path d="M515.196 23.4202H498.124L484.406 66.0002H528.854L515.196 23.4202ZM505.495 25.73H507.885L518.611 59.3722H494.77L505.495 25.73Z" fill="#F2ECD2"/>
<path d="M577.681 23.4202H560.649L546.951 66.0002H591.379L577.681 23.4202ZM567.96 25.73H570.43L581.136 59.3722H557.255L567.96 25.73Z" fill="#F2ECD2"/>
<path d="M640.168 23.4202H623.136L609.418 66.0002H653.866L640.168 23.4202ZM630.447 25.73H632.857L643.562 59.3722H619.742L630.447 25.73Z" fill="#F2ECD2"/>
<path d="M515.721 0.0012207L529.419 42.541H546.451L560.148 0.0012207H515.721ZM539.14 40.171H536.729L526.024 6.52881H549.845L539.14 40.171Z" fill="#F2ECD2"/>
<path d="M578.201 0.0012207L591.899 42.541H608.911L622.649 0.0012207H578.201ZM601.6 40.171H599.21L588.505 6.60911H612.345L601.6 40.171Z" fill="#F2ECD2"/>
<path d="M354.519 42.5801H337.447L323.729 8.01086e-05H368.176L354.519 42.5801ZM344.818 40.2703H347.208L357.933 6.62807H334.092L344.818 40.2703Z" fill="#F2ECD2"/>
<path d="M417.003 42.5801H399.971L386.273 8.01086e-05H430.701L417.003 42.5801ZM407.282 40.2703H409.753L420.458 6.62807H396.577L407.282 40.2703Z" fill="#F2ECD2"/>
<path d="M479.49 42.5801H462.458L448.74 8.01086e-05H493.188L479.49 42.5801ZM469.769 40.2703H472.179L482.885 6.62807H459.064L469.769 40.2703Z" fill="#F2ECD2"/>
<path d="M355.041 65.999L368.739 23.4592H385.771L399.469 65.999H355.041ZM378.46 25.8292H376.05L365.345 59.4714H389.165L378.46 25.8292Z" fill="#F2ECD2"/>
<path d="M417.523 65.999L431.221 23.4592H448.233L461.971 65.999H417.523ZM440.922 25.8292H438.532L427.827 59.3911H451.668L440.922 25.8292Z" fill="#F2ECD2"/>
<path d="M31.1515 42.5801H14.0793L0.361328 8.01086e-05H44.8092L31.1515 42.5801ZM21.4505 40.2703H23.8406L34.566 6.62807H10.7252L21.4505 40.2703Z" fill="#F2ECD2"/>
<path d="M93.6361 42.5801H76.6042L62.9062 8.01086e-05H107.334L93.6361 42.5801ZM83.9151 40.2703H86.3855L97.0908 6.62807H73.2098L83.9151 40.2703Z" fill="#F2ECD2"/>
<path d="M156.123 42.5801H139.091L125.373 8.01086e-05H169.821L156.123 42.5801ZM146.402 40.2703H148.812L159.517 6.62807H135.697L146.402 40.2703Z" fill="#F2ECD2"/>
<path d="M31.6738 65.999L45.3717 23.4592H62.4037L76.1016 65.999H31.6738ZM55.0928 25.8292H52.6825L41.9774 59.4714H65.798L55.0928 25.8292Z" fill="#F2ECD2"/>
<path d="M94.1562 65.999L107.854 23.4592H124.866L138.604 65.999H94.1562ZM117.555 25.8292H115.165L104.46 59.3911H128.301L117.555 25.8292Z" fill="#F2ECD2"/>
</svg>
