<svg width="55" height="54" viewBox="0 0 55 54" fill="none" xmlns="http://www.w3.org/2000/svg">
<path d="M19.3674 22.0911H27.0835H34.7996C35.6377 22.0911 36.3165 21.4096 36.3165 20.568V18.9082C36.3165 14.5551 32.8595 10.7956 28.1494 10.7956C30.6369 10.2983 32.5123 8.09483 32.5123 5.4501C32.5123 2.43994 30.0813 0 27.0835 0C24.0857 0 21.6548 2.43994 21.6548 5.4501C21.6548 8.09483 23.5302 10.2983 26.0177 10.7956C21.3137 10.7956 17.8506 14.5493 17.8506 18.9082V20.568C17.8507 21.4095 18.5293 22.0911 19.3674 22.0911Z" fill="#40C782"/>
<path d="M6.81776 26.3413C6.91371 26.3588 7.00892 26.3673 7.10308 26.3673C7.85338 26.3673 8.51987 25.8294 8.65904 25.0617C9.04888 22.9108 9.78692 20.8209 10.8525 18.8501C11.881 16.9483 13.1706 15.2404 14.6857 13.7739C15.3153 13.1646 15.3337 12.158 14.7268 11.5258C14.1199 10.8936 13.1176 10.8751 12.488 11.4845C10.7394 13.1771 9.25273 15.1447 8.06959 17.3329C6.84344 19.6004 5.99349 22.0092 5.54342 24.4924C5.38691 25.3563 5.95745 26.184 6.81776 26.3413Z" fill="#40C782"/>
<path d="M43.3148 18.8499C44.3804 20.8208 45.1185 22.9106 45.5083 25.0615C45.6475 25.8293 46.3139 26.367 47.0643 26.367C47.1583 26.367 47.2538 26.3586 47.3496 26.341C48.2099 26.1838 48.7804 25.3561 48.6238 24.4922C48.1738 22.009 47.3238 19.6001 46.0977 17.3327C44.9145 15.1445 43.4279 13.1768 41.6793 11.4843C41.0497 10.8748 40.0473 10.8934 39.4404 11.5256C38.8335 12.1578 38.852 13.1643 39.4815 13.7737C40.9967 15.2402 42.2864 16.9481 43.3148 18.8499Z" fill="#40C782"/>
<path d="M33.4792 38.4848C31.4367 39.1589 29.2855 39.5045 27.0826 39.5119C27.054 39.5129 27.0245 39.5129 26.996 39.5129C24.8416 39.5129 22.7305 39.1897 20.7239 38.5527C19.89 38.2876 19.0011 38.7519 18.7373 39.5892C18.4734 40.4266 18.9357 41.319 19.7696 41.584C22.0855 42.3196 24.5164 42.6926 26.996 42.6926H27.0826C29.6223 42.6831 32.1059 42.2845 34.4673 41.5054C35.298 41.2319 35.7508 40.3332 35.4774 39.499C35.2051 38.665 34.3099 38.2103 33.4792 38.4848Z" fill="#40C782"/>
<path d="M10.2986 42.7043C12.7862 42.2069 14.6617 40.0028 14.6617 37.3589C14.6617 34.3487 12.2308 31.9077 9.23296 31.9077C6.23516 31.9077 3.8042 34.3487 3.8042 37.3589C3.8042 40.0028 5.67973 42.2069 8.16733 42.7043C3.46731 42.7043 0 46.4542 0 50.817V52.4769C0 53.3174 0.678752 54 1.51686 54H9.23296H16.949C17.7872 54 18.4659 53.3174 18.4659 52.4769V50.817C18.4659 46.4726 15.0184 42.7043 10.2986 42.7043Z" fill="#40C782"/>
<path d="M45.9383 42.7043C48.4259 42.2069 50.3015 40.0028 50.3015 37.3589C50.3015 34.3487 47.8705 31.9077 44.8727 31.9077C41.8739 31.9077 39.444 34.3487 39.444 37.3589C39.444 40.0028 41.3187 42.2069 43.8068 42.7043C39.096 42.7043 35.6396 46.463 35.6396 50.8169V52.4768C35.6396 53.3173 36.3184 53.9999 37.1565 53.9999H44.8726H52.5887C53.4258 53.9999 54.1056 53.3173 54.1056 52.4768V50.817C54.1057 46.4635 50.6485 42.7043 45.9383 42.7043Z" fill="#40C782"/>
</svg>
