<svg width="58" height="52" viewBox="0 0 58 52" fill="none" xmlns="http://www.w3.org/2000/svg">
<path d="M57.2016 26.905C56.5012 26.2862 55.4314 26.3527 54.8126 27.0531L54.7853 27.084V25.8979C54.7853 18.9803 52.0912 12.4766 47.1995 7.58489C42.3082 2.69359 35.8045 0 28.887 0C24.7084 0 20.5563 1.01908 16.8789 2.9466C13.3209 4.81152 10.198 7.52451 7.84779 10.7929C7.3021 11.5514 7.47489 12.6093 8.23391 13.155C8.99292 13.7011 10.0508 13.5283 10.5965 12.7693C12.6408 9.9263 15.3569 7.56638 18.4507 5.94476C21.645 4.27025 25.2536 3.38517 28.887 3.38517C41.3006 3.38517 51.4001 13.4847 51.4001 25.8983V27.0844L51.3723 27.0536C50.7535 26.3527 49.6837 26.2866 48.9833 26.9055C48.2825 27.5243 48.2164 28.5941 48.8352 29.2945L51.8237 32.6779C52.145 33.0415 52.6069 33.2496 53.0922 33.2496C53.5775 33.2496 54.0395 33.0415 54.3608 32.6779L57.3493 29.2945C57.9686 28.5937 57.9024 27.5239 57.2016 26.905Z" fill="#40C782"/>
<path d="M49.5399 38.635C48.7809 38.0893 47.7234 38.2617 47.1773 39.0207C45.133 41.8633 42.4169 44.2232 39.3231 45.8452C36.1288 47.5198 32.5197 48.4048 28.8868 48.4048C16.4732 48.4048 6.3737 38.3053 6.3737 25.8917V24.7056L6.40147 24.7369C7.02032 25.4373 8.09009 25.5038 8.79048 24.8845C9.49132 24.2657 9.55743 23.1959 8.93858 22.4955L5.95011 19.1121C5.62835 18.7485 5.16685 18.54 4.68156 18.54C4.19626 18.54 3.73388 18.7485 3.413 19.1121L0.424089 22.4955C-0.194762 23.1963 -0.128646 24.2657 0.57219 24.8845C0.893957 25.1693 1.29374 25.309 1.6922 25.309C2.16031 25.309 2.62665 25.1155 2.9612 24.7369L2.98853 24.7056V25.8917C2.98853 32.8097 5.68256 39.3129 10.5743 44.2047C15.4656 49.0964 21.9693 51.79 28.8868 51.79C33.065 51.79 37.2175 50.7709 40.8949 48.8434C44.4524 46.9785 47.5753 44.2651 49.9256 40.9971C50.4713 40.2381 50.2989 39.1807 49.5399 38.635Z" fill="#40C782"/>
<path d="M12.1916 30.2285C12.0752 30.6618 12.136 31.1237 12.3608 31.5125L15.746 37.3761C15.9704 37.7649 16.3402 38.0483 16.7735 38.1647C17.2072 38.2806 17.6691 38.2202 18.0579 37.9954L20.547 36.5585C21.5409 37.3351 22.6424 37.9725 23.8087 38.4459V41.3158C23.8087 42.2502 24.5664 43.0084 25.5013 43.0084H32.2716C33.2061 43.0084 33.9642 42.2502 33.9642 41.3158V38.4459C35.1305 37.9725 36.232 37.3351 37.226 36.5585L39.715 37.9954C40.1034 38.2198 40.5657 38.2806 40.999 38.1647C41.4327 38.0483 41.8026 37.7649 42.0269 37.3761L45.4121 31.5125C45.6364 31.1237 45.6973 30.6618 45.5813 30.2285C45.465 29.7948 45.1811 29.425 44.7928 29.2006L42.2984 27.7606C42.3839 27.1426 42.4271 26.5171 42.4271 25.8917C42.4271 25.2587 42.3831 24.6271 42.2953 24.0021L44.7928 22.5603C45.1815 22.3359 45.465 21.9661 45.5813 21.5324C45.6973 21.0987 45.6364 20.6367 45.4121 20.248L42.0269 14.3848C41.5597 13.5755 40.5243 13.2982 39.715 13.7655L37.2097 15.2121C36.2197 14.4412 35.1239 13.8082 33.9642 13.3375V10.4451C33.9642 9.51064 33.2065 8.7525 32.2716 8.7525H25.5013C24.5664 8.7525 23.8087 9.51064 23.8087 10.4451V13.3375C22.6495 13.8082 21.5532 14.4412 20.5637 15.2121L18.0579 13.7655C17.2486 13.2978 16.2132 13.5755 15.746 14.3848L12.3608 20.248C12.1365 20.6367 12.0757 21.0991 12.1916 21.5324C12.3079 21.9661 12.5914 22.3359 12.9801 22.5603L15.4776 24.0021C15.3899 24.6271 15.3458 25.2587 15.3458 25.8917C15.3458 26.5171 15.389 27.1422 15.4745 27.7606L12.9806 29.2006C12.5914 29.425 12.3079 29.7948 12.1916 30.2285ZM28.8865 20.8139C31.6907 20.8139 33.9642 23.0875 33.9642 25.8917C33.9642 28.6959 31.6907 30.9694 28.8865 30.9694C26.0818 30.9694 23.8087 28.6959 23.8087 25.8917C23.8087 23.0875 26.0822 20.8139 28.8865 20.8139Z" fill="#40C782"/>
</svg>
