<svg width="15" height="16" viewBox="0 0 15 16" fill="none" xmlns="http://www.w3.org/2000/svg">
<path d="M14.9247 6.46568C14.6544 4.50073 13.6127 2.72336 12.0286 1.52456C10.4446 0.325768 8.44799 -0.196251 6.47808 0.0733451C4.50817 0.342941 2.72631 1.38207 1.52449 2.96213C0.322674 4.54219 -0.200662 6.53375 0.0696141 8.4987C0.292286 10.125 1.04154 11.6343 2.20335 12.7967C3.36515 13.9592 4.87589 14.7112 6.50564 14.9383C6.83912 14.9819 7.17509 15.0038 7.51142 15.0039C8.87027 15.0061 10.2037 14.6362 11.3663 13.9346C11.4479 13.8855 11.519 13.821 11.5756 13.7445C11.6321 13.6681 11.6731 13.5813 11.696 13.4891C11.719 13.3968 11.7235 13.301 11.7093 13.2071C11.6951 13.1131 11.6625 13.0228 11.6134 12.9414C11.5642 12.8601 11.4995 12.7891 11.4228 12.7327C11.3462 12.6762 11.2592 12.6354 11.1667 12.6125C10.98 12.5663 10.7825 12.596 10.6177 12.695C9.79021 13.1904 8.85578 13.481 7.8926 13.5424C6.92942 13.6038 5.96551 13.4343 5.08149 13.0479C4.19746 12.6616 3.41904 12.0697 2.81134 11.3218C2.20364 10.5739 1.78432 9.6917 1.58847 8.74901C1.39262 7.80633 1.42593 6.83057 1.68561 5.90336C1.9453 4.97614 2.4238 4.12444 3.0811 3.41949C3.7384 2.71455 4.55538 2.17686 5.4637 1.8514C6.37202 1.52594 7.34526 1.42218 8.30202 1.54879C9.1907 1.66666 10.042 1.98022 10.7941 2.46678C11.5463 2.95334 12.1806 3.60071 12.6509 4.36197C13.1213 5.12324 13.416 5.97934 13.5137 6.86825C13.6114 7.75716 13.5097 8.65662 13.2158 9.50147C13.1396 9.70462 13.0018 9.87906 12.8217 10.0006C12.6416 10.1221 12.428 10.1847 12.2105 10.1796C11.924 10.1792 11.6494 10.0655 11.4468 9.86346C11.2442 9.66138 11.1302 9.3874 11.1298 9.10161V4.63282C11.1298 4.44094 11.0534 4.25691 10.9174 4.12123C10.7813 3.98555 10.5969 3.90932 10.4045 3.90932C10.2121 3.90932 10.0276 3.98555 9.89161 4.12123C9.75559 4.25691 9.67917 4.44094 9.67917 4.63282V4.63957C9.1293 4.22561 8.47261 3.97642 7.78594 3.92119C7.09927 3.86595 6.41103 4.00694 5.80177 4.32766C5.1925 4.64838 4.68742 5.13556 4.34563 5.73219C4.00384 6.32881 3.83948 7.0102 3.87179 7.69661C3.9041 8.38302 4.13174 9.04605 4.52806 9.60811C4.92439 10.1702 5.47301 10.608 6.10972 10.8704C6.74643 11.1327 7.44488 11.2088 8.12335 11.0896C8.80181 10.9705 9.43221 10.661 9.94077 10.1975C10.1462 10.6244 10.4682 10.9849 10.8696 11.2376C11.2711 11.4904 11.7358 11.6252 12.2105 11.6266C12.7295 11.6316 13.2372 11.4753 13.663 11.1793C14.0888 10.8833 14.4116 10.4625 14.5867 9.97511C14.9776 8.84877 15.0935 7.64565 14.9247 6.46568ZM7.5032 9.69729C7.07284 9.69729 6.65213 9.57 6.2943 9.3315C5.93646 9.093 5.65756 8.75402 5.49287 8.35741C5.32818 7.96081 5.28508 7.5244 5.36904 7.10336C5.453 6.68233 5.66025 6.29558 5.96456 5.99204C6.26887 5.68849 6.65659 5.48177 7.07869 5.39802C7.50079 5.31427 7.9383 5.35725 8.33591 5.52153C8.73351 5.68581 9.07335 5.96401 9.31245 6.32094C9.55155 6.67788 9.67917 7.09752 9.67917 7.5268C9.67853 8.10226 9.44907 8.65396 9.04114 9.06087C8.6332 9.46777 8.08011 9.69665 7.5032 9.69729Z" fill="#40C782"/>
</svg>
