<svg width="16" height="18" viewBox="0 0 16 18" fill="none" xmlns="http://www.w3.org/2000/svg">
<path d="M8 17.6557C7.9225 17.656 7.8457 17.6409 7.77412 17.6112C7.70254 17.5815 7.63761 17.5378 7.58315 17.4826L3.05281 12.9523C2.07312 11.9736 1.40572 10.7264 1.13504 9.36829C0.864353 8.01022 1.00255 6.60239 1.53215 5.32288C2.06176 4.04338 2.95896 2.9497 4.11026 2.18021C5.26156 1.41073 6.61522 1 8 1C9.38478 1 10.7384 1.41073 11.8897 2.18021C13.041 2.9497 13.9382 4.04338 14.4678 5.32288C14.9974 6.60239 15.1356 8.01022 14.865 9.36829C14.5943 10.7264 13.9269 11.9736 12.9472 12.9523L8.41685 17.4826C8.36239 17.5378 8.29746 17.5815 8.22588 17.6112C8.1543 17.6409 8.0775 17.656 8 17.6557ZM8 2.18489C6.84946 2.18569 5.72497 2.52748 4.76859 3.16707C3.81221 3.80666 3.06684 4.71535 2.62666 5.77836C2.18648 6.84136 2.07122 8.01098 2.29546 9.13946C2.5197 10.2679 3.07337 11.3046 3.88652 12.1186L8 16.2321L12.1135 12.1186C12.9266 11.3046 13.4803 10.2679 13.7045 9.13946C13.9288 8.01098 13.8135 6.84136 13.3733 5.77836C12.9332 4.71535 12.1878 3.80666 11.2314 3.16707C10.275 2.52748 9.15054 2.18569 8 2.18489Z" fill="white" stroke="white" stroke-width="0.3"/>
<path d="M8.00022 10.6005C7.41688 10.6005 6.84663 10.4275 6.3616 10.1034C5.87657 9.77934 5.49853 9.3187 5.2753 8.77976C5.05206 8.24082 4.99365 7.64779 5.10746 7.07565C5.22126 6.50352 5.50217 5.97798 5.91465 5.56549C6.32714 5.15301 6.85268 4.8721 7.42481 4.7583C7.99695 4.64449 8.58998 4.7029 9.12892 4.92614C9.66786 5.14937 10.1285 5.52741 10.4526 6.01244C10.7767 6.49747 10.9497 7.06772 10.9497 7.65106C10.9497 8.4333 10.6389 9.1835 10.0858 9.73663C9.53266 10.2898 8.78246 10.6005 8.00022 10.6005ZM8.00022 5.8814C7.65021 5.8814 7.30807 5.98519 7.01705 6.17964C6.72603 6.37409 6.49921 6.65048 6.36527 6.97384C6.23132 7.2972 6.19628 7.65302 6.26456 7.9963C6.33284 8.33958 6.50139 8.65491 6.74888 8.9024C6.99637 9.14989 7.31169 9.31844 7.65498 9.38672C7.99826 9.455 8.35408 9.41996 8.67744 9.28601C9.0008 9.15207 9.27719 8.92525 9.47164 8.63423C9.66609 8.34321 9.76988 8.00107 9.76988 7.65106C9.76988 7.18172 9.58344 6.7316 9.25156 6.39972C8.91968 6.06784 8.46956 5.8814 8.00022 5.8814Z" fill="white" stroke="white" stroke-width="0.3"/>
</svg>
