<svg width="17" height="17" viewBox="0 0 17 17" fill="none" xmlns="http://www.w3.org/2000/svg">
<path d="M12.8621 10.3063C12.5546 9.98608 12.1836 9.81486 11.7904 9.81486C11.4004 9.81486 11.0263 9.9829 10.706 10.3032L9.70406 11.3019C9.62162 11.2575 9.53918 11.2163 9.45991 11.1751C9.34577 11.118 9.23796 11.0641 9.14601 11.0071C8.20747 10.411 7.35454 9.63412 6.53649 8.629C6.14014 8.12802 5.8738 7.70631 5.68038 7.27826C5.94039 7.04045 6.18136 6.79313 6.416 6.55533C6.50478 6.46655 6.59356 6.3746 6.68234 6.28581C7.3482 5.61996 7.3482 4.75751 6.68234 4.09166L5.81673 3.22604C5.71843 3.12775 5.61697 3.02629 5.52185 2.92482C5.3316 2.72824 5.13185 2.52531 4.92575 2.33506C4.61819 2.03067 4.25038 1.86897 3.86355 1.86897C3.47672 1.86897 3.10257 2.03067 2.78549 2.33506C2.78232 2.33824 2.78232 2.33824 2.77915 2.34141L1.7011 3.42897C1.29524 3.83483 1.06378 4.32946 1.01305 4.90337C0.936949 5.82923 1.20963 6.69167 1.4189 7.25606C1.93256 8.64168 2.69988 9.92583 3.84452 11.3019C5.23331 12.9602 6.90429 14.2698 8.81308 15.1924C9.54235 15.5381 10.5158 15.9471 11.6033 16.0168C11.6699 16.02 11.7397 16.0232 11.8031 16.0232C12.5355 16.0232 13.1507 15.76 13.6326 15.2368C13.6358 15.2305 13.6421 15.2273 13.6453 15.221C13.8102 15.0212 14.0004 14.8405 14.2002 14.6471C14.3365 14.5171 14.476 14.3807 14.6124 14.238C14.9263 13.9115 15.0912 13.531 15.0912 13.141C15.0912 12.7478 14.9231 12.3705 14.6029 12.0534L12.8621 10.3063ZM13.9973 13.6451C13.9941 13.6451 13.9941 13.6483 13.9973 13.6451C13.8736 13.7783 13.7468 13.8988 13.6104 14.0319C13.4043 14.2285 13.1951 14.4346 12.9985 14.6661C12.6782 15.0085 12.3009 15.1702 11.8063 15.1702C11.7587 15.1702 11.708 15.1702 11.6604 15.1671C10.7187 15.1068 9.84357 14.739 9.18723 14.4251C7.39259 13.5563 5.81673 12.3229 4.50721 10.7597C3.42598 9.45656 2.70305 8.25168 2.22427 6.95801C1.92939 6.1685 1.82159 5.55337 1.86915 4.97313C1.90086 4.60215 2.04354 4.29459 2.30671 4.03141L3.38794 2.95019C3.5433 2.80434 3.70818 2.72507 3.86989 2.72507C4.06965 2.72507 4.23135 2.84555 4.33282 2.94702C4.33599 2.95019 4.33916 2.95336 4.34233 2.95653C4.53575 3.13726 4.71965 3.32434 4.91306 3.52409C5.01136 3.62556 5.11282 3.72702 5.21429 3.83166L6.0799 4.69727C6.416 5.03337 6.416 5.3441 6.0799 5.6802C5.98795 5.77215 5.89917 5.8641 5.80721 5.95289C5.54087 6.22557 5.28721 6.47923 5.01136 6.72655C5.00502 6.73289 4.99867 6.73606 4.9955 6.7424C4.72282 7.01509 4.77355 7.28143 4.83063 7.46216C4.8338 7.47167 4.83697 7.48119 4.84014 7.4907C5.06526 8.03607 5.38233 8.54973 5.86429 9.16168L5.86746 9.16485C6.74259 10.2429 7.66527 11.0832 8.68308 11.7268C8.81308 11.8093 8.94625 11.8758 9.07308 11.9393C9.18723 11.9963 9.29504 12.0502 9.38699 12.1073C9.39967 12.1136 9.41235 12.1232 9.42504 12.1295C9.53284 12.1834 9.63431 12.2088 9.73894 12.2088C10.0021 12.2088 10.167 12.0439 10.2209 11.99L11.3053 10.9056C11.4131 10.7978 11.5843 10.6678 11.7841 10.6678C11.9807 10.6678 12.1424 10.7914 12.2407 10.8993C12.2438 10.9024 12.2438 10.9024 12.247 10.9056L13.9941 12.6527C14.3207 12.9761 14.3207 13.309 13.9973 13.6451Z" fill="white" stroke="white" stroke-width="0.5"/>
<path d="M9.1082 4.57361C9.93894 4.71313 10.6936 5.1063 11.296 5.70874C11.8985 6.31118 12.2885 7.06582 12.4311 7.89655C12.466 8.10582 12.6468 8.25168 12.8529 8.25168C12.8782 8.25168 12.9004 8.24851 12.9258 8.24534C13.1604 8.20729 13.3158 7.98534 13.2777 7.7507C13.1065 6.74557 12.6309 5.82923 11.9048 5.10313C11.1787 4.37703 10.2624 3.90142 9.25723 3.7302C9.02259 3.69215 8.80381 3.84751 8.76259 4.07898C8.72137 4.31044 8.87356 4.53556 9.1082 4.57361Z" fill="white" stroke="white" stroke-width="0.5"/>
<path d="M15.9927 7.62704C15.7105 5.97191 14.9305 4.46581 13.732 3.26727C12.5334 2.06873 11.0273 1.28872 9.37219 1.00653C9.14073 0.965306 8.92195 1.12384 8.88073 1.35531C8.84268 1.58994 8.99805 1.80872 9.23268 1.84994C10.7102 2.10043 12.0578 2.80117 13.1295 3.86971C14.2012 4.94142 14.8988 6.28899 15.1493 7.76656C15.1842 7.97583 15.3649 8.12168 15.571 8.12168C15.5964 8.12168 15.6186 8.11851 15.6439 8.11534C15.8754 8.08046 16.0339 7.85851 15.9927 7.62704Z" fill="white" stroke="white" stroke-width="0.5"/>
</svg>
