<svg width="1440" height="940" viewBox="0 0 1440 940" fill="none" xmlns="http://www.w3.org/2000/svg">
<mask id="mask0_270_2872" style="mask-type:alpha" maskUnits="userSpaceOnUse" x="0" y="0" width="1440" height="940">
<rect y="0.998535" width="1440" height="939" fill="black" fill-opacity="0.82"/>
</mask>
<g mask="url(#mask0_270_2872)">
<path d="M363.003 607.59L362.858 607.735V607.59H363.003Z" fill="white" fill-opacity="0.06"/>
<path d="M363.003 607.59L362.858 607.735V607.59H363.003Z" fill="white" fill-opacity="0.06"/>
<path d="M505 607.732V775.119L363 607.732H362.857L363 607.588H362.857V607.732L221 774.832V607.588L362.857 440.487L504.713 607.732H505Z" fill="white" fill-opacity="0.06"/>
<path d="M505 838.949V1006.34L363 838.949H362.857L363 838.806H362.857V838.949L221 1006.19V838.806L362.857 671.705L504.713 838.949H505Z" fill="white" fill-opacity="0.06"/>
<path d="M363.003 838.804L362.858 838.949V838.804H363.003Z" fill="white" fill-opacity="0.06"/>
<path d="M363.003 838.804L362.858 838.949V838.804H363.003Z" fill="white" fill-opacity="0.06"/>
<path d="M363.003 131.098L362.858 131.243V131.098H363.003Z" fill="#40C782" fill-opacity="0.06"/>
<path d="M363.003 131.098L362.858 131.243V131.098H363.003Z" fill="#40C782" fill-opacity="0.06"/>
<path d="M505 131.243V298.631L363 131.243H362.857L363 131.1H362.857V131.243L221 298.487V131.1L362.857 -36.0015L504.713 131.243H505Z" fill="#40C782" fill-opacity="0.08"/>
<path d="M505 362.604V529.848L363 362.604H362.857L363 362.461H362.857V362.604L221 529.705V362.461L362.857 195.216L504.713 362.604H505Z" fill="#40C782" fill-opacity="0.06"/>
<path d="M363.003 362.46L362.858 362.604V362.46H363.003Z" fill="#40C782" fill-opacity="0.06"/>
<path d="M363.003 362.46L362.858 362.604V362.46H363.003Z" fill="#40C782" fill-opacity="0.06"/>
<path d="M1219 -10.2685V157.119L1077 -10.2685H1076.86L1077 -10.412H1076.86V-10.2685L935 156.832V-10.412L1076.86 -177.513L1218.71 -10.2685H1219Z" fill="white" fill-opacity="0.06"/>
<path d="M1219 220.949V388.337L1077 220.949H1076.86L1077 220.806H1076.86V220.949L935 388.194V220.806L1076.86 53.7046L1218.71 220.949H1219Z" fill="white" fill-opacity="0.06"/>
<path d="M1077 220.804L1076.86 220.949V220.804H1077Z" fill="white" fill-opacity="0.06"/>
<path d="M1077 220.804L1076.86 220.949V220.804H1077Z" fill="white" fill-opacity="0.06"/>
</g>
</svg>
