<svg width="41" height="41" viewBox="0 0 41 41" fill="none" xmlns="http://www.w3.org/2000/svg">
<path d="M40.4204 22.0703L32.4316 15.223V10.8947C32.4316 10.8834 32.4304 10.8725 32.4301 10.8615C32.4438 10.5315 32.3222 10.2034 32.0797 9.96097L27.275 5.15659C27.0498 4.93137 26.7442 4.80469 26.4258 4.80469H14.4141V1.20117C14.4141 0.537712 13.8764 0 13.2129 0H6.00586C5.3424 0 4.80469 0.537712 4.80469 1.20117V4.80469H1.20117C0.537712 4.80469 0 5.3424 0 6.00586V10.8105C0 11.474 0.537712 12.0117 1.20117 12.0117H4.80469V38.5977H1.52148C0.858025 38.5977 0.320312 39.1354 0.320312 39.7988C0.320312 40.462 0.858025 41 1.52148 41H17.6973C18.3607 41 18.8984 40.462 18.8984 39.7988C18.8984 39.1354 18.3607 38.5977 17.6973 38.5977H14.4141V12.0117H30.0293V15.223L22.0406 22.0703C21.6589 22.3975 21.5213 22.9277 21.6955 23.3991C21.8698 23.8705 22.3196 24.1836 22.8223 24.1836H39.6387C40.1413 24.1836 40.5909 23.8705 40.7651 23.3991C40.9396 22.9277 40.802 22.3975 40.4204 22.0703ZM7.20703 2.40234H12.0117V4.80469H7.20703V2.40234ZM12.0117 29.5904L7.77978 25.3585L12.0117 21.0787V29.5904ZM7.20703 28.1831L11.2738 32.2499L7.20703 36.317V28.1831ZM7.20703 22.521V13.9033L11.4668 18.2128L7.20703 22.521ZM12.0117 7.20703V9.60938H7.20703V7.20703H12.0117ZM2.40234 9.60938V7.20703H4.80469V9.60938H2.40234ZM8.32375 38.5977L12.0117 34.9097V38.5977H8.32375ZM12.0117 15.3468L8.71507 12.0117H12.0117V15.3468ZM14.4141 9.60938V7.20703H25.9281L28.3305 9.60938H14.4141ZM26.0692 21.7812L31.2305 17.3576L36.3914 21.7812H26.0692Z" fill="white"/>
<path d="M38.4375 26.5859H24.0234C23.36 26.5859 22.8223 27.1236 22.8223 27.7871V39.7988C22.8223 40.4623 23.36 41 24.0234 41H38.4375C39.101 41 39.6387 40.4623 39.6387 39.7988V27.7871C39.6387 27.1236 39.101 26.5859 38.4375 26.5859ZM32.4316 38.5976H30.0293V33.7929H32.4316V38.5976ZM37.2363 38.5976H34.834V32.5918C34.834 31.9283 34.2963 31.3906 33.6328 31.3906H28.8281C28.1647 31.3906 27.627 31.9283 27.627 32.5918V38.5976H25.2246V28.9883H37.2363V38.5976Z" fill="white"/>
<rect x="27.3984" y="28.593" width="7.7544" height="10.8562" fill="white"/>
</svg>
