<svg width="46" height="46" viewBox="0 0 46 46" fill="none" xmlns="http://www.w3.org/2000/svg">
<path d="M27.6211 33.5872L22.8867 31.733C21.344 31.1244 20.3461 29.6666 20.3461 28.0176V27.31C21.9313 25.2294 22.9432 22.1509 22.9432 18.7045C22.9432 18.6761 22.9292 18.6549 22.9221 18.6266L23.5944 15.166C23.7926 14.1611 23.5307 13.1279 22.8796 12.3353C22.2215 11.5426 21.259 11.0897 20.2329 11.0897L19.8082 10.5094C18.9023 9.27097 17.31 8.66237 15.3428 8.80387C14.6351 8.83929 10.9975 9.15772 8.95945 11.5639C7.8625 12.859 7.41657 14.5078 7.62891 16.4752C7.63599 16.4964 7.63599 16.5248 7.64307 16.546L8.12425 18.7964C8.13842 22.2005 9.14328 25.2435 10.7145 27.31V28.0176C10.7145 29.6666 9.71655 31.1244 8.18092 31.733L3.43236 33.5872C1.3518 34.4081 0 36.3825 0 38.6188V45.2923C0 45.6816 0.318598 46 0.707689 46H30.3529C30.742 46 31.0606 45.6816 31.0606 45.2923V38.6188C31.0606 36.3825 29.7088 34.4081 27.6211 33.5872V33.5872ZM9.54672 19.3131C10.5447 19.03 11.3089 18.1737 11.4293 17.0909L11.4364 16.9989C11.507 16.3832 11.9388 15.8737 12.519 15.7393C14.5289 15.2722 16.5459 15.2792 18.5062 15.7534C19.044 15.8808 19.4685 16.3549 19.5606 16.9282L19.61 17.2183C19.78 18.2515 20.523 19.0583 21.5138 19.3202C21.4076 22.2712 20.5159 24.8755 19.1784 26.581C19.1359 26.6164 19.1076 26.6589 19.0724 26.7014C18.0744 27.9115 16.8572 28.6333 15.5267 28.6333C14.2034 28.6333 12.9791 27.9115 11.9813 26.6943C11.953 26.6518 11.9246 26.6164 11.8892 26.581C10.5518 24.8755 9.66006 22.2712 9.54672 19.3131V19.3131ZM1.41538 44.5846V38.6188C1.41538 36.9699 2.41333 35.5121 3.94896 34.9034L8.69752 33.0493C9.16471 32.8653 9.58922 32.6176 9.97848 32.3204L13.3117 44.5846H1.41538ZM11.4293 30.6644C11.7548 30.077 11.9813 29.4259 12.0732 28.7324C13.1064 29.5746 14.2813 30.0487 15.5267 30.0487C16.7793 30.0487 17.9541 29.5746 18.9873 28.7324C19.0793 29.4613 19.327 30.1478 19.688 30.7635C17.2535 32.6247 13.8283 32.5893 11.4293 30.6644V30.6644ZM29.6452 44.5846H17.9187L21.2023 32.4053C21.5634 32.6601 21.9454 32.8866 22.3701 33.0493L27.1045 34.9034C28.6472 35.5121 29.6452 36.9699 29.6452 38.6188V44.5846V44.5846Z" fill="white"/>
<path d="M44.5848 0.000213623H27.8197C27.038 0.000213623 26.4043 0.633868 26.4043 1.41559V11.8328C26.4043 12.6145 27.038 13.2482 27.8197 13.2482H29.3766V16.3991C29.3766 17.1325 30.1475 17.6104 30.8042 17.2841L38.9304 13.2482H44.5848C45.3666 13.2482 46.0002 12.6145 46.0002 11.8328V1.41559C46.0002 0.633868 45.3666 0.000213623 44.5848 0.000213623V0.000213623ZM33.4743 2.83067H38.9305C39.3213 2.83067 39.6382 3.14719 39.6382 3.53836C39.6382 3.92952 39.3213 4.24604 38.9305 4.24604H33.4743C33.0835 4.24604 32.7666 3.92952 32.7666 3.53836C32.7666 3.14719 33.0835 2.83067 33.4743 2.83067ZM38.9305 10.4176H33.4743C33.0835 10.4176 32.7666 10.1011 32.7666 9.7099C32.7666 9.31874 33.0835 9.00221 33.4743 9.00221H38.9305C39.3213 9.00221 39.6382 9.31874 39.6382 9.7099C39.6382 10.1011 39.3213 10.4176 38.9305 10.4176ZM42.4617 7.33182H29.9431C29.5523 7.33182 29.2354 7.01529 29.2354 6.62413C29.2354 6.23296 29.5523 5.91644 29.9431 5.91644H42.4617C42.8525 5.91644 43.1694 6.23296 43.1694 6.62413C43.1694 7.01529 42.8525 7.33182 42.4617 7.33182Z" fill="white"/>
</svg>
