<svg width="19" height="18" viewBox="0 0 19 18" fill="none" xmlns="http://www.w3.org/2000/svg">
<path d="M18.351 13.862C18.351 11.581 16.4953 9.72542 14.2144 9.72542C13.6532 9.72542 13.1178 9.83798 12.6294 10.0414L11.6912 8.41643C11.7075 8.40411 11.7234 8.39165 11.7395 8.37905C11.7619 8.36393 11.7828 8.34657 11.8028 8.32795C12.7241 7.56873 13.3124 6.41933 13.3124 5.13498C13.3124 2.85397 11.4569 0.998413 9.17599 0.998413C6.89511 0.998413 5.03942 2.85397 5.03942 5.13498C5.03942 6.41905 5.62756 7.56831 6.54861 8.32753C6.56891 8.34629 6.59005 8.36407 6.61287 8.37933C6.62869 8.39179 6.64465 8.40411 6.66061 8.41643L5.72248 10.0413C5.23402 9.83798 4.69866 9.72542 4.1374 9.72542C1.85653 9.72542 0.000976562 11.581 0.000976562 13.862C0.000976562 15.1461 0.589255 16.2955 1.51031 17.0548C1.53047 17.0734 1.55147 17.0909 1.57415 17.1062C2.27933 17.6645 3.17015 17.9984 4.1374 17.9984C5.10494 17.9984 5.9959 17.6644 6.70121 17.1058C6.72347 17.0908 6.74419 17.0736 6.76393 17.0552C7.55479 16.4037 8.10023 15.4646 8.23897 14.3996H10.1127C10.2516 15.4644 10.7969 16.4033 11.5873 17.0548C11.6075 17.0734 11.6285 17.0909 11.6509 17.1061C12.3562 17.6645 13.247 17.9984 14.2144 17.9984C15.182 17.9984 16.0729 17.6644 16.7782 17.1058C16.8004 17.0908 16.8209 17.0736 16.8407 17.0554C17.7624 16.2962 18.351 15.1465 18.351 13.862ZM6.11462 5.13498C6.11462 3.447 7.48801 2.07361 9.17599 2.07361C10.864 2.07361 12.2372 3.447 12.2372 5.13498C12.2372 5.85304 11.9882 6.51369 11.5726 7.03631C11.3121 6.66951 10.9715 6.36893 10.5805 6.15571C10.7895 5.86886 10.9132 5.5162 10.9132 5.13498C10.9132 4.1771 10.1339 3.39772 9.17599 3.39772C8.21797 3.39772 7.43873 4.1771 7.43873 5.13498C7.43873 5.5162 7.56249 5.86886 7.77137 6.15557C7.38035 6.36879 7.03973 6.66937 6.77933 7.03631C6.36381 6.51369 6.11462 5.85304 6.11462 5.13498ZM7.59091 8.95556C8.07937 9.15898 8.61473 9.27154 9.17599 9.27154C9.73724 9.27154 10.2726 9.15898 10.7611 8.95556L11.6991 10.5804C10.8486 11.2341 10.258 12.2101 10.1129 13.3244H8.23911C8.09379 12.2101 7.50341 11.2341 6.65277 10.5804L7.59091 8.95556ZM6.53405 15.7633C6.27366 15.3964 5.93304 15.0958 5.54202 14.8826C5.7509 14.5959 5.87466 14.2432 5.87466 13.862C5.87466 12.9041 5.09542 12.1247 4.1374 12.1247C3.17953 12.1247 2.40015 12.9041 2.40015 13.862C2.40015 14.2432 2.52391 14.5959 2.73293 14.8826C2.34191 15.0958 2.00129 15.3964 1.74075 15.7633C1.32537 15.2406 1.07617 14.58 1.07617 13.862C1.07617 12.1739 2.44943 10.8006 4.1374 10.8006C5.82552 10.8006 7.19877 12.1739 7.19877 13.862C7.19877 14.58 6.94971 15.2406 6.53405 15.7633ZM11.1531 13.862C11.1531 12.1739 12.5265 10.8006 14.2144 10.8006C15.9025 10.8006 17.2758 12.1739 17.2758 13.862C17.2758 14.58 17.0266 15.2406 16.6111 15.7633C16.3505 15.3964 16.0101 15.0958 15.619 14.8826C15.8279 14.5959 15.9517 14.2432 15.9517 13.862C15.9517 12.9041 15.1723 12.1247 14.2144 12.1247C13.2566 12.1247 12.4772 12.9041 12.4772 13.862C12.4772 14.2432 12.6009 14.5959 12.8098 14.8826C12.4188 15.0958 12.0783 15.3964 11.8178 15.7633C11.4023 15.2406 11.1531 14.58 11.1531 13.862Z" fill="#40C782"/>
</svg>
