<svg width="17" height="18" viewBox="0 0 17 18" fill="none" xmlns="http://www.w3.org/2000/svg">
<path d="M2.00001 12.0566L0.0197692 14.0369C-0.0135342 14.0686 -0.00108276 14.126 0.0453361 14.1398L2.4303 14.8643C2.76864 14.9672 3.03228 15.2309 3.13518 15.5692L3.85965 17.9541C3.8734 18.0005 3.93084 18.013 3.96258 17.9797L6.61218 15.3301C4.65179 14.8431 3.03334 13.621 2.00001 12.0566V12.0566Z" fill="#40C782"/>
<path d="M16.9821 14.0369L15.0019 12.0566C13.9759 13.6098 12.3625 14.84 10.3896 15.3301L13.0392 17.9797C13.071 18.013 13.1284 18.0006 13.1422 17.9542L13.8666 15.5692C13.9696 15.2309 14.2332 14.9672 14.5716 14.8643L16.9565 14.1398C17.0031 14.126 17.0154 14.0685 16.9821 14.0369V14.0369Z" fill="#40C782"/>
<path d="M15.2835 7.7809C15.2835 4.04126 12.2411 0.998535 8.50112 0.998535C4.76114 0.998535 1.71875 4.04126 1.71875 7.7809C1.71875 11.1622 4.20833 13.9804 7.45888 14.4836C11.5764 15.1241 15.2835 11.9192 15.2835 7.7809V7.7809ZM3.21421 9.43375C2.09568 5.85767 4.78831 2.24265 8.50112 2.24265C12.6487 2.24265 15.3901 6.70022 13.3683 10.4229C11.0343 14.7045 4.68322 14.1064 3.21421 9.43375V9.43375Z" fill="#40C782"/>
<path d="M8.50149 3.23865C5.997 3.23865 3.95898 5.27633 3.95898 7.78082C3.95898 11.4655 8.13658 13.6143 11.1282 11.4846C11.7691 11.0296 12.2911 10.4077 12.627 9.68101C14.0225 6.67653 11.7978 3.23865 8.50149 3.23865V3.23865ZM10.7941 7.14368C10.7374 7.18578 7.97777 9.23402 7.96193 9.24577C7.76261 9.39433 7.47905 9.3744 7.30184 9.18667C6.03422 7.83574 6.13562 7.94362 6.10521 7.91168C5.89221 7.68486 5.93667 7.318 6.20316 7.14935C6.20349 7.14902 6.20382 7.14869 6.20416 7.14869C6.40205 7.02451 6.66602 7.05339 6.83171 7.23004C7.09976 7.51572 6.91933 7.32344 7.72452 8.18129C7.81132 8.11658 8.8326 7.35894 10.2376 6.31627C10.4585 6.15224 10.7706 6.1984 10.9342 6.4192C11.0842 6.62055 11.0837 6.92911 10.7941 7.14368V7.14368Z" fill="#40C782"/>
</svg>
