<svg width="41" height="40" viewBox="0 0 41 40" fill="none" xmlns="http://www.w3.org/2000/svg">
<path d="M7.16837 39.9924V37.6587C7.99695 37.6587 8.80272 37.6587 9.60089 37.6587C9.70597 37.6756 9.81365 37.6552 9.90528 37.601C9.9969 37.5469 10.0667 37.4624 10.1026 37.3622C12.8037 31.9042 15.5074 26.4488 18.2136 20.9958C18.2514 20.9194 18.2844 20.8407 18.3124 20.7602C17.9323 20.3877 17.5522 20 17.2026 19.6959C17.138 19.667 17.0681 19.652 16.9973 19.652C16.9266 19.652 16.8566 19.667 16.7921 19.6959C15.3858 20.0532 13.9795 20.4561 12.5808 20.8058L12.1399 20.9046C11.9346 20.1444 11.737 19.3843 11.5317 18.6697L7.01633 19.8708C6.81108 19.1106 6.61344 18.3504 6.40059 17.5903L4.12009 18.1908C4.52298 19.7111 4.91828 21.1783 5.32117 22.7062L3.04067 23.3143C2.02965 19.5515 1.02623 15.8039 0 12.0182L2.2805 11.4101L3.49675 15.9179L5.77725 15.325C5.57201 14.5648 5.38198 13.8046 5.17674 13.0445L9.68452 11.8282C9.48688 11.068 9.29684 10.3079 9.09159 9.5477L34.0859 2.88864C33.8806 2.12847 33.6906 1.3683 33.493 0.608136L35.7735 0C36.0927 1.20106 36.412 2.37172 36.7313 3.54998L40.0152 15.8343L37.7347 16.4196L37.1189 14.2075L23.778 17.7195C23.5196 17.7879 23.5043 17.9552 23.4739 18.1452C23.3924 18.615 23.2154 19.0632 22.9539 19.4619C22.6925 19.8607 22.352 20.2016 21.9536 20.4637L21.6952 20.6461L21.794 20.8742C24.5154 26.3626 27.2342 31.8535 29.9506 37.347C29.9865 37.4334 30.0499 37.5055 30.131 37.5522C30.2121 37.599 30.3063 37.6177 30.3991 37.6055H32.8696V39.9392H28.5823C28.5443 39.8327 28.5215 39.7187 28.4759 39.6199L21.3683 25.2832C21.3227 25.1995 21.2695 25.1235 21.1859 24.9943V37.6055H23.5804V39.9392H16.5564V37.5903H18.8369V25.0323L18.7077 25.268L11.5469 39.7111C11.5097 39.8051 11.4792 39.9017 11.4557 40L7.16837 39.9924ZM13.797 18.0236C14.6864 17.7879 15.5226 17.5751 16.3588 17.3394C16.4576 17.3394 16.5564 17.119 16.5868 16.9897C16.6927 16.3294 16.9907 15.7149 17.4436 15.2229C17.8964 14.7308 18.4841 14.383 19.1334 14.2227C19.7751 14.0326 20.459 14.0388 21.0971 14.2407C21.7352 14.4425 22.2982 14.8308 22.7138 15.3554C22.7694 15.4384 22.852 15.4996 22.9476 15.5287C23.0432 15.5578 23.1459 15.553 23.2383 15.515L30.9464 13.455L32.0106 13.1585C31.4025 10.878 30.802 8.64311 30.1938 6.38541L11.9498 11.2353C12.558 13.5158 13.1509 15.7431 13.7666 18.0236M32.4287 5.78487L34.2455 12.5656L36.526 11.9574C35.9103 9.67694 35.3098 7.39642 34.7092 5.17674L32.4287 5.78487ZM10.9008 16.3588C10.6879 15.5986 10.4903 14.8385 10.2926 14.0783L8.01214 14.6788C8.21739 15.439 8.41505 16.1992 8.62029 16.9593L10.9008 16.3512M21.1782 17.6055C21.1797 17.3736 21.1124 17.1465 20.9847 16.953C20.8569 16.7595 20.6747 16.6083 20.4609 16.5185C20.2471 16.4287 20.0115 16.4045 19.7839 16.4488C19.5563 16.4931 19.347 16.604 19.1825 16.7674C19.018 16.9308 18.9058 17.1394 18.86 17.3667C18.8142 17.594 18.8369 17.8297 18.9253 18.0441C19.0137 18.2584 19.1637 18.4417 19.3564 18.5707C19.5491 18.6997 19.7757 18.7685 20.0076 18.7685C20.3149 18.7628 20.6082 18.6386 20.8263 18.4219C21.0444 18.2053 21.1705 17.9128 21.1782 17.6055Z" fill="#40C782"/>
</svg>
