<svg width="42" height="42" viewBox="0 0 42 42" fill="none" xmlns="http://www.w3.org/2000/svg">
<path d="M14.5665 39.6739V38.4194C15.2296 38.4194 15.9105 38.2761 16.6095 38.1685C20.3866 37.6103 23.9821 36.1807 27.1113 33.9929C30.7401 31.4572 33.8946 28.3028 36.4303 24.6739C36.8963 24.0288 37.3443 23.3836 37.7923 22.7205C38.2403 22.0574 38.312 22.1649 38.8676 22.3442L39.5127 22.5592C39.226 21.2689 38.9393 20.0144 38.6525 18.7062L35.0683 20.7134L35.8389 20.9284C36.5736 21.1255 36.717 21.5377 36.2869 22.1291C31.8293 28.2343 25.2182 32.4175 17.7923 33.8316L16.6095 34.0288C16.6095 33.8018 16.5736 33.5867 16.5019 33.3836C16.5019 33.1865 16.502 32.9893 16.4123 32.7563L17.8281 32.5055C18.097 32.5055 18.1686 32.3442 18.2045 32.0933C18.6704 28.8495 19.1722 25.6058 19.6023 22.3442C19.6649 21.6766 19.6649 21.0046 19.6023 20.337C19.6023 20.0144 19.6023 19.6739 19.4948 19.2617C19.3922 19.3692 19.2965 19.4829 19.208 19.6022C18.3299 20.7492 17.4159 21.8782 16.5916 23.0431C16.4449 23.2758 16.241 23.4672 15.9995 23.5989C15.758 23.7307 15.4867 23.7984 15.2116 23.7958C14.7994 23.7958 14.4052 23.7958 14.0109 23.9033C13.7537 23.9401 13.4913 23.896 13.2602 23.7772C13.029 23.6584 12.8405 23.4708 12.7206 23.2402C12.59 23.0263 12.5285 22.7773 12.5445 22.5271C12.5605 22.277 12.6533 22.0379 12.8102 21.8424C14.5306 19.4529 16.257 17.0992 17.9894 14.7814C18.4141 14.2366 19.006 13.8462 19.674 13.6703C19.133 13.0386 18.8463 12.2284 18.8695 11.397C18.8926 10.5657 19.2241 9.77267 19.7994 9.17212C20.3059 8.67157 20.9638 8.35265 21.6705 8.26513C22.3772 8.1776 23.093 8.32638 23.7063 8.68824C24.4003 9.10113 24.9186 9.75433 25.1631 10.524C25.4075 11.2936 25.361 12.1262 25.0324 12.8639L25.4088 12.595L29.8532 9.11836C30.0013 8.96404 30.1846 8.84782 30.3873 8.77963C30.59 8.71144 30.8062 8.6933 31.0174 8.72675C31.2287 8.76019 31.4287 8.84425 31.6005 8.97173C31.7722 9.09921 31.9106 9.26632 32.0038 9.45884L32.5593 10.2653C32.6793 10.4081 32.7668 10.5752 32.816 10.7551C32.8652 10.935 32.8748 11.1234 32.8441 11.3074C32.8134 11.4914 32.7433 11.6665 32.6384 11.8207C32.5336 11.975 32.3965 12.1046 32.2367 12.2008C30.4446 13.5987 28.6525 14.9786 26.7708 16.3585C26.649 16.4233 26.5536 16.5286 26.5013 16.6562C26.4489 16.7838 26.4428 16.9258 26.484 17.0574C26.6095 17.8818 26.6991 18.742 26.8245 19.5664C26.8661 19.7107 26.9626 19.833 27.0933 19.9069C27.846 20.3191 28.6166 20.7312 29.3873 21.1076C29.5894 21.2048 29.7679 21.345 29.9103 21.5183C30.0527 21.6917 30.1556 21.894 30.2117 22.1112C30.5522 23.3119 30.9106 24.5126 31.3048 25.785C32.6137 24.6379 33.8136 23.372 34.8891 22.0037L33.4195 21.6273C33.079 21.5377 32.8281 21.4123 32.7744 21.0538C32.7531 20.8985 32.786 20.7406 32.8676 20.6067C32.9492 20.4728 33.0746 20.3713 33.2224 20.3191L38.76 17.2366C39.3514 16.9141 39.7278 17.0933 39.8891 17.7384L41.1256 23.294C41.269 23.9212 40.8209 24.3155 40.1937 24.1184C39.8711 24.0108 39.5306 23.9212 39.2081 23.7779C38.8855 23.6345 38.7959 23.7779 38.6166 23.975C37.4159 25.57 36.269 27.2187 35.0324 28.742C31.8359 32.6187 27.7717 35.6883 23.1686 37.7026C20.6173 38.7886 17.905 39.4485 15.14 39.656H14.7636M29.1005 27.6309C29.441 27.3621 29.7278 27.1291 30.0324 26.9141C30.1254 26.8644 30.1958 26.7809 30.2291 26.6809C30.2624 26.5809 30.2562 26.472 30.2117 26.3764C29.8174 25.1219 29.459 23.8675 29.0647 22.613C28.9905 22.4171 28.8513 22.2526 28.6704 22.147C27.864 21.699 27.0396 21.2868 26.2152 20.8746C26.0571 20.8099 25.9207 20.7012 25.8223 20.5615C25.7238 20.4218 25.6674 20.2568 25.6597 20.0861C25.5163 18.9571 25.3729 17.828 25.1937 16.699C25.1499 16.4955 25.1694 16.2834 25.2494 16.0912C25.3295 15.8991 25.4664 15.7359 25.6417 15.6237C27.5414 14.208 29.4231 12.7743 31.3048 11.3406L31.6274 11.0718L30.8926 9.99648L30.5521 10.2474C28.8854 11.5556 27.2009 12.8818 25.5163 14.1721C25.2979 14.3377 25.0368 14.4372 24.7636 14.4589C23.3837 14.6022 22.0217 14.7097 20.6597 14.8173C20.3029 14.831 19.9544 14.929 19.6429 15.1035C19.3314 15.278 19.0656 15.5238 18.8675 15.8209C17.3084 17.9714 15.7313 20.104 14.1722 22.2366L13.9213 22.5951C14.3514 22.5951 14.7098 22.5951 15.0503 22.5951C15.1881 22.593 15.323 22.5556 15.4422 22.4866C15.5614 22.4176 15.6609 22.3192 15.7313 22.2008L19.441 17.3083C19.6561 17.0395 19.889 16.8245 20.2474 16.932C20.4029 16.9874 20.5353 17.0936 20.6231 17.2334C20.7108 17.3732 20.749 17.5385 20.7314 17.7026C20.7314 18.6166 20.9106 19.4947 20.9643 20.4266C21.0356 21.0818 21.0356 21.7427 20.9643 22.3979C20.7134 24.5126 20.3729 26.6094 20.0683 28.7062C19.8891 29.8531 19.7278 31.0001 19.5665 32.2008C20.0683 32.0574 20.4984 31.8961 20.9464 31.8065C21.0968 31.7848 21.2342 31.7093 21.3331 31.5939C21.4319 31.4786 21.4856 31.3312 21.484 31.1793L22.9894 22.5234C23.1209 21.8304 23.4972 21.6333 24.1184 21.932L26.9321 23.3119C27.1409 23.4079 27.3271 23.5469 27.4784 23.7198C27.6298 23.8928 27.7428 24.0958 27.8102 24.3155C28.2044 25.4266 28.5988 26.5377 29.0289 27.7205M24.0826 23.2761C23.6167 25.8746 23.1865 28.4194 22.7385 30.9822H22.8998C24.5543 30.3225 26.1392 29.5001 27.631 28.527C27.6809 28.4753 27.7181 28.4129 27.7399 28.3445C27.7617 28.2761 27.7673 28.2037 27.7564 28.1327L26.5199 24.6381C26.4848 24.5389 26.4147 24.4561 26.3227 24.4051C25.6059 24.0288 24.8711 23.6882 24.0826 23.294M22.0037 9.51263C21.6202 9.51264 21.2453 9.62661 20.9266 9.84009C20.6079 10.0536 20.3599 10.3569 20.2139 10.7116C20.068 11.0663 20.0307 11.4564 20.1069 11.8323C20.183 12.2082 20.3691 12.5531 20.6416 12.823C20.9141 13.093 21.2606 13.2759 21.6373 13.3485C22.0139 13.4212 22.4036 13.3803 22.7569 13.2311C23.1103 13.0818 23.4113 12.831 23.6218 12.5103C23.8323 12.1897 23.9428 11.8137 23.9393 11.4302C23.9393 11.1768 23.8891 10.926 23.7916 10.6922C23.6941 10.4584 23.5513 10.2462 23.3713 10.0679C23.1913 9.88958 22.9778 9.74871 22.7431 9.6534C22.5083 9.5581 22.2571 9.51026 22.0037 9.51263Z" fill="#FF692E"/>
<path d="M14.5665 39.6739V38.4194C15.2296 38.4194 15.9105 38.2761 16.6095 38.1685C20.3866 37.6103 23.9821 36.1807 27.1113 33.9929C30.7401 31.4572 33.8946 28.3028 36.4303 24.6739C36.8963 24.0288 37.3443 23.3836 37.7923 22.7205C38.2403 22.0574 38.312 22.1649 38.8676 22.3442L39.5127 22.5592C39.226 21.2689 38.9393 20.0144 38.6525 18.7062L35.0683 20.7134L35.8389 20.9284C36.5736 21.1255 36.717 21.5377 36.2869 22.1291C31.8293 28.2343 25.2182 32.4175 17.7923 33.8316L16.6095 34.0288C16.6095 33.8018 16.5736 33.5867 16.5019 33.3836C16.5019 33.1865 16.502 32.9893 16.4123 32.7563L17.8281 32.5055C18.097 32.5055 18.1686 32.3442 18.2045 32.0933C18.6704 28.8495 19.1722 25.6058 19.6023 22.3442C19.6649 21.6766 19.6649 21.0046 19.6023 20.337C19.6023 20.0144 19.6023 19.6739 19.4948 19.2617C19.3922 19.3692 19.2965 19.4829 19.208 19.6022C18.3299 20.7492 17.4159 21.8782 16.5916 23.0431C16.4449 23.2758 16.241 23.4672 15.9995 23.5989C15.758 23.7307 15.4867 23.7984 15.2116 23.7958C14.7994 23.7958 14.4052 23.7958 14.0109 23.9033C13.7537 23.9401 13.4913 23.896 13.2602 23.7772C13.029 23.6584 12.8405 23.4708 12.7206 23.2402C12.59 23.0263 12.5285 22.7773 12.5445 22.5271C12.5605 22.277 12.6533 22.0379 12.8102 21.8424C14.5306 19.4529 16.257 17.0992 17.9894 14.7814C18.4141 14.2366 19.006 13.8462 19.674 13.6703C19.133 13.0386 18.8463 12.2284 18.8695 11.397C18.8926 10.5657 19.2241 9.77267 19.7994 9.17212C20.3059 8.67157 20.9638 8.35265 21.6705 8.26513C22.3772 8.1776 23.093 8.32638 23.7063 8.68824C24.4003 9.10113 24.9186 9.75433 25.1631 10.524C25.4075 11.2936 25.361 12.1262 25.0324 12.8639L25.4088 12.595L29.8532 9.11836C30.0013 8.96404 30.1846 8.84782 30.3873 8.77963C30.59 8.71144 30.8062 8.6933 31.0174 8.72675C31.2287 8.76019 31.4287 8.84425 31.6005 8.97173C31.7722 9.09921 31.9106 9.26632 32.0038 9.45884L32.5593 10.2653C32.6793 10.4081 32.7668 10.5752 32.816 10.7551C32.8652 10.935 32.8748 11.1234 32.8441 11.3074C32.8134 11.4914 32.7433 11.6665 32.6384 11.8207C32.5336 11.975 32.3965 12.1046 32.2367 12.2008C30.4446 13.5987 28.6525 14.9786 26.7708 16.3585C26.649 16.4233 26.5536 16.5286 26.5013 16.6562C26.4489 16.7838 26.4428 16.9258 26.484 17.0574C26.6095 17.8818 26.6991 18.742 26.8245 19.5664C26.8661 19.7107 26.9626 19.833 27.0933 19.9069C27.846 20.3191 28.6166 20.7312 29.3873 21.1076C29.5894 21.2048 29.7679 21.345 29.9103 21.5183C30.0527 21.6917 30.1556 21.894 30.2117 22.1112C30.5522 23.3119 30.9106 24.5126 31.3048 25.785C32.6137 24.6379 33.8136 23.372 34.8891 22.0037L33.4195 21.6273C33.079 21.5377 32.8281 21.4123 32.7744 21.0538C32.7531 20.8985 32.786 20.7406 32.8676 20.6067C32.9492 20.4728 33.0746 20.3713 33.2224 20.3191L38.76 17.2366C39.3514 16.9141 39.7278 17.0933 39.8891 17.7384L41.1256 23.294C41.269 23.9212 40.8209 24.3155 40.1937 24.1184C39.8711 24.0108 39.5306 23.9212 39.2081 23.7779C38.8855 23.6345 38.7958 23.7779 38.6166 23.975C37.4159 25.57 36.269 27.2187 35.0324 28.742C31.8359 32.6187 27.7717 35.6883 23.1686 37.7026C20.6173 38.7886 17.905 39.4485 15.14 39.656H14.7636M29.1005 27.6309C29.441 27.3621 29.7278 27.1291 30.0324 26.9141C30.1254 26.8644 30.1958 26.7809 30.2291 26.6809C30.2624 26.5809 30.2562 26.472 30.2117 26.3764C29.8174 25.1219 29.4589 23.8675 29.0647 22.613C28.9905 22.4171 28.8513 22.2526 28.6704 22.147C27.864 21.699 27.0396 21.2868 26.2152 20.8746C26.0571 20.8099 25.9207 20.7012 25.8223 20.5615C25.7238 20.4218 25.6674 20.2568 25.6597 20.0861C25.5163 18.9571 25.3729 17.828 25.1937 16.699C25.1499 16.4955 25.1694 16.2834 25.2494 16.0912C25.3295 15.8991 25.4664 15.7359 25.6417 15.6237C27.5414 14.208 29.4231 12.7743 31.3048 11.3406L31.6274 11.0718L30.8926 9.99648L30.5521 10.2474C28.8854 11.5556 27.2009 12.8818 25.5163 14.1721C25.2979 14.3377 25.0368 14.4372 24.7636 14.4589C23.3837 14.6022 22.0217 14.7097 20.6597 14.8173C20.3029 14.831 19.9544 14.929 19.6429 15.1035C19.3314 15.278 19.0656 15.5238 18.8675 15.8209C17.3084 17.9714 15.7313 20.104 14.1722 22.2366L13.9213 22.5951C14.3514 22.5951 14.7098 22.5951 15.0503 22.5951C15.1881 22.593 15.323 22.5556 15.4422 22.4866C15.5614 22.4176 15.6609 22.3192 15.7313 22.2008L19.441 17.3083C19.6561 17.0395 19.889 16.8245 20.2474 16.932C20.4029 16.9874 20.5353 17.0936 20.6231 17.2334C20.7108 17.3732 20.749 17.5385 20.7314 17.7026C20.7314 18.6166 20.9106 19.4947 20.9643 20.4266C21.0356 21.0818 21.0356 21.7427 20.9643 22.3979C20.7134 24.5126 20.3729 26.6094 20.0683 28.7062C19.8891 29.8531 19.7278 31.0001 19.5665 32.2008C20.0683 32.0574 20.4984 31.8961 20.9464 31.8065C21.0968 31.7848 21.2342 31.7093 21.3331 31.5939C21.4319 31.4786 21.4856 31.3312 21.484 31.1793L22.9894 22.5234C23.1209 21.8304 23.4972 21.6333 24.1184 21.932L26.9321 23.3119C27.1409 23.4079 27.3271 23.5469 27.4784 23.7198C27.6298 23.8928 27.7428 24.0958 27.8102 24.3155C28.2044 25.4266 28.5988 26.5377 29.0289 27.7205M24.0826 23.2761C23.6167 25.8746 23.1865 28.4194 22.7385 30.9822H22.8998C24.5543 30.3225 26.1392 29.5001 27.631 28.527C27.6809 28.4753 27.7181 28.4129 27.7399 28.3445C27.7617 28.2761 27.7673 28.2037 27.7564 28.1327L26.5199 24.6381C26.4848 24.5389 26.4147 24.4561 26.3227 24.4051C25.6059 24.0288 24.8711 23.6882 24.0826 23.294M22.0037 9.51263C21.6202 9.51264 21.2453 9.62661 20.9266 9.84009C20.6079 10.0536 20.3599 10.3569 20.2139 10.7116C20.068 11.0663 20.0307 11.4564 20.1069 11.8323C20.183 12.2082 20.3691 12.5531 20.6416 12.823C20.9141 13.093 21.2606 13.2759 21.6373 13.3485C22.0139 13.4212 22.4036 13.3803 22.7569 13.2311C23.1103 13.0818 23.4113 12.831 23.6218 12.5103C23.8323 12.1897 23.9428 11.8137 23.9393 11.4302C23.9393 11.1768 23.8891 10.926 23.7916 10.6922C23.6941 10.4584 23.5513 10.2462 23.3713 10.0679C23.1913 9.88958 22.9778 9.74871 22.7431 9.6534C22.5083 9.5581 22.2571 9.51026 22.0037 9.51263" stroke="#FF692E" stroke-width="0.6"/>
<path d="M14.3154 30.2832C14.0466 30.5879 13.8316 30.8746 13.5628 31.1255C13.4833 31.1912 13.4279 31.2814 13.4052 31.3819C13.3825 31.4824 13.3938 31.5876 13.4373 31.6811C13.5448 31.9678 13.742 31.932 13.957 31.932C15.1219 31.932 15.1936 31.932 15.1936 33.1685V34.9607C15.1936 35.6417 14.9785 35.8388 14.2975 35.8388H13.9391C13.8369 35.8105 13.7278 35.8226 13.6343 35.8727C13.5409 35.9227 13.4703 36.0069 13.4373 36.1076C13.3886 36.2016 13.3764 36.3103 13.4028 36.4128C13.4293 36.5153 13.4926 36.6044 13.5807 36.6632C14.4409 37.5055 14.4409 37.5951 13.5807 38.4553C13.1327 38.8854 12.7025 39.3334 12.2724 39.7635C12.2106 39.8452 12.1307 39.9114 12.0389 39.957C11.9472 40.0026 11.8462 40.0264 11.7437 40.0264C11.6413 40.0264 11.5403 40.0026 11.4486 39.957C11.3568 39.9114 11.2769 39.8452 11.2151 39.7635C11.0808 39.6472 10.955 39.5214 10.8387 39.3872C10.7832 39.3004 10.6972 39.2376 10.5977 39.2111C10.4982 39.1845 10.3924 39.1962 10.3011 39.2438C10.0143 39.3513 10.0143 39.5305 10.0143 39.7456C10.0143 40.9463 10.0143 41.0001 8.77778 41.0001H6.98566C6.44803 41.0001 6.23299 40.7671 6.21506 40.2295C6.2061 40.0683 6.2061 39.9068 6.21506 39.7456C6.23797 39.6366 6.21943 39.523 6.16311 39.4269C6.10678 39.3308 6.01668 39.2591 5.91038 39.2259C5.62364 39.1004 5.51614 39.2259 5.37277 39.423C4.56632 40.2295 4.44087 40.2295 3.58065 39.423L2.23656 38.0789C2.15489 38.0171 2.08867 37.9372 2.04307 37.8455C1.99746 37.7537 1.97372 37.6527 1.97372 37.5502C1.97372 37.4478 1.99746 37.3468 2.04307 37.2551C2.08867 37.1633 2.15489 37.0834 2.23656 37.0216L2.59501 36.6452C2.68515 36.5928 2.75081 36.5068 2.77768 36.406C2.80455 36.3053 2.79042 36.198 2.73835 36.1076C2.63083 35.8388 2.48748 35.8209 2.2545 35.8209C1.05379 35.8209 1 35.8209 1 34.5843V32.7922C1 32.2008 1.21506 31.9857 1.78854 31.9678C1.9497 31.9589 2.11122 31.9589 2.27239 31.9678C2.52328 31.9678 2.64877 31.9678 2.75629 31.6631C2.86382 31.3585 2.75626 31.3047 2.61289 31.1613C1.73476 30.2832 1.73476 30.2294 2.61289 29.3692C3.02508 28.957 3.43729 28.5269 3.8674 28.1148C3.92677 28.0184 4.00982 27.9389 4.10864 27.8837C4.20745 27.8285 4.31874 27.7995 4.43192 27.7995C4.54509 27.7995 4.65638 27.8285 4.7552 27.8837C4.85401 27.9389 4.93707 28.0184 4.99644 28.1148L5.31901 28.4374C5.46238 28.5986 5.5878 28.7241 5.85662 28.5986C5.95248 28.5629 6.03323 28.4953 6.08539 28.4073C6.13756 28.3193 6.15801 28.216 6.14336 28.1148C6.14336 26.8782 6.1434 26.8424 7.41581 26.8424H9.20792C9.30856 26.8279 9.41113 26.8368 9.50779 26.8683C9.60445 26.8999 9.69258 26.9532 9.76533 27.0242C9.83809 27.0952 9.89353 27.1821 9.92738 27.2779C9.96124 27.3738 9.9726 27.4762 9.96058 27.5771C9.96951 27.7383 9.96951 27.8998 9.96058 28.061C9.96058 28.3119 9.96059 28.4911 10.2473 28.5986C10.5341 28.7062 10.6416 28.5986 10.8029 28.4374C11.6452 27.5951 11.7348 27.5951 12.595 28.4374C13.0251 28.8675 13.4731 29.2976 13.9033 29.7456C14.0421 29.9401 14.1678 30.1437 14.2796 30.3549M11.6452 29.3334C11.5212 29.5113 11.3833 29.679 11.233 29.8352C11.1794 29.9139 11.1104 29.9808 11.0301 30.0319C10.9498 30.083 10.8599 30.1171 10.766 30.1322C10.672 30.1473 10.576 30.143 10.4837 30.1197C10.3914 30.0964 10.3049 30.0544 10.2294 29.9965C9.90271 29.8407 9.56767 29.7031 9.22581 29.5843C9.06464 29.5501 8.92137 29.4586 8.82251 29.3268C8.72366 29.195 8.67593 29.0317 8.68819 28.8674C8.68819 28.6345 8.68819 28.4015 8.68819 28.1506H7.39787V28.6524C7.41579 28.7456 7.41451 28.8415 7.39415 28.9342C7.37378 29.027 7.33475 29.1146 7.27941 29.1917C7.22407 29.2689 7.1536 29.3339 7.07229 29.3829C6.99098 29.4319 6.9005 29.4639 6.80644 29.4768C6.45234 29.6078 6.1054 29.7573 5.76704 29.9248C5.63975 30.0036 5.4885 30.0342 5.34061 30.0112C5.19272 29.9882 5.05791 29.913 4.96056 29.7994C4.79943 29.624 4.64977 29.4384 4.51253 29.2438L3.49107 30.2115L3.9391 30.6237C4.01779 30.6773 4.08469 30.7463 4.13577 30.8266C4.18684 30.9069 4.22097 30.9968 4.23607 31.0907C4.25117 31.1847 4.24694 31.2808 4.2236 31.373C4.20026 31.4653 4.15834 31.5518 4.10038 31.6273C3.94605 31.9401 3.81429 32.2635 3.70611 32.595C3.66727 32.7739 3.56306 32.9318 3.4139 33.0379C3.26474 33.144 3.08134 33.1906 2.89964 33.1685H2.2545V34.4768H2.88175C2.97499 34.4589 3.07085 34.4601 3.16358 34.4805C3.25631 34.5009 3.34392 34.5399 3.42106 34.5952C3.4982 34.6506 3.56326 34.721 3.61226 34.8024C3.66127 34.8837 3.69321 34.9741 3.70611 35.0682C3.825 35.3983 3.96258 35.7214 4.11826 36.0359C4.21921 36.1797 4.26065 36.357 4.23394 36.5307C4.20722 36.7044 4.11443 36.861 3.97492 36.9678C3.81161 37.1118 3.63789 37.2436 3.45519 37.3621L4.47671 38.4194C4.59211 38.2506 4.71778 38.089 4.85304 37.9355C4.90656 37.8569 4.97564 37.7899 5.05594 37.7388C5.13625 37.6878 5.22614 37.6536 5.3201 37.6385C5.41406 37.6234 5.5101 37.6277 5.60236 37.651C5.69463 37.6744 5.78113 37.7163 5.85662 37.7743C6.1714 37.9241 6.49453 38.0557 6.82438 38.1685C7.00529 38.2035 7.16584 38.3068 7.27262 38.4569C7.37941 38.6071 7.42425 38.7926 7.39787 38.975V39.6201H8.68819V38.9929C8.68819 38.4732 8.81363 38.3298 9.29751 38.1685C9.62179 38.0496 9.93893 37.9119 10.2473 37.7563C10.3208 37.7017 10.4046 37.6625 10.4937 37.641C10.5827 37.6194 10.6752 37.6161 10.7655 37.6312C10.8559 37.6462 10.9422 37.6794 11.0195 37.7286C11.0967 37.7778 11.1633 37.8421 11.2151 37.9176C11.3585 38.0789 11.4839 38.2582 11.6272 38.4374L12.6667 37.3979C12.4888 37.2874 12.3208 37.1614 12.1649 37.0216C11.7886 36.6452 11.7706 36.466 12.0036 35.9821C12.1565 35.6687 12.2883 35.3455 12.3979 35.0144C12.4359 34.8518 12.5309 34.7082 12.6657 34.6095C12.8005 34.5109 12.9662 34.4638 13.1327 34.4768H13.8495V33.1685H13.2402C12.7025 33.1685 12.5592 33.061 12.3799 32.5592C12.278 32.2427 12.1459 31.9366 11.9857 31.6452C11.8814 31.4929 11.8383 31.307 11.8649 31.1244C11.8914 30.9418 11.9857 30.7758 12.129 30.6596L12.6846 30.2653L11.6452 29.2079" fill="#FF692E"/>
<path d="M14.3154 30.2832C14.0466 30.5879 13.8316 30.8746 13.5628 31.1255C13.4833 31.1912 13.4279 31.2814 13.4052 31.3819C13.3825 31.4824 13.3938 31.5876 13.4373 31.6811C13.5448 31.9678 13.742 31.932 13.957 31.932C15.1219 31.932 15.1936 31.932 15.1936 33.1685V34.9607C15.1936 35.6417 14.9785 35.8388 14.2975 35.8388H13.9391C13.8369 35.8105 13.7278 35.8226 13.6343 35.8727C13.5409 35.9227 13.4703 36.0069 13.4373 36.1076C13.3886 36.2016 13.3764 36.3103 13.4028 36.4128C13.4293 36.5153 13.4926 36.6044 13.5807 36.6632C14.4409 37.5055 14.4409 37.5951 13.5807 38.4553C13.1327 38.8854 12.7025 39.3334 12.2724 39.7635C12.2106 39.8452 12.1307 39.9114 12.0389 39.957C11.9472 40.0026 11.8462 40.0264 11.7437 40.0264C11.6413 40.0264 11.5403 40.0026 11.4486 39.957C11.3568 39.9114 11.2769 39.8452 11.2151 39.7635C11.0808 39.6472 10.955 39.5214 10.8387 39.3872C10.7832 39.3004 10.6972 39.2376 10.5977 39.2111C10.4982 39.1845 10.3924 39.1962 10.3011 39.2438C10.0143 39.3513 10.0143 39.5305 10.0143 39.7456C10.0143 40.9463 10.0143 41.0001 8.77778 41.0001H6.98566C6.44803 41.0001 6.23299 40.7671 6.21506 40.2295C6.2061 40.0683 6.2061 39.9068 6.21506 39.7456C6.23797 39.6366 6.21943 39.523 6.16311 39.4269C6.10678 39.3308 6.01668 39.2591 5.91038 39.2259C5.62364 39.1004 5.51614 39.2259 5.37277 39.423C4.56632 40.2295 4.44087 40.2295 3.58065 39.423L2.23656 38.0789C2.15489 38.0171 2.08867 37.9372 2.04307 37.8455C1.99746 37.7537 1.97372 37.6527 1.97372 37.5502C1.97372 37.4478 1.99746 37.3468 2.04307 37.2551C2.08867 37.1633 2.15489 37.0834 2.23656 37.0216L2.59501 36.6452C2.68515 36.5928 2.75081 36.5068 2.77768 36.406C2.80455 36.3053 2.79042 36.198 2.73835 36.1076C2.63083 35.8388 2.48748 35.8209 2.2545 35.8209C1.05379 35.8209 1 35.8209 1 34.5843V32.7922C1 32.2008 1.21506 31.9857 1.78854 31.9678C1.9497 31.9589 2.11122 31.9589 2.27239 31.9678C2.52328 31.9678 2.64877 31.9678 2.75629 31.6631C2.86382 31.3585 2.75626 31.3047 2.61289 31.1613C1.73476 30.2832 1.73476 30.2294 2.61289 29.3692C3.02508 28.957 3.43729 28.5269 3.8674 28.1148C3.92677 28.0184 4.00982 27.9389 4.10864 27.8837C4.20745 27.8285 4.31874 27.7995 4.43192 27.7995C4.54509 27.7995 4.65638 27.8285 4.7552 27.8837C4.85401 27.9389 4.93707 28.0184 4.99644 28.1148L5.31901 28.4374C5.46238 28.5986 5.5878 28.7241 5.85662 28.5986C5.95248 28.5629 6.03323 28.4953 6.08539 28.4073C6.13756 28.3193 6.15801 28.216 6.14336 28.1148C6.14336 26.8782 6.1434 26.8424 7.41581 26.8424H9.20792C9.30856 26.8279 9.41113 26.8368 9.50779 26.8683C9.60445 26.8999 9.69258 26.9532 9.76533 27.0242C9.83809 27.0952 9.89353 27.1821 9.92738 27.2779C9.96124 27.3738 9.9726 27.4762 9.96058 27.5771C9.96951 27.7383 9.96951 27.8998 9.96058 28.061C9.96058 28.3119 9.96059 28.4911 10.2473 28.5986C10.5341 28.7062 10.6416 28.5986 10.8029 28.4374C11.6452 27.5951 11.7348 27.5951 12.595 28.4374C13.0251 28.8675 13.4731 29.2976 13.9033 29.7456C14.0421 29.9401 14.1678 30.1437 14.2796 30.3549M11.6452 29.3334C11.5212 29.5113 11.3833 29.679 11.233 29.8352C11.1794 29.9139 11.1104 29.9808 11.0301 30.0319C10.9498 30.083 10.8599 30.1171 10.766 30.1322C10.672 30.1473 10.576 30.143 10.4837 30.1197C10.3914 30.0964 10.3049 30.0544 10.2294 29.9965C9.90271 29.8407 9.56767 29.7031 9.22581 29.5843C9.06464 29.5501 8.92137 29.4586 8.82251 29.3268C8.72366 29.195 8.67593 29.0317 8.68819 28.8674C8.68819 28.6345 8.68819 28.4015 8.68819 28.1506H7.39787V28.6524C7.41579 28.7456 7.41451 28.8415 7.39415 28.9342C7.37378 29.027 7.33475 29.1146 7.27941 29.1917C7.22407 29.2689 7.1536 29.3339 7.07229 29.3829C6.99098 29.4319 6.9005 29.4639 6.80644 29.4768C6.45234 29.6078 6.10541 29.7573 5.76704 29.9248C5.63975 30.0036 5.4885 30.0342 5.34061 30.0112C5.19272 29.9882 5.05791 29.913 4.96056 29.7994C4.79943 29.624 4.64977 29.4384 4.51253 29.2438L3.49107 30.2115L3.9391 30.6237C4.01779 30.6773 4.08469 30.7463 4.13577 30.8266C4.18684 30.9069 4.22097 30.9968 4.23607 31.0907C4.25117 31.1847 4.24694 31.2808 4.2236 31.373C4.20026 31.4653 4.15834 31.5518 4.10038 31.6273C3.94605 31.9401 3.81429 32.2635 3.70611 32.595C3.66727 32.7739 3.56306 32.9318 3.4139 33.0379C3.26474 33.144 3.08134 33.1906 2.89964 33.1685H2.2545V34.4768H2.88175C2.97499 34.4589 3.07085 34.4601 3.16358 34.4805C3.25631 34.5009 3.34392 34.5399 3.42106 34.5952C3.4982 34.6506 3.56326 34.721 3.61226 34.8023C3.66127 34.8837 3.69321 34.9741 3.70611 35.0682C3.825 35.3983 3.96258 35.7214 4.11826 36.0359C4.21921 36.1797 4.26065 36.357 4.23394 36.5307C4.20722 36.7044 4.11443 36.861 3.97492 36.9678C3.81161 37.1118 3.63789 37.2436 3.45519 37.3621L4.47671 38.4194C4.59211 38.2506 4.71778 38.089 4.85304 37.9355C4.90656 37.8569 4.97564 37.7899 5.05594 37.7388C5.13625 37.6878 5.22614 37.6536 5.3201 37.6385C5.41406 37.6234 5.5101 37.6277 5.60236 37.651C5.69463 37.6744 5.78113 37.7163 5.85662 37.7743C6.1714 37.9241 6.49453 38.0557 6.82438 38.1685C7.00529 38.2035 7.16584 38.3068 7.27262 38.4569C7.37941 38.6071 7.42425 38.7926 7.39787 38.975V39.6201H8.68819V38.9929C8.68819 38.4732 8.81363 38.3298 9.29751 38.1685C9.62179 38.0496 9.93893 37.9119 10.2473 37.7563C10.3208 37.7017 10.4046 37.6625 10.4937 37.641C10.5827 37.6194 10.6752 37.6161 10.7655 37.6312C10.8559 37.6462 10.9422 37.6794 11.0195 37.7286C11.0967 37.7778 11.1633 37.8421 11.2151 37.9176C11.3585 38.0789 11.4839 38.2582 11.6272 38.4374L12.6667 37.3979C12.4888 37.2874 12.3208 37.1614 12.1649 37.0216C11.7886 36.6452 11.7706 36.466 12.0036 35.9821C12.1565 35.6687 12.2883 35.3455 12.3979 35.0144C12.4359 34.8518 12.5309 34.7082 12.6657 34.6095C12.8005 34.5109 12.9662 34.4638 13.1327 34.4768H13.8495V33.1685H13.2402C12.7025 33.1685 12.5592 33.061 12.3799 32.5592C12.278 32.2427 12.1459 31.9366 11.9857 31.6452C11.8814 31.4929 11.8383 31.307 11.8649 31.1244C11.8914 30.9418 11.9857 30.7758 12.129 30.6596L12.6846 30.2653L11.6452 29.2079" stroke="#FF692E" stroke-width="0.6"/>
<path d="M41.054 4.6022C40.9741 4.76669 40.8781 4.92278 40.7672 5.06814C40.3192 5.55202 39.8532 6.0359 39.3694 6.48393C39.2895 6.56141 39.231 6.65822 39.1996 6.76499C39.1682 6.87176 39.1649 6.98485 39.1901 7.09324C39.3156 7.77425 39.441 8.43734 39.5127 9.11834C39.5516 9.24658 39.5496 9.38373 39.5069 9.51075C39.4643 9.63778 39.3831 9.74838 39.2747 9.8272C39.1664 9.90601 39.0362 9.94912 38.9022 9.95055C38.7682 9.95198 38.6371 9.91166 38.5271 9.83518C37.9825 9.57776 37.4556 9.28439 36.95 8.95703C36.8243 8.85967 36.6699 8.80685 36.5109 8.80685C36.352 8.80685 36.1975 8.85967 36.0719 8.95703C35.5701 9.26169 35.0324 9.53053 34.5306 9.81727C34.0288 10.104 33.9572 10.0502 33.7421 9.81727C33.5835 9.62049 33.5065 9.37028 33.527 9.11834C33.5862 8.47423 33.6819 7.834 33.8138 7.20077C33.858 7.06108 33.8595 6.91138 33.8179 6.77087C33.7764 6.63036 33.6938 6.50546 33.5808 6.41223C33.1177 5.98499 32.6809 5.53017 32.2726 5.05023C32.1854 4.95813 32.1206 4.84714 32.0833 4.72592C32.046 4.60469 32.0372 4.4765 32.0575 4.35131C32.1156 4.23998 32.1967 4.14237 32.2957 4.06508C32.3946 3.9878 32.5089 3.93263 32.631 3.90328C33.2761 3.74199 33.9392 3.68821 34.5844 3.58069C34.7519 3.52787 34.897 3.42065 34.9966 3.27603C35.3013 2.66671 35.588 2.03947 35.8747 1.48391C35.918 1.34926 36.0012 1.23092 36.1132 1.14453C36.2252 1.05813 36.3607 1.00777 36.502 1.00006C36.6517 1.00166 36.7969 1.05127 36.9162 1.1416C37.0356 1.23194 37.1228 1.35823 37.165 1.50185C37.4339 2.07533 37.7206 2.66673 37.9715 3.29397C38.0167 3.41098 38.095 3.51229 38.1968 3.5855C38.2987 3.6587 38.4197 3.70063 38.545 3.70615C39.1722 3.70615 39.8174 3.90329 40.4446 3.99289C40.8031 3.99289 40.9823 4.2617 41.054 4.70973M38.0611 8.20435C37.9715 7.7384 37.9357 7.34414 37.846 6.94987C37.7982 6.78781 37.7981 6.61537 37.8458 6.45325C37.8935 6.29113 37.9869 6.14623 38.1149 6.0359C38.4195 5.74916 38.7063 5.42659 39.0468 5.08608C38.5988 5.08608 38.2583 4.9427 37.8819 4.90686C37.6857 4.90784 37.4943 4.84563 37.3362 4.72944C37.178 4.61325 37.0615 4.44926 37.0038 4.2617C36.8783 3.9212 36.6991 3.59862 36.5199 3.20436C36.3228 3.63446 36.1436 3.95703 36.0181 4.27961C35.9559 4.45949 35.8401 4.61602 35.6864 4.72816C35.5326 4.84029 35.3482 4.90266 35.1579 4.90686C34.7815 4.90686 34.4231 5.0144 33.993 5.08608L34.9428 6.07173C35.052 6.17599 35.1324 6.30663 35.1764 6.45104C35.2203 6.59544 35.2263 6.74872 35.1938 6.89611C35.1041 7.3083 35.0503 7.72048 34.9787 8.20435C35.355 8.00722 35.6955 7.84593 36.0181 7.6488C36.166 7.53965 36.345 7.48076 36.5289 7.48076C36.7127 7.48076 36.8917 7.53965 37.0396 7.6488L38.0611 8.20435Z" fill="#FF692E"/>
<path d="M41.054 4.6022C40.9741 4.76669 40.8781 4.92278 40.7672 5.06814C40.3192 5.55202 39.8532 6.0359 39.3694 6.48393C39.2895 6.56141 39.231 6.65822 39.1996 6.76499C39.1682 6.87176 39.1649 6.98485 39.1901 7.09324C39.3156 7.77425 39.441 8.43734 39.5127 9.11834C39.5516 9.24658 39.5496 9.38373 39.5069 9.51075C39.4643 9.63778 39.3831 9.74838 39.2747 9.8272C39.1664 9.90601 39.0362 9.94912 38.9022 9.95055C38.7682 9.95198 38.6371 9.91166 38.5271 9.83518C37.9825 9.57776 37.4556 9.28439 36.95 8.95703C36.8243 8.85967 36.6699 8.80685 36.5109 8.80685C36.352 8.80685 36.1975 8.85967 36.0719 8.95703C35.5701 9.26169 35.0324 9.53053 34.5306 9.81727C34.0288 10.104 33.9572 10.0502 33.7421 9.81727C33.5835 9.62049 33.5065 9.37028 33.527 9.11834C33.5862 8.47423 33.6819 7.834 33.8138 7.20077C33.858 7.06108 33.8595 6.91138 33.8179 6.77087C33.7764 6.63036 33.6938 6.50546 33.5808 6.41223C33.1177 5.98499 32.6809 5.53017 32.2726 5.05023C32.1854 4.95813 32.1206 4.84714 32.0833 4.72592C32.046 4.60469 32.0372 4.4765 32.0575 4.35131C32.1156 4.23998 32.1967 4.14237 32.2957 4.06508C32.3946 3.9878 32.5089 3.93263 32.631 3.90328C33.2761 3.74199 33.9392 3.68821 34.5844 3.58069C34.7519 3.52787 34.897 3.42065 34.9966 3.27603C35.3013 2.66671 35.588 2.03947 35.8747 1.48391C35.918 1.34926 36.0012 1.23092 36.1132 1.14453C36.2252 1.05813 36.3607 1.00777 36.502 1.00006C36.6517 1.00166 36.7969 1.05127 36.9162 1.1416C37.0356 1.23194 37.1228 1.35823 37.165 1.50185C37.4339 2.07533 37.7206 2.66673 37.9715 3.29397C38.0167 3.41098 38.095 3.51229 38.1968 3.5855C38.2987 3.6587 38.4197 3.70063 38.545 3.70615C39.1722 3.70615 39.8174 3.90329 40.4446 3.99289C40.8031 3.99289 40.9823 4.2617 41.054 4.70973M38.0611 8.20435C37.9715 7.7384 37.9357 7.34414 37.846 6.94987C37.7982 6.78781 37.7981 6.61537 37.8458 6.45325C37.8935 6.29113 37.9869 6.14623 38.1149 6.0359C38.4195 5.74916 38.7063 5.42659 39.0468 5.08608C38.5988 5.08608 38.2583 4.9427 37.8819 4.90686C37.6857 4.90784 37.4943 4.84563 37.3362 4.72944C37.178 4.61325 37.0615 4.44926 37.0038 4.2617C36.8783 3.9212 36.6991 3.59862 36.5199 3.20436C36.3228 3.63446 36.1436 3.95703 36.0181 4.27961C35.9559 4.45949 35.8401 4.61602 35.6864 4.72816C35.5326 4.84029 35.3482 4.90266 35.1579 4.90686C34.7815 4.90686 34.4231 5.0144 33.993 5.08608L34.9428 6.07173C35.052 6.17599 35.1324 6.30664 35.1764 6.45104C35.2203 6.59544 35.2263 6.74872 35.1938 6.89611C35.1041 7.3083 35.0503 7.72048 34.9787 8.20435C35.355 8.00722 35.6955 7.84593 36.0181 7.6488C36.166 7.53965 36.345 7.48076 36.5289 7.48076C36.7127 7.48076 36.8917 7.53965 37.0396 7.6488L38.0611 8.20435" stroke="#FF692E" stroke-width="0.6"/>
<path d="M2.93589 2.86383V1.59143H4.20829V2.86383H4.22621H2.91797H2.93589Z" fill="#FF692E" stroke="#FF692E" stroke-width="0.6"/>
<path d="M2.93549 4.15421H1.66309V2.86389H2.93549H2.91757V4.15421H2.93549Z" fill="#FF692E" stroke="#FF692E" stroke-width="0.6"/>
<path d="M4.20801 2.86389H5.48041V4.15421H4.20801H4.22593V2.86389H4.20801Z" fill="#FF692E" stroke="#FF692E" stroke-width="0.6"/>
<path d="M8.09702 4.79931V3.54483H9.36942V4.79931H9.38735H8.0791H8.09702Z" fill="#FF692E" stroke="#FF692E" stroke-width="0.6"/>
<path d="M4.20829 4.15414V5.42655H2.93589V4.15414H2.91797H4.22621H4.20829Z" fill="#FF692E" stroke="#FF692E" stroke-width="0.6"/>
<path d="M8.09662 6.08967H6.82422V4.79935H8.09662H8.0787V6.10759L8.09662 6.08967Z" fill="#FF692E" stroke="#FF692E" stroke-width="0.6"/>
<path d="M9.36914 4.79935H10.6415V6.08967H9.36914L9.38706 6.10759V4.79935H9.36914Z" fill="#FF692E" stroke="#FF692E" stroke-width="0.6"/>
<path d="M9.36942 6.08966V7.36206H8.09702V6.08966L8.0791 6.10758H9.38735L9.36942 6.08966Z" fill="#FF692E" stroke="#FF692E" stroke-width="0.6"/>
<path d="M37.8285 37.7563V36.4839H39.1009V37.7563H39.1188H37.8105H37.8285Z" fill="#FF692E" stroke="#FF692E" stroke-width="0.6"/>
<path d="M37.8101 39.0466H36.5557V37.7563H37.8101V39.0466Z" fill="#FF692E" stroke="#FF692E" stroke-width="0.6"/>
<path d="M39.0996 37.7563H40.372V39.0466H39.0996H39.1175V37.7563H39.0996Z" fill="#FF692E" stroke="#FF692E" stroke-width="0.6"/>
<path d="M39.1009 39.0467V40.3191H37.8105V39.0467H39.1188H39.1009Z" fill="#FF692E" stroke="#FF692E" stroke-width="0.6"/>
<path d="M4.81743 33.8495C4.8245 33.2131 5.01967 32.593 5.3784 32.0672C5.73713 31.5415 6.24337 31.1336 6.8334 30.8949C7.42343 30.6563 8.0709 30.5975 8.69426 30.726C9.31763 30.8544 9.88902 31.1645 10.3366 31.617C10.7841 32.0695 11.0879 32.6443 11.2094 33.2691C11.331 33.8938 11.2651 34.5406 11.0199 35.128C10.7748 35.7153 10.3613 36.217 9.83162 36.5699C9.30194 36.9228 8.67969 37.1111 8.04322 37.1112C7.61725 37.1088 7.19591 37.0226 6.80326 36.8574C6.41061 36.6922 6.05438 36.4513 5.75484 36.1484C5.45529 35.8456 5.21831 35.4867 5.05747 35.0922C4.89664 34.6978 4.81507 34.2755 4.81743 33.8495ZM9.97874 33.8495C9.97874 33.3362 9.77484 32.8439 9.41186 32.4809C9.04889 32.1179 8.55654 31.914 8.04322 31.914C7.5299 31.914 7.03761 32.1179 6.67463 32.4809C6.31166 32.8439 6.10776 33.3362 6.10776 33.8495C6.11696 34.36 6.3238 34.8469 6.6848 35.2079C7.0458 35.5689 7.53277 35.7758 8.04322 35.785C8.29891 35.785 8.55206 35.7344 8.78806 35.636C9.02406 35.5376 9.23825 35.3934 9.41821 35.2118C9.59817 35.0301 9.74039 34.8147 9.83659 34.5778C9.9328 34.3409 9.9811 34.0873 9.97874 33.8316" fill="#FF692E"/>
<path d="M4.81743 33.8495C4.8245 33.2131 5.01967 32.593 5.3784 32.0672C5.73713 31.5415 6.24337 31.1336 6.8334 30.8949C7.42343 30.6563 8.0709 30.5975 8.69426 30.726C9.31763 30.8544 9.88902 31.1645 10.3366 31.617C10.7841 32.0695 11.0879 32.6443 11.2094 33.2691C11.331 33.8938 11.2651 34.5406 11.0199 35.128C10.7748 35.7153 10.3613 36.217 9.83162 36.5699C9.30194 36.9228 8.67969 37.1111 8.04322 37.1112C7.61725 37.1088 7.19591 37.0226 6.80326 36.8574C6.41061 36.6922 6.05438 36.4513 5.75484 36.1484C5.45529 35.8456 5.21831 35.4867 5.05747 35.0922C4.89664 34.6978 4.81507 34.2755 4.81743 33.8495M9.97874 33.8495C9.97874 33.3362 9.77484 32.8439 9.41186 32.4809C9.04889 32.1179 8.55654 31.914 8.04322 31.914C7.5299 31.914 7.03761 32.1179 6.67463 32.4809C6.31166 32.8439 6.10776 33.3362 6.10776 33.8495C6.11696 34.36 6.3238 34.8469 6.6848 35.2079C7.0458 35.5689 7.53277 35.7758 8.04322 35.785C8.29891 35.785 8.55206 35.7344 8.78806 35.636C9.02406 35.5376 9.23824 35.3934 9.41821 35.2118C9.59817 35.0301 9.74039 34.8147 9.83659 34.5778C9.9328 34.3409 9.9811 34.0873 9.97874 33.8316" stroke="#FF692E" stroke-width="0.6"/>
</svg>
