<?xml version="1.0" encoding="utf-8"?>
<!-- Generator: Adobe Illustrator 26.3.1, SVG Export Plug-In . SVG Version: 6.00 Build 0)  -->
<svg version="1.1" id="Layer_1" xmlns="http://www.w3.org/2000/svg" xmlns:xlink="http://www.w3.org/1999/xlink" x="0px" y="0px"
	 viewBox="0 0 231.1 65.8" style="enable-background:new 0 0 231.1 65.8;" xml:space="preserve">
<style type="text/css">
	.st0{fill:#FFFFFF;}
</style>
<polygon class="st0" points="3.5,11.6 4.5,10.5 5.6,11.6 5.8,11.6 7,10.3 5.7,9 5.5,9 4.5,10 3.4,9 3.3,9 2,10.3 3.3,11.6 "/>
<path class="st0" d="M2.7,21.1c0.7,0,1.3-0.2,1.9-0.5c0.1-0.4,0.2-0.8,0.3-1.2l0,0l0,0c0.3,2.2,1.1,3.1,2.9,3.1h34.7
	c2.3,0,4.5-0.4,6.7-1l1.6-0.5l0.5-2l-0.1-0.1l-1.6,0.4c-2.5,0.6-5.1-0.2-5.1-1.7c0-1.2,1.3-1.8,2.5-1.8c1.1,0,2.2,0.3,3.1,1l0.4-0.5
	c-0.8-1.7-1.8-2.6-3.1-2.6c-1.9,0-3.6,2.1-3.6,4.3c0,0.9,0.4,1.8,1.1,2.4c-0.7,0.1-1.4,0.1-2.3,0.1H8.2c-1.6,0-2-0.6-2.2-2.4
	l-0.6-5.3H4.9l-0.7,1.7l-1.6,1.1C0.7,16.7,0,17.6,0,18.8S1.1,21.1,2.7,21.1z M2.1,16.9l2.2-1.1l0.4,2.8C4.1,18.9,3.4,19,2.7,19
	c-1.1,0-1.9-0.3-1.9-0.8S1.2,17.4,2.1,16.9z"/>
<path class="st0" d="M57.3,22.4h14.9c0.7,0,1.4-0.3,2-0.7c0.1-0.4,0.2-0.7,0.3-1.1l0,0c0.3,1.1,1.3,1.8,2.9,1.8h4.3
	c0.9,0,1.7-0.4,2.2-1c1.4,0.9,3.1,1.4,4.8,1.4c1.9,0,3.8-0.3,5.6-1c0.9,0.5,2,0.7,3,0.7l0,0c1.2,0,2.4-0.4,3.4-1
	c0.4-0.9,0.5-1.8,0.5-2.8V11l1-0.8v-0.1l-1-1.2V7.5H101c-1.3,0.9-1.6,1.9-0.9,2.9l0.3,9.5c-0.8,0.3-1.6,0.4-2.4,0.4
	c-0.6,0-1.2-0.1-1.8-0.1c0.3-0.7,0.4-1.4,0.4-2.1c0-1.8-1.3-3.2-3.1-3.3c0,0-0.1,0-0.1,0c-2.1,0-4.1,1.6-6.8,5.5
	c-0.5-0.1-1-0.3-1.4-0.5l1-1.4l-0.5-0.4L85,19c-0.7,1-1.9,1.6-3.1,1.4H78c-1.7,0-2.3-0.4-2.3-1.6V17H75l-0.5,2.9
	c-0.7,0.4-1.5,0.5-2.3,0.5H57.7c-1.7,0-2.3-0.5-2.3-1.8V7.5h-0.6l-1,1.9l0.3,9.2C54.1,21.5,55,22.4,57.3,22.4z M92.5,16.9
	c1.5,0.1,2.8,1.1,3.2,2.5c-2.1,0.9-4.4,1.3-6.8,1.3c-0.5,0-1.1-0.1-1.6-0.2C89.4,18,90.8,16.9,92.5,16.9z"/>
<polygon class="st0" points="75.4,15.5 76.7,14.2 75.4,12.9 75.2,12.9 73.9,14.2 75.2,15.5 "/>
<polygon class="st0" points="106,22.4 106.6,20.2 106.6,7.5 105.9,7.5 105,9.5 105.3,22.4 "/>
<polygon class="st0" points="114.8,13.3 115.9,12.2 116.9,13.3 117.1,13.3 118.4,12 117.1,10.7 116.9,10.7 115.9,11.8 114.8,10.7 
	114.6,10.7 113.4,12 114.7,13.3 "/>
<path class="st0" d="M115.8,22.8c2,0,3.2-1.5,3.2-3.7c0-2-0.9-3.2-4.5-4.7l-0.1,0.1v2c-0.9,1-1.5,2.3-1.6,3.6
	c-0.1,1.5,1,2.7,2.5,2.8C115.5,22.8,115.6,22.8,115.8,22.8z M115.2,17c2.2,1,3,1.8,3,2.5s-0.8,1.2-2.3,1.2s-2.3-0.5-2.3-1.3
	C113.8,18.4,114.4,17.6,115.2,17z"/>
<path class="st0" d="M118.9,25.4V26l3.8,1.2c1.7-2.1,2.7-4.6,2.8-7.3c-0.1-1.6-0.6-3.1-1.4-4.4h-0.6l-0.7,1.7
	c1.4,1.8,1.9,2.6,1.9,3.7C124.7,22.9,122.6,24.5,118.9,25.4z"/>
<polygon class="st0" points="129,22.4 129.6,20.2 129.6,7.5 129,7.5 128,9.5 128.4,22.4 "/>
<path class="st0" d="M136.1,19.9c-0.1-1.6-0.6-3.1-1.4-4.4h-0.6l-0.7,1.7c1.4,1.8,1.9,2.6,1.9,3.7c0,1.8-2.1,3.4-5.8,4.3V26l3.8,1.2
	C135,25.2,135.9,22.6,136.1,19.9z"/>
<polygon class="st0" points="134.2,14.1 135.4,12.8 134.1,11.5 134,11.5 132.7,12.8 134,14.1 "/>
<path class="st0" d="M144.1,19.7c0-2.7-1.3-4.9-3-4.9c-1.5,0-3,2.1-3,4.2c-0.1,1.3,0.8,2.5,2.2,2.7c0.2,0,0.3,0,0.5,0
	c0.6,0,1.3-0.1,1.9-0.4l0.6-1.5c0.1,0.3,0.1,0.7,0.1,1c0,2.3-2.4,3.9-6.7,4.6V26l3.8,1.2C142.6,25.3,143.9,22.6,144.1,19.7z
	 M141,19.6c-1.3,0-2.1-0.3-2.1-1c0-0.9,0.7-1.7,1.7-1.7c1,0,2.1,1.1,2.5,2.4C142.4,19.5,141.7,19.6,141,19.6z"/>
<polygon class="st0" points="5.5,31.7 4.5,32.8 3.4,31.7 3.3,31.7 2,33 3.3,34.3 3.5,34.3 4.5,33.2 5.6,34.3 5.8,34.3 7,33 
	5.7,31.7 "/>
<polygon class="st0" points="29.3,47 29.1,47 28.1,48 27,47 26.9,47 25.6,48.3 26.9,49.6 27.1,49.6 28.1,48.5 29.2,49.6 29.4,49.6 
	30.6,48.3 "/>
<path class="st0" d="M38.9,45.2h4c1.3,0,2.5-0.3,3.7-0.9c0.4-0.9,0.5-1.9,0.5-2.8c0-1.1-0.4-2.2-1-3.1h-0.6l-0.7,1.7
	c0.7,0.7,1.2,1.5,1.5,2.5c-1.1,0.4-2.2,0.6-3.4,0.6H31.1c-1.7,0-2.3-0.4-2.3-1.6v-1.8h-0.6l-0.5,2.9c-0.7,0.4-1.5,0.5-2.3,0.5H8.2
	c-1.6,0-2-0.6-2.2-2.4l-0.6-5.3H4.9l-0.7,1.7l-1.6,1.1C0.7,39.5,0,40.4,0,41.6s1.1,2.2,2.7,2.2c0.7,0,1.3-0.2,1.9-0.5
	c0.1-0.4,0.2-0.8,0.3-1.2l0,0l0,0c0.3,2.2,1.1,3.1,2.9,3.1h17.6c0.7,0,1.5-0.3,2-0.7c0.1-0.4,0.2-0.7,0.3-1.1l0,0
	c0.3,1.1,1.3,1.8,2.9,1.8L38.9,45.2L38.9,45.2z M2.7,41.8c-1.1,0-1.9-0.3-1.9-0.8s0.4-0.9,1.3-1.3l2.2-1.1l0.4,2.8
	C4.1,41.7,3.4,41.8,2.7,41.8z"/>
<polygon class="st0" points="44.2,35.5 45.5,36.8 45.7,36.8 47,35.5 45.7,34.2 45.5,34.2 "/>
<path class="st0" d="M88.4,30.3h-0.6c-1.3,0.9-1.6,1.9-0.9,2.9l0.3,9.5c-0.8,0.3-1.6,0.4-2.4,0.4c-0.9,0.1-1.8-0.4-2.1-1.3L82.3,41
	c-0.8-1.5-1.3-2-2.2-2c-1.3,0-2.6,1.6-3,3.6c-0.6,0.3-1.3,0.5-1.9,0.5c-1.2,0.1-2.3-0.3-3.2-1c1-0.9,1.5-1.5,1.5-2.2
	c0-1.2-0.9-1.8-2.4-1.8c-0.9,0-1.8,0.3-2.5,0.7L68,40.6l0.2,0.5c0.8,0,1.6,0.3,2,1l0.1,0.1c-1.1,0.6-2.2,0.9-3.4,0.9h-8
	c-1.5,0-2.3-0.7-3-3l-1.5-4.2h-0.5l-0.7,1.7l1.4,3.5c0.2,0.6,0.5,1.1,0.7,1.5c-0.8,0.5-1.8,0.8-2.8,0.8c-1.8,0-2.3-0.3-2.4-1.6v-0.3
	h-0.6c-0.2,0.5-0.3,1.1-0.3,1.7c0,1.5,0.9,2.2,2.8,2.2c1.1,0,2.2-0.3,3.1-1c0.1-0.4,0.2-0.8,0.3-1.2h0.1c0.8,1.5,1.7,2,2.9,2h8.3
	c1.6-0.2,3.1-0.9,4.2-2c0.9,1.3,2.3,2,3.9,2l0,0c0.9,0,1.7-0.3,2.4-0.9c1.4,0.7,3,1.2,4.5,1.4c0.2-0.5,0.4-1,0.5-1.5
	c0.5,0.7,1.4,1,2.2,1l0,0c1.2,0,2.4-0.3,3.4-1c0.4-0.9,0.5-1.8,0.5-2.8v-7.6l1-0.8v0l-1-1.2L88.4,30.3z M77.9,42.5
	c0.1-0.8,0.8-1.4,1.6-1.5c0.6,0,1,0.3,1.6,1.3l0.5,0.9c0.1,0.2,0.2,0.3,0.3,0.5C80.5,43.5,79.2,43.1,77.9,42.5z"/>
<polygon class="st0" points="92.8,45.2 93.4,42.9 93.4,30.3 92.8,30.3 91.8,32.2 92.2,45.2 "/>
<path class="st0" d="M102.6,45.5c2,0,3.2-1.5,3.2-3.7c0-2-0.9-3.2-4.5-4.7l-0.1,0.1v2c-0.9,1-1.5,2.2-1.6,3.6
	c-0.1,1.4,1,2.7,2.5,2.8C102.3,45.5,102.4,45.5,102.6,45.5z M102,39.8c2.2,1,3,1.8,3,2.5s-0.9,1.2-2.3,1.2s-2.3-0.5-2.3-1.3
	C100.6,41.2,101.2,40.3,102,39.8z"/>
<polygon class="st0" points="101.5,33.5 100.2,34.8 101.5,36.1 101.7,36.1 102.7,35 103.8,36.1 104,36.1 105.2,34.8 103.9,33.5 
	103.8,33.5 102.7,34.5 101.6,33.5 "/>
<path class="st0" d="M110.8,37.6c-1.5,0-3,2.1-3,4.2c-0.1,1.3,0.9,2.5,2.2,2.6c0.1,0,0.3,0,0.5,0c0.6,0,1.3-0.1,1.9-0.4l0.6-1.5
	c0.1,0.3,0.1,0.7,0.1,1c0,2.3-2.4,3.9-6.7,4.6v0.6l3.8,1.2c2.2-1.9,3.5-4.6,3.7-7.5C113.8,39.8,112.5,37.6,110.8,37.6z M110.7,42.4
	c-1.3,0-2.1-0.3-2.1-1c0-0.9,0.7-1.7,1.7-1.7c1,0,2.1,1.1,2.5,2.4C112.1,42.3,111.4,42.4,110.7,42.4z"/>
<polygon class="st0" points="123.8,33.6 125,32.4 123.7,31.2 123.6,31.2 122.4,32.4 123.6,33.6 "/>
<polygon class="st0" points="124.8,33.5 123.7,34.6 122.6,33.5 122.5,33.5 121.2,34.8 122.5,36.1 122.7,36.1 123.7,35 124.8,36.1 
	125,36.1 126.2,34.8 124.9,33.5 "/>
<path class="st0" d="M126.6,45.2L126.6,45.2c1.2,0,2.4-0.3,3.4-1c0.4-0.9,0.5-1.8,0.5-2.8v-7.6l1-0.8v0l-1-1.2v-1.5H130
	c-1.3,0.9-1.6,1.9-0.9,2.9l0.3,9.5c-0.8,0.3-1.6,0.4-2.4,0.4c-1.5,0-2.1-0.6-2.4-2.4l-0.5-3.1h-0.5l-0.3,0.7
	c-0.6,1.7-1.3,2.1-2.1,2.1c-0.9-0.1-1.7-0.7-2.2-1.5h-0.6l-0.7,1.8c1.3,1.2,1.9,2.2,1.9,3.1c0,1.8-2.1,3.3-5.8,4.2v0.6l3.8,1.3
	c1.7-2.1,2.7-4.6,2.8-7.3v-0.2c0.2,0,0.4,0.1,0.6,0.1c1.1,0,1.9-0.7,2.3-2.3l0.2,1.3C124,44.3,124.7,45.2,126.6,45.2L126.6,45.2
	L126.6,45.2z"/>
<polygon class="st0" points="135.6,42.9 135.6,30.3 135,30.3 134,32.2 134.4,45.2 135,45.2 "/>
<path class="st0" d="M136.9,48.1v0.6l3.8,1.2c2.2-1.9,3.5-4.6,3.7-7.5c0-2.7-1.3-4.9-3-4.9c-1.5,0-3,2.1-3,4.2
	c-0.1,1.3,0.9,2.5,2.2,2.6c0.1,0,0.3,0,0.4,0c0.6,0,1.3-0.1,1.9-0.4l0.6-1.5c0.1,0.3,0.1,0.7,0.1,1
	C143.6,45.8,141.1,47.4,136.9,48.1z M141.2,42.4c-1.3,0-2.1-0.3-2.1-1c0-0.9,0.7-1.7,1.7-1.7c1,0,2.1,1.1,2.5,2.4
	C142.6,42.3,141.9,42.4,141.2,42.4z"/>
<polygon class="st0" points="5.8,55 6.4,54.8 6.4,54.5 4.7,54.5 4.7,54.9 3.3,58.2 1.7,54.5 0.1,54.5 0.1,54.8 0.7,55 0.7,59.2 
	0,59.3 0,59.6 2,59.6 2,59.3 1.1,59.1 1.1,55.2 2.8,58.9 3,59.4 3.3,59.4 3.4,58.9 5,55.1 5,59.2 4.3,59.3 4.3,59.6 6.5,59.6 
	6.5,59.3 5.8,59.2 "/>
<polygon class="st0" points="8.2,55.9 7,56.1 7,56.4 7.4,56.6 7.4,59.2 6.9,59.3 6.9,59.6 8.7,59.6 8.7,59.3 8.2,59.2 "/>
<path class="st0" d="M8.3,54.4c0-0.3-0.2-0.5-0.5-0.5c-0.3,0-0.5,0.2-0.5,0.5c0.1,0.3,0.4,0.4,0.6,0.4C8.1,54.7,8.2,54.6,8.3,54.4
	L8.3,54.4z"/>
<path class="st0" d="M12.7,57.2c0-1-0.3-1.3-1.1-1.3c-0.5,0.1-0.9,0.3-1.2,0.7l0,0l-0.2-0.7l0,0l-1,0.4v0.2l0.5,0.1v2.6l-0.5,0.2
	v0.3H11v-0.3l-0.5-0.1v-2.4c0.2-0.2,0.5-0.4,0.9-0.4c0.5,0,0.7,0.3,0.7,0.8v1.9l-0.4,0.1v0.3h1.7v-0.3l-0.5-0.2L12.7,57.2z"/>
<polygon class="st0" points="14.8,55.9 13.6,56.1 13.6,56.4 14.1,56.6 14.1,59.2 13.6,59.3 13.6,59.6 15.4,59.6 15.4,59.3 
	14.8,59.2 "/>
<path class="st0" d="M14.9,54.4c-0.1-0.3-0.4-0.4-0.6-0.4c-0.2,0-0.3,0.2-0.4,0.4c0.1,0.3,0.4,0.4,0.6,0.4
	C14.7,54.7,14.9,54.6,14.9,54.4z"/>
<path class="st0" d="M17.6,57.5l-0.4-0.2c-0.5-0.2-0.6-0.4-0.6-0.7c0-0.3,0.2-0.5,0.5-0.5c0,0,0,0,0,0c0.2,0,0.4,0.1,0.5,0.2
	l0.3,0.7h0.2v-1c-0.3-0.2-0.7-0.2-1-0.2c-0.7-0.1-1.3,0.5-1.3,1.2c0,0,0,0,0,0c0,0.5,0.2,0.8,0.8,1l0.3,0.2c0.5,0.2,0.7,0.5,0.7,0.8
	c0,0.3-0.3,0.6-0.6,0.6c0,0,0,0,0,0c-0.2,0-0.5-0.1-0.6-0.2l-0.4-0.9h-0.3l0.1,1.1c0.3,0.2,0.7,0.3,1.1,0.3c0.7,0.1,1.4-0.4,1.5-1.2
	C18.5,58.2,18.3,57.8,17.6,57.5z"/>
<path class="st0" d="M20.7,59.2c-0.3,0-0.5,0-0.5-0.6v-2.1h1V56h-1v-1h-0.3l-0.4,1L19,56.1v0.3h0.5v2.5c0,0.5,0.2,0.9,0.8,0.9
	c0.4,0,0.8-0.1,1.1-0.4l-0.1-0.2C21.1,59.2,20.9,59.2,20.7,59.2z"/>
<path class="st0" d="M23.9,55.9c-0.3,0-0.5,0.2-0.8,0.6l-0.3,0.4l0,0l-0.1-0.9l0,0l-1.1,0.4v0.2l0.5,0.1v2.6l-0.5,0.2v0.3h1.9v-0.3
	l-0.7-0.1v-2.1c0.1-0.2,0.3-0.4,0.5-0.5l0.6,0.2c0.2-0.1,0.3-0.3,0.3-0.6c0-0.2-0.1-0.4-0.3-0.4C24,55.9,23.9,55.9,23.9,55.9z"/>
<path class="st0" d="M26.9,56.3l0.5,0.2l-1,2.6l0,0l-0.9-2.6l0.5-0.1V56h-1.8v0.3l0.4,0.1l1.4,3.6l-0.4,1l0,0
	c-0.1-0.2-0.2-0.3-0.4-0.3c-0.2,0-0.4,0.2-0.4,0.4c0,0,0,0,0,0c0,0.3,0.2,0.5,0.5,0.5c0,0,0,0,0,0c0.4,0,0.6-0.3,0.9-1l1.7-4.2
	l0.4-0.1V56h-1.3V56.3z"/>
<path class="st0" d="M31.8,55.9c-1,0-1.9,0.9-1.8,2c0,0,0,0,0,0c-0.1,1,0.7,1.8,1.6,1.9c0.1,0,0.1,0,0.2,0c1,0,1.9-0.9,1.8-2
	c0,0,0,0,0,0c0.1-0.9-0.6-1.8-1.5-1.9C32,55.9,31.9,55.9,31.8,55.9z M31.9,59.4c-0.8,0-1.1-0.9-1.1-1.7s0.3-1.4,0.9-1.4
	s1.1,0.6,1.1,1.7C32.8,58.7,32.5,59.4,31.9,59.4z"/>
<path class="st0" d="M36.3,53.9c-1,0.1-1.7,1-1.7,2l0,0L34.1,56v0.3h0.5v2.8l-0.5,0.2v0.3h1.9v-0.3l-0.7-0.2v-2.8h1V56h-1v-0.6
	c0-0.8,0.3-1.1,0.8-1.1c0.1,0,0.2,0,0.3,0.1l0.2,0.7c0.1,0,0.1,0,0.2,0c0.2,0,0.4-0.1,0.4-0.4c0,0,0,0,0-0.1
	C37.3,54.3,36.9,53.9,36.3,53.9z"/>
<polygon class="st0" points="39.9,55 40.5,54.8 40.5,54.5 38.4,54.5 38.4,54.8 39.1,55 39.1,59.2 38.4,59.3 38.4,59.6 40.6,59.6 
	40.6,59.3 39.9,59.2 "/>
<path class="st0" d="M44.6,57.2c0-1-0.3-1.3-1.1-1.3c-0.5,0.1-0.9,0.3-1.2,0.7l0,0l-0.2-0.7l0,0l-1,0.4v0.2l0.5,0.1v2.6l-0.5,0.2
	v0.3h1.7v-0.3l-0.5-0.1v-2.4c0.2-0.2,0.5-0.4,0.9-0.4c0.5,0,0.7,0.3,0.7,0.8v1.9l-0.4,0.1v0.3h1.7v-0.3l-0.5-0.2L44.6,57.2z"/>
<path class="st0" d="M48.9,53.9l-1.5,0.2v0.3l0.7,0.1V56c-0.2-0.1-0.4-0.1-0.6-0.1c-1.1,0-2,1-1.9,2.1c0,0,0,0,0,0
	c-0.1,0.9,0.5,1.6,1.4,1.7c0,0,0.1,0,0.1,0c0.4,0,0.8-0.2,1.1-0.5l0.2,0.5l1.1-0.2v-0.3l-0.6-0.2L48.9,53.9z M48.1,59
	c-0.2,0.1-0.4,0.2-0.6,0.2c-0.9,0-1.2-0.8-1.2-1.6s0.5-1.3,1-1.3c0.3,0,0.6,0.2,0.8,0.5L48.1,59z"/>
<path class="st0" d="M53.4,55.9L52,56.1v0.3l0.6,0.1v2.4c-0.2,0.2-0.5,0.3-0.8,0.3c-0.5,0-0.8-0.3-0.8-0.9v-2.4L49.8,56v0.3l0.5,0.1
	v1.9c0,0.9,0.4,1.3,1,1.3c0.5,0,1-0.3,1.3-0.6l0.2,0.6l1.2-0.1v-0.3l-0.6-0.1L53.4,55.9z"/>
<path class="st0" d="M56.2,57.5l-0.3-0.2c-0.5-0.2-0.6-0.4-0.6-0.7c0-0.3,0.2-0.5,0.5-0.5c0,0,0,0,0,0c0.2,0,0.4,0.1,0.5,0.2
	l0.3,0.7h0.2v-1c-0.3-0.2-0.7-0.2-1-0.2c-0.7-0.1-1.3,0.5-1.4,1.2c0,0,0,0,0,0c0,0.5,0.2,0.8,0.8,1l0.3,0.2c0.5,0.2,0.7,0.5,0.7,0.8
	c0,0.3-0.3,0.6-0.6,0.6c0,0,0,0-0.1,0c-0.2,0-0.5-0.1-0.6-0.2l-0.4-0.9h-0.3l0.1,1.1c0.3,0.2,0.7,0.3,1.1,0.3
	c0.7,0.1,1.4-0.4,1.5-1.2C57.1,58.2,56.8,57.8,56.2,57.5z"/>
<path class="st0" d="M59.2,59.2c-0.3,0-0.5,0-0.5-0.6v-2.1h1V56h-1v-1h-0.3l-0.4,1l-0.5,0.2v0.3H58v2.5c0,0.5,0.2,0.9,0.8,0.9
	c0.4,0,0.8-0.1,1.1-0.4l0-0.2C59.6,59.2,59.4,59.2,59.2,59.2z"/>
<path class="st0" d="M62.4,55.9c-0.3,0-0.5,0.2-0.8,0.6l-0.3,0.4l0,0l-0.1-0.9l0,0l-1.1,0.4v0.2l0.5,0.1v2.6l-0.5,0.2v0.3h1.9v-0.3
	l-0.7-0.1v-2.1c0.1-0.2,0.3-0.4,0.5-0.5l0.6,0.2c0.2-0.1,0.3-0.3,0.3-0.6c0-0.2-0.1-0.4-0.3-0.4C62.5,55.9,62.4,55.9,62.4,55.9z"/>
<path class="st0" d="M65.4,56.3l0.5,0.2L65,59l0,0l-0.9-2.6l0.6-0.1V56h-1.8v0.3l0.3,0.1l1.4,3.6l-0.4,1l0,0
	c-0.1-0.2-0.2-0.3-0.4-0.3c-0.2,0-0.4,0.2-0.4,0.4c0,0,0,0,0,0c0,0.3,0.2,0.5,0.5,0.5c0,0,0,0,0,0c0.4,0,0.6-0.3,0.9-1l1.7-4.2
	l0.3-0.1V56h-1.3V56.3z"/>
<path class="st0" d="M71.4,59v-2c0-0.8-0.3-1.2-1.2-1.2s-1.5,0.6-1.5,1c0,0.2,0.1,0.3,0.4,0.3c0.1,0,0.2,0,0.3,0v-0.8
	c0.1-0.1,0.3-0.1,0.4-0.1c0.4,0,0.7,0.3,0.7,0.9v0.4l-0.8,0.2c-0.8,0.2-1.2,0.5-1.2,1.1c0,0.5,0.4,0.9,0.9,0.9c0,0,0,0,0,0
	c0.5,0,0.7-0.2,1.1-0.6l0,0c0,0.3,0.2,0.6,0.6,0.6c0.3,0,0.5-0.1,0.8-0.2v-0.2h-0.4C71.4,59.3,71.4,59.2,71.4,59z M70.6,58.8
	c-0.1,0.2-0.4,0.3-0.6,0.4c-0.3,0-0.6-0.2-0.6-0.5c0,0,0,0,0-0.1c0-0.3,0.2-0.5,0.6-0.6l0.7-0.2V58.8z"/>
<path class="st0" d="M75.9,57.2c0-1-0.3-1.3-1.1-1.3c-0.5,0.1-0.9,0.3-1.2,0.7l0,0l-0.2-0.7l0,0l-1,0.4v0.2l0.5,0.1v2.6l-0.5,0.2
	v0.3h1.6v-0.3l-0.5-0.1v-2.4c0.2-0.2,0.5-0.4,0.9-0.4c0.5,0,0.7,0.3,0.7,0.8v1.9l-0.4,0.1v0.3h1.7v-0.3l-0.5-0.2L75.9,57.2z"/>
<path class="st0" d="M80.2,53.9l-1.5,0.2v0.3l0.7,0.1V56c-0.2-0.1-0.4-0.1-0.6-0.1c-1.1,0-2,1-1.9,2.1c0,0,0,0,0,0
	c-0.1,0.9,0.5,1.6,1.4,1.7c0,0,0.1,0,0.1,0c0.4,0,0.8-0.2,1.1-0.5l0.2,0.5l1.1-0.2v-0.3l-0.6-0.2V53.9z M79.4,59
	c-0.2,0.1-0.4,0.2-0.6,0.2c-0.9,0-1.2-0.8-1.2-1.6s0.5-1.3,1-1.3c0.3,0,0.6,0.2,0.8,0.5L79.4,59z"/>
<polygon class="st0" points="88.6,55 89.2,54.8 89.2,54.5 87.5,54.5 87.5,54.9 86.1,58.2 84.5,54.5 82.8,54.5 82.8,54.8 83.5,55 
	83.5,59.2 82.8,59.3 82.8,59.6 84.8,59.6 84.8,59.3 83.9,59.1 83.9,55.2 85.6,58.9 85.7,59.4 86,59.4 86.2,58.9 87.8,55.1 
	87.8,59.2 87.1,59.3 87.1,59.6 89.2,59.6 89.2,59.3 88.6,59.2 "/>
<path class="st0" d="M90,54.4c0,0.3,0.2,0.5,0.5,0.5l0,0c0.3,0,0.5-0.2,0.5-0.5c0-0.3-0.2-0.5-0.5-0.5C90.2,53.9,90,54.1,90,54.4z"
	/>
<polygon class="st0" points="90.9,55.9 89.8,56.1 89.8,56.4 90.2,56.6 90.2,59.2 89.7,59.3 89.7,59.6 91.5,59.6 91.5,59.3 
	90.9,59.2 "/>
<path class="st0" d="M95.4,57.2c0-1-0.3-1.3-1.1-1.3c-0.5,0.1-0.9,0.3-1.2,0.7l0,0L93,55.9l0,0l-1,0.4v0.2l0.5,0.1v2.6L92,59.3v0.3
	h1.7v-0.3l-0.5-0.1v-2.4c0.2-0.2,0.5-0.4,0.9-0.4c0.5,0,0.7,0.3,0.7,0.8v1.9l-0.4,0.1v0.3H96v-0.3l-0.5-0.2L95.4,57.2z"/>
<path class="st0" d="M98.4,59.1c-0.8,0-1.3-0.6-1.3-1.5h2.5c0-1-0.5-1.7-1.4-1.7c-1,0-1.9,0.9-1.8,2c0,0,0,0.1,0,0.1
	c-0.1,0.9,0.6,1.7,1.5,1.8c0.7,0.1,1.4-0.4,1.7-1.1l-0.2-0.1C99.2,58.9,98.9,59.1,98.4,59.1z M98.1,56.2c0.5,0,0.7,0.5,0.7,1h-1.7
	C97.1,56.7,97.5,56.3,98.1,56.2z"/>
<path class="st0" d="M102.5,55.9c-0.3,0-0.5,0.2-0.8,0.6l-0.3,0.4l0,0l-0.1-0.9l0,0l-1.1,0.4v0.2l0.5,0.1v2.6l-0.5,0.2v0.3h1.9v-0.3
	l-0.7-0.1v-2.1c0.2-0.2,0.3-0.3,0.5-0.5l0.6,0.2c0.2-0.1,0.3-0.3,0.3-0.6c0-0.2-0.1-0.4-0.3-0.4C102.6,55.9,102.5,55.9,102.5,55.9z"
	/>
<path class="st0" d="M106,59v-2c0-0.8-0.3-1.2-1.2-1.2s-1.5,0.6-1.5,1c0,0.2,0.1,0.3,0.4,0.3c0.1,0,0.2,0,0.3,0v-0.8
	c0.1-0.1,0.3-0.1,0.4-0.1c0.4,0,0.7,0.3,0.7,0.9v0.4l-0.8,0.2c-0.8,0.2-1.2,0.5-1.2,1.1c0,0.5,0.4,0.9,0.9,0.9c0,0,0,0,0,0
	c0.5,0,0.7-0.2,1.1-0.6l0,0c0,0.3,0.2,0.6,0.6,0.6c0.3,0,0.5-0.1,0.8-0.2v-0.2h-0.4C106.1,59.3,106,59.2,106,59z M105.2,58.8
	c-0.1,0.2-0.4,0.3-0.6,0.4c-0.3,0-0.6-0.2-0.6-0.5c0,0,0,0,0-0.1c0-0.3,0.2-0.5,0.6-0.6l0.7-0.2V58.8z"/>
<polygon class="st0" points="108.2,53.9 107,54.2 107,54.4 107.5,54.6 107.5,59.2 107,59.3 107,59.6 108.7,59.6 108.7,59.3 
	108.2,59.2 "/>
<path class="st0" d="M113.7,57.1L113.7,57.1c0.6-0.1,1.1-0.7,1.1-1.3c0-0.8-0.8-1.3-2.2-1.3h-1.8v0.3l0.7,0.2v4.2l-0.7,0.2v0.3h2.1
	v-0.3l-0.6-0.2v-1.8h0.6l0.3,0.5l1.3,1.8h1.3v-0.3l-0.7-0.2L113.7,57.1z M112.9,57h-0.6v-2.2c1.1,0,1.7,0.4,1.7,1.2
	C113.9,56.5,113.4,57,112.9,57L112.9,57z"/>
<path class="st0" d="M117.9,59.1c-0.8,0-1.3-0.6-1.3-1.5h2.5c0-1-0.5-1.7-1.4-1.7c-1.1,0-1.9,0.9-1.8,2c0,0,0,0.1,0,0.1
	c-0.1,0.9,0.7,1.7,1.6,1.8c0.7,0,1.4-0.4,1.7-1l-0.2-0.1C118.7,58.9,118.3,59.1,117.9,59.1z M117.5,56.2c0.5,0,0.7,0.5,0.7,1h-1.7
	C116.6,56.7,117,56.3,117.5,56.2z"/>
<path class="st0" d="M121.5,57.5l-0.3-0.2c-0.5-0.2-0.6-0.4-0.6-0.7c0-0.3,0.2-0.5,0.5-0.5c0,0,0,0,0,0c0.2,0,0.4,0.1,0.5,0.2
	l0.3,0.7h0.2v-1c-0.3-0.2-0.7-0.2-1-0.2c-0.7-0.1-1.3,0.4-1.4,1.1c0,0.5,0.2,0.8,0.8,1l0.3,0.2c0.6,0.2,0.7,0.5,0.7,0.8
	c0,0.3-0.3,0.6-0.6,0.6c0,0,0,0,0,0c-0.2,0-0.5-0.1-0.6-0.2l-0.4-0.9h-0.3l0.1,1.1c0.3,0.2,0.7,0.3,1.1,0.3c0.7,0.1,1.4-0.4,1.5-1.2
	C122.4,58.2,122.2,57.8,121.5,57.5z"/>
<path class="st0" d="M124.9,55.9c-1,0-1.9,0.9-1.8,2c0,0,0,0,0,0c-0.1,1,0.7,1.8,1.6,1.9c0.1,0,0.1,0,0.2,0c1,0,1.9-0.9,1.8-2
	c0,0,0,0,0,0c0.1-0.9-0.6-1.8-1.5-1.9C125,55.9,125,55.9,124.9,55.9z M125,59.4c-0.8,0-1.1-0.9-1.1-1.7s0.3-1.4,0.9-1.4
	s1.1,0.6,1.1,1.7C125.9,58.7,125.5,59.4,125,59.4L125,59.4z"/>
<path class="st0" d="M130.6,55.9l-1.4,0.1v0.3l0.6,0.1v2.4c-0.2,0.2-0.5,0.3-0.8,0.3c-0.5,0-0.8-0.3-0.8-0.9v-2.4L127,56v0.3
	l0.5,0.1v1.9c0,0.9,0.4,1.3,1.1,1.3c0.5,0,1-0.3,1.3-0.6l0.2,0.6l1.1-0.2v-0.3l-0.6-0.1L130.6,55.9z"/>
<path class="st0" d="M133.8,55.9c-0.3,0-0.5,0.2-0.8,0.6l-0.3,0.4l0,0l-0.1-0.9l0,0l-1.1,0.4v0.2l0.5,0.1v2.6l-0.5,0.2v0.3h1.9v-0.3
	l-0.7-0.1v-2.1c0.1-0.2,0.3-0.4,0.5-0.5l0.6,0.2c0.2-0.1,0.3-0.3,0.3-0.6c0-0.2-0.1-0.4-0.3-0.4C133.8,55.9,133.8,55.9,133.8,55.9z"
	/>
<path class="st0" d="M136.5,59.1c-0.8-0.1-1.4-0.7-1.3-1.5c0,0,0,0,0,0c0-0.8,0.4-1.4,1.1-1.4c0.2,0,0.3,0,0.4,0.1l0.1,0.8
	c0.1,0,0.2,0,0.3,0c0.2,0,0.4-0.2,0.4-0.4c0,0,0,0,0,0c0-0.4-0.5-0.8-1.1-0.8c-1.1,0-2,1-1.9,2.1c0,0,0,0,0,0
	c-0.1,0.9,0.6,1.7,1.5,1.8c0.1,0,0.1,0,0.2,0c0.6,0,1.2-0.4,1.4-0.9l-0.2-0.1C137.2,58.9,136.8,59.1,136.5,59.1z"/>
<path class="st0" d="M140.1,59.1c-0.8,0-1.3-0.6-1.3-1.5h2.5c0-1-0.5-1.7-1.4-1.7c-1.1,0-1.9,0.9-1.9,2c0,0,0,0.1,0,0.1
	c-0.1,0.9,0.7,1.7,1.6,1.8c0,0,0.1,0,0.1,0c0.7,0,1.3-0.4,1.6-1.1l-0.2-0.1C140.8,58.9,140.5,59.1,140.1,59.1z M139.7,56.2
	c0.5,0,0.7,0.5,0.7,1h-1.6C138.7,56.7,139.1,56.3,139.7,56.2z"/>
<path class="st0" d="M143.7,57.5l-0.4-0.2c-0.5-0.2-0.6-0.4-0.6-0.7c0-0.3,0.2-0.5,0.5-0.5c0,0,0,0,0,0c0.2,0,0.4,0.1,0.5,0.2
	l0.3,0.7h0.2v-1c-0.3-0.2-0.7-0.2-1-0.2c-0.7-0.1-1.3,0.4-1.4,1.1c0,0,0,0,0,0c0,0.5,0.2,0.8,0.8,1l0.3,0.2c0.5,0.2,0.7,0.5,0.7,0.8
	c0,0.3-0.3,0.6-0.6,0.6c0,0,0,0-0.1,0c-0.2,0-0.5-0.1-0.6-0.2l-0.4-0.9h-0.3l0.1,1.1c0.3,0.2,0.7,0.3,1.1,0.3
	c0.7,0.1,1.4-0.4,1.5-1.2C144.6,58.2,144.4,57.8,143.7,57.5z"/>
<path class="st0" d="M164.3,21.5C164.3,21.5,164.3,21.5,164.3,21.5L164.3,21.5C164.3,21.5,164.3,21.5,164.3,21.5z"/>
<path class="st0" d="M225.5,31.8L225.5,31.8"/>
<path class="st0" d="M225.5,31.8L225.5,31.8"/>
<path class="st0" d="M209.5,65.4c0.2-0.1,0.5-0.1,0.7-0.2L209.5,65.4z"/>
<path class="st0" d="M231.1,36.1c-0.3,4.6-2.2,12.9-4.7,16.8c-2.1,3.4-9.2,9.5-15.2,11.9h-0.1l0,0l0,0H211H211
	c-3,1.2-6.6-0.5-8.7-1.8h-0.1c-0.4-0.2-0.7-0.4-0.9-0.6c-0.4-0.3-0.7-0.5-0.7-0.5c-0.6-0.4-1.1-0.9-1.7-1.3l-0.4-0.4
	c-0.2-0.1-0.4-0.3-0.5-0.5l-0.8-0.7l-0.8-0.7l-0.8-0.8l-1.2-1.2c9-2,23.1-7.5,31-13.2c3.3-2.4,5.5-4.8,5.8-6.9
	C231.1,36.1,231.1,36.1,231.1,36.1z"/>
<path class="st0" d="M231.1,36L231.1,36c0,0.1,0,0.1,0,0.2V36z"/>
<path class="st0" d="M210.9,64.9c-0.2,0.1-0.4,0.2-0.7,0.2l-0.7,0.2c-0.2,0.1-0.4,0.1-0.5,0.2l-0.2,0.1l-0.3,0.1h-0.3
	c-0.1,0-0.3,0-0.4,0.1c-4.6,0.5-17.4-1.4-25.4-5.1l-0.3-0.2l-0.4-0.2c-2.1-1.1-4-2.5-5.6-4.3c-5.5-6.8-12.1-23.3-12-32.8l0,0
	c0.1-1.6,0.6-3.1,1.4-4.4l0.1-0.1c0.1-0.1,0.1-0.2,0.2-0.3c1.5-2.2,3.4-4.1,5.7-5.6c2.6,12.7,11,31.7,22.6,43.5
	c0.4,0.4,0.8,0.8,1.2,1.2s1.1,1,1.6,1.5l0.8,0.7c0.2,0.2,0.4,0.3,0.5,0.5l0.4,0.4c0.6,0.5,1.1,0.9,1.7,1.3c0,0,0.2,0.2,0.7,0.5
	c0.3,0.2,0.6,0.4,1,0.6c0,0,0,0,0.1,0C204.4,64.3,208,66,210.9,64.9z"/>
<path class="st0" d="M164.3,21.6c-0.1,0.5-0.1,1-0.1,1.4C164.2,22.6,164.2,22.1,164.3,21.6z"/>
<path class="st0" d="M164.2,23.1c0,0,0,0.1,0,0.1V23.1z"/>
<path class="st0" d="M164.3,21.5L164.3,21.5z"/>
<path class="st0" d="M231.1,36L231.1,36c0,0.1,0,0.1,0,0.2V36z"/>
<path class="st0" d="M231.1,36L231.1,36v0.1c-0.3,2.2-2.5,4.5-5.8,6.9c-5.3-2-10.3-4.6-14.9-8c-12.4-8.9-20.3-23.8-30.7-24.5
	c-2.9-0.1-5.7,0.6-8.1,2.2c-2.3,1.5-4.2,3.4-5.7,5.6c-0.1,0.1-0.1,0.2-0.2,0.3l-0.1,0.1c-0.8,1.3-1.3,2.8-1.4,4.4c0,0,0-0.1,0-0.1
	s0-0.1,0-0.2c0-0.4,0-0.9,0.1-1.4l0,0c0,0,0,0,0,0c0-0.1,0-0.1,0-0.2l0,0c1.5-10,11.9-21.5,20.4-21.3C195,0.4,203.8,12.6,211.8,20
	c6.9,6.3,12.4,9,15.9,11.3l0,0C229.9,32.7,231.2,34,231.1,36L231.1,36z"/>
</svg>
