<?xml version="1.0" encoding="utf-8"?>
<!-- Generator: Adobe Illustrator 26.3.1, SVG Export Plug-In . SVG Version: 6.00 Build 0)  -->
<svg version="1.1" id="Layer_1" xmlns="http://www.w3.org/2000/svg" xmlns:xlink="http://www.w3.org/1999/xlink" x="0px" y="0px"
	 viewBox="0 0 200 174.4" style="enable-background:new 0 0 200 174.4;" xml:space="preserve">
<style type="text/css">
	.st0{fill:#FFFFFF;}
</style>
<g id="Layer_1_00000047043713963078636220000013844679217235442093_">
	<g>
		<polygon class="st0" points="177.8,40.6 144.3,40.6 127.6,69.6 136.1,84.5 147.4,84.5 138.9,69.6 150,50.4 172.1,50.4 183.2,69.6 
			172.1,88.8 166.9,88.8 161.2,98.7 177.8,98.7 194.5,69.6 		"/>
		<polygon class="st0" points="164.4,54.8 153.1,54.8 161.6,69.6 150.6,88.8 128.4,88.8 117.3,69.6 128.4,50.4 133.6,50.4 
			139.3,40.6 122.7,40.6 106,69.6 122.7,98.7 156.2,98.7 173,69.6 		"/>
	</g>
	<g>
		<path class="st0" d="M19.7,51.2c1.1,0,1.9-0.9,1.9-2c0-1.2-0.8-2.1-1.9-2.1s-1.9,0.9-1.9,2.1C17.8,50.3,18.6,51.2,19.7,51.2z"/>
		<path class="st0" d="M19.4,97.7c-1.1,0-1.9,0.9-1.9,2.1c0,1.1,0.9,2,1.9,2c1.1,0,1.9-0.9,1.9-2C21.2,98.6,20.5,97.7,19.4,97.7z"/>
		<path class="st0" d="M27.5,58.8c0-4.6-1.4-5.9-4.3-5.9h-2c-2.6,0-4.5,1.9-4.5,4.5v2.1c0,2.5,1.5,4.6,5.4,4.6h2.1v2.4h-7
			c-1.6,0-3.3-1-3.3-2.5v-5l-3.3,0.6v4.9c0,3.3,3.4,5.4,5.3,5.4h11.7L27.5,58.8L27.5,58.8z M21.5,60.8c-1.1,0-1.6-0.4-1.6-1.4V58
			c0-1,0.6-1.8,1.8-1.8h0.8c1.2,0,1.7,0.8,1.7,1.8v2.8H21.5z"/>
		<path class="st0" d="M88.2,64.1V47l-3.3,0.6v13.2h-4.2v-4.3c0-2-1.1-3.7-4.3-3.7h-2.5c-2.6,0-4.3,1.7-6.1,4.4v-3.9l-3.1,0.6v6.8
			h-4.2v-7.4l-3.3,0.6v6.8h-3.5l-3.7-8.7l-3.3,0.6l3.5,8.1h-6.4v3.3L88.2,64.1L88.2,64.1z M73.2,56.1h2.1c1.3,0,2,0.6,2,1.7v2.9H68
			C69.6,58.8,71.5,56.1,73.2,56.1z"/>
		<path class="st0" d="M58.7,51.8c1.1,0,1.9-0.9,1.9-2.1c0-1.1-0.9-2-1.9-2c-1.1,0-2,0.9-2,2C56.8,50.9,57.7,51.8,58.7,51.8z"/>
		<path class="st0" d="M56.8,75.3c0,1.1,0.9,2.1,2,2.1s1.9-0.9,1.9-2.1s-0.9-2-1.9-2S56.8,74.2,56.8,75.3z"/>
		<path class="st0" d="M24.4,51.2c1.1,0,1.9-0.9,1.9-2c0-1.2-0.9-2.1-1.9-2.1c-1,0-1.9,0.9-1.9,2.1C22.5,50.3,23.4,51.2,24.4,51.2z"
			/>
		<path class="st0" d="M35.4,64.1h2.1v1c0,1.2-0.9,1.4-3.2,1.4h-3.3v3.3h4.2c3.9,0,5.5-0.9,5.5-4.7v-6.3c0-4.6-1.4-5.9-4.3-5.9h-2
			c-2.6,0-4.5,1.9-4.5,4.5v2.1C30,62,31.5,64.1,35.4,64.1z M33.3,57.9c0-1,0.6-1.8,1.8-1.8h0.8c1.2,0,1.7,0.8,1.7,1.8v2.8h-2.7
			c-1.1,0-1.6-0.4-1.6-1.4V57.9z"/>
		<polygon class="st0" points="91.5,64.1 94.8,64.1 94.8,47 91.5,47.6 		"/>
		<polygon class="st0" points="91.5,89.6 94.8,89.6 94.8,72.5 91.5,73.1 		"/>
		<path class="st0" d="M24.1,97.7c-1,0-1.9,0.9-1.9,2.1c0,1.1,0.9,2,1.9,2c1.1,0,1.9-0.9,1.9-2C26,98.6,25.1,97.7,24.1,97.7z"/>
		<path class="st0" d="M40.4,89.6v-3.3h-4.7c-0.7,0-1.3-0.7-1.3-1.3v-1.9c0-0.6,0.6-1.3,1.3-1.3h3.5v-3.3h-4.9
			c-1.8,0-3.3,1.5-3.3,3.2v2.4c0,1,0.2,1.7,0.7,2.2h-8.8v3.3c0.6,0,1.3,0,3.1,0v1.8c0,1.1-0.5,1.5-1.6,1.5h-5.3
			c-1.2,0-1.8-0.8-1.8-2.6V85l-3.3,0.6v5c0,3.2,1.9,5.6,4.4,5.6h6.5c2.6,0,4.4-1.8,4.4-4.6v-2L40.4,89.6L40.4,89.6z"/>
		<path class="st0" d="M88.2,72.5l-3.3,0.6v13.2h-4.2V82c0-2-1.1-3.7-4.3-3.7h-2.5c-2.6,0-4.3,1.7-6.1,4.4v-3.9l-3.1,0.6v6.8h-4.2
			v-6.8L57.1,80v6.3H46.5V72.6l-3.3,0.6v16.4h45V72.5z M68,86.3c1.7-2,3.5-4.6,5.3-4.6h2.1c1.3,0,2,0.6,2,1.7v2.9H68z"/>
	</g>
	<g>
		<g>
			<path class="st0" d="M14.4,116.9c0-0.1,0-0.2,0-0.3c0-0.1,0-0.3,0-0.4c0-0.1,0-0.3,0.1-0.4c0-0.1,0-0.3,0.1-0.4
				c0-0.1,0-0.1,0.1-0.2c0,0,0.1-0.1,0.2-0.1h0.9c0.1,0,0.2,0.1,0.2,0.2c0,0.2,0,0.4,0,0.5c0,0.2,0,0.3,0,0.4c0,0.4,0,0.8,0.1,1.1
				s0.2,0.7,0.3,0.9c0.2,0.3,0.4,0.5,0.7,0.6c0.3,0.1,0.7,0.2,1.3,0.2c0.2,0,0.4,0,0.6,0c0.2,0,0.4,0,0.5-0.1c0-0.2,0-0.4,0-0.5
				c0-0.2,0-0.3,0-0.4s0-0.3,0-0.4c0-0.1,0-0.3,0-0.4v-1c0-0.9,0.3-1.6,0.8-2c0.5-0.4,1.3-0.6,2.3-0.6c0.3,0,0.6,0,0.9,0
				c0.3,0,0.6,0.1,0.8,0.1c0.1,0,0.1,0,0.1,0.1c0,0,0.1,0.1,0.1,0.2v4.4c0,0.1,0,0.1-0.1,0.2c0,0-0.1,0.1-0.2,0.1h-1
				c-0.1,0-0.1,0-0.2-0.1c0,0-0.1-0.1-0.1-0.2V115c-0.1,0-0.3,0-0.3,0c-0.1,0-0.2,0-0.3,0c-0.4,0-0.8,0.1-1,0.3
				c-0.2,0.2-0.3,0.6-0.3,1.1v2c0,0.3,0,0.6,0,0.9c0,0.3,0,0.6,0,0.9c0,0.1-0.1,0.2-0.3,0.3c-0.3,0.1-0.7,0.1-1.1,0.1
				c-0.4,0-0.8,0-1.3,0c-0.7,0-1.3-0.1-1.7-0.2c-0.5-0.2-0.9-0.4-1.2-0.7c-0.3-0.3-0.5-0.7-0.7-1.2
				C14.4,118.1,14.4,117.5,14.4,116.9z M15.9,121.7c0-0.1,0-0.1,0.1-0.2c0.1,0,0.1-0.1,0.2-0.1H17c0.1,0,0.1,0,0.2,0.1
				c0.1,0,0.1,0.1,0.1,0.2v0.8c0,0.1,0,0.1-0.1,0.2c-0.1,0-0.1,0.1-0.2,0.1h-0.8c-0.1,0-0.1,0-0.2-0.1c-0.1,0-0.1-0.1-0.1-0.2
				C15.9,122.5,15.9,121.7,15.9,121.7z M18.1,121.7c0-0.1,0-0.1,0.1-0.2c0.1,0,0.1-0.1,0.2-0.1h0.8c0.1,0,0.1,0,0.2,0.1
				c0.1,0,0.1,0.1,0.1,0.2v0.8c0,0.1,0,0.1-0.1,0.2c-0.1,0-0.1,0.1-0.2,0.1h-0.8c-0.1,0-0.1,0-0.2-0.1c-0.1,0-0.1-0.1-0.1-0.2V121.7
				z"/>
			<path class="st0" d="M25.8,117.3c0-0.1,0-0.1,0.1-0.2c0,0,0.1-0.1,0.2-0.1h3.1l0-1.1c0-0.3-0.1-0.6-0.1-0.8
				c-0.1-0.2-0.2-0.4-0.4-0.6c-0.2-0.2-0.4-0.3-0.6-0.4c-0.3-0.1-0.6-0.1-0.9-0.1c0,0-0.1,0-0.1,0c-0.1,0-0.1,0-0.2,0s-0.1,0-0.2,0
				s-0.1,0-0.2,0c-0.1,0-0.2-0.1-0.2-0.2v-0.9c0-0.1,0-0.1,0.1-0.2c0,0,0.1-0.1,0.2-0.1c0.2,0,0.4-0.1,0.7-0.1s0.4,0,0.5,0
				c0.6,0,1.1,0.1,1.5,0.3c0.4,0.2,0.7,0.4,0.9,0.7c0.2,0.3,0.4,0.6,0.5,1c0.1,0.4,0.2,0.8,0.2,1.2c0,0.1,0,0.2,0,0.3s0,0.2,0,0.4
				c0,0.1,0,0.3,0,0.4c0,0.1,0,0.3,0,0.3c0,0.1,0,0.3,0,0.5c0,0.2,0,0.4,0,0.5c0,0.1,0,0.1-0.1,0.2c0,0-0.1,0.1-0.2,0.1H26
				c-0.1,0-0.1,0-0.2-0.1c0,0-0.1-0.1-0.1-0.2L25.8,117.3L25.8,117.3z"/>
			<path class="st0" d="M32.3,120.3c0-0.1,0.1-0.2,0.2-0.2h1.1c0.3,0,0.6,0,0.8,0c0.2,0,0.4-0.1,0.6-0.2c0.2-0.1,0.3-0.2,0.4-0.3
				c0.1-0.1,0.1-0.3,0.1-0.6v-0.4h-0.9c-0.9,0-1.5-0.2-2-0.7c-0.5-0.4-0.7-1.1-0.7-2v-0.2c0-0.9,0.3-1.7,0.8-2.2
				c0.6-0.5,1.3-0.8,2.4-0.8c0.1,0,0.3,0,0.5,0c0.2,0,0.3,0,0.5,0c0.2,0,0.3,0,0.4,0.1c0.1,0,0.2,0.1,0.3,0.1c0.1,0,0.1,0.1,0.2,0.1
				c0,0,0,0.1,0,0.1v3.8h1v1.5H37v0.4c0,0.5-0.1,0.9-0.3,1.2c-0.2,0.3-0.4,0.6-0.7,0.7c-0.3,0.2-0.6,0.3-0.9,0.4
				c-0.4,0.1-0.7,0.1-1.1,0.1c-0.1,0-0.2,0-0.3,0c-0.1,0-0.3,0-0.4,0c-0.1,0-0.3,0-0.4,0c-0.1,0-0.2,0-0.3,0c-0.1,0-0.1,0-0.2-0.1
				c0,0,0-0.1,0-0.1L32.3,120.3L32.3,120.3z M33.4,115.8c0,0.4,0.1,0.8,0.3,1c0.2,0.2,0.5,0.3,1,0.3h0.9v-2.9c-0.2,0-0.5,0-0.7,0
				c-0.4,0-0.8,0.1-1.1,0.4c-0.2,0.3-0.4,0.6-0.4,1.1C33.4,115.7,33.4,115.8,33.4,115.8z"/>
			<path class="st0" d="M37.6,117.3c0,0,0-0.1,0.1-0.1c0.1,0,0.2,0,0.3,0h1.6l-0.9-2.3c0,0,0-0.1,0-0.2c0-0.1,0-0.1,0-0.2l0-0.6
				c0-0.1,0-0.1,0.1-0.2c0,0,0.1-0.1,0.2-0.2c0.1-0.1,0.3-0.2,0.5-0.3c0.2-0.1,0.4-0.2,0.6-0.2s0.5-0.1,0.7-0.2
				c0.2,0,0.5-0.1,0.7-0.1c0.4,0,0.8,0,1.1,0.1c0.4,0.1,0.6,0.2,0.9,0.4c0.3,0.2,0.5,0.4,0.6,0.7c0.1,0.3,0.2,0.7,0.2,1.1v0.3
				c0,0.2,0,0.3,0,0.5c0,0.2-0.1,0.3-0.1,0.5c-0.1,0.2-0.1,0.3-0.2,0.4c-0.1,0.1-0.2,0.2-0.3,0.3h1.5v1.5H38c-0.1,0-0.2,0-0.3,0
				c-0.1,0-0.1-0.1-0.1-0.1C37.6,118.5,37.6,117.3,37.6,117.3z M41.8,117.1c0.2,0,0.3-0.1,0.5-0.2c0.1-0.1,0.2-0.2,0.3-0.4
				c0.1-0.1,0.2-0.3,0.2-0.5c0-0.2,0.1-0.4,0.1-0.6v-0.1c0-0.4-0.1-0.8-0.4-1c-0.2-0.2-0.6-0.3-1-0.3c-0.2,0-0.4,0-0.6,0.1
				c-0.2,0-0.5,0.1-0.7,0.3l1.1,2.7L41.8,117.1L41.8,117.1z"/>
			<path class="st0" d="M44.8,117.3c0,0,0-0.1,0.1-0.1c0.1,0,0.2,0,0.3,0h0.4c0.1,0,0.3,0,0.4-0.1c0.1,0,0.2-0.2,0.2-0.3v-2.4
				c0-0.1,0-0.1,0.1-0.2c0,0,0.1-0.1,0.2-0.1h1c0.1,0,0.1,0,0.2,0.1c0,0,0.1,0.1,0.1,0.2v2.6c0,0,0.1,0.1,0.1,0.1s0.1,0.1,0.2,0.1
				c0.1,0,0.1,0,0.2,0c0.1,0,0.1,0,0.2,0h0.2c0.1,0,0.1,0,0.2,0c0.1,0,0.1,0,0.2-0.1c0.1,0,0.1-0.1,0.2-0.1c0-0.1,0.1-0.1,0.1-0.2
				v-2.9c0-0.1,0-0.1,0.1-0.2c0,0,0.1-0.1,0.2-0.1h1c0.1,0,0.1,0,0.2,0.1c0,0,0.1,0.1,0.1,0.2v3.1c0,0.1,0.1,0.2,0.3,0.2
				c0.1,0,0.3,0,0.5,0h0.1c0.1,0,0.1,0,0.2,0c0.1,0,0.1,0,0.2,0c0.1,0,0.1-0.1,0.2-0.1c0-0.1,0.1-0.1,0.1-0.2v-3.3
				c0-0.1,0-0.1,0.1-0.2c0,0,0.1-0.1,0.2-0.1h1c0.1,0,0.1,0,0.2,0.1c0,0,0.1,0.1,0.1,0.2v3.5c0,0,0.1,0.1,0.1,0.1
				c0.1,0,0.1,0.1,0.2,0.1c0.1,0,0.2,0,0.2,0c0.1,0,0.1,0,0.2,0h0.3v1.5h-0.2c-0.2,0-0.5,0-0.8-0.1c-0.3-0.1-0.6-0.2-0.8-0.3
				c-0.2,0.2-0.4,0.3-0.7,0.3c-0.3,0-0.5,0.1-0.8,0.1h-0.1c-0.3,0-0.5,0-0.8-0.1c-0.2-0.1-0.5-0.2-0.7-0.3c-0.2,0.1-0.4,0.3-0.6,0.3
				c-0.2,0.1-0.5,0.1-0.8,0.1h-0.2c-0.2,0-0.5,0-0.7-0.1s-0.5-0.2-0.7-0.3c-0.1,0.1-0.2,0.2-0.4,0.2c-0.1,0.1-0.3,0.1-0.4,0.1
				c-0.1,0-0.3,0.1-0.4,0.1c-0.1,0-0.3,0-0.4,0h-0.3c-0.1,0-0.2,0-0.3,0c-0.1,0-0.1-0.1-0.1-0.1L44.8,117.3L44.8,117.3z"/>
			<path class="st0" d="M54.4,117.3c0,0,0-0.1,0.1-0.1c0.1,0,0.2,0,0.3,0h0.8c0.2,0,0.3,0,0.4-0.1c0.1,0,0.1-0.1,0.1-0.3v-6.9
				c0-0.1,0-0.1,0.1-0.2c0,0,0.1-0.1,0.2-0.1h1.1c0.1,0,0.1,0,0.2,0.1c0,0,0.1,0.1,0.1,0.2v6.9c0,0.2,0,0.4,0,0.7c0,0.3,0,0.5,0,0.7
				c0,0.1,0,0.1-0.1,0.2c0,0.1-0.1,0.1-0.2,0.1c-0.1,0-0.2,0-0.4,0.1c-0.2,0-0.3,0-0.5,0c-0.2,0-0.4,0-0.6,0c-0.2,0-0.4,0-0.5,0
				h-0.5c-0.1,0-0.2,0-0.3,0c-0.1,0-0.1-0.1-0.1-0.1L54.4,117.3L54.4,117.3z"/>
			<path class="st0" d="M59.4,109.8c0-0.1,0-0.1,0.1-0.2c0,0,0.1-0.1,0.2-0.1h1.1c0.1,0,0.1,0,0.2,0.1s0.1,0.1,0.1,0.2v8.5
				c0,0.1,0,0.1-0.1,0.2c0,0.1-0.1,0.1-0.2,0.1h-1.1c-0.1,0-0.1,0-0.2-0.1c0-0.1-0.1-0.1-0.1-0.2V109.8z"/>
			<path class="st0" d="M65.5,115.8c0-0.9,0.3-1.7,0.8-2.2c0.5-0.5,1.3-0.8,2.4-0.8c0.3,0,0.6,0,0.9,0s0.6,0.1,0.8,0.1
				c0.1,0,0.1,0.1,0.2,0.1c0,0,0,0.1,0,0.1v3.3c0,0.3,0.1,0.4,0.2,0.5c0.1,0.1,0.3,0.1,0.6,0.1h0.3v1.5h-0.5c-0.4,0-0.7-0.1-1-0.2
				c-0.3-0.1-0.5-0.3-0.6-0.5c-0.2,0.2-0.4,0.3-0.6,0.4c-0.3,0.1-0.5,0.1-0.8,0.1h-0.2c-0.3,0-0.6,0-0.9-0.1
				c-0.3-0.1-0.5-0.2-0.8-0.4c-0.2-0.2-0.4-0.4-0.5-0.8c-0.1-0.3-0.2-0.7-0.2-1.1C65.5,116,65.5,115.8,65.5,115.8z M66.4,110.5
				c0-0.1,0-0.1,0.1-0.2s0.1-0.1,0.2-0.1h0.8c0.1,0,0.1,0,0.2,0.1c0.1,0.1,0.1,0.1,0.1,0.2v0.9c0,0.1,0,0.1-0.1,0.2
				s-0.1,0.1-0.2,0.1h-0.8c-0.1,0-0.1,0-0.2-0.1c-0.1-0.1-0.1-0.1-0.1-0.2V110.5z M67,115.7c0,0.4,0.1,0.8,0.3,1s0.4,0.3,0.8,0.3
				h0.2c0.3,0,0.5,0,0.6-0.1c0.1-0.1,0.2-0.2,0.2-0.4v-2.2c0,0-0.1,0-0.3,0c-0.1,0-0.2,0-0.3,0c-0.5,0-0.9,0.1-1.1,0.3
				c-0.3,0.2-0.4,0.6-0.4,1L67,115.7L67,115.7z M68.6,110.5c0-0.1,0-0.1,0.1-0.2s0.1-0.1,0.2-0.1h0.8c0.1,0,0.1,0,0.2,0.1
				s0.1,0.1,0.1,0.2v0.9c0,0.1,0,0.1-0.1,0.2s-0.1,0.1-0.2,0.1h-0.8c-0.1,0-0.1,0-0.2-0.1s-0.1-0.1-0.1-0.2V110.5z"/>
			<path class="st0" d="M71.2,117.3c0,0,0-0.1,0.1-0.1c0.1,0,0.2,0,0.3,0h0.5c0.1,0,0.1,0,0.2,0c0.1,0,0.1,0,0.2-0.1
				c0.1,0,0.1-0.1,0.2-0.1c0-0.1,0.1-0.1,0.1-0.2v-3c0-0.1,0-0.1,0.1-0.2c0,0,0.1-0.1,0.2-0.1h1c0.1,0,0.1,0,0.2,0.1
				c0,0,0.1,0.1,0.1,0.2v3.2c0,0,0.1,0.1,0.1,0.1c0.1,0,0.1,0.1,0.2,0.1c0.1,0,0.2,0,0.2,0c0.1,0,0.1,0,0.2,0h0.3v1.5h-0.1
				c-0.3,0-0.6,0-0.9-0.1s-0.6-0.2-0.8-0.3c-0.1,0.1-0.2,0.1-0.4,0.2c-0.1,0.1-0.3,0.1-0.4,0.1c-0.1,0-0.3,0.1-0.4,0.1
				c-0.1,0-0.3,0-0.4,0h-0.3c-0.1,0-0.2,0-0.3,0c-0.1,0-0.1-0.1-0.1-0.1C71.2,118.5,71.2,117.3,71.2,117.3z M71.6,119.9
				c0-0.1,0-0.1,0.1-0.2s0.1-0.1,0.2-0.1h0.8c0.1,0,0.1,0,0.2,0.1s0.1,0.1,0.1,0.2v0.9c0,0.1,0,0.1-0.1,0.2
				c-0.1,0.1-0.1,0.1-0.2,0.1h-0.8c-0.1,0-0.1,0-0.2-0.1c-0.1-0.1-0.1-0.1-0.1-0.2V119.9z M73.8,119.9c0-0.1,0-0.1,0.1-0.2
				c0.1-0.1,0.1-0.1,0.2-0.1H75c0.1,0,0.1,0,0.2,0.1s0.1,0.1,0.1,0.2v0.9c0,0.1,0,0.1-0.1,0.2c-0.1,0.1-0.1,0.1-0.2,0.1h-0.8
				c-0.1,0-0.1,0-0.2-0.1c-0.1-0.1-0.1-0.1-0.1-0.2V119.9z"/>
			<path class="st0" d="M74.9,117.3c0,0,0-0.1,0.1-0.1c0.1,0,0.2,0,0.3,0h1.3c-0.1-0.2-0.2-0.4-0.3-0.7c-0.1-0.3-0.1-0.6-0.1-0.9
				v-0.1c0-0.5,0.1-0.9,0.2-1.2c0.2-0.3,0.4-0.6,0.6-0.8c0.3-0.2,0.6-0.4,0.9-0.4c0.4-0.1,0.7-0.1,1.1-0.1c0.3,0,0.5,0,0.7,0
				c0.2,0,0.4,0.1,0.7,0.1c0.1,0,0.2,0,0.2,0.1c0,0,0.1,0.1,0.1,0.2v0.9c0,0.2-0.1,0.2-0.2,0.2c-0.1,0-0.2,0-0.3,0
				c-0.1,0-0.2,0-0.3,0s-0.2,0-0.3,0c-0.1,0-0.2,0-0.3,0c-0.5,0-1,0.1-1.3,0.3c-0.3,0.2-0.4,0.6-0.4,1.1v0.1c0,0.3,0.1,0.6,0.2,0.9
				c0.1,0.3,0.3,0.4,0.5,0.5h2.5c0.1,0,0.1,0,0.2,0.1c0,0,0.1,0.1,0.1,0.2v1.1c0,0.1,0,0.1-0.1,0.1c0,0-0.1,0.1-0.2,0.1h-5.5
				c-0.1,0-0.2,0-0.3,0c-0.1,0-0.1-0.1-0.1-0.1C74.9,118.5,74.9,117.3,74.9,117.3z"/>
			<path class="st0" d="M82.6,109.8c0-0.1,0-0.1,0.1-0.2c0,0,0.1-0.1,0.2-0.1h1.1c0.1,0,0.1,0,0.2,0.1s0.1,0.1,0.1,0.2v6.7
				c0,0.3,0.1,0.4,0.2,0.5c0.1,0.1,0.3,0.1,0.5,0.1h0.4v1.5h-0.8c-0.3,0-0.5,0-0.7-0.1c-0.2,0-0.4-0.1-0.6-0.2
				c-0.2-0.1-0.3-0.3-0.4-0.5c-0.1-0.2-0.1-0.5-0.1-0.9C82.6,117,82.6,109.8,82.6,109.8z"/>
			<path class="st0" d="M84.7,117.3c0,0,0-0.1,0.1-0.1c0.1,0,0.2,0,0.3,0h0.5c0.1,0,0.1,0,0.2,0c0.1,0,0.1,0,0.2-0.1
				c0.1,0,0.1-0.1,0.2-0.1c0-0.1,0.1-0.1,0.1-0.2v-3c0-0.1,0-0.1,0.1-0.2c0,0,0.1-0.1,0.2-0.1h1c0.1,0,0.1,0,0.2,0.1
				c0,0,0.1,0.1,0.1,0.2v3.2c0,0,0.1,0.1,0.1,0.1c0.1,0,0.1,0.1,0.2,0.1c0.1,0,0.2,0,0.2,0s0.1,0,0.2,0h0.3v1.5h-0.1
				c-0.3,0-0.6,0-0.9-0.1c-0.3-0.1-0.6-0.2-0.8-0.3c-0.1,0.1-0.2,0.1-0.4,0.2s-0.3,0.1-0.4,0.1c-0.1,0-0.3,0.1-0.4,0.1
				c-0.1,0-0.3,0-0.4,0h-0.3c-0.1,0-0.2,0-0.3,0c-0.1,0-0.1-0.1-0.1-0.1V117.3z M86.4,111c0-0.1,0-0.1,0.1-0.2
				c0.1-0.1,0.1-0.1,0.2-0.1h0.9c0.1,0,0.1,0,0.2,0.1c0.1,0.1,0.1,0.1,0.1,0.2v0.9c0,0.1,0,0.1-0.1,0.2s-0.1,0.1-0.2,0.1h-0.9
				c-0.1,0-0.2,0-0.2-0.1s-0.1-0.1-0.1-0.2V111z"/>
			<path class="st0" d="M88.4,117.3c0,0,0-0.1,0.1-0.1c0.1,0,0.2,0,0.3,0H90v-4c0-0.1,0-0.1,0.1-0.2c0,0,0.1-0.1,0.2-0.1h1
				c0.1,0,0.1,0,0.2,0.1c0,0,0.1,0.1,0.1,0.2v0.4c0.2-0.1,0.4-0.3,0.7-0.4c0.2-0.1,0.5-0.2,0.7-0.2c0.2-0.1,0.5-0.1,0.7-0.1
				c0.2,0,0.4,0,0.5,0c0.5,0,1,0.1,1.4,0.2s0.8,0.3,1.1,0.5c0.3,0.2,0.5,0.6,0.7,1c0.2,0.4,0.2,0.9,0.2,1.5v0.3c0,0.1,0,0.1,0,0.2
				s0,0.2,0,0.2c0,0.1,0,0.2,0,0.2c0,0.1,0,0.1,0,0.2h0.9v1.5h-9.5c-0.1,0-0.2,0-0.3,0c-0.1,0-0.1-0.1-0.1-0.1
				C88.4,118.5,88.4,117.3,88.4,117.3z M91.5,117.1c0.2,0,0.4,0,0.6,0c0.2,0,0.5,0,0.8,0h2.7c0.1,0,0.2-0.1,0.2-0.2
				c0-0.1,0.1-0.3,0.1-0.6v-0.2c0-0.4,0-0.7-0.1-0.9s-0.2-0.4-0.4-0.6c-0.2-0.1-0.4-0.3-0.7-0.3c-0.3-0.1-0.6-0.1-1-0.1
				c-0.1,0-0.3,0-0.5,0s-0.4,0-0.6,0.1c-0.2,0-0.4,0.1-0.6,0.2c-0.2,0.1-0.4,0.2-0.5,0.3L91.5,117.1L91.5,117.1z"/>
			<path class="st0" d="M97.9,117.3c0,0,0-0.1,0.1-0.1c0.1,0,0.2,0,0.3,0h0.8c0.2,0,0.3,0,0.4-0.1c0.1,0,0.1-0.1,0.1-0.3v-6.9
				c0-0.1,0-0.1,0.1-0.2c0,0,0.1-0.1,0.2-0.1h1.1c0.1,0,0.1,0,0.2,0.1c0,0,0.1,0.1,0.1,0.2v6.9c0,0.2,0,0.4,0,0.7c0,0.3,0,0.5,0,0.7
				c0,0.1,0,0.1-0.1,0.2c0,0.1-0.1,0.1-0.2,0.1c-0.1,0-0.2,0-0.4,0.1c-0.2,0-0.3,0-0.5,0c-0.2,0-0.4,0-0.6,0c-0.2,0-0.4,0-0.5,0
				h-0.5c-0.1,0-0.2,0-0.3,0c-0.1,0-0.1-0.1-0.1-0.1L97.9,117.3L97.9,117.3z"/>
			<path class="st0" d="M102.9,109.8c0-0.1,0-0.1,0.1-0.2c0,0,0.1-0.1,0.2-0.1h1.1c0.1,0,0.1,0,0.2,0.1c0,0,0.1,0.1,0.1,0.2v8.5
				c0,0.1,0,0.1-0.1,0.2c0,0.1-0.1,0.1-0.2,0.1h-1.1c-0.1,0-0.1,0-0.2-0.1c0-0.1-0.1-0.1-0.1-0.2V109.8z"/>
			<path class="st0" d="M109,115.8c0-0.9,0.3-1.7,0.8-2.2c0.5-0.5,1.3-0.8,2.4-0.8c0.3,0,0.6,0,0.9,0c0.3,0,0.6,0.1,0.8,0.1
				c0.1,0,0.1,0.1,0.2,0.1c0,0,0,0.1,0,0.1v3.3c0,0.3,0.1,0.4,0.2,0.5c0.1,0.1,0.3,0.1,0.6,0.1h0.3v1.5h-0.5c-0.4,0-0.7-0.1-1-0.2
				c-0.3-0.1-0.5-0.3-0.6-0.5c-0.2,0.2-0.4,0.3-0.6,0.4c-0.3,0.1-0.5,0.1-0.8,0.1h-0.2c-0.3,0-0.6,0-0.9-0.1
				c-0.3-0.1-0.5-0.2-0.8-0.4c-0.2-0.2-0.4-0.4-0.5-0.8c-0.1-0.3-0.2-0.7-0.2-1.1L109,115.8L109,115.8z M109.9,110.5
				c0-0.1,0-0.1,0.1-0.2c0.1-0.1,0.1-0.1,0.2-0.1h0.8c0.1,0,0.1,0,0.2,0.1c0.1,0.1,0.1,0.1,0.1,0.2v0.9c0,0.1,0,0.1-0.1,0.2
				c-0.1,0.1-0.1,0.1-0.2,0.1h-0.8c-0.1,0-0.1,0-0.2-0.1c-0.1-0.1-0.1-0.1-0.1-0.2C109.9,111.4,109.9,110.5,109.9,110.5z
				 M110.5,115.7c0,0.4,0.1,0.8,0.3,1c0.2,0.2,0.4,0.3,0.8,0.3h0.2c0.3,0,0.5,0,0.6-0.1c0.1-0.1,0.2-0.2,0.2-0.4v-2.2
				c0,0-0.1,0-0.3,0c-0.1,0-0.2,0-0.3,0c-0.5,0-0.9,0.1-1.1,0.3c-0.3,0.2-0.4,0.6-0.4,1L110.5,115.7L110.5,115.7z M112.1,110.5
				c0-0.1,0-0.1,0.1-0.2s0.1-0.1,0.2-0.1h0.8c0.1,0,0.1,0,0.2,0.1c0.1,0.1,0.1,0.1,0.1,0.2v0.9c0,0.1,0,0.1-0.1,0.2
				c-0.1,0.1-0.1,0.1-0.2,0.1h-0.8c-0.1,0-0.1,0-0.2-0.1s-0.1-0.1-0.1-0.2V110.5z"/>
			<path class="st0" d="M114.7,117.3c0,0,0-0.1,0.1-0.1c0.1,0,0.2,0,0.3,0h0.5c0.1,0,0.1,0,0.2,0c0.1,0,0.1,0,0.2-0.1
				c0.1,0,0.1-0.1,0.2-0.1c0-0.1,0.1-0.1,0.1-0.2v-3c0-0.1,0-0.1,0.1-0.2c0,0,0.1-0.1,0.2-0.1h1c0.1,0,0.1,0,0.2,0.1
				c0,0,0.1,0.1,0.1,0.2v3.2c0,0,0.1,0.1,0.1,0.1c0.1,0,0.1,0.1,0.2,0.1c0.1,0,0.2,0,0.2,0s0.1,0,0.2,0h0.3v1.5h-0.1
				c-0.3,0-0.6,0-0.9-0.1s-0.6-0.2-0.8-0.3c-0.1,0.1-0.2,0.1-0.4,0.2s-0.3,0.1-0.4,0.1c-0.1,0-0.3,0.1-0.4,0.1s-0.3,0-0.4,0h-0.3
				c-0.1,0-0.2,0-0.3,0c-0.1,0-0.1-0.1-0.1-0.1V117.3z M115.1,119.9c0-0.1,0-0.1,0.1-0.2c0.1-0.1,0.1-0.1,0.2-0.1h0.8
				c0.1,0,0.1,0,0.2,0.1c0.1,0.1,0.1,0.1,0.1,0.2v0.9c0,0.1,0,0.1-0.1,0.2c-0.1,0.1-0.1,0.1-0.2,0.1h-0.8c-0.1,0-0.1,0-0.2-0.1
				c-0.1-0.1-0.1-0.1-0.1-0.2C115.1,120.9,115.1,119.9,115.1,119.9z M117.3,119.9c0-0.1,0-0.1,0.1-0.2s0.1-0.1,0.2-0.1h0.8
				c0.1,0,0.1,0,0.2,0.1c0.1,0.1,0.1,0.1,0.1,0.2v0.9c0,0.1,0,0.1-0.1,0.2c-0.1,0.1-0.1,0.1-0.2,0.1h-0.8c-0.1,0-0.1,0-0.2-0.1
				s-0.1-0.1-0.1-0.2V119.9z"/>
			<path class="st0" d="M118.4,117.3c0,0,0-0.1,0.1-0.1c0.1,0,0.2,0,0.3,0h0.4c0.1,0,0.1,0,0.2,0c0.1,0,0.1,0,0.2,0
				c0.1,0,0.1,0,0.2-0.1c0,0,0.1-0.1,0.1-0.2c0-0.1,0-0.2,0-0.3v-1c0-0.9,0.2-1.5,0.7-2c0.5-0.4,1.1-0.7,1.9-0.7
				c0.8,0,1.4,0.2,1.9,0.7s0.7,1.1,0.7,2v0.7c0,0.1,0,0.2,0,0.2c0,0.1,0,0.2,0,0.2c0,0.1,0.1,0.1,0.1,0.2c0.1,0,0.1,0.1,0.2,0.1
				s0.1,0,0.2,0.1c0.1,0,0.1,0,0.2,0h0.3v1.5h-0.2c-0.3,0-0.5,0-0.8-0.1c-0.3-0.1-0.5-0.2-0.7-0.3c-0.2,0.2-0.5,0.4-0.8,0.5
				c-0.3,0.1-0.7,0.2-1.1,0.2s-0.8-0.1-1.2-0.2c-0.4-0.1-0.7-0.3-0.9-0.5c-0.2,0.2-0.4,0.3-0.6,0.3c-0.3,0.1-0.5,0.1-0.8,0.1h-0.3
				c-0.1,0-0.2,0-0.3,0c-0.1,0-0.1-0.1-0.1-0.1L118.4,117.3L118.4,117.3z M121.3,115.7v0.5c0,0.2,0,0.4,0,0.5
				c0.1,0.3,0.2,0.5,0.4,0.6c0.2,0.1,0.4,0.2,0.7,0.2c0.4,0,0.7-0.1,0.9-0.3c0.2-0.2,0.3-0.5,0.3-1v-0.5c0-0.5-0.1-0.8-0.3-1
				c-0.2-0.2-0.5-0.3-0.9-0.3s-0.7,0.1-0.9,0.3C121.4,114.8,121.3,115.2,121.3,115.7z"/>
			<path class="st0" d="M125.6,117.3c0,0,0-0.1,0.1-0.1c0.1,0,0.2,0,0.3,0h0.6c0.1,0,0.1,0,0.2,0c0.1,0,0.1,0,0.2-0.1
				c0.1,0,0.1-0.1,0.2-0.1c0-0.1,0.1-0.1,0.1-0.2v-3c0-0.1,0-0.1,0.1-0.2c0,0,0.1-0.1,0.2-0.1h1c0.1,0,0.1,0,0.2,0.1
				c0,0,0.1,0.1,0.1,0.2v3.2c0,0,0.1,0.1,0.1,0.1c0.1,0,0.1,0.1,0.2,0.1c0.1,0,0.2,0,0.2,0s0.1,0,0.2,0h0.3v1.5h-0.1
				c-0.3,0-0.6,0-0.9-0.1s-0.6-0.2-0.8-0.3c-0.1,0.1-0.2,0.1-0.4,0.2c-0.1,0.1-0.3,0.1-0.4,0.1c-0.1,0-0.3,0.1-0.4,0.1s-0.3,0-0.4,0
				H126c-0.1,0-0.2,0-0.3,0c-0.1,0-0.1-0.1-0.1-0.1L125.6,117.3L125.6,117.3z M127.2,111c0-0.1,0-0.1,0.1-0.2
				c0.1-0.1,0.1-0.1,0.2-0.1h0.9c0.1,0,0.1,0,0.2,0.1c0.1,0.1,0.1,0.1,0.1,0.2v0.9c0,0.1,0,0.1-0.1,0.2s-0.1,0.1-0.2,0.1h-0.9
				c-0.1,0-0.2,0-0.2-0.1c-0.1-0.1-0.1-0.1-0.1-0.2V111z"/>
			<path class="st0" d="M129.3,117.3c0,0,0-0.1,0.1-0.1c0.1,0,0.2,0,0.3,0h0.5c0.1,0,0.1,0,0.2,0c0.1,0,0.1,0,0.2-0.1
				c0.1,0,0.1-0.1,0.2-0.1c0-0.1,0.1-0.1,0.1-0.2v-3c0-0.1,0-0.1,0.1-0.2c0,0,0.1-0.1,0.2-0.1h1c0.1,0,0.1,0,0.2,0.1
				c0,0,0.1,0.1,0.1,0.2v3.2c0,0,0.1,0.1,0.1,0.1c0.1,0,0.1,0.1,0.2,0.1c0.1,0,0.2,0,0.2,0s0.1,0,0.2,0h0.3v1.5h-0.1
				c-0.3,0-0.6,0-0.9-0.1c-0.3-0.1-0.6-0.2-0.8-0.3c-0.1,0.1-0.2,0.1-0.4,0.2s-0.3,0.1-0.4,0.1c-0.1,0-0.3,0.1-0.4,0.1s-0.3,0-0.4,0
				h-0.3c-0.1,0-0.2,0-0.3,0c-0.1,0-0.1-0.1-0.1-0.1V117.3z M129.9,111c0-0.1,0-0.1,0.1-0.2c0.1-0.1,0.1-0.1,0.2-0.1h0.8
				c0.1,0,0.1,0,0.2,0.1c0.1,0.1,0.1,0.1,0.1,0.2v0.9c0,0.1,0,0.1-0.1,0.2c-0.1,0.1-0.1,0.1-0.2,0.1h-0.8c-0.1,0-0.1,0-0.2-0.1
				c-0.1-0.1-0.1-0.1-0.1-0.2C129.9,111.9,129.9,111,129.9,111z M132.1,111c0-0.1,0-0.1,0.1-0.2c0.1-0.1,0.1-0.1,0.2-0.1h0.8
				c0.1,0,0.1,0,0.2,0.1c0.1,0.1,0.1,0.1,0.1,0.2v0.9c0,0.1,0,0.1-0.1,0.2s-0.1,0.1-0.2,0.1h-0.8c-0.1,0-0.1,0-0.2-0.1
				s-0.1-0.1-0.1-0.2V111z"/>
			<path class="st0" d="M133,117.3c0,0,0-0.1,0.1-0.1c0.1,0,0.2,0,0.3,0h0.8c0.2,0,0.3,0,0.4-0.1c0.1,0,0.1-0.1,0.1-0.3v-6.9
				c0-0.1,0-0.1,0.1-0.2s0.1-0.1,0.2-0.1h1.1c0.1,0,0.1,0,0.2,0.1c0,0,0.1,0.1,0.1,0.2v6.9c0,0.2,0,0.4,0,0.7c0,0.3,0,0.5,0,0.7
				c0,0.1,0,0.1-0.1,0.2c0,0.1-0.1,0.1-0.2,0.1c-0.1,0-0.2,0-0.4,0.1c-0.2,0-0.3,0-0.5,0c-0.2,0-0.4,0-0.6,0c-0.2,0-0.4,0-0.5,0
				h-0.5c-0.1,0-0.2,0-0.3,0c-0.1,0-0.1-0.1-0.1-0.1L133,117.3L133,117.3z"/>
			<path class="st0" d="M138,109.8c0-0.1,0-0.1,0.1-0.2c0,0,0.1-0.1,0.2-0.1h1.1c0.1,0,0.1,0,0.2,0.1c0,0,0.1,0.1,0.1,0.2v8.5
				c0,0.1,0,0.1-0.1,0.2c0,0.1-0.1,0.1-0.2,0.1h-1.1c-0.1,0-0.1,0-0.2-0.1c0-0.1-0.1-0.1-0.1-0.2V109.8z"/>
			<path class="st0" d="M144.1,117.8c0-0.2,0-0.4,0-0.7c0-0.3,0.1-0.6,0.1-0.8c0-0.1,0.1-0.2,0.2-0.2h0.9c0.1,0,0.2,0.1,0.2,0.2
				c0,0.2,0,0.4,0,0.5c0,0.2,0,0.3,0,0.5c0,0.4,0,0.8,0.1,1.2c0.1,0.3,0.3,0.6,0.5,0.9c0.2,0.2,0.5,0.4,0.9,0.5
				c0.4,0.1,0.9,0.2,1.5,0.2c0.1,0,0.2,0,0.4,0s0.4,0,0.5,0c0.2,0,0.4,0,0.5,0c0.2,0,0.3,0,0.4,0v-1.6c-0.1,0-0.1,0.1-0.2,0.1
				c-0.1,0-0.2,0-0.3,0.1c-0.1,0-0.2,0-0.3,0c-0.1,0-0.2,0-0.3,0c-0.8,0-1.4-0.2-1.9-0.6c-0.5-0.4-0.7-1.1-0.7-1.9v-0.2
				c0-0.9,0.3-1.7,0.8-2.2c0.6-0.5,1.3-0.8,2.3-0.8c0.2,0,0.3,0,0.5,0s0.3,0,0.5,0c0.2,0,0.3,0,0.4,0.1c0.1,0,0.3,0.1,0.3,0.1
				c0.1,0,0.1,0.1,0.2,0.1c0,0,0,0.1,0,0.1v5.6c0,0.1,0,0.3,0,0.5c0,0.2,0,0.4,0,0.6s0,0.4,0,0.6s0,0.4,0,0.5c0,0.1-0.1,0.2-0.2,0.2
				c-0.4,0.1-0.9,0.1-1.4,0.1s-1.1,0-1.5,0c-1.5,0-2.6-0.3-3.4-0.9C144.5,120.1,144.1,119.1,144.1,117.8z M147.6,110.5
				c0-0.1,0-0.1,0.1-0.2s0.1-0.1,0.2-0.1h0.8c0.1,0,0.1,0,0.2,0.1s0.1,0.1,0.1,0.2v0.9c0,0.1,0,0.1-0.1,0.2
				c-0.1,0.1-0.1,0.1-0.2,0.1h-0.8c-0.1,0-0.1,0-0.2-0.1c-0.1-0.1-0.1-0.1-0.1-0.2C147.6,111.4,147.6,110.5,147.6,110.5z
				 M150.4,114.3c-0.1,0-0.2,0-0.3,0c-0.1,0-0.3,0-0.4,0c-0.4,0-0.8,0.1-1.1,0.4c-0.2,0.3-0.4,0.6-0.4,1.1v0.2c0,0.4,0.1,0.8,0.3,1
				c0.2,0.2,0.5,0.3,0.9,0.3c0.3,0,0.5,0,0.7,0c0.2,0,0.3-0.1,0.3-0.3L150.4,114.3L150.4,114.3z M149.8,110.5c0-0.1,0-0.1,0.1-0.2
				s0.1-0.1,0.2-0.1h0.8c0.1,0,0.1,0,0.2,0.1s0.1,0.1,0.1,0.2v0.9c0,0.1,0,0.1-0.1,0.2s-0.1,0.1-0.2,0.1h-0.8c-0.1,0-0.1,0-0.2-0.1
				s-0.1-0.1-0.1-0.2V110.5z"/>
			<path class="st0" d="M153.8,120.3c0-0.1,0.1-0.2,0.2-0.2h1.1c0.3,0,0.6,0,0.8,0c0.2,0,0.4-0.1,0.6-0.2c0.2-0.1,0.3-0.2,0.4-0.3
				c0.1-0.1,0.1-0.3,0.1-0.6l0-0.5c-0.1,0-0.1,0.1-0.2,0.1c-0.1,0-0.2,0-0.3,0.1c-0.1,0-0.2,0-0.3,0c-0.1,0-0.2,0-0.2,0
				c-0.8,0-1.4-0.2-1.9-0.7c-0.5-0.4-0.7-1.1-0.7-2v-0.2c0-0.9,0.3-1.7,0.8-2.2c0.6-0.5,1.3-0.8,2.4-0.8c0.1,0,0.3,0,0.5,0
				c0.2,0,0.3,0,0.5,0c0.2,0,0.3,0,0.4,0.1c0.1,0,0.3,0.1,0.3,0.1c0.1,0,0.1,0.1,0.2,0.1c0,0,0,0.1,0,0.1v5.4c0,0.6-0.1,1-0.2,1.4
				c-0.2,0.4-0.4,0.6-0.7,0.8c-0.3,0.2-0.6,0.3-1,0.4c-0.4,0.1-0.8,0.1-1.2,0.1c-0.1,0-0.2,0-0.3,0s-0.3,0-0.4,0c-0.1,0-0.3,0-0.4,0
				c-0.1,0-0.2,0-0.3,0c-0.1,0-0.1,0-0.2-0.1c0,0,0-0.1,0-0.1L153.8,120.3L153.8,120.3z M157,114.3c-0.2,0-0.5,0-0.7,0
				c-0.5,0-0.8,0.1-1.1,0.4c-0.2,0.3-0.4,0.6-0.4,1.1v0.2c0,0.4,0.1,0.8,0.3,1c0.2,0.2,0.5,0.3,1,0.3c0.3,0,0.5,0,0.6,0
				c0.2,0,0.3-0.1,0.3-0.3C157,116.8,157,114.3,157,114.3z"/>
			<path class="st0" d="M160,117.3c0-0.1,0-0.1,0.1-0.2c0,0,0.1-0.1,0.2-0.1h3.1l0-1.1c0-0.3-0.1-0.6-0.1-0.8
				c-0.1-0.2-0.2-0.4-0.4-0.6c-0.2-0.2-0.4-0.3-0.6-0.4c-0.3-0.1-0.6-0.1-0.9-0.1c0,0-0.1,0-0.1,0s-0.1,0-0.2,0c-0.1,0-0.1,0-0.2,0
				s-0.1,0-0.2,0c-0.1,0-0.2-0.1-0.2-0.2v-0.9c0-0.1,0-0.1,0.1-0.2c0,0,0.1-0.1,0.2-0.1c0.2,0,0.4-0.1,0.7-0.1s0.4,0,0.5,0
				c0.6,0,1.1,0.1,1.5,0.3c0.4,0.2,0.7,0.4,0.9,0.7c0.2,0.3,0.4,0.6,0.5,1c0.1,0.4,0.2,0.8,0.2,1.2l0,1.1h0.7v1.5h-5.3
				c-0.1,0-0.1,0-0.2-0.1c0,0-0.1-0.1-0.1-0.2L160,117.3L160,117.3z"/>
			<path class="st0" d="M165,117.3c0,0,0-0.1,0.1-0.1c0.1,0,0.2,0,0.3,0h0.5c0.1,0,0.1,0,0.2,0c0.1,0,0.1,0,0.2-0.1
				c0.1,0,0.1-0.1,0.2-0.1c0-0.1,0.1-0.1,0.1-0.2v-3c0-0.1,0-0.1,0.1-0.2c0,0,0.1-0.1,0.2-0.1h1c0.1,0,0.1,0,0.2,0.1
				c0,0,0.1,0.1,0.1,0.2v3.2c0,0,0.1,0.1,0.1,0.1s0.1,0.1,0.2,0.1c0.1,0,0.2,0,0.2,0s0.1,0,0.2,0h0.3v1.5h-0.1c-0.3,0-0.6,0-0.9-0.1
				c-0.3-0.1-0.6-0.2-0.8-0.3c-0.1,0.1-0.2,0.1-0.4,0.2c-0.1,0.1-0.3,0.1-0.4,0.1c-0.1,0-0.3,0.1-0.4,0.1c-0.1,0-0.3,0-0.4,0h-0.3
				c-0.1,0-0.2,0-0.3,0c-0.1,0-0.1-0.1-0.1-0.1L165,117.3L165,117.3z M166.7,111c0-0.1,0-0.1,0.1-0.2c0.1-0.1,0.1-0.1,0.2-0.1h0.9
				c0.1,0,0.1,0,0.2,0.1c0.1,0.1,0.1,0.1,0.1,0.2v0.9c0,0.1,0,0.1-0.1,0.2c-0.1,0.1-0.1,0.1-0.2,0.1h-0.9c-0.1,0-0.2,0-0.2-0.1
				c-0.1-0.1-0.1-0.1-0.1-0.2V111z"/>
			<path class="st0" d="M168.7,117.3c0,0,0-0.1,0.1-0.1c0.1,0,0.2,0,0.3,0h1.2v-4c0-0.1,0-0.1,0.1-0.2c0,0,0.1-0.1,0.2-0.1h1
				c0.1,0,0.1,0,0.2,0.1c0,0,0.1,0.1,0.1,0.2v0.4c0.2-0.1,0.4-0.3,0.7-0.4c0.2-0.1,0.5-0.2,0.7-0.2c0.2-0.1,0.5-0.1,0.7-0.1
				c0.2,0,0.4,0,0.5,0c0.5,0,1,0.1,1.4,0.2s0.8,0.3,1.1,0.5c0.3,0.2,0.5,0.6,0.7,1c0.2,0.4,0.2,0.9,0.2,1.5v0.5c0,0.3,0,0.6,0,0.9
				c0,0.3-0.1,0.6-0.1,0.9c0,0.1-0.1,0.2-0.1,0.2c-0.1,0.1-0.1,0.1-0.3,0.1c-0.1,0-0.3,0-0.5,0c-0.3,0-0.5,0-0.8,0
				c-0.3,0-0.6,0-0.9,0s-0.5,0-0.7,0h-5.2c-0.1,0-0.2,0-0.3,0c-0.1,0-0.1-0.1-0.1-0.1L168.7,117.3L168.7,117.3z M171.8,117.1
				c0.2,0,0.4,0,0.6,0s0.5,0,0.8,0h2.8c0.1,0,0.2-0.1,0.2-0.1c0-0.1,0-0.3,0-0.6v-0.2c0-0.4,0-0.7-0.1-0.9s-0.2-0.4-0.4-0.6
				c-0.2-0.1-0.4-0.3-0.7-0.3c-0.3-0.1-0.6-0.1-1-0.1c-0.1,0-0.3,0-0.5,0c-0.2,0-0.4,0-0.6,0.1c-0.2,0-0.4,0.1-0.6,0.2
				c-0.2,0.1-0.4,0.2-0.5,0.3V117.1z"/>
		</g>
		<g>
			<g>
				<path class="st0" d="M19,131.7c0,0.3,0,0.5-0.1,0.8c-0.1,0.3-0.2,0.5-0.4,0.7c-0.2,0.2-0.5,0.4-0.8,0.5s-0.8,0.2-1.3,0.2
					c-0.4,0-0.7,0-1-0.1s-0.6-0.1-0.8-0.1c-0.1,0-0.1,0-0.1-0.1c0,0-0.1-0.1-0.1-0.1v-0.7c0-0.1,0-0.1,0.1-0.1c0,0,0.1-0.1,0.1-0.1
					h0c0.1,0,0.2,0,0.4,0c0.2,0,0.3,0,0.5,0c0.2,0,0.3,0,0.5,0c0.2,0,0.3,0,0.4,0c0.5,0,0.8-0.1,0.9-0.2s0.3-0.4,0.3-0.7
					c0-0.1,0-0.2,0-0.3c0-0.1-0.1-0.2-0.1-0.2c-0.1-0.1-0.2-0.1-0.3-0.2c-0.1-0.1-0.2-0.2-0.4-0.3l-1.3-0.8
					c-0.2-0.1-0.4-0.3-0.6-0.4c-0.2-0.1-0.3-0.3-0.4-0.4c-0.1-0.2-0.2-0.3-0.2-0.5c0-0.2-0.1-0.3-0.1-0.5c0-0.3,0-0.5,0.1-0.8
					c0.1-0.2,0.2-0.4,0.4-0.6c0.2-0.2,0.5-0.3,0.8-0.4c0.3-0.1,0.7-0.1,1.2-0.1c0.2,0,0.4,0,0.5,0c0.2,0,0.4,0,0.6,0
					c0.2,0,0.4,0,0.5,0.1c0.1,0,0.3,0,0.4,0.1c0.1,0,0.1,0,0.1,0.1c0,0,0.1,0.1,0.1,0.1v0.8c0,0.1,0,0.1,0,0.1c0,0-0.1,0.1-0.1,0.1
					h0c-0.3,0-0.7-0.1-1-0.1c-0.3,0-0.7,0-1,0c-0.4,0-0.7,0.1-0.8,0.2s-0.3,0.3-0.3,0.5c0,0.1,0,0.2,0,0.2c0,0.1,0.1,0.1,0.1,0.2
					c0.1,0.1,0.1,0.1,0.3,0.2c0.1,0.1,0.2,0.2,0.4,0.2l1.2,0.7c0.3,0.2,0.5,0.3,0.7,0.5c0.2,0.2,0.3,0.3,0.4,0.5s0.2,0.4,0.2,0.5
					C18.9,131.3,19,131.5,19,131.7z"/>
				<path class="st0" d="M24.4,133.5c0,0.1,0,0.1-0.1,0.1s-0.1,0.1-0.1,0.1h-0.9c-0.1,0-0.1,0-0.1-0.1s-0.1-0.1-0.1-0.1v-0.2
					c-0.2,0.1-0.5,0.3-0.7,0.3s-0.5,0.1-0.7,0.1c-0.2,0-0.4,0-0.6-0.1c-0.2,0-0.4-0.1-0.6-0.3c-0.2-0.1-0.3-0.3-0.4-0.5
					c-0.1-0.2-0.2-0.5-0.2-0.9v0c0-0.3,0-0.5,0.1-0.8s0.2-0.4,0.4-0.6s0.5-0.3,0.8-0.3c0.3-0.1,0.7-0.1,1.1-0.1H23v-0.5
					c0-0.3-0.1-0.6-0.2-0.7c-0.1-0.1-0.4-0.2-0.7-0.2c-0.3,0-0.6,0-0.9,0s-0.5,0-0.7,0.1h-0.1c-0.1,0-0.1,0-0.1,0
					c0,0-0.1-0.1-0.1-0.1v-0.6c0-0.1,0.1-0.2,0.2-0.2c0.2,0,0.4-0.1,0.7-0.1c0.3,0,0.6-0.1,1-0.1c0.7,0,1.3,0.2,1.7,0.5
					c0.4,0.3,0.6,0.8,0.6,1.5L24.4,133.5L24.4,133.5z M23,131.2h-0.6c-0.2,0-0.4,0-0.6,0.1c-0.1,0-0.3,0.1-0.4,0.2s-0.1,0.2-0.2,0.3
					s0,0.2,0,0.4v0c0,0.3,0.1,0.4,0.2,0.5c0.1,0.1,0.3,0.1,0.6,0.1c0.2,0,0.4,0,0.6-0.1c0.2-0.1,0.4-0.1,0.5-0.2
					C23,132.5,23,131.2,23,131.2z"/>
				<path class="st0" d="M30.4,133.5c0,0.1,0,0.1-0.1,0.1s-0.1,0.1-0.1,0.1h-0.9c-0.1,0-0.1,0-0.1-0.1c0,0-0.1-0.1-0.1-0.1v-0.2
					c-0.3,0.2-0.5,0.3-0.8,0.4c-0.2,0.1-0.5,0.1-0.9,0.1c-0.3,0-0.5,0-0.7-0.1c-0.2-0.1-0.4-0.2-0.5-0.3c-0.2-0.2-0.3-0.4-0.4-0.8
					c-0.1-0.3-0.1-0.7-0.1-1.1v-3.3c0-0.1,0-0.1,0.1-0.1c0,0,0.1-0.1,0.1-0.1h0.9c0.1,0,0.1,0,0.1,0.1c0,0,0.1,0.1,0.1,0.1v3.3
					c0,0.3,0,0.5,0,0.6s0.1,0.3,0.2,0.4c0.1,0.1,0.2,0.1,0.3,0.1c0.1,0,0.2,0,0.4,0c0.1,0,0.2,0,0.3,0s0.2-0.1,0.3-0.1
					c0.1,0,0.2-0.1,0.3-0.1c0.1,0,0.2-0.1,0.3-0.1v-4.1c0-0.1,0-0.1,0.1-0.1c0,0,0.1-0.1,0.1-0.1h0.9c0.1,0,0.1,0,0.1,0.1
					c0,0,0.1,0.1,0.1,0.1C30.4,128.2,30.4,133.5,30.4,133.5z"/>
				<path class="st0" d="M36.3,133.3c0,0.1,0,0.1-0.1,0.2s-0.1,0.1-0.2,0.1c-0.3,0.1-0.7,0.1-1,0.2c-0.4,0-0.7,0.1-1,0.1
					c-0.8,0-1.4-0.2-1.8-0.7c-0.4-0.5-0.6-1.1-0.6-1.9v-0.8c0-0.8,0.2-1.4,0.6-1.9c0.4-0.5,1-0.7,1.8-0.7c0.1,0,0.3,0,0.4,0
					c0.2,0,0.4,0,0.5,0.1v-1.8c0-0.1,0-0.1,0.1-0.1s0.1-0.1,0.1-0.1h0.9c0.1,0,0.1,0,0.1,0.1s0.1,0.1,0.1,0.1L36.3,133.3L36.3,133.3
					z M34.9,129.1c-0.1,0-0.3,0-0.5-0.1s-0.4,0-0.5,0c-0.2,0-0.4,0-0.5,0.1c-0.1,0.1-0.3,0.2-0.3,0.3c-0.1,0.1-0.1,0.3-0.2,0.5
					s0,0.4,0,0.6v0.8c0,0.2,0,0.4,0,0.6c0,0.2,0.1,0.3,0.2,0.5c0.1,0.1,0.2,0.2,0.3,0.3c0.1,0.1,0.3,0.1,0.5,0.1c0.2,0,0.4,0,0.6,0
					c0.2,0,0.3,0,0.4-0.1C34.9,132.6,34.9,129.1,34.9,129.1z"/>
				<path class="st0" d="M39,127c0,0.1,0,0.1-0.1,0.1s-0.1,0.1-0.1,0.1h-1c-0.1,0-0.1,0-0.1-0.1s-0.1-0.1-0.1-0.1v-0.9
					c0-0.1,0-0.1,0.1-0.1s0.1-0.1,0.1-0.1h1c0.1,0,0.1,0,0.1,0.1s0.1,0.1,0.1,0.1V127z M39,133.5c0,0.1,0,0.1-0.1,0.1
					c0,0-0.1,0.1-0.1,0.1h-0.9c-0.1,0-0.1,0-0.1-0.1s-0.1-0.1-0.1-0.1v-5.3c0-0.1,0-0.1,0.1-0.1c0,0,0.1-0.1,0.1-0.1h0.9
					c0.1,0,0.1,0,0.1,0.1c0,0,0.1,0.1,0.1,0.1V133.5z"/>
				<path class="st0" d="M44.4,133.5c0,0.1,0,0.1-0.1,0.1s-0.1,0.1-0.1,0.1h-1c-0.1,0-0.1,0-0.1-0.1s-0.1-0.1-0.1-0.1v-7.2
					c0-0.1,0-0.1,0.1-0.1c0,0,0.1-0.1,0.1-0.1h1c0.1,0,0.1,0,0.1,0.1s0.1,0.1,0.1,0.1V133.5z"/>
				<path class="st0" d="M50.6,133.5c0,0.1,0,0.1-0.1,0.1c0,0-0.1,0.1-0.1,0.1h-0.9c-0.1,0-0.1,0-0.1-0.1s-0.1-0.1-0.1-0.1v-3.3
					c0-0.2,0-0.4,0-0.6s-0.1-0.3-0.1-0.3s-0.1-0.1-0.3-0.2c-0.1,0-0.3-0.1-0.5-0.1c-0.2,0-0.4,0-0.5,0.1s-0.4,0.2-0.6,0.3v4.1
					c0,0.1,0,0.1-0.1,0.1c0,0-0.1,0.1-0.1,0.1h-0.9c-0.1,0-0.1,0-0.1-0.1s-0.1-0.1-0.1-0.1v-5.3c0-0.1,0-0.1,0.1-0.1
					c0,0,0.1-0.1,0.1-0.1H47c0.1,0,0.1,0,0.1,0.1c0,0,0.1,0.1,0.1,0.1v0.2c0.1-0.1,0.3-0.2,0.4-0.2c0.1-0.1,0.3-0.1,0.4-0.1
					c0.1,0,0.3-0.1,0.4-0.1c0.1,0,0.3,0,0.5,0c0.4,0,0.7,0.1,0.9,0.2c0.2,0.1,0.4,0.3,0.5,0.5c0.1,0.2,0.2,0.4,0.3,0.7
					c0,0.3,0.1,0.6,0.1,0.9L50.6,133.5L50.6,133.5z"/>
				<path class="st0" d="M56.5,133.3c0,0.1,0,0.1-0.1,0.2c0,0-0.1,0.1-0.2,0.1c-0.3,0.1-0.7,0.1-1,0.2c-0.4,0-0.7,0.1-1,0.1
					c-0.8,0-1.4-0.2-1.8-0.7c-0.4-0.5-0.6-1.1-0.6-1.9v-0.8c0-0.8,0.2-1.4,0.6-1.9c0.4-0.5,1-0.7,1.8-0.7c0.1,0,0.3,0,0.4,0
					c0.2,0,0.4,0,0.5,0.1v-1.8c0-0.1,0-0.1,0.1-0.1s0.1-0.1,0.1-0.1h0.9c0.1,0,0.1,0,0.1,0.1s0.1,0.1,0.1,0.1L56.5,133.3L56.5,133.3
					z M55.1,129.1c-0.1,0-0.3,0-0.5-0.1c-0.2,0-0.4,0-0.5,0c-0.2,0-0.4,0-0.5,0.1c-0.1,0.1-0.3,0.2-0.3,0.3
					c-0.1,0.1-0.1,0.3-0.2,0.5c0,0.2,0,0.4,0,0.6v0.8c0,0.2,0,0.4,0,0.6c0,0.2,0.1,0.3,0.2,0.5c0.1,0.1,0.2,0.2,0.3,0.3
					c0.1,0.1,0.3,0.1,0.5,0.1c0.2,0,0.4,0,0.6,0c0.2,0,0.3,0,0.4-0.1V129.1z"/>
				<path class="st0" d="M62.5,133.5c0,0.1,0,0.1-0.1,0.1s-0.1,0.1-0.1,0.1h-0.9c-0.1,0-0.1,0-0.1-0.1s-0.1-0.1-0.1-0.1v-0.2
					c-0.3,0.2-0.5,0.3-0.8,0.4c-0.2,0.1-0.5,0.1-0.9,0.1c-0.3,0-0.5,0-0.7-0.1c-0.2-0.1-0.4-0.2-0.5-0.3c-0.2-0.2-0.3-0.4-0.4-0.8
					c-0.1-0.3-0.1-0.7-0.1-1.1v-3.3c0-0.1,0-0.1,0.1-0.1c0,0,0.1-0.1,0.1-0.1h0.9c0.1,0,0.1,0,0.1,0.1c0,0,0.1,0.1,0.1,0.1v3.3
					c0,0.3,0,0.5,0,0.6c0,0.1,0.1,0.3,0.2,0.4c0.1,0.1,0.2,0.1,0.3,0.1c0.1,0,0.2,0,0.4,0c0.1,0,0.2,0,0.3,0c0.1,0,0.2-0.1,0.3-0.1
					c0.1,0,0.2-0.1,0.3-0.1c0.1,0,0.2-0.1,0.3-0.1v-4.1c0-0.1,0-0.1,0.1-0.1c0,0,0.1-0.1,0.1-0.1h0.9c0.1,0,0.1,0,0.1,0.1
					c0,0,0.1,0.1,0.1,0.1V133.5z"/>
				<path class="st0" d="M67.7,132.2c0,0.2,0,0.4-0.1,0.6c-0.1,0.2-0.2,0.4-0.4,0.5c-0.2,0.1-0.4,0.3-0.6,0.3
					c-0.3,0.1-0.5,0.1-0.9,0.1c-0.1,0-0.2,0-0.4,0c-0.1,0-0.3,0-0.5,0c-0.2,0-0.3,0-0.5-0.1c-0.2,0-0.3-0.1-0.5-0.1
					c-0.1,0-0.2-0.1-0.2-0.2v-0.6c0,0,0-0.1,0-0.1c0,0,0.1-0.1,0.1-0.1h0c0.1,0,0.3,0,0.4,0c0.2,0,0.3,0,0.5,0c0.2,0,0.3,0,0.5,0
					c0.1,0,0.3,0,0.3,0c0.2,0,0.3,0,0.4,0c0.1,0,0.2-0.1,0.2-0.1c0.1,0,0.1-0.1,0.1-0.2c0-0.1,0-0.1,0-0.2c0-0.1,0-0.2-0.1-0.3
					c-0.1-0.1-0.2-0.2-0.3-0.3l-1.4-0.9c-0.3-0.2-0.5-0.4-0.6-0.6c-0.2-0.2-0.2-0.5-0.2-0.8c0-1,0.6-1.5,1.9-1.5c0.2,0,0.4,0,0.6,0
					c0.2,0,0.3,0,0.5,0s0.3,0,0.4,0.1c0.1,0,0.3,0.1,0.4,0.1c0.1,0,0.2,0.1,0.2,0.2v0.6c0,0.1-0.1,0.2-0.2,0.2h0c-0.1,0-0.2,0-0.3,0
					s-0.3,0-0.4,0c-0.2,0-0.3,0-0.5,0c-0.2,0-0.3,0-0.5,0c-0.2,0-0.4,0-0.5,0.1c-0.1,0.1-0.2,0.2-0.2,0.3c0,0.1,0,0.2,0.1,0.2
					c0.1,0.1,0.2,0.1,0.3,0.2l1.3,0.8c0.2,0.1,0.4,0.3,0.5,0.4c0.1,0.1,0.2,0.3,0.3,0.4c0.1,0.1,0.1,0.3,0.1,0.4
					C67.7,132,67.7,132.1,67.7,132.2z"/>
				<path class="st0" d="M71.9,133.6c0,0.1-0.1,0.2-0.2,0.2c-0.1,0-0.2,0-0.4,0.1c-0.1,0-0.2,0-0.3,0c-0.3,0-0.5,0-0.7-0.1
					c-0.2,0-0.4-0.1-0.5-0.2c-0.1-0.1-0.2-0.3-0.3-0.5c-0.1-0.2-0.1-0.5-0.1-0.8V129l-1-0.1c-0.1,0-0.1,0-0.1-0.1s-0.1-0.1-0.1-0.1
					v-0.5c0-0.1,0-0.1,0.1-0.1c0,0,0.1-0.1,0.1-0.1h1v-0.8c0-0.1,0-0.1,0.1-0.1s0.1-0.1,0.1-0.1l0.9-0.2h0c0.1,0,0.2,0.1,0.2,0.2
					v1.1h0.9c0.1,0,0.1,0,0.1,0.1s0.1,0.1,0.1,0.1v0.6c0,0.1,0,0.1-0.1,0.1s-0.1,0.1-0.1,0.1h-0.9v3.2c0,0.1,0,0.2,0,0.3
					c0,0.1,0,0.1,0.1,0.2c0,0,0.1,0.1,0.1,0.1c0.1,0,0.1,0,0.2,0h0.5c0.1,0,0.2,0.1,0.2,0.2L71.9,133.6L71.9,133.6z"/>
				<path class="st0" d="M75.8,128.8c0,0.1,0,0.1-0.1,0.1s-0.1,0.1-0.1,0.1c-0.3,0-0.5,0-0.8,0.1c-0.2,0.1-0.4,0.2-0.7,0.3v4.1
					c0,0.1,0,0.1-0.1,0.1c0,0-0.1,0.1-0.1,0.1h-0.9c-0.1,0-0.1,0-0.1-0.1s-0.1-0.1-0.1-0.1v-5.3c0-0.1,0-0.1,0.1-0.1
					c0,0,0.1-0.1,0.1-0.1h0.9c0.1,0,0.1,0,0.1,0.1c0,0,0.1,0.1,0.1,0.1v0.2c0.3-0.2,0.5-0.3,0.8-0.4c0.3-0.1,0.5-0.1,0.7-0.1
					c0.1,0,0.1,0,0.1,0.1s0.1,0.1,0.1,0.1V128.8z"/>
				<path class="st0" d="M78.1,127c0,0.1,0,0.1-0.1,0.1s-0.1,0.1-0.1,0.1h-1c-0.1,0-0.1,0-0.1-0.1s-0.1-0.1-0.1-0.1v-0.9
					c0-0.1,0-0.1,0.1-0.1s0.1-0.1,0.1-0.1h1c0.1,0,0.1,0,0.1,0.1s0.1,0.1,0.1,0.1V127z M78.1,133.5c0,0.1,0,0.1-0.1,0.1
					c0,0-0.1,0.1-0.1,0.1h-0.9c-0.1,0-0.1,0-0.1-0.1s-0.1-0.1-0.1-0.1v-5.3c0-0.1,0-0.1,0.1-0.1c0,0,0.1-0.1,0.1-0.1h0.9
					c0.1,0,0.1,0,0.1,0.1c0,0,0.1,0.1,0.1,0.1V133.5z"/>
				<path class="st0" d="M83.7,133.5c0,0.1,0,0.1-0.1,0.1s-0.1,0.1-0.1,0.1h-0.9c-0.1,0-0.1,0-0.1-0.1s-0.1-0.1-0.1-0.1v-0.2
					c-0.2,0.1-0.5,0.3-0.7,0.3s-0.5,0.1-0.7,0.1c-0.2,0-0.4,0-0.6-0.1c-0.2,0-0.4-0.1-0.6-0.3c-0.2-0.1-0.3-0.3-0.4-0.5
					c-0.1-0.2-0.2-0.5-0.2-0.9v0c0-0.3,0-0.5,0.1-0.8s0.2-0.4,0.4-0.6c0.2-0.1,0.5-0.3,0.8-0.3c0.3-0.1,0.7-0.1,1.1-0.1h0.6v-0.5
					c0-0.3-0.1-0.6-0.2-0.7s-0.4-0.2-0.7-0.2c-0.3,0-0.6,0-0.9,0s-0.5,0-0.7,0.1h-0.1c-0.1,0-0.1,0-0.1,0c0,0-0.1-0.1-0.1-0.1v-0.6
					c0-0.1,0.1-0.2,0.2-0.2c0.2,0,0.4-0.1,0.7-0.1c0.3,0,0.6-0.1,1-0.1c0.7,0,1.3,0.2,1.7,0.5c0.4,0.3,0.6,0.8,0.6,1.5L83.7,133.5
					L83.7,133.5z M82.3,131.2h-0.6c-0.2,0-0.4,0-0.6,0.1s-0.3,0.1-0.4,0.2s-0.1,0.2-0.2,0.3c0,0.1,0,0.2,0,0.4v0
					c0,0.3,0.1,0.4,0.2,0.5c0.1,0.1,0.3,0.1,0.6,0.1c0.2,0,0.4,0,0.6-0.1c0.2-0.1,0.4-0.1,0.5-0.2V131.2z"/>
				<path class="st0" d="M86.4,133.5c0,0.1,0,0.1-0.1,0.1c0,0-0.1,0.1-0.1,0.1h-0.9c-0.1,0-0.1,0-0.1-0.1s-0.1-0.1-0.1-0.1v-7.3
					c0-0.1,0-0.1,0.1-0.1s0.1-0.1,0.1-0.1h0.9c0.1,0,0.1,0,0.1,0.1c0,0,0.1,0.1,0.1,0.1V133.5z"/>
				<path class="st0" d="M95.9,130.7c0,1-0.3,1.8-0.8,2.3c-0.6,0.5-1.3,0.8-2.4,0.8c-0.2,0-0.4,0-0.6,0s-0.4,0-0.6,0
					c-0.2,0-0.4,0-0.5,0c-0.2,0-0.3,0-0.3,0c-0.1,0-0.2,0-0.2-0.1c0,0-0.1-0.1-0.1-0.2v-6.9c0-0.1,0-0.2,0.1-0.2
					c0,0,0.1-0.1,0.2-0.1c0.1,0,0.2,0,0.3,0c0.2,0,0.3,0,0.5,0c0.2,0,0.4,0,0.6,0s0.4,0,0.6,0c1,0,1.8,0.3,2.4,0.8
					c0.6,0.5,0.8,1.3,0.8,2.3V130.7z M94.5,129.2c0-0.4,0-0.7-0.1-0.9c-0.1-0.2-0.2-0.4-0.4-0.6c-0.2-0.1-0.4-0.2-0.6-0.3
					c-0.2-0.1-0.5-0.1-0.7-0.1c-0.2,0-0.4,0-0.5,0c-0.1,0-0.3,0-0.4,0v5.3c0.1,0,0.2,0,0.4,0c0.1,0,0.3,0,0.5,0c0.3,0,0.5,0,0.7-0.1
					c0.2-0.1,0.4-0.2,0.6-0.3c0.2-0.1,0.3-0.3,0.4-0.6s0.1-0.6,0.1-0.9V129.2z"/>
				<path class="st0" d="M101.8,131.1c0,0.2-0.1,0.3-0.2,0.3h-3.3v0c0,0.1,0,0.3,0.1,0.5c0,0.2,0.1,0.3,0.2,0.4
					c0.1,0.1,0.2,0.2,0.4,0.3c0.2,0.1,0.4,0.1,0.6,0.1c0.4,0,0.7,0,1.1,0c0.3,0,0.6,0,0.8-0.1h0c0.1,0,0.1,0,0.1,0
					c0,0,0.1,0.1,0.1,0.1v0.7c0,0.1,0,0.1,0,0.2c0,0-0.1,0.1-0.2,0.1c-0.2,0-0.3,0.1-0.5,0.1c-0.1,0-0.3,0-0.4,0.1s-0.3,0-0.5,0
					c-0.2,0-0.4,0-0.6,0c-0.3,0-0.5,0-0.8-0.1s-0.6-0.2-0.8-0.4c-0.2-0.2-0.4-0.5-0.6-0.8c-0.2-0.3-0.2-0.7-0.2-1.3v-0.8
					c0-0.4,0.1-0.8,0.2-1.1c0.1-0.3,0.3-0.6,0.5-0.8c0.2-0.2,0.5-0.4,0.8-0.5c0.3-0.1,0.6-0.2,1-0.2c0.4,0,0.7,0.1,1,0.2
					c0.3,0.1,0.6,0.3,0.8,0.5c0.2,0.2,0.4,0.5,0.5,0.8c0.1,0.3,0.2,0.7,0.2,1L101.8,131.1L101.8,131.1z M100.5,130.3
					c0-0.4-0.1-0.7-0.3-0.9c-0.2-0.2-0.5-0.3-0.8-0.3c-0.3,0-0.6,0.1-0.8,0.3c-0.2,0.2-0.3,0.5-0.3,0.9v0L100.5,130.3L100.5,130.3
					L100.5,130.3z"/>
				<path class="st0" d="M107.5,128.1C107.5,128.2,107.5,128.2,107.5,128.1l-1.3,4.7c-0.1,0.2-0.1,0.4-0.2,0.5
					c-0.1,0.1-0.2,0.2-0.3,0.3c-0.1,0.1-0.2,0.1-0.4,0.2c-0.1,0-0.3,0-0.4,0c-0.1,0-0.3,0-0.4,0c-0.1,0-0.3-0.1-0.4-0.2
					c-0.1-0.1-0.2-0.2-0.3-0.3s-0.2-0.3-0.2-0.5l-1.3-4.6c0,0,0,0,0-0.1c0-0.1,0.1-0.2,0.2-0.2h1c0.1,0,0.2,0.1,0.2,0.2l1,4.3
					c0,0.1,0,0.2,0.1,0.2c0,0,0.1,0.1,0.1,0.1s0.1,0,0.1-0.1c0,0,0.1-0.1,0.1-0.2l1-4.3c0-0.1,0.1-0.2,0.2-0.2h1
					C107.5,128,107.5,128,107.5,128.1z"/>
				<path class="st0" d="M112.9,131.1c0,0.2-0.1,0.3-0.2,0.3h-3.3v0c0,0.1,0,0.3,0.1,0.5c0,0.2,0.1,0.3,0.2,0.4
					c0.1,0.1,0.2,0.2,0.4,0.3c0.2,0.1,0.4,0.1,0.6,0.1c0.4,0,0.7,0,1.1,0c0.3,0,0.6,0,0.8-0.1h0c0.1,0,0.1,0,0.1,0
					c0,0,0.1,0.1,0.1,0.1v0.7c0,0.1,0,0.1,0,0.2c0,0-0.1,0.1-0.2,0.1c-0.2,0-0.3,0.1-0.5,0.1c-0.1,0-0.3,0-0.4,0.1s-0.3,0-0.5,0
					c-0.2,0-0.4,0-0.6,0c-0.3,0-0.5,0-0.8-0.1c-0.3-0.1-0.6-0.2-0.8-0.4c-0.2-0.2-0.4-0.5-0.6-0.8c-0.2-0.3-0.2-0.7-0.2-1.3v-0.8
					c0-0.4,0.1-0.8,0.2-1.1c0.1-0.3,0.3-0.6,0.5-0.8c0.2-0.2,0.5-0.4,0.8-0.5c0.3-0.1,0.6-0.2,1-0.2c0.4,0,0.7,0.1,1,0.2
					c0.3,0.1,0.6,0.3,0.8,0.5c0.2,0.2,0.4,0.5,0.5,0.8c0.1,0.3,0.2,0.7,0.2,1L112.9,131.1L112.9,131.1z M111.6,130.3
					c0-0.4-0.1-0.7-0.3-0.9c-0.2-0.2-0.5-0.3-0.8-0.3c-0.3,0-0.6,0.1-0.8,0.3c-0.2,0.2-0.3,0.5-0.3,0.9v0L111.6,130.3L111.6,130.3
					L111.6,130.3z"/>
				<path class="st0" d="M115.5,133.5c0,0.1,0,0.1-0.1,0.1c0,0-0.1,0.1-0.1,0.1h-0.9c-0.1,0-0.1,0-0.1-0.1s-0.1-0.1-0.1-0.1v-7.3
					c0-0.1,0-0.1,0.1-0.1s0.1-0.1,0.1-0.1h0.9c0.1,0,0.1,0,0.1,0.1c0,0,0.1,0.1,0.1,0.1V133.5z"/>
				<path class="st0" d="M121.6,131.3c0,0.4-0.1,0.7-0.2,1c-0.1,0.3-0.3,0.6-0.5,0.8c-0.2,0.2-0.5,0.4-0.8,0.5
					c-0.3,0.1-0.7,0.2-1.1,0.2c-0.4,0-0.8-0.1-1.1-0.2s-0.6-0.3-0.8-0.5c-0.2-0.2-0.4-0.5-0.5-0.8c-0.1-0.3-0.2-0.6-0.2-1v-0.8
					c0-0.4,0.1-0.7,0.2-1c0.1-0.3,0.3-0.6,0.5-0.8c0.2-0.2,0.5-0.4,0.8-0.5c0.3-0.1,0.7-0.2,1.1-0.2c0.4,0,0.8,0.1,1.1,0.2
					c0.3,0.1,0.6,0.3,0.8,0.5c0.2,0.2,0.4,0.5,0.5,0.8c0.1,0.3,0.2,0.6,0.2,1V131.3z M120.2,130.4c0-0.4-0.1-0.8-0.3-1
					c-0.2-0.2-0.5-0.4-0.8-0.4c-0.4,0-0.6,0.1-0.8,0.4c-0.2,0.2-0.3,0.6-0.3,1v0.8c0,0.4,0.1,0.8,0.3,1c0.2,0.2,0.5,0.4,0.8,0.4
					c0.4,0,0.6-0.1,0.8-0.4c0.2-0.2,0.3-0.6,0.3-1V130.4z"/>
				<path class="st0" d="M127.5,131.2c0,0.8-0.2,1.4-0.6,1.9c-0.4,0.5-1,0.7-1.8,0.7c-0.1,0-0.3,0-0.4,0c-0.2,0-0.4,0-0.5-0.1v1.8
					c0,0.1,0,0.1-0.1,0.1s-0.1,0.1-0.1,0.1h-0.9c-0.1,0-0.1,0-0.1-0.1s-0.1-0.1-0.1-0.1v-7.1c0-0.1,0-0.1,0.1-0.2s0.1-0.1,0.2-0.1
					c0.3-0.1,0.7-0.1,1-0.2c0.4,0,0.7-0.1,1-0.1c0.8,0,1.4,0.2,1.8,0.7c0.4,0.5,0.6,1.1,0.6,1.9L127.5,131.2L127.5,131.2z
					 M126.1,130.5c0-0.2,0-0.4,0-0.6c0-0.2-0.1-0.3-0.2-0.5c-0.1-0.1-0.2-0.2-0.3-0.3c-0.1-0.1-0.3-0.1-0.5-0.1c-0.2,0-0.4,0-0.6,0
					s-0.3,0-0.4,0.1v3.5c0.1,0,0.3,0,0.5,0.1c0.2,0,0.4,0,0.5,0c0.2,0,0.4,0,0.5-0.1c0.1-0.1,0.3-0.2,0.3-0.3s0.1-0.3,0.2-0.5
					c0-0.2,0-0.4,0-0.6V130.5z"/>
				<path class="st0" d="M135.9,133.5c0,0.1,0,0.1-0.1,0.1c0,0-0.1,0.1-0.1,0.1h-0.9c-0.1,0-0.1,0-0.1-0.1s-0.1-0.1-0.1-0.1V130
					c0-0.2,0-0.4,0-0.5c0-0.1-0.1-0.2-0.1-0.3c-0.1-0.1-0.1-0.1-0.2-0.2c-0.1,0-0.2,0-0.4,0c-0.1,0-0.2,0-0.4,0.1s-0.4,0.1-0.5,0.2
					c0,0.1,0,0.2,0,0.4c0,0.1,0,0.2,0,0.4v3.5c0,0.1,0,0.1-0.1,0.1c0,0-0.1,0.1-0.1,0.1h-0.9c-0.1,0-0.1,0-0.1-0.1
					c0,0-0.1-0.1-0.1-0.1v-3.5c0-0.2,0-0.4,0-0.5c0-0.1-0.1-0.2-0.1-0.3s-0.1-0.1-0.2-0.2c-0.1,0-0.2,0-0.4,0
					c-0.2,0-0.5,0.1-0.9,0.3v4.1c0,0.1,0,0.1-0.1,0.1s-0.1,0.1-0.1,0.1h-0.9c-0.1,0-0.1,0-0.1-0.1c0,0-0.1-0.1-0.1-0.1v-5.3
					c0-0.1,0-0.1,0.1-0.1s0.1-0.1,0.1-0.1h0.9c0.1,0,0.1,0,0.1,0.1c0,0,0.1,0.1,0.1,0.1v0.2c0.2-0.1,0.4-0.3,0.7-0.4
					c0.2-0.1,0.5-0.1,0.8-0.1c0.3,0,0.5,0,0.7,0.1c0.2,0.1,0.4,0.2,0.5,0.3c0.3-0.1,0.5-0.3,0.8-0.3c0.3-0.1,0.6-0.1,0.9-0.1
					c0.4,0,0.6,0.1,0.9,0.2s0.4,0.3,0.5,0.5c0.1,0.2,0.2,0.4,0.3,0.7c0,0.3,0.1,0.5,0.1,0.8C135.9,130.1,135.9,133.5,135.9,133.5z"
					/>
				<path class="st0" d="M141.9,131.1c0,0.2-0.1,0.3-0.2,0.3h-3.3v0c0,0.1,0,0.3,0.1,0.5c0,0.2,0.1,0.3,0.2,0.4
					c0.1,0.1,0.2,0.2,0.4,0.3c0.2,0.1,0.4,0.1,0.6,0.1c0.4,0,0.7,0,1.1,0s0.6,0,0.8-0.1h0c0.1,0,0.1,0,0.1,0c0,0,0.1,0.1,0.1,0.1
					v0.7c0,0.1,0,0.1,0,0.2c0,0-0.1,0.1-0.2,0.1c-0.2,0-0.3,0.1-0.5,0.1c-0.1,0-0.3,0-0.4,0.1s-0.3,0-0.5,0c-0.2,0-0.4,0-0.6,0
					c-0.3,0-0.5,0-0.8-0.1s-0.6-0.2-0.8-0.4c-0.2-0.2-0.4-0.5-0.6-0.8s-0.2-0.7-0.2-1.3v-0.8c0-0.4,0.1-0.8,0.2-1.1
					c0.1-0.3,0.3-0.6,0.5-0.8c0.2-0.2,0.5-0.4,0.8-0.5c0.3-0.1,0.6-0.2,1-0.2c0.4,0,0.7,0.1,1,0.2c0.3,0.1,0.6,0.3,0.8,0.5
					c0.2,0.2,0.4,0.5,0.5,0.8c0.1,0.3,0.2,0.7,0.2,1L141.9,131.1L141.9,131.1z M140.6,130.3c0-0.4-0.1-0.7-0.3-0.9
					c-0.2-0.2-0.5-0.3-0.8-0.3c-0.3,0-0.6,0.1-0.8,0.3c-0.2,0.2-0.3,0.5-0.3,0.9v0L140.6,130.3L140.6,130.3L140.6,130.3z"/>
				<path class="st0" d="M147.8,133.5c0,0.1,0,0.1-0.1,0.1c0,0-0.1,0.1-0.1,0.1h-0.9c-0.1,0-0.1,0-0.1-0.1s-0.1-0.1-0.1-0.1v-3.3
					c0-0.2,0-0.4,0-0.6s-0.1-0.3-0.1-0.3s-0.1-0.1-0.3-0.2c-0.1,0-0.3-0.1-0.5-0.1c-0.2,0-0.4,0-0.5,0.1s-0.4,0.2-0.6,0.3v4.1
					c0,0.1,0,0.1-0.1,0.1c0,0-0.1,0.1-0.1,0.1h-0.9c-0.1,0-0.1,0-0.1-0.1s-0.1-0.1-0.1-0.1v-5.3c0-0.1,0-0.1,0.1-0.1
					c0,0,0.1-0.1,0.1-0.1h0.9c0.1,0,0.1,0,0.1,0.1c0,0,0.1,0.1,0.1,0.1v0.2c0.1-0.1,0.3-0.2,0.4-0.2s0.3-0.1,0.4-0.1
					c0.1,0,0.3-0.1,0.4-0.1c0.1,0,0.3,0,0.5,0c0.4,0,0.7,0.1,0.9,0.2c0.2,0.1,0.4,0.3,0.5,0.5c0.1,0.2,0.2,0.4,0.3,0.7
					c0,0.3,0.1,0.6,0.1,0.9L147.8,133.5L147.8,133.5z"/>
				<path class="st0" d="M152.2,133.6c0,0.1-0.1,0.2-0.2,0.2c-0.1,0-0.2,0-0.4,0.1s-0.2,0-0.3,0c-0.3,0-0.5,0-0.7-0.1
					c-0.2,0-0.4-0.1-0.5-0.2c-0.1-0.1-0.2-0.3-0.3-0.5c-0.1-0.2-0.1-0.5-0.1-0.8V129l-1-0.1c-0.1,0-0.1,0-0.1-0.1s-0.1-0.1-0.1-0.1
					v-0.5c0-0.1,0-0.1,0.1-0.1c0,0,0.1-0.1,0.1-0.1h1v-0.8c0-0.1,0-0.1,0.1-0.1s0.1-0.1,0.1-0.1l0.9-0.2h0c0.1,0,0.2,0.1,0.2,0.2
					v1.1h0.9c0.1,0,0.1,0,0.1,0.1s0.1,0.1,0.1,0.1v0.6c0,0.1,0,0.1-0.1,0.1s-0.1,0.1-0.1,0.1H151v3.2c0,0.1,0,0.2,0,0.3
					c0,0.1,0,0.1,0.1,0.2c0,0,0.1,0.1,0.1,0.1c0.1,0,0.1,0,0.2,0h0.5c0.1,0,0.2,0.1,0.2,0.2L152.2,133.6L152.2,133.6z"/>
				<path class="st0" d="M160.2,127.1c0,0.1,0,0.1-0.1,0.1s-0.1,0.1-0.1,0.1H158c-0.3,0-0.5,0.1-0.6,0.2c-0.1,0.1-0.2,0.4-0.2,0.7
					v1.1h2.8c0.1,0,0.1,0,0.1,0.1s0.1,0.1,0.1,0.1v0.7c0,0.1,0,0.1-0.1,0.1s-0.1,0.1-0.1,0.1h-2.8v3.1c0,0.1,0,0.1-0.1,0.1
					c0,0-0.1,0.1-0.1,0.1h-1c-0.1,0-0.1,0-0.1-0.1s-0.1-0.1-0.1-0.1v-5.4c0-0.4,0.1-0.8,0.2-1.1c0.1-0.3,0.3-0.5,0.5-0.6
					c0.2-0.2,0.5-0.3,0.7-0.3c0.3-0.1,0.6-0.1,0.9-0.1c0.3,0,0.6,0,0.8,0c0.2,0,0.4,0,0.5,0c0.1,0,0.3,0,0.4,0c0.1,0,0.2,0,0.3,0
					c0.1,0,0.1,0,0.2,0.1c0,0,0,0.1,0,0.2L160.2,127.1L160.2,127.1z"/>
				<path class="st0" d="M165.9,133.5c0,0.1,0,0.1-0.1,0.1s-0.1,0.1-0.1,0.1h-0.9c-0.1,0-0.1,0-0.1-0.1s-0.1-0.1-0.1-0.1v-0.2
					c-0.3,0.2-0.5,0.3-0.8,0.4c-0.2,0.1-0.5,0.1-0.9,0.1c-0.3,0-0.5,0-0.7-0.1c-0.2-0.1-0.4-0.2-0.5-0.3c-0.2-0.2-0.3-0.4-0.4-0.8
					c-0.1-0.3-0.1-0.7-0.1-1.1v-3.3c0-0.1,0-0.1,0.1-0.1c0,0,0.1-0.1,0.1-0.1h0.9c0.1,0,0.1,0,0.1,0.1c0,0,0.1,0.1,0.1,0.1v3.3
					c0,0.3,0,0.5,0,0.6c0,0.2,0.1,0.3,0.2,0.4c0.1,0.1,0.2,0.1,0.3,0.1c0.1,0,0.2,0,0.4,0c0.1,0,0.2,0,0.3,0s0.2-0.1,0.3-0.1
					c0.1,0,0.2-0.1,0.3-0.1c0.1,0,0.2-0.1,0.3-0.1v-4.1c0-0.1,0-0.1,0.1-0.1c0,0,0.1-0.1,0.1-0.1h0.9c0.1,0,0.1,0,0.1,0.1
					c0,0,0.1,0.1,0.1,0.1V133.5z"/>
				<path class="st0" d="M171.9,133.5c0,0.1,0,0.1-0.1,0.1c0,0-0.1,0.1-0.1,0.1h-0.9c-0.1,0-0.1,0-0.1-0.1s-0.1-0.1-0.1-0.1v-3.3
					c0-0.2,0-0.4,0-0.6s-0.1-0.3-0.1-0.3c-0.1-0.1-0.1-0.1-0.3-0.2c-0.1,0-0.3-0.1-0.5-0.1c-0.2,0-0.4,0-0.5,0.1
					c-0.2,0.1-0.4,0.2-0.6,0.3v4.1c0,0.1,0,0.1-0.1,0.1c0,0-0.1,0.1-0.1,0.1h-0.9c-0.1,0-0.1,0-0.1-0.1s-0.1-0.1-0.1-0.1v-5.3
					c0-0.1,0-0.1,0.1-0.1c0,0,0.1-0.1,0.1-0.1h0.9c0.1,0,0.1,0,0.1,0.1c0,0,0.1,0.1,0.1,0.1v0.2c0.1-0.1,0.3-0.2,0.4-0.2
					c0.1-0.1,0.3-0.1,0.4-0.1c0.1,0,0.3-0.1,0.4-0.1s0.3,0,0.5,0c0.4,0,0.7,0.1,0.9,0.2c0.2,0.1,0.4,0.3,0.5,0.5
					c0.1,0.2,0.2,0.4,0.3,0.7c0,0.3,0.1,0.6,0.1,0.9L171.9,133.5L171.9,133.5z"/>
				<path class="st0" d="M177.8,133.3c0,0.1,0,0.1-0.1,0.2c0,0-0.1,0.1-0.2,0.1c-0.3,0.1-0.7,0.1-1,0.2c-0.4,0-0.7,0.1-1,0.1
					c-0.8,0-1.4-0.2-1.8-0.7c-0.4-0.5-0.6-1.1-0.6-1.9v-0.8c0-0.8,0.2-1.4,0.6-1.9c0.4-0.5,1-0.7,1.8-0.7c0.1,0,0.3,0,0.4,0
					c0.2,0,0.4,0,0.5,0.1v-1.8c0-0.1,0-0.1,0.1-0.1s0.1-0.1,0.1-0.1h0.9c0.1,0,0.1,0,0.1,0.1s0.1,0.1,0.1,0.1L177.8,133.3
					L177.8,133.3z M176.4,129.1c-0.1,0-0.3,0-0.5-0.1s-0.4,0-0.5,0c-0.2,0-0.4,0-0.5,0.1c-0.1,0.1-0.3,0.2-0.3,0.3
					c-0.1,0.1-0.1,0.3-0.2,0.5c0,0.2,0,0.4,0,0.6v0.8c0,0.2,0,0.4,0,0.6c0,0.2,0.1,0.3,0.2,0.5c0.1,0.1,0.2,0.2,0.3,0.3
					c0.1,0.1,0.3,0.1,0.5,0.1c0.2,0,0.4,0,0.6,0c0.2,0,0.3,0,0.4-0.1L176.4,129.1L176.4,129.1z"/>
			</g>
		</g>
	</g>
</g>
<g id="Layer_2_00000131332688956939423350000013706783042355459775_">
</g>
</svg>
