<?xml version="1.0" encoding="utf-8"?>
<!-- Generator: Adobe Illustrator 26.3.1, SVG Export Plug-In . SVG Version: 6.00 Build 0)  -->
<svg version="1.1" id="Layer_1" xmlns="http://www.w3.org/2000/svg" xmlns:xlink="http://www.w3.org/1999/xlink" x="0px" y="0px"
	 viewBox="0 0 512 512" style="enable-background:new 0 0 512 512;" xml:space="preserve">
<style type="text/css">
	.st0{fill:#FFFFFF;}
</style>
<g>
	<path class="st0" d="M82.7,211c0-18,13-30.1,29.8-30.1c12.2,0,19.4,6.9,23.3,14.2l-10.2,5.2c-2.3-4.7-7.4-8.5-13.1-8.5
		C102.4,191.9,95,200,95,211s7.4,19.1,17.6,19.1c5.7,0,10.7-3.8,13.1-8.5l10.2,5.2c-3.9,7.3-11.1,14.3-23.3,14.3
		C95.7,241.1,82.7,228.9,82.7,211"/>
	<polygon class="st0" points="173.3,181.8 158.4,181.8 138.8,240.1 150.4,240.1 165.9,194.2 174.6,219.3 164.1,219.3 160.4,230.2 
		177.9,230.2 181.4,240.1 192.8,240.1 	"/>
	<path class="st0" d="M36.8,222.2c3.9,4.3,10.1,7.9,17.8,7.9c6.6,0,9.7-3.1,9.7-6.5c0-10.1-32.2-3.1-32.2-25c0-9.7,8-17.7,21.2-17.7
		c7.5,0,13.9,2,19.1,5.8l-3.9,11.6C64,194,57.9,192,52.2,192c-5,0-7.9,2.3-7.9,5.8c0,9.2,32.1,3,32.1,24.7
		c0,10.7-7.4,18.7-22.4,18.7c-9.2,0-16.2-2.7-21.3-6.9C33.5,232.1,36.8,222.2,36.8,222.2"/>
	<path class="st0" d="M36.9,280c0-0.2,0.1-0.4,0.2-0.5c0.1-0.1,0.3-0.2,0.4-0.2h1.2c0.2,0,0.3,0.1,0.4,0.2c0.1,0.1,0.2,0.3,0.2,0.5
		v1.6c0,0.2-0.1,0.3-0.2,0.4c-0.1,0.1-0.3,0.2-0.5,0.2h-1.2c-0.2,0-0.3-0.1-0.5-0.2c-0.1-0.1-0.2-0.3-0.2-0.4
		C36.9,281.6,36.9,280,36.9,280z M33.1,287.9c0.3,0,0.4,0.2,0.4,0.6c0,0.2,0,0.5-0.1,0.8c0,0.3,0,0.5-0.1,0.8c0,0.3,0,0.5,0,0.8
		c0,0.2,0,0.4,0,0.6c0,1,0.1,2,0.2,2.9c0.1,0.9,0.4,1.6,0.9,2.3c0.5,0.6,1.1,1.1,2,1.5c0.9,0.4,2,0.5,3.5,0.5c0.5,0,0.9,0,1.3,0
		c0.4,0,0.8-0.1,1.3-0.2c0-0.5,0-1,0-1.4c0-0.4,0-0.8,0-1.2v-1.1v-1.2v-8.8c0-0.2,0-0.3,0.2-0.4c0.1-0.1,0.2-0.2,0.4-0.2h1.4
		c0.2,0,0.3,0.1,0.4,0.2c0.1,0.1,0.1,0.2,0.1,0.4v8.9h2.6v2.5H45v1v1.1c0,0.4,0,0.7,0,1.1c0,0.3,0,0.6,0,0.9c0,0.3-0.2,0.5-0.6,0.6
		c-0.7,0.2-1.5,0.3-2.2,0.3c-0.8,0.1-1.5,0.1-2.3,0.1c-1.6,0-3-0.2-4.2-0.6c-1.1-0.4-2-1-2.7-1.7c-0.7-0.8-1.2-1.7-1.5-2.8
		c-0.3-1.1-0.5-2.3-0.5-3.7c0-0.2,0-0.4,0-0.8c0-0.3,0-0.7,0.1-1c0-0.4,0.1-0.7,0.1-1.1c0-0.4,0.1-0.7,0.1-1c0-0.2,0.1-0.4,0.2-0.4
		c0.1-0.1,0.2-0.1,0.4-0.1L33.1,287.9L33.1,287.9z"/>
	<path class="st0" d="M47.5,296.1c-0.3,0-0.5,0-0.7-0.1c-0.2-0.1-0.3-0.2-0.3-0.3v-1.7c0-0.1,0.1-0.2,0.3-0.3
		c0.2-0.1,0.4-0.1,0.7-0.1h6.3v2.5H47.5z"/>
	<path class="st0" d="M53.6,296.1c-0.3,0-0.5,0-0.7-0.1c-0.2-0.1-0.3-0.2-0.3-0.3v-1.7c0-0.1,0.1-0.2,0.3-0.3
		c0.2-0.1,0.4-0.1,0.7-0.1h6.3v2.5H53.6z"/>
	<path class="st0" d="M64.8,299.5c0-0.2,0.1-0.4,0.2-0.5c0.1-0.1,0.3-0.2,0.5-0.2h1.1c0.2,0,0.3,0.1,0.5,0.2
		c0.1,0.1,0.2,0.3,0.2,0.5v1.6c0,0.2-0.1,0.3-0.2,0.4c-0.1,0.1-0.3,0.2-0.5,0.2h-1.1c-0.2,0-0.3-0.1-0.5-0.2
		c-0.1-0.1-0.2-0.3-0.2-0.4V299.5z M60.2,299.5c0-0.2,0.1-0.4,0.2-0.5c0.1-0.1,0.3-0.2,0.5-0.2H62c0.2,0,0.3,0.1,0.5,0.2
		c0.1,0.1,0.2,0.3,0.2,0.5v1.6c0,0.2-0.1,0.3-0.2,0.4c-0.1,0.1-0.3,0.2-0.5,0.2h-1.1c-0.2,0-0.3-0.1-0.5-0.2
		c-0.1-0.1-0.2-0.3-0.2-0.4V299.5z M58.7,293.9c0-0.1,0.1-0.2,0.3-0.3c0.2-0.1,0.4-0.1,0.7-0.1h1.3c0.2,0,0.4,0,0.6,0
		c0.2,0,0.4-0.1,0.7-0.1c0.2-0.1,0.4-0.2,0.5-0.3c0.1-0.1,0.2-0.4,0.2-0.6v-7.8c0-0.2,0.1-0.3,0.2-0.4c0.1-0.1,0.2-0.2,0.4-0.2h1.3
		c0.2,0,0.3,0.1,0.4,0.2c0.1,0.1,0.2,0.2,0.2,0.4v8.1c0.1,0.2,0.2,0.3,0.4,0.4c0.2,0.1,0.4,0.2,0.6,0.2c0.2,0,0.4,0.1,0.7,0.1
		c0.2,0,0.4,0,0.6,0H68v2.5h-0.3c-0.6,0-1.2-0.1-1.9-0.2c-0.7-0.1-1.2-0.4-1.7-0.8c-0.5,0.4-1,0.7-1.7,0.8c-0.7,0.1-1.2,0.2-1.8,0.2
		h-0.9c-0.3,0-0.5,0-0.7-0.1c-0.2-0.1-0.3-0.2-0.3-0.3C58.7,295.7,58.7,293.9,58.7,293.9z"/>
	<path class="st0" d="M67.8,296.1c-0.3,0-0.5,0-0.7-0.1c-0.2-0.1-0.3-0.2-0.3-0.3v-1.7c0-0.1,0.1-0.2,0.3-0.3
		c0.2-0.1,0.4-0.1,0.7-0.1h6.3v2.5H67.8z"/>
	<path class="st0" d="M73.9,296.1c-0.3,0-0.5,0-0.7-0.1c-0.2-0.1-0.3-0.2-0.3-0.3v-1.7c0-0.1,0.1-0.2,0.3-0.3
		c0.2-0.1,0.4-0.1,0.7-0.1h6.3v2.5H73.9z"/>
	<path class="st0" d="M79,293.9c0-0.1,0.1-0.2,0.3-0.3c0.2-0.1,0.4-0.1,0.7-0.1h2.3c0.5,0,0.9,0,1-0.1c0.1-0.1,0.2-0.4,0.2-0.9
		v-18.1c0-0.2,0.1-0.3,0.2-0.4c0.1-0.1,0.2-0.2,0.4-0.2h1.4c0.2,0,0.3,0.1,0.4,0.2c0.1,0.1,0.1,0.2,0.1,0.4v17.1v0.8
		c0,0.3,0,0.6,0,0.9c0,0.3,0,0.6,0,0.9c0,0.3,0,0.6-0.1,0.8c0,0.2-0.1,0.4-0.2,0.5c-0.1,0.1-0.2,0.3-0.5,0.4
		c-0.2,0.1-0.4,0.1-0.7,0.1c-0.3,0-0.6,0.1-0.9,0.1c-0.3,0-0.7,0-1.1,0.1c-0.4,0-0.7,0-1,0H80c-0.3,0-0.5,0-0.7-0.1
		c-0.2-0.1-0.3-0.2-0.3-0.3L79,293.9L79,293.9z"/>
	<path class="st0" d="M98.9,284.9c-0.4,0-0.8-0.1-1.1-0.1c-0.4,0-0.8,0-1.3,0c-1.3,0-2.2,0.4-3,1.1c-0.7,0.7-1.1,1.8-1.1,3.1v0.6
		c0,1.4,0.3,2.4,0.9,3c0.6,0.6,1.5,1,2.9,1c0.7,0,1.4,0,1.9-0.1c0.5-0.1,0.8-0.4,0.8-0.8L98.9,284.9L98.9,284.9z M91.1,301.1
		c0-0.3,0.1-0.4,0.5-0.4c0.3,0,0.7,0,1.2,0c0.5,0,0.9,0,1.2,0c0.8,0,1.4,0,2-0.1c0.6-0.1,1.1-0.3,1.5-0.5c0.4-0.3,0.8-0.6,1-1
		c0.2-0.4,0.4-1,0.4-1.7v-1.8c-0.1,0.1-0.3,0.2-0.6,0.3c-0.3,0.1-0.5,0.1-0.9,0.2c-0.3,0-0.6,0.1-0.9,0.1c-0.3,0-0.6,0-0.8,0
		c-1.7,0-3.1-0.5-4.1-1.5c-1-1-1.5-2.6-1.5-4.6v-0.7c0-2.1,0.6-3.7,1.8-4.9c1.2-1.2,2.8-1.8,5-1.8c0.8,0,1.5,0,2.2,0.1
		c0.7,0.1,1.3,0.2,1.8,0.3c0.2,0.1,0.3,0.1,0.4,0.2c0.1,0.1,0.1,0.2,0.1,0.3v13.4c0,1.2-0.2,2.2-0.5,3c-0.3,0.8-0.8,1.4-1.4,1.9
		c-0.6,0.5-1.3,0.8-2.2,1c-0.8,0.2-1.8,0.3-2.8,0.3c-0.2,0-0.4,0-0.7,0c-0.3,0-0.6,0-0.9,0c-0.3,0-0.6,0-0.8,0c-0.2,0-0.4,0-0.5-0.1
		c-0.2,0-0.3-0.1-0.4-0.2c-0.1-0.1-0.1-0.2-0.1-0.3C91.1,302.4,91.1,301.1,91.1,301.1z"/>
	<path class="st0" d="M106.1,274.4c0-0.2,0.1-0.3,0.2-0.4c0.1-0.1,0.2-0.2,0.4-0.2h1.4c0.2,0,0.3,0.1,0.4,0.2
		c0.1,0.1,0.1,0.3,0.1,0.4v17.4c0,0.4,0,0.7,0.1,0.9c0.1,0.2,0.2,0.4,0.4,0.5c0.2,0.1,0.4,0.2,0.6,0.2c0.2,0,0.5,0.1,0.8,0.1h0.7
		v2.5h-1.3c-0.6,0-1.1-0.1-1.6-0.2c-0.5-0.1-0.8-0.3-1.2-0.6s-0.6-0.7-0.7-1.1c-0.2-0.5-0.2-1.1-0.2-1.8V274.4z"/>
	<path class="st0" d="M111,296.1c-0.3,0-0.5,0-0.7-0.1c-0.2-0.1-0.3-0.2-0.3-0.3v-1.7c0-0.1,0.1-0.2,0.3-0.3
		c0.2-0.1,0.4-0.1,0.7-0.1h6.3v2.5H111z"/>
	<path class="st0" d="M117.1,296.1c-0.3,0-0.5,0-0.7-0.1c-0.2-0.1-0.3-0.2-0.3-0.3v-1.7c0-0.1,0.1-0.2,0.3-0.3
		c0.2-0.1,0.4-0.1,0.7-0.1h6.3v2.5H117.1z"/>
	<path class="st0" d="M132.5,276.8c0-0.2,0.1-0.4,0.2-0.5c0.1-0.1,0.3-0.2,0.5-0.2h1.1c0.2,0,0.3,0.1,0.5,0.2
		c0.1,0.1,0.2,0.3,0.2,0.5v1.6c0,0.2-0.1,0.3-0.2,0.4c-0.1,0.1-0.3,0.2-0.5,0.2h-1.1c-0.2,0-0.3-0.1-0.5-0.2
		c-0.1-0.1-0.2-0.3-0.2-0.4V276.8z M127.9,276.8c0-0.2,0.1-0.4,0.2-0.5c0.1-0.1,0.3-0.2,0.5-0.2h1.1c0.2,0,0.3,0.1,0.5,0.2
		c0.1,0.1,0.2,0.3,0.2,0.5v1.6c0,0.2-0.1,0.3-0.2,0.4c-0.1,0.1-0.3,0.2-0.5,0.2h-1.1c-0.2,0-0.3-0.1-0.5-0.2
		c-0.1-0.1-0.2-0.3-0.2-0.4V276.8z M134.3,293.6v-8.8c-0.4-0.1-0.8-0.1-1.2-0.1c-0.4,0-0.8,0-1.3,0c-1.3,0-2.3,0.3-3,1
		c-0.7,0.7-1,1.7-1,3.1v0.6c0,1.4,0.3,2.4,0.9,3.1c0.6,0.7,1.5,1.1,2.8,1.1L134.3,293.6L134.3,293.6z M122.3,293.9
		c0-0.1,0.1-0.2,0.3-0.3c0.2-0.1,0.4-0.1,0.7-0.1h3.7c-0.5-0.4-0.9-1-1.1-1.7c-0.3-0.7-0.4-1.5-0.4-2.5v-0.7c0-2,0.6-3.6,1.7-4.7
		c1.2-1.1,2.8-1.7,4.8-1.7c0.8,0,1.5,0,2.3,0.1s1.4,0.2,1.9,0.3c0.2,0,0.3,0.1,0.4,0.2c0.1,0.1,0.1,0.2,0.1,0.4v10.2h2.4v2.5h-15.9
		c-0.3,0-0.5,0-0.7-0.1c-0.2-0.1-0.3-0.2-0.3-0.3L122.3,293.9L122.3,293.9z"/>
	<path class="st0" d="M139,296.1c-0.3,0-0.5,0-0.7-0.1c-0.2-0.1-0.3-0.2-0.3-0.3v-1.7c0-0.1,0.1-0.2,0.3-0.3
		c0.2-0.1,0.4-0.1,0.7-0.1h6.3v2.5H139z"/>
	<path class="st0" d="M145.1,296.1c-0.3,0-0.5,0-0.7-0.1s-0.3-0.2-0.3-0.3v-1.7c0-0.1,0.1-0.2,0.3-0.3c0.2-0.1,0.4-0.1,0.7-0.1h6.3
		v2.5H145.1z"/>
	<path class="st0" d="M156.6,289.2v1.4c0,0.6,0,1.2,0.1,1.7c0.2,0.8,0.5,1.4,1.1,1.8c0.6,0.4,1.3,0.6,2.2,0.6c1.3,0,2.1-0.3,2.6-1
		c0.5-0.7,0.8-1.7,0.8-3v-1.4c0-1.3-0.3-2.4-0.8-3.1c-0.5-0.7-1.4-1.1-2.6-1.1c-1.3,0-2.1,0.4-2.7,1.1
		C156.9,286.8,156.6,287.8,156.6,289.2 M150.2,293.9c0-0.1,0.1-0.2,0.3-0.3c0.2-0.1,0.4-0.1,0.7-0.1h0.9c0.1,0,0.3,0,0.5,0
		c0.2,0,0.4,0,0.6-0.1c0.2-0.1,0.4-0.1,0.6-0.3c0.2-0.1,0.3-0.3,0.3-0.5c0.1-0.2,0.1-0.5,0.1-0.9V289c0-2,0.5-3.6,1.5-4.7
		c1-1.1,2.5-1.6,4.4-1.6s3.3,0.5,4.3,1.6c1,1.1,1.4,2.6,1.4,4.7v1.7c0,0.2,0,0.5,0,0.8c0,0.3,0,0.5-0.1,0.7c0,0.3,0.1,0.5,0.3,0.7
		c0.2,0.2,0.4,0.3,0.6,0.4c0.2,0.1,0.4,0.2,0.7,0.2c0.2,0,0.4,0.1,0.6,0.1h0.4v2.5h-0.4c-0.6,0-1.2-0.1-1.8-0.3
		c-0.6-0.2-1.1-0.5-1.4-0.9c-0.9,1.3-2.4,2-4.5,2c-1.1,0-2-0.2-2.8-0.5c-0.8-0.3-1.5-0.8-1.9-1.5c-0.4,0.5-0.9,0.8-1.5,0.9
		c-0.6,0.1-1.3,0.2-2,0.2h-0.7c-0.3,0-0.5,0-0.7-0.1c-0.2-0.1-0.3-0.2-0.3-0.3L150.2,293.9L150.2,293.9z"/>
	<path class="st0" d="M168,296.1c-0.3,0-0.5,0-0.7-0.1s-0.3-0.2-0.3-0.3v-1.7c0-0.1,0.1-0.2,0.3-0.3c0.2-0.1,0.4-0.1,0.7-0.1h6.3
		v2.5H168z"/>
	<path class="st0" d="M174.1,296.1c-0.3,0-0.5,0-0.7-0.1c-0.2-0.1-0.3-0.2-0.3-0.3v-1.7c0-0.1,0.1-0.2,0.3-0.3
		c0.2-0.1,0.4-0.1,0.7-0.1h6.3v2.5H174.1z"/>
	<path class="st0" d="M179.3,293.9c0-0.1,0.1-0.2,0.3-0.3c0.2-0.1,0.4-0.1,0.7-0.1h1.5c0.2,0,0.4,0,0.6,0c0.2,0,0.4-0.1,0.7-0.1
		c0.2-0.1,0.4-0.2,0.5-0.3c0.1-0.1,0.2-0.4,0.2-0.6v-18c0-0.2,0.1-0.3,0.2-0.4c0.1-0.1,0.2-0.2,0.4-0.2h1.4c0.1,0,0.3,0.1,0.4,0.2
		c0.1,0.1,0.1,0.2,0.1,0.4v18.4c0.1,0.2,0.2,0.3,0.4,0.4c0.2,0.1,0.4,0.2,0.6,0.2c0.2,0,0.4,0.1,0.7,0.1c0.2,0,0.4,0,0.6,0h0.4v2.5
		h-0.3c-0.3,0-0.6,0-0.9,0c-0.3,0-0.6-0.1-0.9-0.1c-0.3-0.1-0.6-0.2-0.9-0.3c-0.3-0.1-0.5-0.3-0.8-0.5c-0.5,0.4-1,0.7-1.7,0.8
		c-0.7,0.1-1.2,0.2-1.8,0.2h-1.2c-0.3,0-0.5,0-0.7-0.1c-0.2-0.1-0.3-0.2-0.3-0.3V293.9z"/>
	<path class="st0" d="M187.7,293.9c0-0.1,0.1-0.2,0.3-0.3c0.2-0.1,0.4-0.1,0.7-0.1h2.3c0.6,0,0.9,0,1-0.1c0.1-0.1,0.2-0.4,0.2-0.9
		v-18.1c0-0.2,0.1-0.3,0.2-0.4c0.1-0.1,0.2-0.2,0.4-0.2h1.4c0.1,0,0.3,0.1,0.4,0.2c0.1,0.1,0.1,0.2,0.1,0.4v17.1v0.8
		c0,0.3,0,0.6,0,0.9c0,0.3,0,0.6,0,0.9c0,0.3,0,0.6-0.1,0.8c0,0.2-0.1,0.4-0.2,0.5c-0.1,0.1-0.2,0.3-0.5,0.4
		c-0.1,0.1-0.4,0.1-0.7,0.1c-0.3,0-0.6,0.1-0.9,0.1c-0.3,0-0.7,0-1.1,0.1c-0.4,0-0.7,0-1,0h-1.5c-0.3,0-0.5,0-0.7-0.1
		c-0.2-0.1-0.3-0.2-0.3-0.3L187.7,293.9L187.7,293.9z"/>
	<path class="st0" d="M212.8,276.9c0-0.2,0.1-0.4,0.2-0.5c0.1-0.1,0.3-0.2,0.5-0.2h1.1c0.2,0,0.3,0.1,0.5,0.2
		c0.1,0.1,0.2,0.3,0.2,0.5v1.6c0,0.2-0.1,0.3-0.2,0.4c-0.1,0.1-0.3,0.2-0.5,0.2h-1.1c-0.2,0-0.3-0.1-0.5-0.2
		c-0.1-0.1-0.2-0.3-0.2-0.4V276.9z M208.2,276.9c0-0.2,0.1-0.4,0.2-0.5c0.1-0.1,0.3-0.2,0.5-0.2h1.1c0.2,0,0.3,0.1,0.5,0.2
		c0.1,0.1,0.2,0.3,0.2,0.5v1.6c0,0.2-0.1,0.3-0.2,0.4c-0.1,0.1-0.3,0.2-0.5,0.2h-1.1c-0.2,0-0.3-0.1-0.5-0.2
		c-0.1-0.1-0.2-0.3-0.2-0.4V276.9z M208.1,289.4c0,1.2,0.3,2.1,0.8,2.8c0.5,0.7,1.4,1,2.6,1h0.5c0.3,0,0.6,0,0.9-0.1
		c0.3,0,0.6-0.1,0.8-0.2c0.2-0.1,0.4-0.3,0.6-0.5c0.1-0.2,0.2-0.5,0.2-0.8v-6.7c-0.4,0-0.7-0.1-1-0.1c-0.3,0-0.5,0-0.8,0
		c-0.7,0-1.3,0.1-1.9,0.2c-0.6,0.1-1.1,0.3-1.5,0.6c-0.4,0.3-0.7,0.7-1,1.3c-0.2,0.5-0.4,1.2-0.4,2V289.4z M205.7,288.9
		c0-1.2,0.2-2.2,0.5-3c0.4-0.8,0.9-1.5,1.5-2c0.6-0.5,1.4-0.9,2.3-1.2c0.9-0.2,1.9-0.4,3-0.4c0.2,0,0.5,0,0.9,0c0.3,0,0.6,0.1,1,0.1
		c0.3,0,0.6,0.1,0.9,0.1c0.3,0,0.5,0.1,0.7,0.2c0.2,0,0.3,0.1,0.4,0.2c0,0.1,0.1,0.2,0.1,0.4v8.3c0,0.8,0.2,1.3,0.5,1.5
		c0.4,0.2,0.8,0.3,1.5,0.3h0.7v2.5h-1c-0.9,0-1.6-0.1-2.1-0.4c-0.6-0.3-1-0.7-1.3-1.3c-0.3,0.4-0.8,0.7-1.5,0.9
		c-0.7,0.2-1.4,0.3-2.2,0.3h-0.3c-1.8,0-3.1-0.5-4.1-1.5c-0.9-1-1.4-2.5-1.4-4.4L205.7,288.9L205.7,288.9z"/>
	<path class="st0" d="M219.4,296.1c-0.3,0-0.5,0-0.7-0.1c-0.2-0.1-0.3-0.2-0.3-0.3v-1.7c0-0.1,0.1-0.2,0.3-0.3
		c0.2-0.1,0.4-0.1,0.7-0.1h6.3v2.5H219.4z"/>
	<path class="st0" d="M225.5,296.1c-0.3,0-0.5,0-0.7-0.1s-0.3-0.2-0.3-0.3v-1.7c0-0.1,0.1-0.2,0.3-0.3c0.2-0.1,0.4-0.1,0.7-0.1h6.3
		v2.5H225.5z"/>
	<path class="st0" d="M235.4,299.5c0-0.2,0.1-0.4,0.2-0.5c0.1-0.1,0.3-0.2,0.5-0.2h1.1c0.2,0,0.3,0.1,0.4,0.2
		c0.1,0.1,0.2,0.3,0.2,0.5v1.6c0,0.2-0.1,0.3-0.2,0.4c-0.1,0.1-0.3,0.2-0.4,0.2h-1.1c-0.2,0-0.3-0.1-0.5-0.2
		c-0.1-0.1-0.2-0.3-0.2-0.4V299.5z M230.8,299.5c0-0.2,0.1-0.4,0.2-0.5c0.1-0.1,0.3-0.2,0.5-0.2h1.1c0.2,0,0.3,0.1,0.5,0.2
		c0.1,0.1,0.2,0.3,0.2,0.5v1.6c0,0.2-0.1,0.3-0.2,0.4c-0.1,0.1-0.3,0.2-0.5,0.2h-1.1c-0.2,0-0.3-0.1-0.5-0.2
		c-0.1-0.1-0.2-0.3-0.2-0.4V299.5z M230.7,293.9c0-0.1,0.1-0.2,0.3-0.3c0.2-0.1,0.4-0.1,0.7-0.1h2c0.6,0,0.9,0,1.1-0.1
		c0.1-0.1,0.2-0.4,0.2-0.9v-2v-1.8c0-0.6,0-1.2,0-1.9c0-0.7,0-1.4,0-2.1c0-0.2,0-0.3,0.1-0.4c0.1-0.1,0.2-0.2,0.4-0.2h1.4
		c0.2,0,0.3,0,0.4,0.2c0.1,0.1,0.1,0.2,0.1,0.4c0,0.7,0,1.2,0,1.7c0,0.5,0,0.9,0,1.3v1.2v1.5c0,0.9,0,1.8,0,2.6c0,0.8,0,1.4-0.1,1.9
		c0,0.2-0.1,0.4-0.2,0.5c-0.1,0.1-0.2,0.3-0.5,0.4c-0.2,0.1-0.4,0.1-0.6,0.1c-0.3,0-0.6,0.1-0.9,0.1c-0.3,0-0.7,0-1.1,0.1
		c-0.4,0-0.7,0-1,0h-1.3c-0.3,0-0.5,0-0.7-0.1c-0.2-0.1-0.3-0.2-0.3-0.3L230.7,293.9L230.7,293.9z"/>
	<path class="st0" d="M240.9,294.1c0-0.2,0.1-0.3,0.2-0.4c0.1-0.1,0.2-0.1,0.4-0.1h7.8l0-3.6c0-1.7-0.5-3-1.3-3.9
		c-0.8-0.8-2.1-1.3-3.9-1.3c-0.2,0-0.5,0-0.9,0c-0.4,0-0.7,0-1,0.1c-0.4,0-0.6-0.1-0.6-0.4v-1.2c0-0.2,0-0.3,0.1-0.4
		c0.1-0.1,0.2-0.2,0.4-0.2c0.5-0.1,1-0.1,1.4-0.1c0.4,0,0.8,0,1,0c1.3,0,2.4,0.2,3.3,0.5c0.9,0.4,1.6,0.9,2.1,1.5
		c0.5,0.6,0.9,1.4,1.2,2.3c0.2,0.9,0.4,1.9,0.4,2.9c0,0.1,0,0.3,0,0.6c0,0.3,0,0.7,0,1c0,0.4,0,0.7,0,1.1v0.7v0.5c0,0.2,0,0.4,0,0.6
		c0,0.2,0,0.4,0,0.7c0,0.2,0,0.4,0,0.5c0,0.4-0.2,0.6-0.6,0.6h-9.4c-0.2,0-0.3,0-0.4-0.1c-0.1-0.1-0.2-0.2-0.2-0.4L240.9,294.1
		L240.9,294.1z"/>
	<path class="st0" d="M257.6,289.6c0,1.4,0.3,2.4,0.9,3.1c0.6,0.6,1.5,1,2.8,1h2.8v-8.7c-0.4,0-0.7-0.1-1.1-0.1c-0.4,0-0.8,0-1.2,0
		c-1.3,0-2.2,0.4-3,1.1c-0.7,0.7-1.1,1.8-1.1,3.1L257.6,289.6L257.6,289.6z M256.2,301.1c0-0.3,0.1-0.4,0.5-0.4c0.3,0,0.7,0,1.2,0
		c0.5,0,0.9,0,1.2,0c0.8,0,1.4,0,2-0.1c0.6-0.1,1.1-0.3,1.5-0.5c0.4-0.2,0.8-0.6,1-1s0.4-1,0.4-1.7v-1.2h-2.8
		c-1.9,0-3.4-0.5-4.4-1.5c-1-1-1.5-2.6-1.5-4.6v-0.7c0-2.1,0.6-3.7,1.8-4.9c1.2-1.2,2.8-1.8,5-1.8c0.8,0,1.5,0,2.2,0.1
		c0.7,0.1,1.3,0.2,1.8,0.3c0.2,0.1,0.3,0.1,0.3,0.2c0.1,0.1,0.1,0.2,0.1,0.3v10.1h2.5v2.5h-2.5v1.1c0,1.1-0.2,2-0.6,2.8
		c-0.3,0.7-0.8,1.3-1.4,1.8c-0.6,0.4-1.3,0.8-2.1,0.9c-0.8,0.2-1.7,0.3-2.7,0.3c-0.2,0-0.4,0-0.7,0c-0.3,0-0.6,0-0.9,0
		c-0.3,0-0.6,0-0.8,0c-0.2,0-0.4,0-0.5-0.1c-0.2,0-0.3-0.1-0.4-0.2c-0.1-0.1-0.1-0.2-0.1-0.3L256.2,301.1L256.2,301.1z"/>
	<path class="st0" d="M268.7,296.1c-0.3,0-0.5,0-0.7-0.1c-0.2-0.1-0.3-0.2-0.3-0.3v-1.7c0-0.1,0.1-0.2,0.3-0.3
		c0.2-0.1,0.4-0.1,0.7-0.1h6.3v2.5H268.7z"/>
	<path class="st0" d="M274.8,296.1c-0.3,0-0.5,0-0.7-0.1c-0.2-0.1-0.3-0.2-0.3-0.3v-1.7c0-0.1,0.1-0.2,0.3-0.3
		c0.2-0.1,0.4-0.1,0.7-0.1h6.3v2.5H274.8z"/>
	<path class="st0" d="M290.1,293.6c1-0.2,1.8-0.8,2.3-1.7c0.6-0.9,0.8-2,0.8-3.2v-0.3c0-1.3-0.4-2.2-1.1-2.8c-0.7-0.6-1.7-0.9-3-0.9
		c-0.5,0-1.1,0.1-1.9,0.2c-0.8,0.1-1.5,0.5-2.2,0.9l2.9,7.8L290.1,293.6L290.1,293.6z M280,293.9c0-0.1,0.1-0.2,0.3-0.3
		c0.2-0.1,0.4-0.1,0.7-0.1h4.6l-2.7-7.1c0-0.1-0.1-0.1-0.1-0.2c0-0.1,0-0.2,0-0.3l0-0.9c0-0.3,0.2-0.5,0.5-0.8
		c0.3-0.3,0.7-0.6,1.2-0.8c0.4-0.3,0.9-0.5,1.5-0.6c0.5-0.2,1.1-0.3,1.6-0.4c0.6-0.1,1.1-0.1,1.7-0.1c0.9,0,1.8,0.1,2.6,0.3
		c0.8,0.2,1.5,0.6,2,1c0.6,0.5,1,1.1,1.3,1.8c0.3,0.7,0.5,1.6,0.5,2.6v0.6c0,0.5,0,1-0.1,1.4c-0.1,0.5-0.2,1-0.4,1.4
		c-0.2,0.4-0.4,0.9-0.6,1.2c-0.2,0.4-0.5,0.6-0.8,0.8h3.6v2.5h-16.3c-0.3,0-0.5,0-0.7-0.1c-0.2-0.1-0.3-0.2-0.3-0.3L280,293.9
		L280,293.9z"/>
	<path class="st0" d="M297.1,296.1c-0.3,0-0.5,0-0.7-0.1c-0.2-0.1-0.3-0.2-0.3-0.3v-1.7c0-0.1,0.1-0.2,0.3-0.3
		c0.2-0.1,0.4-0.1,0.7-0.1h6.3v2.5H297.1z"/>
	<path class="st0" d="M303.2,296.1c-0.3,0-0.5,0-0.7-0.1s-0.3-0.2-0.3-0.3v-1.7c0-0.1,0.1-0.2,0.3-0.3c0.2-0.1,0.4-0.1,0.7-0.1h6.3
		v2.5H303.2z"/>
	<path class="st0" d="M308.3,293.9c0-0.1,0.1-0.2,0.3-0.3c0.2-0.1,0.4-0.1,0.7-0.1h1.1c0.2,0,0.4,0,0.6,0c0.2,0,0.4-0.1,0.6-0.1
		c0.2-0.1,0.4-0.2,0.5-0.3c0.1-0.1,0.2-0.4,0.2-0.6V286c0-0.2,0-0.3,0.1-0.4c0.1-0.1,0.2-0.2,0.4-0.2h1.3c0.1,0,0.3,0.1,0.4,0.2
		c0.1,0.1,0.1,0.3,0.1,0.4v6.8c0.1,0.2,0.2,0.3,0.4,0.4c0.2,0.1,0.4,0.2,0.6,0.2c0.2,0,0.4,0.1,0.7,0.1c0.2,0,0.4,0,0.6,0h0.6
		c0.2,0,0.4,0,0.6,0c0.2,0,0.4-0.1,0.6-0.1c0.2-0.1,0.4-0.2,0.5-0.3c0.1-0.1,0.2-0.3,0.2-0.6V285c0-0.2,0-0.3,0.2-0.4
		c0.1-0.1,0.2-0.2,0.4-0.2h1.3c0.2,0,0.3,0.1,0.4,0.2c0.1,0.1,0.1,0.2,0.1,0.4v7.8c0.1,0.3,0.4,0.5,0.9,0.6c0.5,0.1,0.9,0.1,1.4,0.1
		h0.4c0.2,0,0.4,0,0.6,0c0.2,0,0.5-0.1,0.7-0.1c0.2-0.1,0.4-0.2,0.5-0.3c0.1-0.1,0.2-0.3,0.2-0.6v-8.6c0-0.2,0-0.3,0.2-0.4
		c0.1-0.1,0.2-0.2,0.4-0.2h1.3c0.1,0,0.3,0,0.4,0.2c0.1,0.1,0.1,0.2,0.1,0.4v8.9c0.1,0.2,0.2,0.3,0.4,0.4c0.2,0.1,0.4,0.2,0.6,0.2
		c0.2,0,0.5,0.1,0.7,0.1c0.2,0,0.4,0,0.6,0h0.5v2.5h-0.5c-0.5,0-1.1-0.1-1.8-0.2c-0.7-0.1-1.2-0.4-1.7-0.8c-0.4,0.4-1,0.7-1.6,0.8
		c-0.6,0.1-1.2,0.2-1.7,0.2h-0.5c-0.7,0-1.3-0.1-1.8-0.2c-0.5-0.1-1-0.4-1.5-0.8c-0.8,0.6-1.9,1-3.3,1h-0.5c-0.5,0-1-0.1-1.6-0.2
		c-0.6-0.1-1.1-0.4-1.5-0.8c-0.2,0.2-0.5,0.4-0.8,0.5c-0.3,0.1-0.6,0.2-0.9,0.3c-0.3,0.1-0.6,0.1-0.9,0.2c-0.3,0-0.6,0-0.8,0h-0.9
		c-0.3,0-0.5,0-0.7-0.1c-0.2-0.1-0.3-0.2-0.3-0.3L308.3,293.9L308.3,293.9z"/>
	<path class="st0" d="M331.4,296.1c-0.3,0-0.5,0-0.7-0.1c-0.2-0.1-0.3-0.2-0.3-0.3v-1.7c0-0.1,0.1-0.2,0.3-0.3
		c0.2-0.1,0.4-0.1,0.7-0.1h6.3v2.5H331.4z"/>
	<path class="st0" d="M337.6,296.1c-0.3,0-0.5,0-0.7-0.1c-0.2-0.1-0.3-0.2-0.3-0.3v-1.7c0-0.1,0.1-0.2,0.3-0.3
		c0.2-0.1,0.4-0.1,0.7-0.1h6.3v2.5H337.6z"/>
	<path class="st0" d="M342.7,293.9c0-0.1,0.1-0.2,0.3-0.3c0.2-0.1,0.4-0.1,0.7-0.1h2.3c0.6,0,0.9,0,1-0.1c0.1-0.1,0.2-0.4,0.2-0.9
		v-18.1c0-0.2,0.1-0.3,0.2-0.4c0.1-0.1,0.2-0.2,0.4-0.2h1.4c0.1,0,0.3,0.1,0.4,0.2c0.1,0.1,0.1,0.2,0.1,0.4v17.1v0.8
		c0,0.3,0,0.6,0,0.9c0,0.3,0,0.6,0,0.9s0,0.6-0.1,0.8c0,0.2-0.1,0.4-0.2,0.5c-0.1,0.1-0.2,0.3-0.5,0.4c-0.1,0.1-0.4,0.1-0.7,0.1
		c-0.3,0-0.6,0.1-0.9,0.1c-0.3,0-0.7,0-1.1,0.1c-0.4,0-0.7,0-1,0h-1.5c-0.3,0-0.5,0-0.7-0.1c-0.2-0.1-0.3-0.2-0.3-0.3L342.7,293.9
		L342.7,293.9z"/>
	<path class="st0" d="M354.5,274.4c0-0.2,0-0.3,0.2-0.4c0.1-0.1,0.2-0.2,0.4-0.2h1.4c0.1,0,0.3,0.1,0.4,0.2c0.1,0.1,0.1,0.3,0.1,0.4
		v21.1c0,0.2,0,0.3-0.1,0.4c-0.1,0.1-0.2,0.2-0.4,0.2H355c-0.2,0-0.3-0.1-0.4-0.2c-0.1-0.1-0.2-0.3-0.2-0.4V274.4z"/>
	<path class="st0" d="M375.3,276.9c0-0.2,0.1-0.4,0.2-0.5c0.1-0.1,0.3-0.2,0.5-0.2h1.1c0.2,0,0.3,0.1,0.5,0.2
		c0.1,0.1,0.2,0.3,0.2,0.5v1.6c0,0.2-0.1,0.3-0.2,0.4c-0.1,0.1-0.3,0.2-0.5,0.2H376c-0.2,0-0.3-0.1-0.5-0.2
		c-0.1-0.1-0.2-0.3-0.2-0.4V276.9z M370.7,276.9c0-0.2,0.1-0.4,0.2-0.5c0.1-0.1,0.3-0.2,0.5-0.2h1.1c0.2,0,0.3,0.1,0.5,0.2
		c0.1,0.1,0.2,0.3,0.2,0.5v1.6c0,0.2-0.1,0.3-0.2,0.4c-0.1,0.1-0.3,0.2-0.5,0.2h-1.1c-0.2,0-0.3-0.1-0.5-0.2
		c-0.1-0.1-0.2-0.3-0.2-0.4L370.7,276.9L370.7,276.9z M370.7,289.4c0,1.2,0.3,2.1,0.8,2.8c0.5,0.7,1.4,1,2.6,1h0.5
		c0.3,0,0.6,0,0.9-0.1c0.3,0,0.6-0.1,0.8-0.2c0.2-0.1,0.4-0.3,0.6-0.5s0.2-0.5,0.2-0.8v-6.7c-0.4,0-0.7-0.1-1-0.1
		c-0.3,0-0.5,0-0.8,0c-0.7,0-1.3,0.1-1.9,0.2c-0.6,0.1-1.1,0.3-1.5,0.6c-0.4,0.3-0.7,0.7-1,1.3c-0.2,0.5-0.4,1.2-0.4,2V289.4z
		 M368.3,288.9c0-1.2,0.2-2.2,0.5-3c0.4-0.8,0.9-1.5,1.5-2c0.7-0.5,1.4-0.9,2.3-1.2c0.9-0.2,1.9-0.4,3-0.4c0.2,0,0.5,0,0.9,0
		c0.3,0,0.6,0.1,1,0.1c0.3,0,0.6,0.1,0.9,0.1c0.3,0,0.5,0.1,0.7,0.2c0.2,0,0.3,0.1,0.4,0.2c0,0.1,0.1,0.2,0.1,0.4v8.3
		c0,0.8,0.2,1.3,0.5,1.5c0.4,0.2,0.8,0.3,1.5,0.3h0.6v2.5h-1c-0.9,0-1.6-0.1-2.1-0.4c-0.6-0.3-1-0.7-1.3-1.3
		c-0.3,0.4-0.8,0.7-1.5,0.9c-0.7,0.2-1.4,0.3-2.2,0.3h-0.3c-1.8,0-3.1-0.5-4.1-1.5c-0.9-1-1.4-2.5-1.4-4.4L368.3,288.9L368.3,288.9z
		"/>
	<path class="st0" d="M382,296.1c-0.3,0-0.5,0-0.7-0.1c-0.2-0.1-0.3-0.2-0.3-0.3v-1.7c0-0.1,0.1-0.2,0.3-0.3
		c0.2-0.1,0.4-0.1,0.7-0.1h6.3v2.5H382z"/>
	<path class="st0" d="M388.1,296.1c-0.3,0-0.5,0-0.7-0.1c-0.2-0.1-0.3-0.2-0.3-0.3v-1.7c0-0.1,0.1-0.2,0.3-0.3
		c0.2-0.1,0.4-0.1,0.7-0.1h6.3v2.5H388.1z"/>
	<path class="st0" d="M396.5,280.4c-0.3,0-0.5-0.1-0.5-0.4v-0.5c0-0.2,0.2-0.3,0.5-0.3h0.5c-0.2-0.2-0.3-0.5-0.4-0.8
		c-0.1-0.3-0.1-0.6-0.1-0.9c0-0.8,0.2-1.4,0.7-1.8c0.5-0.4,1.1-0.6,2-0.6c0.1,0,0.3,0,0.5,0c0.2,0,0.4,0,0.6,0.1
		c0.2,0.1,0.3,0.2,0.3,0.4v0.4c0,0.2-0.1,0.3-0.4,0.3c0,0-0.2,0-0.4,0c-0.2,0-0.4,0-0.5,0c-1,0-1.5,0.4-1.5,1.3c0,0.4,0.1,0.8,0.2,1
		c0.1,0.3,0.3,0.4,0.4,0.5h1.9c0.3,0,0.5,0.1,0.5,0.4v0.5c0,0.2,0,0.3-0.1,0.3c-0.1,0-0.2,0.1-0.4,0.1H396.5z M393.2,293.9
		c0-0.1,0.1-0.2,0.3-0.3c0.2-0.1,0.4-0.1,0.7-0.1h1.3c0.2,0,0.4,0,0.6,0c0.2,0,0.4-0.1,0.7-0.1c0.2-0.1,0.4-0.2,0.5-0.3
		c0.1-0.1,0.2-0.4,0.2-0.6v-7.8c0-0.2,0.1-0.3,0.2-0.4c0.1-0.1,0.2-0.2,0.4-0.2h1.3c0.1,0,0.3,0.1,0.4,0.2c0.1,0.1,0.2,0.2,0.2,0.4
		v8.1c0.1,0.2,0.2,0.3,0.4,0.4c0.2,0.1,0.4,0.2,0.6,0.2c0.2,0.1,0.4,0.1,0.7,0.1c0.2,0,0.4,0,0.6,0h0.4v2.5h-0.3
		c-0.6,0-1.2-0.1-1.9-0.2c-0.7-0.1-1.2-0.4-1.7-0.8c-0.5,0.4-1,0.7-1.7,0.8c-0.7,0.1-1.2,0.2-1.8,0.2h-0.9c-0.3,0-0.5,0-0.7-0.1
		c-0.2-0.1-0.3-0.2-0.3-0.3L393.2,293.9L393.2,293.9z"/>
	<path class="st0" d="M402.3,296.1c-0.3,0-0.5,0-0.7-0.1c-0.2-0.1-0.3-0.2-0.3-0.3v-1.7c0-0.1,0.1-0.2,0.3-0.3
		c0.2-0.1,0.4-0.1,0.7-0.1h6.3v2.5H402.3z"/>
	<path class="st0" d="M408.4,296.1c-0.3,0-0.5,0-0.7-0.1c-0.2-0.1-0.3-0.2-0.3-0.3v-1.7c0-0.1,0.1-0.2,0.3-0.3
		c0.2-0.1,0.4-0.1,0.7-0.1h6.3v2.5H408.4z"/>
	<path class="st0" d="M419.7,299.5c0-0.2,0.1-0.4,0.2-0.5c0.1-0.1,0.3-0.2,0.5-0.2h1.1c0.2,0,0.3,0.1,0.5,0.2
		c0.1,0.1,0.2,0.3,0.2,0.5v1.6c0,0.2-0.1,0.3-0.2,0.4c-0.1,0.1-0.3,0.2-0.5,0.2h-1.1c-0.2,0-0.3-0.1-0.5-0.2
		c-0.1-0.1-0.2-0.3-0.2-0.4V299.5z M415.1,299.5c0-0.2,0.1-0.4,0.2-0.5c0.1-0.1,0.3-0.2,0.5-0.2h1.1c0.2,0,0.3,0.1,0.5,0.2
		c0.1,0.1,0.2,0.3,0.2,0.5v1.6c0,0.2-0.1,0.3-0.2,0.4c-0.1,0.1-0.3,0.2-0.5,0.2h-1.1c-0.2,0-0.3-0.1-0.5-0.2
		c-0.1-0.1-0.2-0.3-0.2-0.4L415.1,299.5L415.1,299.5z M413.6,293.9c0-0.1,0.1-0.2,0.3-0.3c0.2-0.1,0.4-0.1,0.7-0.1h1.3
		c0.2,0,0.4,0,0.6,0c0.2,0,0.4-0.1,0.7-0.1c0.2-0.1,0.4-0.2,0.5-0.3c0.1-0.1,0.2-0.4,0.2-0.6v-7.8c0-0.2,0.1-0.3,0.2-0.4
		c0.1-0.1,0.2-0.2,0.4-0.2h1.3c0.1,0,0.3,0.1,0.4,0.2c0.1,0.1,0.2,0.2,0.2,0.4v8.1c0.1,0.2,0.2,0.3,0.4,0.4c0.2,0.1,0.4,0.2,0.6,0.2
		c0.2,0,0.4,0.1,0.7,0.1c0.2,0,0.4,0,0.6,0h0.4v2.5h-0.3c-0.6,0-1.2-0.1-1.9-0.2c-0.7-0.1-1.2-0.4-1.7-0.8c-0.5,0.4-1,0.7-1.7,0.8
		c-0.7,0.1-1.2,0.2-1.8,0.2h-0.9c-0.3,0-0.5,0-0.7-0.1c-0.2-0.1-0.3-0.2-0.3-0.3L413.6,293.9L413.6,293.9z"/>
	<path class="st0" d="M422.7,296.1c-0.3,0-0.5,0-0.7-0.1c-0.2-0.1-0.3-0.2-0.3-0.3v-1.7c0-0.1,0.1-0.2,0.3-0.3
		c0.2-0.1,0.4-0.1,0.7-0.1h6.3v2.5H422.7z"/>
	<path class="st0" d="M428.8,296.1c-0.3,0-0.5,0-0.7-0.1c-0.2-0.1-0.3-0.2-0.3-0.3v-1.7c0-0.1,0.1-0.2,0.3-0.3
		c0.2-0.1,0.4-0.1,0.7-0.1h6.3v2.5H428.8z"/>
	<path class="st0" d="M442.8,293.5c1.5,0,2.6-0.4,3.2-1.2c0.6-0.8,1-1.9,1-3.4v-0.5c0-0.7-0.1-1.3-0.3-1.8c-0.2-0.5-0.5-0.9-0.8-1.1
		c-0.4-0.3-0.8-0.5-1.3-0.6c-0.5-0.1-1.1-0.2-1.7-0.2c-0.5,0-0.9,0-1.3,0c-0.3,0-0.7,0.1-1.1,0.1v8.6L442.8,293.5L442.8,293.5z
		 M434.9,296.1c-0.3,0-0.5,0-0.7-0.1c-0.2-0.1-0.3-0.2-0.3-0.3v-1.7c0-0.1,0.1-0.2,0.3-0.3c0.2-0.1,0.4-0.1,0.7-0.1h3.2v-9.9
		c0-0.4,0.2-0.6,0.7-0.8c0.6-0.2,1.3-0.3,1.9-0.4c0.7-0.1,1.4-0.1,2.1-0.1c2,0,3.6,0.5,4.8,1.4c1.2,0.9,1.8,2.4,1.8,4.5v0.4
		c0,1.7-0.3,3.2-1,4.4c-0.7,1.2-1.7,2-3.1,2.5c-0.3,0.1-0.6,0.2-1,0.2c-0.4,0-0.8,0.1-1.2,0.1c-0.4,0-0.9,0.1-1.3,0.1
		c-0.4,0-0.8,0-1.2,0v0.7c0,1.5,0.2,2.6,0.7,3.3c0.5,0.7,1.3,1.1,2.6,1.1c1.2,0,2.1-0.3,2.5-1c0.4-0.7,0.7-1.7,0.7-3.2
		c0-0.1,0-0.2,0-0.4c0-0.2,0-0.3,0-0.5c0-0.2,0-0.3,0-0.5c0-0.2,0-0.3,0.1-0.3c0.2-0.7,0.6-1.2,1.1-1.5c0.3-0.1,0.6-0.2,0.9-0.3
		c0.4,0,0.8-0.1,1.2-0.1h1.2v2.5H451c-0.3,0-0.6,0-1,0c-0.3,0-0.6,0-0.7,0l0,1.1c-0.1,2.1-0.5,3.6-1.3,4.7c-0.8,1.1-2.2,1.6-4.1,1.6
		c-1.1,0-2-0.1-2.7-0.4c-0.7-0.3-1.3-0.7-1.8-1.3c-0.4-0.6-0.7-1.2-0.9-2c-0.2-0.8-0.3-1.7-0.3-2.7v-1L434.9,296.1L434.9,296.1z"/>
	<path class="st0" d="M451.4,296.1c-0.3,0-0.5,0-0.7-0.1c-0.2-0.1-0.3-0.2-0.3-0.3v-1.7c0-0.1,0.1-0.2,0.3-0.3
		c0.2-0.1,0.4-0.1,0.7-0.1h6.3v2.5H451.4z"/>
	<path class="st0" d="M457.5,296.1c-0.3,0-0.5,0-0.7-0.1c-0.2-0.1-0.3-0.2-0.3-0.3v-1.7c0-0.1,0.1-0.2,0.3-0.3
		c0.2-0.1,0.4-0.1,0.7-0.1h6.3v2.5H457.5z"/>
	<path class="st0" d="M462.6,293.9c0-0.1,0.1-0.2,0.3-0.3c0.2-0.1,0.4-0.1,0.7-0.1h2.3c0.5,0,0.9,0,1-0.1c0.1-0.1,0.2-0.4,0.2-0.9
		v-18.1c0-0.2,0.1-0.3,0.2-0.4c0.1-0.1,0.2-0.2,0.4-0.2h1.4c0.2,0,0.3,0.1,0.4,0.2c0.1,0.1,0.1,0.2,0.1,0.4v17.1v0.8
		c0,0.3,0,0.6,0,0.9c0,0.3,0,0.6,0,0.9c0,0.3,0,0.6-0.1,0.8c0,0.2-0.1,0.4-0.2,0.5c-0.1,0.1-0.2,0.3-0.5,0.4
		c-0.1,0.1-0.4,0.1-0.7,0.1c-0.3,0-0.6,0.1-0.9,0.1c-0.3,0-0.7,0-1.1,0.1c-0.4,0-0.7,0-1,0h-1.5c-0.3,0-0.5,0-0.7-0.1
		c-0.2-0.1-0.3-0.2-0.3-0.3L462.6,293.9L462.6,293.9z"/>
	<path class="st0" d="M474.4,274.4c0-0.2,0-0.3,0.2-0.4c0.1-0.1,0.2-0.2,0.4-0.2h1.4c0.2,0,0.3,0.1,0.4,0.2c0.1,0.1,0.1,0.3,0.1,0.4
		v21.1c0,0.2,0,0.3-0.1,0.4c-0.1,0.1-0.2,0.2-0.4,0.2h-1.4c-0.2,0-0.3-0.1-0.4-0.2c-0.1-0.1-0.2-0.3-0.2-0.4V274.4z"/>
	<path class="st0" d="M31,337.5l1.4-1.7c1.6,1.9,4.2,3.8,7.8,3.8c5.1,0,6.5-2.9,6.5-5.1c0-7.6-14.9-3.6-14.9-12.7
		c0-4.2,3.6-6.9,8.1-6.9c3.7,0,6.5,1.4,8.4,3.6l-1.4,1.6c-1.8-2.2-4.3-3.3-7.1-3.3c-3.3,0-5.8,2-5.8,4.8c0,6.6,14.9,3,14.9,12.6
		c0,3.3-2.1,7.3-8.8,7.3C36,341.6,32.9,339.8,31,337.5"/>
	<path class="st0" d="M65.8,341.1v-2.2c-1.6,1.8-3.6,2.7-6.1,2.7c-3.1,0-6.3-2.2-6.3-6.2c0-4.1,3.2-6.2,6.3-6.2
		c2.5,0,4.5,0.9,6.1,2.7V328c0-2.8-2.2-4.3-4.8-4.3c-2.3,0-4,0.8-5.6,2.7l-1.1-1.4c1.9-2.1,3.9-3.1,6.9-3.1c3.6,0,6.5,1.8,6.5,6
		v13.2L65.8,341.1L65.8,341.1z M65.8,337.4v-4.1c-1.3-1.7-3.3-2.6-5.4-2.6c-2.9,0-4.9,2-4.9,4.6c0,2.6,2,4.6,4.9,4.6
		C62.6,340,64.6,339.1,65.8,337.4"/>
	<path class="st0" d="M86.4,341.1v-2.7c-1.4,1.7-3.9,3.2-6.5,3.2c-3.6,0-5.6-1.8-5.6-6v-13.2h1.9v12.7c0,3.6,1.7,4.6,4.3,4.6
		c2.3,0,4.6-1.4,5.8-3.1v-14.2h1.9v18.7L86.4,341.1L86.4,341.1z"/>
	<path class="st0" d="M108.1,341.1v-3c-1.3,1.9-3.6,3.4-6.2,3.4c-4.8,0-8-3.8-8-9.8c0-5.9,3.2-9.8,8-9.8c2.6,0,4.8,1.4,6.2,3.5
		v-10.1h2v25.8H108.1z M108.1,336.4v-9.3c-1-1.8-3.4-3.4-5.9-3.4c-4,0-6.3,3.5-6.3,8c0,4.5,2.3,8,6.3,8
		C104.7,339.8,107.1,338.2,108.1,336.4"/>
	<path class="st0" d="M116.1,317.9c0-0.9,0.7-1.5,1.5-1.5c0.8,0,1.5,0.7,1.5,1.5c0,0.9-0.7,1.5-1.5,1.5
		C116.8,319.5,116.1,318.8,116.1,317.9 M116.6,322.4h1.9v18.7h-1.9V322.4z"/>
	<path class="st0" d="M134.4,328.2c0-7.9,5.5-13.4,12.6-13.4c3.9,0,6.9,1.8,9,4.6l-1.8,1.2c-1.6-2.2-4.3-3.8-7.2-3.8
		c-5.8,0-10.3,4.6-10.3,11.3c0,6.7,4.5,11.3,10.3,11.3c3,0,5.7-1.5,7.2-3.8l1.8,1.2c-2.2,2.8-5.1,4.6-9.1,4.6
		C139.9,341.6,134.4,336.2,134.4,328.2"/>
	<path class="st0" d="M159.7,331.7c0-5.5,3.3-9.8,8.6-9.8c5.3,0,8.7,4.3,8.7,9.8c0,5.5-3.3,9.8-8.7,9.8
		C163,341.6,159.7,337.2,159.7,331.7 M174.8,331.7c0-4.1-2.3-8-6.6-8c-4.2,0-6.5,3.8-6.5,8c0,4.2,2.4,8,6.5,8
		C172.5,339.8,174.8,335.9,174.8,331.7"/>
	<path class="st0" d="M194.5,341.1v-12.7c0-3.6-1.7-4.7-4.3-4.7c-2.3,0-4.7,1.5-5.8,3.2v14.1h-1.9v-18.7h1.9v2.8
		c1.3-1.6,3.9-3.3,6.5-3.3c3.6,0,5.6,1.9,5.6,6.1v13.1H194.5z"/>
	<path class="st0" d="M203.3,337.5v-13.3h-3v-1.8h3v-5.1h2v5.1h3.6v1.8h-3.6v13c0,1.5,0.6,2.6,1.9,2.6c0.9,0,1.6-0.4,2-0.9l0.7,1.5
		c-0.7,0.7-1.6,1.2-3,1.2C204.5,341.6,203.3,340.1,203.3,337.5"/>
	<path class="st0" d="M213.7,341.1v-18.7h1.9v3.2c1.5-2.1,3.6-3.6,6.1-3.6v2.2c-0.3-0.1-0.6-0.1-1-0.1c-1.8,0-4.3,1.7-5.1,3.3v13.6
		L213.7,341.1L213.7,341.1z"/>
	<path class="st0" d="M237.4,341.1v-2.2c-1.6,1.8-3.6,2.7-6.1,2.7c-3.1,0-6.3-2.2-6.3-6.2c0-4.1,3.2-6.2,6.3-6.2
		c2.5,0,4.5,0.9,6.1,2.7V328c0-2.8-2.2-4.3-4.8-4.3c-2.3,0-4,0.8-5.6,2.7l-1.1-1.4c1.9-2.1,3.9-3.1,6.9-3.1c3.6,0,6.5,1.8,6.5,6
		v13.2L237.4,341.1L237.4,341.1z M237.4,337.4v-4.1c-1.3-1.7-3.3-2.6-5.4-2.6c-2.9,0-4.9,2-4.9,4.6c0,2.6,2,4.6,4.9,4.6
		C234.1,340,236.1,339.1,237.4,337.4"/>
	<path class="st0" d="M244.8,331.7c0-5.5,3.4-9.8,8.7-9.8c3.1,0,4.9,1.3,6.4,3.2l-1.3,1.2c-1.3-1.9-2.9-2.6-4.9-2.6
		c-4.2,0-6.8,3.5-6.8,8s2.6,8,6.8,8c2,0,3.6-0.8,4.9-2.6l1.3,1.2c-1.5,1.9-3.2,3.2-6.4,3.2C248.3,341.6,244.8,337.2,244.8,331.7"/>
	<path class="st0" d="M265.1,337.5v-13.3h-3v-1.8h3v-5.1h2v5.1h3.6v1.8h-3.6v13c0,1.5,0.6,2.6,1.9,2.6c0.9,0,1.6-0.4,2-0.9l0.7,1.5
		c-0.7,0.7-1.6,1.2-3,1.2C266.2,341.6,265.1,340.1,265.1,337.5"/>
	<path class="st0" d="M274.4,331.7c0-5.5,3.3-9.8,8.6-9.8c5.3,0,8.7,4.3,8.7,9.8c0,5.5-3.3,9.8-8.7,9.8
		C277.8,341.6,274.4,337.2,274.4,331.7 M289.6,331.7c0-4.1-2.3-8-6.6-8c-4.2,0-6.5,3.8-6.5,8c0,4.2,2.4,8,6.5,8
		C287.3,339.8,289.6,335.9,289.6,331.7"/>
	<path class="st0" d="M297.2,341.1v-18.7h1.9v3.2c1.5-2.1,3.6-3.6,6.1-3.6v2.2c-0.3-0.1-0.6-0.1-1-0.1c-1.8,0-4.3,1.7-5.1,3.3v13.6
		L297.2,341.1L297.2,341.1z"/>
	<path class="st0" d="M307.9,338.6l1.2-1.5c1.2,1.5,3.3,2.7,5.8,2.7c3,0,4.8-1.6,4.8-3.8c0-5.1-11.3-2.2-11.3-8.9
		c0-2.9,2.3-5.2,6.4-5.2c3.1,0,5.1,1.2,6.4,2.7l-1.1,1.4c-1-1.5-3-2.5-5.3-2.5c-2.8,0-4.5,1.5-4.5,3.4c0,4.7,11.3,1.8,11.3,9
		c0,3-2.2,5.5-6.7,5.5C311.9,341.6,309.7,340.7,307.9,338.6"/>
	<path class="st0" d="M355.2,341.1l-2.4-6.3h-13.1l-2.5,6.3h-2.4l10.1-25.8h2.6l10.1,25.8H355.2z M346.2,317.7l-5.9,15.1H352
		L346.2,317.7z"/>
	<path class="st0" d="M373.4,341.1v-2.7c-1.4,1.7-3.9,3.2-6.5,3.2c-3.6,0-5.6-1.8-5.6-6v-13.2h1.9v12.7c0,3.6,1.7,4.6,4.3,4.6
		c2.3,0,4.6-1.4,5.8-3.1v-14.2h1.9v18.7L373.4,341.1L373.4,341.1z"/>
	<path class="st0" d="M382.2,337.5v-13.3h-3v-1.8h3v-5.1h2v5.1h3.6v1.8h-3.6v13c0,1.5,0.6,2.6,1.9,2.6c0.9,0,1.6-0.4,2-0.9l0.7,1.5
		c-0.7,0.7-1.6,1.2-3,1.2C383.4,341.6,382.2,340.1,382.2,337.5"/>
	<path class="st0" d="M404.7,341.1v-12.7c0-3.6-1.7-4.6-4.3-4.6c-2.3,0-4.7,1.5-5.8,3.2v14.1h-1.9v-25.8h1.9v9.9
		c1.3-1.6,3.9-3.3,6.5-3.3c3.6,0,5.6,1.8,5.6,6v13.2L404.7,341.1L404.7,341.1z"/>
	<path class="st0" d="M412.2,331.7c0-5.5,3.3-9.8,8.6-9.8c5.3,0,8.7,4.3,8.7,9.8c0,5.5-3.3,9.8-8.7,9.8
		C415.5,341.6,412.2,337.2,412.2,331.7 M427.3,331.7c0-4.1-2.3-8-6.6-8c-4.2,0-6.5,3.8-6.5,8c0,4.2,2.4,8,6.5,8
		C425,339.8,427.3,335.9,427.3,331.7"/>
	<path class="st0" d="M434.9,341.1v-18.7h1.9v3.2c1.5-2.1,3.6-3.6,6.1-3.6v2.2c-0.3-0.1-0.6-0.1-1-0.1c-1.8,0-4.3,1.7-5.1,3.3v13.6
		L434.9,341.1L434.9,341.1z"/>
	<path class="st0" d="M446.7,317.9c0-0.9,0.7-1.5,1.5-1.5c0.8,0,1.5,0.7,1.5,1.5c0,0.9-0.7,1.5-1.5,1.5
		C447.4,319.5,446.7,318.8,446.7,317.9 M447.2,322.4h1.9v18.7h-1.9V322.4z"/>
	<path class="st0" d="M456,337.5v-13.3h-3v-1.8h3v-5.1h2v5.1h3.6v1.8H458v13c0,1.5,0.6,2.6,1.9,2.6c0.9,0,1.6-0.4,2-0.9l0.7,1.5
		c-0.7,0.7-1.6,1.2-3,1.2C457.2,341.6,456,340.1,456,337.5"/>
	<path class="st0" d="M465.5,346.6c0.4,0.2,1.1,0.3,1.6,0.3c1.2,0,2-0.5,2.7-2.3l1.4-3.3l-7.6-18.8h2.2l6.5,16.3l6.5-16.3h2.2
		l-9.3,22.8c-1,2.4-2.5,3.5-4.6,3.5c-0.6,0-1.4-0.1-1.9-0.3L465.5,346.6z"/>
	<rect x="32" y="256.5" class="st0" width="443.6" height="1.3"/>
	<path class="st0" d="M203.3,202.5c1.2,0,2.1,1,2.1,2.2c0,1.2-0.9,2.2-2.1,2.2c-1.2,0-2.1-1-2.1-2.2
		C201.2,203.5,202.1,202.5,203.3,202.5"/>
	<path class="st0" d="M209.6,196.1c1.2,0,2.1,1,2.1,2.2c0,1.2-0.9,2.2-2.1,2.2s-2.1-1-2.1-2.2C207.5,197,208.5,196.1,209.6,196.1"/>
	<path class="st0" d="M203.3,196.1c1.2,0,2.1,1,2.1,2.2c0,1.2-0.9,2.2-2.1,2.2c-1.2,0-2.1-1-2.1-2.2
		C201.2,197,202.1,196.1,203.3,196.1"/>
	<path class="st0" d="M209.6,189.5c1.2,0,2.1,1,2.1,2.2c0,1.2-0.9,2.2-2.1,2.2s-2.1-1-2.1-2.2C207.5,190.4,208.5,189.5,209.6,189.5"
		/>
	<path class="st0" d="M215.8,189.5c1.2,0,2.1,1,2.1,2.2c0,1.2-0.9,2.2-2.1,2.2c-1.2,0-2.1-1-2.1-2.2
		C213.7,190.4,214.7,189.5,215.8,189.5"/>
	<path class="st0" d="M203.3,189.5c1.2,0,2.1,1,2.1,2.2c0,1.2-0.9,2.2-2.1,2.2c-1.2,0-2.1-1-2.1-2.2
		C201.2,190.4,202.1,189.5,203.3,189.5"/>
	<path class="st0" d="M209.6,183c1.2,0,2.1,1,2.1,2.2c0,1.2-0.9,2.2-2.1,2.2s-2.1-1-2.1-2.2C207.5,184,208.5,183,209.6,183"/>
	<path class="st0" d="M215.8,183c1.2,0,2.1,1,2.1,2.2c0,1.2-0.9,2.2-2.1,2.2c-1.2,0-2.1-1-2.1-2.2C213.7,184,214.7,183,215.8,183"/>
	<path class="st0" d="M203.3,183c1.2,0,2.1,1,2.1,2.2c0,1.2-0.9,2.2-2.1,2.2c-1.2,0-2.1-1-2.1-2.2C201.2,184,202.1,183,203.3,183"/>
	<path class="st0" d="M209.6,176.5c1.2,0,2.1,1,2.1,2.2c0,1.2-0.9,2.2-2.1,2.2s-2.1-1-2.1-2.2C207.5,177.5,208.5,176.5,209.6,176.5"
		/>
	<path class="st0" d="M215.8,176.5c1.2,0,2.1,1,2.1,2.2c0,1.2-0.9,2.2-2.1,2.2c-1.2,0-2.1-1-2.1-2.2
		C213.7,177.5,214.7,176.5,215.8,176.5"/>
	<path class="st0" d="M222,183c1.2,0,2.1,1,2.1,2.2c0,1.2-0.9,2.2-2.1,2.2c-1.2,0-2.1-1-2.1-2.2C219.9,184,220.9,183,222,183"/>
	<path class="st0" d="M222,176.5c1.2,0,2.1,1,2.1,2.2c0,1.2-0.9,2.2-2.1,2.2c-1.2,0-2.1-1-2.1-2.2
		C219.9,177.5,220.9,176.5,222,176.5"/>
	<path class="st0" d="M228.4,189.5c1.2,0,2.1,1,2.1,2.2c0,1.2-0.9,2.2-2.1,2.2c-1.2,0-2.1-1-2.1-2.2
		C226.3,190.4,227.2,189.5,228.4,189.5"/>
	<path class="st0" d="M228.4,183c1.2,0,2.1,1,2.1,2.2c0,1.2-0.9,2.2-2.1,2.2c-1.2,0-2.1-1-2.1-2.2C226.3,184,227.2,183,228.4,183"/>
	<path class="st0" d="M228.4,176.5c1.2,0,2.1,1,2.1,2.2c0,1.2-0.9,2.2-2.1,2.2c-1.2,0-2.1-1-2.1-2.2
		C226.3,177.5,227.2,176.5,228.4,176.5"/>
	<path class="st0" d="M234.6,196.1c1.2,0,2.1,1,2.1,2.2c0,1.2-0.9,2.2-2.1,2.2s-2.1-1-2.1-2.2C232.5,197,233.4,196.1,234.6,196.1"/>
	<path class="st0" d="M234.6,189.5c1.2,0,2.1,1,2.1,2.2c0,1.2-0.9,2.2-2.1,2.2s-2.1-1-2.1-2.2C232.5,190.4,233.4,189.5,234.6,189.5"
		/>
	<path class="st0" d="M234.6,183c1.2,0,2.1,1,2.1,2.2c0,1.2-0.9,2.2-2.1,2.2s-2.1-1-2.1-2.2C232.5,184,233.4,183,234.6,183"/>
	<path class="st0" d="M234.6,176.5c1.2,0,2.1,1,2.1,2.2c0,1.2-0.9,2.2-2.1,2.2s-2.1-1-2.1-2.2C232.5,177.5,233.4,176.5,234.6,176.5"
		/>
	<path class="st0" d="M215.8,169.8c1.2,0,2.1,1,2.1,2.2s-0.9,2.2-2.1,2.2c-1.2,0-2.1-1-2.1-2.2S214.7,169.8,215.8,169.8"/>
	<path class="st0" d="M222,169.8c1.2,0,2.1,1,2.1,2.2s-0.9,2.2-2.1,2.2c-1.2,0-2.1-1-2.1-2.2S220.9,169.8,222,169.8"/>
	<path class="st0" d="M228.4,169.8c1.2,0,2.1,1,2.1,2.2s-0.9,2.2-2.1,2.2c-1.2,0-2.1-1-2.1-2.2S227.2,169.8,228.4,169.8"/>
	<path class="st0" d="M241,202.5c1.2,0,2.1,1,2.1,2.2c0,1.2-0.9,2.2-2.1,2.2c-1.2,0-2.1-1-2.1-2.2C239,203.5,239.9,202.5,241,202.5"
		/>
	<path class="st0" d="M241,196.1c1.2,0,2.1,1,2.1,2.2c0,1.2-0.9,2.2-2.1,2.2c-1.2,0-2.1-1-2.1-2.2C239,197,239.9,196.1,241,196.1"/>
	<path class="st0" d="M241,189.5c1.2,0,2.1,1,2.1,2.2c0,1.2-0.9,2.2-2.1,2.2c-1.2,0-2.1-1-2.1-2.2C239,190.4,239.9,189.5,241,189.5"
		/>
	<path class="st0" d="M241,183c1.2,0,2.1,1,2.1,2.2c0,1.2-0.9,2.2-2.1,2.2c-1.2,0-2.1-1-2.1-2.2C239,184,239.9,183,241,183"/>
	<path class="st0" d="M222,163.3c1.2,0,2.1,1,2.1,2.2c0,1.2-0.9,2.2-2.1,2.2c-1.2,0-2.1-1-2.1-2.2
		C219.9,164.3,220.9,163.3,222,163.3"/>
	<path class="st0" d="M203.3,202.5c1.2,0,2.1,1,2.1,2.2c0,1.2-0.9,2.2-2.1,2.2c-1.2,0-2.1-1-2.1-2.2
		C201.2,203.5,202.1,202.5,203.3,202.5"/>
	<path class="st0" d="M209.6,196.1c1.2,0,2.1,1,2.1,2.2c0,1.2-0.9,2.2-2.1,2.2s-2.1-1-2.1-2.2C207.5,197,208.5,196.1,209.6,196.1"/>
	<path class="st0" d="M203.3,196.1c1.2,0,2.1,1,2.1,2.2c0,1.2-0.9,2.2-2.1,2.2c-1.2,0-2.1-1-2.1-2.2
		C201.2,197,202.1,196.1,203.3,196.1"/>
	<path class="st0" d="M209.6,189.5c1.2,0,2.1,1,2.1,2.2c0,1.2-0.9,2.2-2.1,2.2s-2.1-1-2.1-2.2C207.5,190.4,208.5,189.5,209.6,189.5"
		/>
	<path class="st0" d="M215.8,189.5c1.2,0,2.1,1,2.1,2.2c0,1.2-0.9,2.2-2.1,2.2c-1.2,0-2.1-1-2.1-2.2
		C213.7,190.4,214.7,189.5,215.8,189.5"/>
	<path class="st0" d="M203.3,189.5c1.2,0,2.1,1,2.1,2.2c0,1.2-0.9,2.2-2.1,2.2c-1.2,0-2.1-1-2.1-2.2
		C201.2,190.4,202.1,189.5,203.3,189.5"/>
	<path class="st0" d="M209.6,183c1.2,0,2.1,1,2.1,2.2c0,1.2-0.9,2.2-2.1,2.2s-2.1-1-2.1-2.2C207.5,184,208.5,183,209.6,183"/>
	<path class="st0" d="M215.8,183c1.2,0,2.1,1,2.1,2.2c0,1.2-0.9,2.2-2.1,2.2c-1.2,0-2.1-1-2.1-2.2C213.7,184,214.7,183,215.8,183"/>
	<path class="st0" d="M203.3,183c1.2,0,2.1,1,2.1,2.2c0,1.2-0.9,2.2-2.1,2.2c-1.2,0-2.1-1-2.1-2.2C201.2,184,202.1,183,203.3,183"/>
	<path class="st0" d="M209.6,176.5c1.2,0,2.1,1,2.1,2.2c0,1.2-0.9,2.2-2.1,2.2s-2.1-1-2.1-2.2C207.5,177.5,208.5,176.5,209.6,176.5"
		/>
	<path class="st0" d="M215.8,176.5c1.2,0,2.1,1,2.1,2.2c0,1.2-0.9,2.2-2.1,2.2c-1.2,0-2.1-1-2.1-2.2
		C213.7,177.5,214.7,176.5,215.8,176.5"/>
	<path class="st0" d="M222,183c1.2,0,2.1,1,2.1,2.2c0,1.2-0.9,2.2-2.1,2.2c-1.2,0-2.1-1-2.1-2.2C219.9,184,220.9,183,222,183"/>
	<path class="st0" d="M222,176.5c1.2,0,2.1,1,2.1,2.2c0,1.2-0.9,2.2-2.1,2.2c-1.2,0-2.1-1-2.1-2.2
		C219.9,177.5,220.9,176.5,222,176.5"/>
	<path class="st0" d="M228.4,189.5c1.2,0,2.1,1,2.1,2.2c0,1.2-0.9,2.2-2.1,2.2c-1.2,0-2.1-1-2.1-2.2
		C226.3,190.4,227.2,189.5,228.4,189.5"/>
	<path class="st0" d="M228.4,183c1.2,0,2.1,1,2.1,2.2c0,1.2-0.9,2.2-2.1,2.2c-1.2,0-2.1-1-2.1-2.2C226.3,184,227.2,183,228.4,183"/>
	<path class="st0" d="M228.4,176.5c1.2,0,2.1,1,2.1,2.2c0,1.2-0.9,2.2-2.1,2.2c-1.2,0-2.1-1-2.1-2.2
		C226.3,177.5,227.2,176.5,228.4,176.5"/>
	<path class="st0" d="M234.6,196.1c1.2,0,2.1,1,2.1,2.2c0,1.2-0.9,2.2-2.1,2.2s-2.1-1-2.1-2.2C232.5,197,233.4,196.1,234.6,196.1"/>
	<path class="st0" d="M234.6,189.5c1.2,0,2.1,1,2.1,2.2c0,1.2-0.9,2.2-2.1,2.2s-2.1-1-2.1-2.2C232.5,190.4,233.4,189.5,234.6,189.5"
		/>
	<path class="st0" d="M234.6,183c1.2,0,2.1,1,2.1,2.2c0,1.2-0.9,2.2-2.1,2.2s-2.1-1-2.1-2.2C232.5,184,233.4,183,234.6,183"/>
	<path class="st0" d="M234.6,176.5c1.2,0,2.1,1,2.1,2.2c0,1.2-0.9,2.2-2.1,2.2s-2.1-1-2.1-2.2C232.5,177.5,233.4,176.5,234.6,176.5"
		/>
	<path class="st0" d="M215.8,169.8c1.2,0,2.1,1,2.1,2.2s-0.9,2.2-2.1,2.2c-1.2,0-2.1-1-2.1-2.2S214.7,169.8,215.8,169.8"/>
	<path class="st0" d="M222,169.8c1.2,0,2.1,1,2.1,2.2s-0.9,2.2-2.1,2.2c-1.2,0-2.1-1-2.1-2.2S220.9,169.8,222,169.8"/>
	<path class="st0" d="M228.4,169.8c1.2,0,2.1,1,2.1,2.2s-0.9,2.2-2.1,2.2c-1.2,0-2.1-1-2.1-2.2S227.2,169.8,228.4,169.8"/>
	<path class="st0" d="M241,202.5c1.2,0,2.1,1,2.1,2.2c0,1.2-0.9,2.2-2.1,2.2c-1.2,0-2.1-1-2.1-2.2C239,203.5,239.9,202.5,241,202.5"
		/>
	<path class="st0" d="M241,196.1c1.2,0,2.1,1,2.1,2.2c0,1.2-0.9,2.2-2.1,2.2c-1.2,0-2.1-1-2.1-2.2C239,197,239.9,196.1,241,196.1"/>
	<path class="st0" d="M241,189.5c1.2,0,2.1,1,2.1,2.2c0,1.2-0.9,2.2-2.1,2.2c-1.2,0-2.1-1-2.1-2.2C239,190.4,239.9,189.5,241,189.5"
		/>
	<path class="st0" d="M241,183c1.2,0,2.1,1,2.1,2.2c0,1.2-0.9,2.2-2.1,2.2c-1.2,0-2.1-1-2.1-2.2C239,184,239.9,183,241,183"/>
	<path class="st0" d="M222,163.3c1.2,0,2.1,1,2.1,2.2c0,1.2-0.9,2.2-2.1,2.2c-1.2,0-2.1-1-2.1-2.2
		C219.9,164.3,220.9,163.3,222,163.3"/>
</g>
</svg>
