<?xml version="1.0" encoding="utf-8"?>
<!-- Generator: Adobe Illustrator 26.3.1, SVG Export Plug-In . SVG Version: 6.00 Build 0)  -->
<svg version="1.1" id="Layer_1" xmlns="http://www.w3.org/2000/svg" xmlns:xlink="http://www.w3.org/1999/xlink" x="0px" y="0px"
	 viewBox="0 0 512 512" style="enable-background:new 0 0 512 512;" xml:space="preserve">
<style type="text/css">
	.st0{fill:#FFFFFF;}
</style>
<g>
	<g>
		<path class="st0" d="M169,283.2c-0.8-8.1-1.5-16.1-2.4-24.7c1.2,0.7,2.2,1.1,3,1.7c16.1,10.1,33.7,13.1,52.4,10.1
			c3.1-0.5,6.3-1.6,8.9-3.2c9.1-5.3,9.3-16.9,0.2-21.8c-5.8-3.1-12.3-5.1-18.6-7.1c-8.7-2.8-17.7-4.9-26.4-7.6
			c-13.2-4.2-21-16.8-19.8-31.5c1.4-17.4,12.5-26.2,28.7-30.2c18.3-4.5,36.5-2.9,54.5,1.9c0.5,0.1,1,0.5,1.8,0.8
			c0.5,7.3,1.1,14.7,1.6,22.8c-1.6-0.6-2.6-0.9-3.7-1.4c-14.9-6.5-30.6-8-46.6-5.5c-2.9,0.5-5.9,1.7-8.4,3.4c-6,4-6.5,11.6-0.9,16
			c3.5,2.7,7.7,5,12,6.4c7.8,2.6,15.8,4.3,23.7,6.5c4.7,1.3,9.4,2.6,13.9,4.4c14.2,5.7,20.3,16.4,19,32.4
			c-1.6,20.8-16.2,30.4-33.7,33.4c-18.7,3.2-37.2,1.6-55.1-4.6c-0.9-0.3-1.8-0.7-2.7-1.1C169.9,284,169.5,283.6,169,283.2z"/>
		<path class="st0" d="M382,172.5c0.4,8.2,0.7,15.8,1,24c-1.9-0.8-3.4-1.4-4.8-2c-12.1-5.4-24.6-8.4-38-8.1
			c-23.3,0.6-39.3,16.1-39.4,38.9c0,5.1,0.3,10.4,1.6,15.3c4.4,17.3,19.5,28.6,37.9,29.8c15.5,1,29.8-2.4,43.5-9.3
			c1.2-0.6,2.4-1.2,4.2-2c-1.2,8.8-2.3,17.1-3.5,25.8c-2.1,0.7-4.4,1.7-6.7,2.3c-18.5,4.8-37.2,5.5-55.8,1.8
			c-24.8-5-41.8-22.7-46.4-47.3c-2.1-11-2-22,1-32.8c5.7-21.1,20-34.2,41.3-39.8c18.9-5,37.8-3.2,56.6,1.2
			C377,171,379.6,171.9,382,172.5z"/>
		<path class="st0" d="M75.5,234.1c-6.1-2.1-10.8-5.2-14.9-10.2c1.1-3.9,1.9-8.1,3.5-11.9c1.5-3.8,3.8-7.2,5.3-11.3
			c-4.9,4.2-9.7,8.4-15.1,13c-2.6-5.5-3.2-10.7-2.6-16.3c6.6-5.3,14.1-8.4,22.6-9.6c0-0.3,0-0.6,0-0.9c-6.3-0.4-12.6-0.9-18.9-1.3
			c0.4-3.7,3.6-8.3,8.7-12.1c6.5,1.3,12.4,4.3,18,9.4c-1.8-5.2-3.3-9.6-5-14.4c6.8-2.4,12.9-2.1,19.9-0.3c-1.4,4.5-2.6,8.5-3.8,12.4
			c5.5-2.6,10.9-5.1,16.9-7.9c3.4,4.6,6.4,8.5,9.6,12.9c-7.3,0.5-13.6,1-19.8,1.5c0,0.3-0.1,0.6-0.1,1c8.3,1.1,15.5,4.6,22,9.2
			c1.2,4.7,0.5,10.8-2.1,16.3c-2.8-2.4-5.4-4.7-8.1-6.9c-2.6-2.2-5.3-4.4-8.3-6.3c4.9,7.4,9,15.1,9.9,24.4
			c-3.5,4.5-8.2,7.8-14.4,10.1c-1-6.8-1.6-13.1-2.9-19.3c-1.3-6.2-6-18.1-6.5-18.1c0.9,17.1,1.8,34.3,2.7,51.8
			c-1.5,1-3.1,2.1-4.9,3.4c-1.9-1.3-3.6-2.5-5.6-3.8c0.3-3.5,2.5-39.4,2.8-51.1C79.2,209,76.9,221.3,75.5,234.1z"/>
		<path class="st0" d="M425.6,272.3c2.2-0.8,38.7,0,54.1-4.4c0.6-0.2,1.3-0.3,1.3-0.3v23.6h-79.4L425.6,272.3z"/>
		<path class="st0" d="M456,238.7c-18.6-0.5-36.1-4.6-53.5-9.8c17.4-5.2,34.8-9.4,53.5-9.8C456,225.7,456,231.7,456,238.7z"/>
		<path class="st0" d="M425.6,185.3c2.2,0.8,38.7,0,54.1,4.4c0.6,0.2,1.3,0.3,1.3,0.3v-23.6h-79.4L425.6,185.3z"/>
		<path class="st0" d="M134.9,232.5c0,0,8.3-12.9,8.1-13.1c-8.9,6-33.1,22.5-56,38c-22.9-15.5-47.1-32-56-38
			c-0.2,0.2,8.1,13.1,8.1,13.1c0.5,0.6,20,16.4,38.5,31.3c-21.1,14.4-39,26.4-39,26.4h25c0,0,10.5-8.4,23.4-18.8
			c12.9,10.4,23.4,18.8,23.4,18.8h25c0,0-17.8-12.1-38.9-26.4C115,248.9,134.5,233.1,134.9,232.5z"/>
	</g>
	<g>
		<path class="st0" d="M178,310.6c0.9,0,1.4-0.5,1.4-1.5c0-1-0.5-1.5-1.4-1.5c-0.9,0-1.4,0.5-1.4,1.5
			C176.6,310.1,177.1,310.6,178,310.6z"/>
		<path class="st0" d="M189.9,323.8c-0.9,0-1.4,0.5-1.4,1.5c0,1,0.5,1.5,1.4,1.5c0.9,0,1.4-0.5,1.4-1.5
			C191.3,324.3,190.8,323.8,189.9,323.8z"/>
		<path class="st0" d="M193.9,323.8c-0.9,0-1.4,0.5-1.4,1.5c0,1,0.5,1.5,1.4,1.5c0.9,0,1.4-0.5,1.4-1.5
			C195.3,324.3,194.9,323.8,193.9,323.8z"/>
		<path class="st0" d="M213.6,320.8H212c-0.8,0-1.5-0.3-2.1-0.8c-0.5-0.5-0.8-1.2-0.8-2.1v-5.7h-2.2v8.6h-1.6
			c-0.8,0-1.5-0.3-2.1-0.8c-0.5-0.5-0.8-1.2-0.8-2.1v-5.7h-2.2v8.6h-3.4h-0.5h-0.4c-0.8,0-1.4-0.2-1.9-0.7c-0.5-0.5-0.7-1.1-0.7-1.8
			v-8.2H191v10.7h-3.1h-0.4c-0.8,0-1.4-0.2-1.9-0.7c-0.5-0.5-0.7-1.1-0.7-1.8v-8.2h-2.2v12.8c0,2.8-1.5,4.2-4.4,4.2H177
			c-1.1,0-1.9-0.4-2.5-1.2c-0.6-0.8-0.9-1.9-0.9-3.3c0-2.2,0.3-4.1,0.9-5.6h-2.2c-0.7,1.8-1.1,3.7-1.1,5.8c0,2,0.5,3.5,1.4,4.6
			c1,1.1,2.2,1.7,3.8,1.7h1.9c4.4,0,6.5-2.1,6.5-6.4v-1.4c0.4,0.9,1.3,1.3,2.5,1.4v0.1h0.4h0.1h5.4v-1.5c0.5,1,1.5,1.5,2.9,1.5h0.1
			h0.5h5.6v-1.5c0.5,1,1.5,1.5,2.9,1.5h3.8v-1.5c0.5,1,1.5,1.5,2.9,1.5h3.8v-12.7h-2.2L213.6,320.8L213.6,320.8z"/>
		<path class="st0" d="M237,307.7c0.9,0,1.4-0.5,1.4-1.5c0-1-0.5-1.5-1.4-1.5c-0.9,0-1.4,0.5-1.4,1.5
			C235.6,307.2,236.1,307.7,237,307.7z"/>
		<path class="st0" d="M291.7,320.8h-3.1h-0.5h-0.4c-0.8,0-1.4-0.2-1.9-0.7c-0.5-0.5-0.7-1.1-0.7-1.8v-15.4h-2.3v17.9h-3.1h-0.5
			h-4.1c0.6-0.4,1.2-1.1,1.5-2c0.4-0.9,0.6-1.7,0.6-2.7c0-2-0.6-3.5-1.7-4.6c-1.1-1.1-2.5-1.7-4.3-1.7c-1.8,0-3.3,0.7-4.5,2
			s-1.7,3-1.7,5.1c0,1.7,0.3,3,0.9,3.9h-2.8h-0.6h-2.5v-6.4c0-2.8-0.8-5-2.3-6.5c-1.5-1.5-3.7-2.3-6.6-2.3c-2,0-3.9,0.3-5.5,0.8
			l0.6,2c1.5-0.5,3.2-0.8,4.9-0.8c2.3,0,4,0.6,5.1,1.7c1.1,1.2,1.6,2.9,1.6,5.2v6.2h-4v-9.4h-3.2c-2.3,0-4,0.5-5.3,1.5
			c-1.3,1-1.9,2.4-1.9,4.1c0,1.7,0.6,2.9,1.8,3.8h-3.7h-0.5h-0.4c-0.8,0-1.4-0.2-1.9-0.7c-0.5-0.5-0.7-1.1-0.7-1.8v-8.2h-2.3v10.7
			h-3.1h-0.4c-0.7,0-1.4-0.3-2-0.8c-0.6-0.5-1-1.1-1.2-1.8c-1.2-4.7-3.4-7.7-6.4-8.9l-0.8,2c2.8,1.3,4.7,4.5,5.6,9.5h-8.7v2h11v-1.5
			c0.6,0.9,1.5,1.4,2.5,1.4v0h0.2h0.3h5.4v-1.5c0.5,1,1.5,1.5,2.9,1.5h0.1h0.5h20.9h0.6h16h0.5h5.4v-1.5c0.5,1,1.5,1.5,2.9,1.5h0.1
			h0.5h5.4v-19.9h-2.3L291.7,320.8L291.7,320.8z M251.7,320.8h-2.2c-1.1,0-2-0.3-2.6-1c-0.7-0.7-1-1.6-1-2.7c0-2.4,1.6-3.6,4.8-3.6
			h1.1L251.7,320.8L251.7,320.8z M273.8,319.6c-0.7,0.8-1.7,1.2-3.1,1.2h-2.4c-0.6-0.8-0.9-2.1-0.9-3.9c0-1.5,0.4-2.7,1.1-3.6
			c0.7-0.9,1.6-1.4,2.7-1.4c1.1,0,2,0.4,2.6,1.1c0.7,0.8,1,1.8,1,3.1C274.9,317.6,274.5,318.7,273.8,319.6z"/>
		<path class="st0" d="M312.8,307.7c0.9,0,1.4-0.5,1.4-1.5c0-1-0.5-1.5-1.4-1.5c-0.9,0-1.4,0.5-1.4,1.5
			C311.4,307.2,311.9,307.7,312.8,307.7z"/>
		<path class="st0" d="M308.8,307.7c0.9,0,1.4-0.5,1.4-1.5c0-1-0.5-1.5-1.4-1.5c-0.9,0-1.4,0.5-1.4,1.5
			C307.4,307.2,307.8,307.7,308.8,307.7z"/>
		<path class="st0" d="M320.5,323.8c-0.9,0-1.4,0.5-1.4,1.5c0,1,0.5,1.5,1.4,1.5c0.9,0,1.4-0.5,1.4-1.5
			C321.9,324.3,321.4,323.8,320.5,323.8z"/>
		<path class="st0" d="M324.5,323.8c-0.9,0-1.4,0.5-1.4,1.5c0,1,0.5,1.5,1.4,1.5c0.9,0,1.4-0.5,1.4-1.5
			C325.9,324.3,325.4,323.8,324.5,323.8z"/>
		<path class="st0" d="M324.2,310.1h-2.3v10.7h-3.1h-0.5h-2.6v-10.7h-4c-2.2,0-3.9,0.6-5.2,1.8c-1.3,1.2-2,2.8-2,4.9
			c0,1.9,0.5,3.3,1.6,4.4c1.1,1.1,2.5,1.6,4.4,1.6h7.8h0.5h5.4L324.2,310.1L324.2,310.1z M313.4,320.8h-3c-2.4,0-3.6-1.3-3.6-4
			c0-1.5,0.4-2.6,1.3-3.4c0.9-0.8,2.1-1.2,3.6-1.2h1.7L313.4,320.8L313.4,320.8z"/>
		<path class="st0" d="M331.1,309.3l-0.8,2c2.8,1.3,4.7,4.5,5.6,9.5h-8.7v2h11v-2C337,314.5,334.7,310.7,331.1,309.3z"/>
		<path class="st0" d="M394.4,320.8h-3.1h-0.4c-0.8,0-1.4-0.2-1.9-0.7c-0.5-0.5-0.7-1.1-0.7-1.8v-8.2h-2.2v10.7h-1.6
			c-0.8,0-1.5-0.3-2.1-0.8c-0.5-0.5-0.8-1.2-0.8-2.1v-5.7h-2.2v8.6h-1.6c-0.8,0-1.5-0.3-2.1-0.8c-0.5-0.5-0.8-1.2-0.8-2.1v-5.7h-2.2
			v8.6h-3.4h-0.5H366c-0.9,0-1.9-0.2-2.9-0.6c1.5-1,2.6-2.3,3.5-4s1.3-3.5,1.3-5.3c-1.4-1.1-3.3-1.7-5.7-1.7c-1.4,0-2.7,0.3-4,0.9
			c-1.3,0.6-2.4,1.4-3.2,2.5c0.2,1.4,0.8,2.9,1.6,4.3c0.9,1.4,1.8,2.5,2.9,3.3c-0.8,0.4-1.9,0.5-3.1,0.5h-2.6h-0.5h-1.8v-10.7H348
			c-2.2,0-3.9,0.6-5.2,1.8c-1.3,1.2-2,2.8-2,4.9c0,1.9,0.5,3.4,1.5,4.4c1,1,2.5,1.5,4.3,1.5h2.6v0.8c0,1.1-0.3,1.9-1,2.6
			c-0.7,0.6-1.6,0.9-2.8,0.9c-1.1,0-2.4-0.4-3.7-1.1l-1.1,1.8c1.4,0.9,3,1.3,4.7,1.3c1.9,0,3.4-0.5,4.5-1.5c1.1-1,1.6-2.4,1.6-4.2
			v-0.6h1.8h0.5h2.6c1.8,0,3.4-0.4,4.9-1.3c1.6,0.9,3.2,1.3,4.9,1.3h2.7h0.5h5.6v-1.5c0.5,1,1.5,1.5,2.9,1.5h3.8v-1.5
			c0.5,1,1.5,1.5,2.9,1.5h3.8v-1.5c0.4,0.9,1.3,1.3,2.5,1.4v0.1h0.4h0.1h5.4v-19.9h-2.3L394.4,320.8L394.4,320.8z M349.2,320.8h-2.5
			c-2.4,0-3.6-1.3-3.6-4c0-1.5,0.4-2.6,1.3-3.4c0.9-0.8,2.1-1.2,3.6-1.2h1.1L349.2,320.8L349.2,320.8z M361.3,319.1
			c-2-1.6-3.3-3.5-3.9-5.7c0.5-0.6,1.1-1,2.1-1.4c0.9-0.4,1.8-0.6,2.7-0.6c1.5,0,2.6,0.2,3.3,0.7C365.2,315,363.8,317.4,361.3,319.1
			z"/>
		<rect x="401.2" y="302.9" class="st0" width="2.3" height="19.9"/>
		<path class="st0" d="M422.3,307.7c0.9,0,1.4-0.5,1.4-1.5c0-1-0.5-1.5-1.4-1.5c-0.9,0-1.4,0.5-1.4,1.5
			C420.9,307.2,421.4,307.7,422.3,307.7z"/>
		<path class="st0" d="M418.3,307.7c0.9,0,1.4-0.5,1.4-1.5c0-1-0.5-1.5-1.4-1.5c-0.9,0-1.4,0.5-1.4,1.5
			C416.9,307.2,417.3,307.7,418.3,307.7z"/>
		<path class="st0" d="M435,307.6v-1.3c-0.6,0.1-1.3,0.2-2.2,0.3l-0.5,0.1c-0.5-0.3-0.8-0.7-0.8-1.2c0-0.9,0.5-1.3,1.4-1.3
			c0.5,0,0.9,0.1,1.3,0.3l0.4-1.2c-0.5-0.3-1.1-0.4-1.7-0.4c-0.8,0-1.5,0.2-2,0.6c-0.5,0.4-0.7,1-0.7,1.7c0,0.7,0.3,1.2,0.9,1.7
			L430,307v1.2c0.5-0.1,1.4-0.2,2.7-0.4C434,307.7,434.7,307.6,435,307.6z"/>
		<path class="st0" d="M439.2,323.8c-0.9,0-1.4,0.5-1.4,1.5c0,1,0.5,1.5,1.4,1.5c0.9,0,1.4-0.5,1.4-1.5
			C440.6,324.3,440.1,323.8,439.2,323.8z"/>
		<path class="st0" d="M443.2,323.8c-0.9,0-1.4,0.5-1.4,1.5c0,1,0.5,1.5,1.4,1.5c0.9,0,1.4-0.5,1.4-1.5
			C444.6,324.3,444.2,323.8,443.2,323.8z"/>
		<path class="st0" d="M470.6,320.8h-3H467h-2.5v-6.4c0-2.8-0.8-5-2.3-6.5c-1.5-1.5-3.7-2.3-6.6-2.3c-2,0-3.9,0.3-5.5,0.8l0.6,2
			c1.5-0.5,3.2-0.8,4.9-0.8c2.3,0,4,0.6,5.1,1.7c1.1,1.2,1.6,2.9,1.6,5.2v6.2h-4v-9.4h-3.2c-2.3,0-4,0.5-5.3,1.5
			c-1.3,1-1.9,2.4-1.9,4.1c0,1.7,0.6,2.9,1.8,3.8h-3.7h-0.5h-0.4c-0.8,0-1.4-0.2-1.9-0.7c-0.5-0.5-0.7-1.1-0.7-1.8v-8.2h-2.3v10.7
			h-3.1h-0.5h-0.4c-0.8,0-1.4-0.2-1.9-0.7c-0.5-0.5-0.7-1.1-0.7-1.8v-8.2h-2.3v10.7h-3.1h-0.5h-2.6v-10.7h-4c-2.2,0-3.9,0.6-5.2,1.8
			c-1.3,1.2-2,2.8-2,4.9c0,1.9,0.5,3.3,1.6,4.4c1.1,1.1,2.5,1.6,4.4,1.6h7.8h0.5h5.4v-1.5c0.5,1,1.5,1.5,2.9,1.5h0.1h0.5h5.4v-1.5
			c0.5,1,1.5,1.5,2.9,1.5h0.1h0.5H467h0.6h5.3v-19.9h-2.3L470.6,320.8L470.6,320.8z M422.9,320.8h-3c-2.4,0-3.6-1.3-3.6-4
			c0-1.5,0.4-2.6,1.3-3.4c0.9-0.8,2.1-1.2,3.6-1.2h1.7L422.9,320.8L422.9,320.8z M456.1,320.8H454c-1.1,0-2-0.3-2.6-1
			c-0.7-0.7-1-1.6-1-2.7c0-2.4,1.6-3.6,4.8-3.6h1.1L456.1,320.8L456.1,320.8z"/>
		<rect x="477.4" y="302.9" class="st0" width="2.3" height="19.9"/>
	</g>
	<g>
		<path class="st0" d="M170.7,343.7c0.6,0.3,1.5,0.6,2.5,0.6c1.2,0,1.9-0.6,1.9-1.4c0-0.8-0.5-1.2-1.8-1.7c-1.7-0.6-2.7-1.5-2.7-3
			c0-1.7,1.4-2.9,3.6-2.9c1.1,0,1.9,0.2,2.4,0.5l-0.5,1.5c-0.4-0.2-1.1-0.5-2-0.5c-1.2,0-1.7,0.6-1.7,1.2c0,0.8,0.6,1.1,1.9,1.7
			c1.8,0.7,2.6,1.6,2.6,3c0,1.6-1.2,3-3.9,3c-1.1,0-2.2-0.3-2.7-0.6L170.7,343.7z"/>
		<path class="st0" d="M185.5,342.8l-0.9,2.9h-1.9l3.3-10.2h2.4l3.3,10.2h-2l-0.9-2.9H185.5z M188.4,341.4l-0.8-2.5
			c-0.2-0.6-0.4-1.3-0.5-1.9h0c-0.2,0.6-0.3,1.3-0.5,1.9l-0.8,2.5H188.4z"/>
		<path class="st0" d="M199.4,335.5v5.9c0,2,0.8,2.9,2.1,2.9c1.3,0,2.1-0.9,2.1-2.9v-5.9h1.9v5.8c0,3.1-1.6,4.5-4.1,4.5
			c-2.4,0-3.9-1.3-3.9-4.5v-5.8L199.4,335.5L199.4,335.5z"/>
		<path class="st0" d="M212.6,335.7c0.8-0.1,1.9-0.2,3-0.2c1.9,0,3.2,0.4,4.1,1.2c1,0.8,1.6,2,1.6,3.7c0,1.8-0.6,3.2-1.6,4
			c-1,0.9-2.6,1.4-4.6,1.4c-1.1,0-1.9-0.1-2.5-0.1L212.6,335.7L212.6,335.7z M214.4,344.3c0.3,0,0.6,0,1,0c2.4,0,3.8-1.3,3.8-3.9
			c0-2.2-1.3-3.5-3.6-3.5c-0.6,0-1,0-1.3,0.1V344.3z"/>
		<path class="st0" d="M229.7,335.5v10.2h-1.9v-10.2H229.7z"/>
		<path class="st0" d="M252.1,345.4c-0.4,0.2-1.4,0.5-2.6,0.5c-3.2,0-5.2-2-5.2-5.1c0-3.3,2.3-5.4,5.4-5.4c1.2,0,2.1,0.3,2.5,0.5
			l-0.4,1.5c-0.5-0.2-1.1-0.4-2-0.4c-2.1,0-3.6,1.3-3.6,3.7c0,2.2,1.3,3.7,3.5,3.7c0.8,0,1.5-0.2,2-0.4L252.1,345.4z"/>
		<path class="st0" d="M267.3,340.5c0,3.4-2.1,5.4-4.9,5.4c-2.9,0-4.7-2.2-4.7-5.2c0-3.1,2-5.3,4.8-5.3
			C265.5,335.4,267.3,337.6,267.3,340.5z M259.7,340.6c0,2.1,1,3.7,2.8,3.7c1.8,0,2.8-1.7,2.8-3.8c0-1.9-0.9-3.7-2.8-3.7
			C260.7,336.8,259.7,338.6,259.7,340.6z"/>
		<path class="st0" d="M273.9,345.7v-10.2h2.1l2.6,4.4c0.7,1.1,1.3,2.3,1.7,3.4h0c-0.1-1.4-0.2-2.7-0.2-4.2v-3.5h1.7v10.2H280
			l-2.7-4.5c-0.6-1.1-1.3-2.4-1.8-3.5l0,0c0.1,1.3,0.1,2.7,0.1,4.3v3.6L273.9,345.7L273.9,345.7z"/>
		<path class="st0" d="M296.3,345.4c-0.4,0.2-1.4,0.5-2.6,0.5c-3.2,0-5.2-2-5.2-5.1c0-3.3,2.3-5.4,5.4-5.4c1.2,0,2.1,0.3,2.5,0.5
			l-0.4,1.5c-0.5-0.2-1.1-0.4-2-0.4c-2.1,0-3.6,1.3-3.6,3.7c0,2.2,1.3,3.7,3.5,3.7c0.8,0,1.5-0.2,2-0.4L296.3,345.4z"/>
		<path class="st0" d="M304.7,335.5v10.2h-1.9v-10.2H304.7z"/>
		<path class="st0" d="M311.8,335.5h1.9v8.6h4.2v1.6h-6L311.8,335.5L311.8,335.5z"/>
		<path class="st0" d="M341.2,340.5c0,3.4-2.1,5.4-4.9,5.4c-2.9,0-4.7-2.2-4.7-5.2c0-3.1,2-5.3,4.8-5.3
			C339.5,335.4,341.2,337.6,341.2,340.5z M333.7,340.6c0,2.1,1,3.7,2.8,3.7c1.8,0,2.8-1.7,2.8-3.8c0-1.9-0.9-3.7-2.8-3.7
			C334.6,336.8,333.7,338.6,333.7,340.6z"/>
		<path class="st0" d="M347.8,335.5h5.9v1.5h-4v2.8h3.7v1.5h-3.7v4.3h-1.9L347.8,335.5L347.8,335.5z"/>
		<path class="st0" d="M374.2,341.2h-3.8v3h4.3v1.5h-6.1v-10.2h5.9v1.5h-4.1v2.6h3.8L374.2,341.2L374.2,341.2z"/>
		<path class="st0" d="M381.2,345.7v-10.2h2.1l2.6,4.4c0.7,1.1,1.3,2.3,1.7,3.4h0c-0.1-1.4-0.2-2.7-0.2-4.2v-3.5h1.7v10.2h-1.9
			l-2.7-4.5c-0.6-1.1-1.3-2.4-1.8-3.5l0,0c0.1,1.3,0.1,2.7,0.1,4.3v3.6L381.2,345.7L381.2,345.7z"/>
		<path class="st0" d="M404.5,345.2c-0.7,0.2-1.9,0.6-3.3,0.6c-1.7,0-3-0.4-4-1.4c-0.9-0.9-1.4-2.2-1.4-3.7c0-3.2,2.3-5.3,5.6-5.3
			c1.3,0,2.2,0.3,2.7,0.5l-0.4,1.5c-0.6-0.2-1.2-0.4-2.3-0.4c-2.2,0-3.7,1.3-3.7,3.6c0,2.3,1.4,3.7,3.5,3.7c0.7,0,1.2-0.1,1.4-0.2
			v-2.5h-1.8v-1.5h3.6L404.5,345.2L404.5,345.2z"/>
		<path class="st0" d="M413.2,335.5v10.2h-1.9v-10.2H413.2z"/>
		<path class="st0" d="M420.3,345.7v-10.2h2.1l2.6,4.4c0.7,1.1,1.3,2.3,1.7,3.4h0c-0.1-1.4-0.2-2.7-0.2-4.2v-3.5h1.7v10.2h-1.9
			l-2.7-4.5c-0.6-1.1-1.3-2.4-1.8-3.5l0,0c0.1,1.3,0.1,2.7,0.1,4.3v3.6L420.3,345.7L420.3,345.7z"/>
		<path class="st0" d="M441.2,341.2h-3.8v3h4.3v1.5h-6.1v-10.2h5.9v1.5h-4.1v2.6h3.8L441.2,341.2L441.2,341.2z"/>
		<path class="st0" d="M453.9,341.2h-3.8v3h4.3v1.5h-6.1v-10.2h5.9v1.5h-4.1v2.6h3.8L453.9,341.2L453.9,341.2z"/>
		<path class="st0" d="M460.9,335.7c0.7-0.1,1.7-0.2,2.8-0.2c1.5,0,2.5,0.2,3.1,0.8c0.6,0.5,0.9,1.2,0.9,2c0,1.3-0.9,2.2-1.8,2.5v0
			c0.7,0.3,1.2,1,1.4,2c0.3,1.3,0.6,2.4,0.8,2.8h-1.9c-0.2-0.3-0.4-1.1-0.7-2.4c-0.3-1.3-0.8-1.7-1.8-1.8h-0.9v4.2h-1.8L460.9,335.7
			L460.9,335.7z M462.8,340.1h1.1c1.3,0,2-0.7,2-1.7c0-1.1-0.8-1.6-2-1.6c-0.6,0-1,0-1.1,0.1V340.1z"/>
		<path class="st0" d="M474.4,343.7c0.6,0.3,1.5,0.6,2.5,0.6c1.2,0,1.9-0.6,1.9-1.4c0-0.8-0.5-1.2-1.8-1.7c-1.7-0.6-2.7-1.5-2.7-3
			c0-1.7,1.4-2.9,3.6-2.9c1.1,0,1.9,0.2,2.4,0.5l-0.5,1.5c-0.4-0.2-1.1-0.5-2-0.5c-1.2,0-1.7,0.6-1.7,1.2c0,0.8,0.6,1.1,1.9,1.7
			c1.8,0.7,2.6,1.6,2.6,3c0,1.6-1.2,3-3.9,3c-1.1,0-2.2-0.3-2.7-0.6L474.4,343.7z"/>
	</g>
</g>
</svg>
