<?xml version="1.0" encoding="utf-8"?>
<!-- Generator: Adobe Illustrator 26.3.1, SVG Export Plug-In . SVG Version: 6.00 Build 0)  -->
<svg version="1.1" id="Layer_1" xmlns="http://www.w3.org/2000/svg" xmlns:xlink="http://www.w3.org/1999/xlink" x="0px" y="0px"
	 viewBox="0 0 146 46" style="enable-background:new 0 0 146 46;" xml:space="preserve">
<style type="text/css">
	.st0{fill:#FFFFFF;}
</style>
<path class="st0" d="M16.2,38.2c0.2-0.2,0.6-0.2,1-0.2c0.4,0,0.9,0.1,1.3,0.3l0.3-0.9c-0.6-0.2-1.1-0.3-1.6-0.3
	c-0.7,0-1.2,0.2-1.6,0.5c-0.4,0.3-0.7,0.8-0.7,1.2c0,0.7,0.3,1.1,0.9,1.4c0.2,0.1,0.5,0.2,0.7,0.3c0.3,0.1,0.5,0.1,0.7,0.2
	c0.2,0,0.3,0.1,0.4,0.2c0.1,0.1,0.2,0.2,0.2,0.4c0,0.5-0.5,0.7-1.3,0.7h-0.6c-1.2,0-1.8-0.5-1.8-1.5c0-0.3,0-0.6,0.1-0.9h-0.9
	C13.1,40,13,40.4,13,40.7c0,0.8,0.3,1.3,0.8,1.6c0.5,0.4,1.1,0.6,2,0.6h0.8c0.8,0,1.3-0.2,1.7-0.4c0.4-0.3,0.6-0.7,0.6-1.1
	c0-0.3,0-0.5-0.1-0.7c-0.1-0.2-0.2-0.4-0.4-0.5c-0.2-0.1-0.3-0.2-0.5-0.3c-0.2-0.1-0.3-0.1-0.6-0.2c-0.6-0.2-0.9-0.3-1.1-0.4
	c-0.2-0.1-0.3-0.3-0.3-0.5C15.9,38.6,16,38.4,16.2,38.2z"/>
<path class="st0" d="M15.2,43.5c-0.2,0-0.3,0.1-0.4,0.2c-0.1,0.1-0.2,0.2-0.2,0.4c0,0.2,0.1,0.3,0.2,0.4c0.1,0.1,0.2,0.2,0.4,0.2
	s0.3-0.1,0.4-0.2c0.1-0.1,0.2-0.2,0.2-0.4c0-0.2-0.1-0.3-0.2-0.4C15.5,43.6,15.3,43.5,15.2,43.5z"/>
<path class="st0" d="M16.5,43.5c-0.2,0-0.3,0.1-0.4,0.2c-0.1,0.1-0.2,0.2-0.2,0.4c0,0.2,0.1,0.3,0.2,0.4c0.1,0.1,0.2,0.2,0.4,0.2
	s0.3-0.1,0.4-0.2c0.1-0.1,0.2-0.2,0.2-0.4c0-0.2-0.1-0.3-0.2-0.4C16.8,43.6,16.6,43.5,16.5,43.5z"/>
<path class="st0" d="M22.7,37.7c-0.5-0.4-1.2-0.6-2.1-0.6h-0.5v1h0.5c0.7,0,1.1,0.1,1.4,0.3c0.3,0.2,0.5,0.5,0.5,1
	c0,0.4-0.1,0.6-0.3,0.7c-0.2,0.1-0.5,0.2-0.9,0.2h-1.7v1h1.8c0.7,0,1.1-0.2,1.5-0.5c0.4-0.3,0.5-0.8,0.5-1.4
	C23.5,38.6,23.3,38,22.7,37.7z"/>
<path class="st0" d="M43.5,39.2c0,0.4-0.1,0.6-0.3,0.8c-0.2,0.2-0.4,0.3-0.8,0.3c-0.4,0-0.7-0.1-0.9-0.3c-0.2-0.2-0.3-0.4-0.3-0.8
	v-2.1h-1v2.1c0,0.7-0.2,1.1-0.7,1.1c-0.5,0-0.8-0.4-0.8-1.1v-1.8h-1v1.8c0,0.7-0.2,1.1-0.7,1.1c-0.5,0-0.8-0.4-0.8-1.1v-1.8h-1v1.8
	c0,0.4-0.1,0.6-0.3,0.8c-0.2,0.2-0.4,0.3-0.8,0.3h-1.3l0.9-0.8v-0.3c0-0.6-0.2-1-0.6-1.4c-0.4-0.4-1-0.6-1.5-0.6
	c-0.6,0-1.1,0.2-1.5,0.6c-0.4,0.4-0.6,0.9-0.6,1.4v0.3l0.9,0.8h-2.5v-0.9c0-0.7-0.2-1.2-0.6-1.6c-0.4-0.4-0.8-0.6-1.3-0.6
	c-0.6,0-1,0.2-1.4,0.6c-0.4,0.4-0.5,0.9-0.5,1.4c0,0.6,0.2,1,0.5,1.4c0.4,0.4,0.8,0.6,1.4,0.6h1C27.1,41.8,26.6,42,26,42
	c-0.2,0-0.5,0-0.7-0.1v0.9c0.3,0.1,0.6,0.1,0.9,0.1c0.6,0,1-0.2,1.4-0.5c0.4-0.3,0.6-0.8,0.7-1.3h3.1c0.1,0,0.3,0,0.4-0.1
	c0.1-0.1,0.2-0.1,0.2-0.2c0,0,0.1-0.1,0.1-0.2c0.1,0.1,0.1,0.1,0.1,0.2s0.1,0.1,0.2,0.2c0.1,0.1,0.3,0.1,0.4,0.1h1.9
	c0.7,0,1.1-0.2,1.5-0.7c0.3,0.4,0.7,0.7,1.2,0.7c0.6,0,1-0.2,1.2-0.6c0.3,0.4,0.7,0.6,1.1,0.6c0.6,0,1-0.2,1.2-0.7
	c0.3,0.4,0.8,0.7,1.4,0.7c0.6,0,1.1-0.2,1.4-0.5c0.4-0.3,0.5-0.9,0.5-1.4v-3.5h-1L43.5,39.2z M33.1,39.1L32,40.2l-1.1-1.1
	c0-0.3,0.1-0.6,0.4-0.8c0.2-0.2,0.5-0.3,0.9-0.3c0.3,0,0.6,0.1,0.9,0.3C33,38.5,33.1,38.8,33.1,39.1z M27.3,39.3v0.9h-1
	c-0.3,0-0.6-0.1-0.8-0.3c-0.2-0.2-0.3-0.5-0.3-0.8c0-0.3,0.1-0.6,0.3-0.8c0.2-0.2,0.5-0.3,0.8-0.3c0.3,0,0.5,0.1,0.7,0.3
	C27.2,38.6,27.3,38.9,27.3,39.3z"/>
<path class="st0" d="M45.4,35.7h1v5.4h-1V35.7z"/>
<path class="st0" d="M51.6,36.4c0.2,0,0.3-0.1,0.4-0.2c0.1-0.1,0.2-0.2,0.2-0.4c0-0.2-0.1-0.2-0.2-0.3c-0.1-0.1-0.2-0.2-0.4-0.2
	c-0.2,0-0.3,0.1-0.4,0.2c-0.1,0.1-0.2,0.2-0.2,0.4c0,0.2,0.1,0.3,0.2,0.4C51.3,36.4,51.4,36.4,51.6,36.4z"/>
<path class="st0" d="M50.2,36.4c0.2,0,0.3-0.1,0.4-0.2c0.1-0.1,0.2-0.2,0.2-0.4c0-0.2-0.1-0.3-0.2-0.4c-0.1-0.1-0.2-0.2-0.4-0.2
	c-0.2,0-0.3,0.1-0.4,0.2s-0.2,0.2-0.2,0.4c0,0.2,0.1,0.3,0.2,0.4C49.9,36.4,50,36.4,50.2,36.4z"/>
<path class="st0" d="M54.4,41.7c-0.2,0-0.3,0.1-0.4,0.2c-0.1,0.1-0.2,0.2-0.2,0.4c0,0.2,0.1,0.3,0.2,0.4c0.1,0.1,0.2,0.2,0.4,0.2
	c0.1,0,0.3-0.1,0.4-0.2s0.1-0.3,0.1-0.4c0-0.2-0.1-0.3-0.2-0.4C54.7,41.8,54.5,41.7,54.4,41.7z"/>
<path class="st0" d="M55.8,41.7c-0.2,0-0.3,0.1-0.4,0.2c-0.1,0.1-0.2,0.2-0.2,0.4c0,0.2,0.1,0.3,0.2,0.4s0.2,0.2,0.4,0.2
	c0.2,0,0.3-0.1,0.4-0.2c0.1-0.1,0.2-0.2,0.2-0.4c0-0.2-0.1-0.3-0.2-0.4C56.1,41.8,55.9,41.7,55.8,41.7z"/>
<path class="st0" d="M58,39.9c-0.2-0.2-0.3-0.5-0.3-0.8c0-0.4,0.1-0.7,0.4-0.9c0.3-0.2,0.6-0.3,1-0.3c0.3,0,0.7,0.1,1.1,0.3l0.3-0.9
	c-0.6-0.2-1-0.3-1.5-0.3c-0.7,0-1.1,0.2-1.6,0.6c-0.4,0.4-0.7,0.9-0.7,1.4c0,0.5,0.2,0.9,0.5,1.1h-0.6c-0.4,0-0.7-0.1-0.9-0.3
	c-0.2-0.2-0.3-0.4-0.3-0.8v-1.6h-1v1.5c0,0.4-0.1,0.6-0.3,0.8c-0.2,0.2-0.4,0.3-0.8,0.3c-0.4,0-0.6-0.1-0.8-0.3
	c-0.2-0.2-0.2-0.4-0.2-0.8v-2.4h-1v0.4c-0.2,0-0.4,0-0.5,0c-0.7,0-1.2,0.2-1.7,0.6c-0.5,0.4-0.7,0.9-0.7,1.5c0,0.5,0.2,0.9,0.5,1.2
	c0.3,0.4,0.8,0.5,1.2,0.5c0.7,0,1.1-0.3,1.3-0.9c0.1,0.3,0.4,0.6,0.7,0.8c0.3,0.2,0.7,0.3,1.1,0.3c0.7,0,1.2-0.2,1.5-0.7
	c0.3,0.5,0.8,0.7,1.4,0.7h4.2v-1H59C58.5,40.1,58.3,40.1,58,39.9z M50.6,40c-0.3,0-0.5-0.1-0.7-0.3c-0.2-0.2-0.3-0.4-0.3-0.6
	c0-0.4,0.1-0.7,0.4-0.9c0.3-0.2,0.7-0.3,1.1-0.3c0.2,0,0.3,0,0.5,0v0.7c0,0.4-0.1,0.8-0.3,1C51.2,39.9,50.9,40,50.6,40z"/>
<path class="st0" d="M65.8,37.1c0.2,0,0.3-0.1,0.4-0.2c0.1-0.1,0.2-0.2,0.2-0.4c0-0.2-0.1-0.3-0.2-0.4s-0.2-0.2-0.4-0.2
	c-0.2,0-0.3,0.1-0.4,0.2c-0.1,0.1-0.2,0.2-0.2,0.4c0,0.2,0.1,0.3,0.2,0.4C65.5,37,65.6,37.1,65.8,37.1z"/>
<path class="st0" d="M75.4,39.2c0,0.4-0.1,0.6-0.3,0.8c-0.2,0.2-0.4,0.3-0.8,0.3c-0.4,0-0.6-0.1-0.8-0.2c-0.2-0.1-0.3-0.4-0.3-0.7
	v-0.1c0-0.6-0.2-1.1-0.7-1.5c-0.5-0.4-1.1-0.6-1.7-0.6c-0.6,0-1,0.1-1.3,0.4c-0.4,0.2-0.7,0.5-0.9,0.9v-1.2h-1v3.1h-0.4
	c-0.4,0-0.7-0.1-0.9-0.3c-0.2-0.2-0.3-0.4-0.3-0.8v-1.6h-1v1.5c0,0.4-0.1,0.6-0.3,0.8c-0.2,0.2-0.4,0.3-0.8,0.3h-0.7
	c-0.4,0-0.6-0.1-0.8-0.3c-0.2-0.2-0.3-0.4-0.3-0.8v-3.4h-1v3.5c0,0.6,0.2,1.1,0.5,1.4c0.4,0.4,0.9,0.5,1.4,0.5h0.9
	c0.7,0,1.2-0.2,1.5-0.7c0.3,0.5,0.8,0.7,1.4,0.7h4c0.7,0,1.2-0.2,1.5-0.7c0.3,0.4,0.8,0.7,1.4,0.7c0.6,0,1.1-0.2,1.4-0.5
	c0.4-0.4,0.5-0.9,0.5-1.4v-3.5h-1L75.4,39.2z M72.4,39.2c0,0.3-0.1,0.6-0.3,0.8c-0.2,0.2-0.4,0.2-0.8,0.2h-2.7v-0.2
	c0-0.6,0.3-1.1,0.7-1.4c0.5-0.4,1-0.6,1.5-0.6c0.4,0,0.8,0.1,1.1,0.3C72.2,38.6,72.4,38.9,72.4,39.2z"/>
<path class="st0" d="M77.3,35.7h1v5.4h-1V35.7z"/>
<path class="st0" d="M83.4,36.4c0.2,0,0.3-0.1,0.4-0.2c0.1-0.1,0.2-0.2,0.2-0.4c0-0.2-0.1-0.3-0.2-0.4c-0.1-0.1-0.2-0.2-0.4-0.2
	c-0.2,0-0.3,0.1-0.4,0.2c-0.1,0.1-0.2,0.2-0.2,0.4c0,0.2,0.1,0.3,0.2,0.4C83.2,36.4,83.3,36.4,83.4,36.4z"/>
<path class="st0" d="M82.1,36.4c0.2,0,0.3-0.1,0.4-0.2c0.1-0.1,0.2-0.2,0.2-0.4c0-0.2-0.1-0.2-0.2-0.3c-0.1-0.1-0.2-0.2-0.4-0.2
	c-0.2,0-0.3,0.1-0.4,0.2c-0.1,0.1-0.2,0.2-0.2,0.4c0,0.2,0.1,0.3,0.2,0.4C81.9,36.4,82,36.4,82.1,36.4z"/>
<path class="st0" d="M86.2,41.7c-0.2,0-0.3,0.1-0.4,0.2c-0.1,0.1-0.2,0.2-0.2,0.4c0,0.2,0.1,0.3,0.2,0.4s0.2,0.2,0.4,0.2
	c0.2,0,0.3-0.1,0.4-0.2c0.1-0.1,0.2-0.2,0.2-0.4c0-0.2-0.1-0.3-0.2-0.4C86.5,41.8,86.4,41.7,86.2,41.7z"/>
<path class="st0" d="M87.6,41.7c-0.2,0-0.3,0.1-0.4,0.2C87.1,41.9,87,42,87,42.2c0,0.2,0.1,0.3,0.2,0.4c0.1,0.1,0.2,0.2,0.4,0.2
	c0.2,0,0.3-0.1,0.4-0.2c0.1-0.1,0.2-0.2,0.2-0.4c0-0.2-0.1-0.3-0.2-0.4C87.9,41.8,87.8,41.7,87.6,41.7z"/>
<path class="st0" d="M96.3,37.1c0.2,0,0.3-0.1,0.4-0.2c0.1-0.1,0.2-0.2,0.2-0.4c0-0.2-0.1-0.3-0.2-0.4s-0.2-0.2-0.4-0.2
	c-0.2,0-0.3,0.1-0.4,0.2s-0.2,0.2-0.2,0.4c0,0.2,0.1,0.3,0.2,0.4C96,37,96.1,37.1,96.3,37.1z"/>
<path class="st0" d="M99.9,37.1c0.2,0,0.3-0.1,0.4-0.2c0.1-0.1,0.2-0.2,0.2-0.4c0-0.2-0.1-0.3-0.2-0.4s-0.2-0.2-0.4-0.2
	c-0.2,0-0.3,0.1-0.4,0.2c-0.1,0.1-0.2,0.2-0.2,0.4c0,0.2,0.1,0.3,0.2,0.4C99.7,37,99.8,37.1,99.9,37.1z"/>
<path class="st0" d="M98.7,37.1c0.2,0,0.3-0.1,0.4-0.2c0.1-0.1,0.2-0.2,0.2-0.4c0-0.2-0.1-0.3-0.2-0.4c-0.1-0.1-0.2-0.2-0.4-0.2
	c-0.2,0-0.3,0.1-0.4,0.2c-0.1,0.1-0.2,0.2-0.2,0.4c0,0.2,0.1,0.3,0.2,0.4C98.4,37,98.5,37.1,98.7,37.1z"/>
<path class="st0" d="M101.8,39.2c0,0.4-0.1,0.6-0.3,0.8c-0.2,0.2-0.4,0.3-0.8,0.3c-0.4,0-0.7-0.1-0.9-0.3c-0.2-0.2-0.3-0.4-0.3-0.8
	v-1.6h-1v1.5c0,0.4-0.1,0.6-0.3,0.8c-0.2,0.2-0.4,0.3-0.8,0.3c-0.4,0-0.7-0.1-0.9-0.3c-0.2-0.2-0.3-0.4-0.3-0.8v-1.5h-1v1.5
	c0,0.4-0.1,0.6-0.3,0.8c-0.2,0.2-0.4,0.3-0.8,0.3c-0.4,0-0.7-0.1-0.8-0.2c-0.2-0.2-0.3-0.4-0.3-0.7c0,0,0-0.1,0-0.2
	c0-0.6-0.2-1-0.6-1.4c-0.4-0.4-0.9-0.6-1.3-0.6c-0.5,0-0.9,0.2-1.1,0.5c-0.3,0.3-0.6,0.8-0.7,1.2c0,0.1-0.1,0.3-0.1,0.4
	c0,0.2-0.1,0.3-0.1,0.4c0,0.1-0.1,0.2-0.1,0.3c-0.1,0.3-0.3,0.4-0.6,0.4h-0.7c-0.4,0-0.7-0.1-0.9-0.3c0.2-0.2,0.1-0.5,0.1-0.8v-1.6
	h-1v1.5c0,0.4-0.1,0.6-0.3,0.8c-0.2,0.2-0.4,0.3-0.8,0.3c-0.4,0-0.6-0.1-0.8-0.3c-0.2-0.2-0.2-0.4-0.2-0.8v-2.4h-1v0.4
	c-0.2,0-0.4,0-0.5,0c-0.7,0-1.2,0.2-1.7,0.6c-0.5,0.4-0.7,0.9-0.7,1.5c0,0.5,0.2,0.9,0.5,1.2c0.3,0.4,0.8,0.5,1.2,0.5
	c0.7,0,1.1-0.3,1.3-0.9c0.1,0.3,0.4,0.6,0.7,0.8c0.3,0.2,0.7,0.3,1.2,0.3c0.7,0,1.2-0.2,1.5-0.7c0.3,0.5,0.8,0.7,1.4,0.7h0.7
	c0.6,0,1-0.2,1.2-0.6c0.4,0.4,1,0.6,1.4,0.6c0.3,0,0.6-0.1,0.9-0.2c0.3-0.1,0.5-0.3,0.7-0.5c0.3,0.5,0.8,0.7,1.4,0.7
	s1.2-0.2,1.5-0.7c0.3,0.5,0.8,0.7,1.4,0.7c0.7,0,1.2-0.2,1.5-0.7c0.3,0.5,0.8,0.7,1.4,0.7c0.6,0,1.1-0.2,1.4-0.5
	c0.4-0.4,0.5-0.9,0.5-1.4v-3.5h-1L101.8,39.2z M92.8,39.1c0,0.4-0.1,0.6-0.3,0.8c-0.2,0.2-0.4,0.3-0.7,0.3c-0.4,0-0.8-0.2-1.1-0.6
	c0.1-0.3,0.1-0.5,0.2-0.7c0.1-0.3,0.2-0.6,0.4-0.7c0.1-0.2,0.3-0.2,0.6-0.2c0.3,0,0.5,0.1,0.7,0.3C92.7,38.5,92.8,38.8,92.8,39.1z
	 M82.4,40c-0.3,0-0.5-0.1-0.7-0.3c-0.2-0.2-0.3-0.4-0.3-0.6c0-0.4,0.1-0.7,0.4-0.9c0.3-0.2,0.7-0.3,1.1-0.3c0.2,0,0.3,0,0.5,0v0.7
	c0,0.4-0.1,0.8-0.3,1C83.1,39.9,82.8,40,82.4,40z"/>
<path class="st0" d="M103.7,35.7h1v5.4h-1V35.7z"/>
<path class="st0" d="M110.2,36.7c0.2,0,0.3-0.1,0.4-0.2c0.1-0.1,0.2-0.2,0.2-0.4c0-0.2-0.1-0.3-0.2-0.4s-0.2-0.2-0.4-0.2
	c-0.2,0-0.3,0.1-0.4,0.2c-0.1,0.1-0.2,0.2-0.2,0.4c0,0.2,0.1,0.3,0.2,0.4C109.9,36.6,110.1,36.7,110.2,36.7z"/>
<path class="st0" d="M110.9,37.1c-0.6,0-1.1,0.2-1.4,0.7c-0.4,0.5-0.5,0.9-0.5,1.4c0,0.5,0.2,1,0.5,1.3c0.3,0.4,0.8,0.6,1.3,0.6
	c0.5,0,0.9-0.2,1.1-0.6v0.3c0,0.6-0.2,1-0.5,1.1c-0.3,0.2-0.8,0.4-1.4,0.4c-1.3,0-2-0.6-2-1.6c0-0.2,0-0.5,0.1-0.8h-0.9
	c-0.1,0.4-0.1,0.7-0.1,1c0,0.8,0.3,1.3,0.8,1.8c0.6,0.4,1.2,0.6,2.1,0.6c1,0,1.6-0.2,2.1-0.7c0.5-0.4,0.8-1.1,0.8-1.8v-1.5
	c0-0.7-0.2-1.2-0.6-1.6C112,37.3,111.5,37.1,110.9,37.1z M111.9,39.3c0,0.3-0.2,0.5-0.4,0.7c-0.2,0.2-0.4,0.3-0.6,0.3
	c-0.3,0-0.6-0.1-0.8-0.3c-0.2-0.2-0.3-0.5-0.3-0.8c0-0.3,0.1-0.6,0.3-0.8c0.2-0.2,0.4-0.3,0.8-0.3c0.3,0,0.5,0.1,0.7,0.3
	C111.8,38.5,111.9,38.9,111.9,39.3z"/>
<path class="st0" d="M111.6,36.7c0.2,0,0.3-0.1,0.4-0.2c0.1-0.1,0.2-0.2,0.2-0.4c0-0.2-0.1-0.3-0.2-0.4s-0.2-0.2-0.4-0.2
	c-0.2,0-0.3,0.1-0.4,0.2c-0.1,0.1-0.2,0.2-0.2,0.4c0,0.2,0.1,0.3,0.2,0.4C111.3,36.6,111.5,36.7,111.6,36.7z"/>
<path class="st0" d="M115.7,37.1c-0.6,0-1,0.2-1.4,0.7c-0.4,0.4-0.5,0.9-0.5,1.4c0,0.5,0.2,1,0.5,1.3c0.3,0.4,0.8,0.6,1.3,0.6
	c0.5,0,0.9-0.2,1.1-0.6c0,0.5-0.1,0.9-0.4,1c-0.2,0.2-0.6,0.4-1.1,0.4c-0.2,0-0.5,0-0.7-0.1v0.9c0.3,0.1,0.6,0.1,0.9,0.1
	c0.7,0,1.2-0.2,1.6-0.6c0.4-0.4,0.6-1,0.6-1.7v-1.2c0-0.7-0.2-1.2-0.6-1.6C116.7,37.3,116.2,37.1,115.7,37.1z M115,38.3
	c0.2-0.2,0.4-0.3,0.8-0.3c0.3,0,0.5,0.1,0.7,0.3c0.2,0.2,0.3,0.5,0.3,0.9c0,0.3-0.1,0.5-0.3,0.8c-0.2,0.2-0.4,0.3-0.7,0.3
	c-0.3,0-0.6-0.1-0.8-0.3c-0.2-0.2-0.3-0.5-0.3-0.8C114.7,38.8,114.8,38.5,115,38.3z"/>
<path class="st0" d="M125.6,37.1c0.2,0,0.3-0.1,0.4-0.2c0.1-0.1,0.2-0.2,0.2-0.4c0-0.2-0.1-0.3-0.2-0.4c-0.1-0.1-0.2-0.2-0.4-0.2
	c-0.2,0-0.3,0.1-0.4,0.2s-0.2,0.2-0.2,0.4c0,0.2,0.1,0.3,0.2,0.4C125.4,37,125.5,37.1,125.6,37.1z"/>
<path class="st0" d="M132.5,37.7c-0.5-0.4-1.1-0.6-1.7-0.6c-0.6,0-1,0.1-1.3,0.4c-0.4,0.2-0.7,0.5-0.9,0.9v-1.2h-1v3.1h-0.5
	c-0.4,0-0.7-0.1-0.9-0.3c-0.2-0.2-0.3-0.4-0.3-0.8v-1.5h-1v1.5c0,0.4-0.1,0.6-0.3,0.8c-0.2,0.2-0.4,0.3-0.8,0.3h-0.9
	c-0.4,0-0.6-0.1-0.8-0.2c-0.2-0.1-0.3-0.4-0.3-0.7v-0.1c0-0.7-0.3-1.1-0.8-1.6c-0.5-0.4-1.2-0.6-2.1-0.6h-0.3v1h0.5
	c0.7,0,1.1,0.1,1.4,0.3c0.3,0.2,0.5,0.5,0.5,1c0,0.4-0.1,0.6-0.3,0.7c-0.2,0.1-0.5,0.2-0.9,0.2h-1.7v1h1.7c0.8,0,1.2-0.2,1.6-0.6
	c0.3,0.4,0.8,0.6,1.4,0.6h0.9c0.7,0,1.2-0.2,1.5-0.7c0.3,0.5,0.8,0.7,1.4,0.7h4c0.6,0,1.1-0.2,1.4-0.5c0.4-0.4,0.5-0.8,0.5-1.3
	C133.2,38.6,133,38.1,132.5,37.7z M131.3,40.1h-2.7v-0.2c0-0.6,0.3-1.1,0.7-1.4c0.5-0.4,1-0.6,1.5-0.6c0.4,0,0.8,0.1,1.1,0.3
	c0.3,0.2,0.4,0.5,0.4,0.9c0,0.3-0.1,0.6-0.3,0.8C131.8,40.1,131.6,40.1,131.3,40.1z"/>
<path class="st0" d="M29.9,14.9c-1.5-1.2-3.8-2-7.1-2.3c-2.3-0.2-3.8-0.6-4.7-1.1c-0.8-0.6-1.1-1.4-1.1-2.6c0-1.6,0.5-2.8,1.5-3.3
	c1.1-0.7,2.9-1,5.2-1c1,0,2.2,0,3.4,0.3c2.3,0.5,3.2,1,3.2,1l1.2-3.6L30.7,2c-2.1-0.7-4.5-1-7-1C16.6,1,13,3.7,13,9
	c0,2.5,0.8,4.3,2.4,5.4c1.5,1.1,3.8,1.7,7.1,2c2.2,0.2,3.7,0.7,4.6,1.3c0.9,0.8,1.2,1.7,1.2,2.9c0,1.6-0.6,2.7-1.6,3.3
	c-1.1,0.7-3,1.1-5.3,1.1c-2.5,0-4.6-0.3-6.2-0.9L14.5,24l-1.2,3.6l0.6,0.2c2.2,0.7,4.7,1.1,7.4,1.1c7.3,0,11-2.7,11-8
	C32.3,18.2,31.5,16.2,29.9,14.9z"/>
<path class="st0" d="M37,1.6h3.9v26.6H37V1.6z"/>
<path class="st0" d="M64.7,4.3c-1-1-2.4-1.7-3.9-2.2c-1.4-0.4-3.2-0.7-5.3-0.7h-8.5v26.6h8.5c4.3,0,7.5-1,9.5-3.1s3-5.4,3-10.4
	c0-2.5-0.3-4.6-0.8-6.3C66.6,6.8,65.8,5.4,64.7,4.3z M55.4,24.8h-4.6V5.1h4.6c1.7,0,3.1,0.1,4,0.4c1,0.2,1.7,0.7,2.4,1.3
	c0.7,0.7,1.1,1.6,1.4,2.9c0.3,1.3,0.5,3.1,0.5,5.2c0,3.9-0.6,6.6-1.8,7.9C60.7,24.1,58.5,24.8,55.4,24.8z"/>
<path class="st0" d="M89.9,5.1V1.6H72.5v26.6h3.9V16.9h10.5v-3.4H76.4V5.1H89.9z"/>
<path class="st0" d="M110,1.6l-7.6,13.3l3.9,6.9h5.3l-4-6.9l5.2-8.8h10.1l5.2,8.8l-5.2,8.9h-2.4l-2.6,4.5h7.6l7.6-13.4l-7.6-13.3
	H110z"/>
<path class="st0" d="M100.2,1.6l-7.7,13.3l7.7,13.4h15.4l7.7-13.4l-4-6.8h-5.2l3.9,6.8l-5.1,8.9h-10.2l-5.2-8.9l5.2-8.8h2.4l2.6-4.5
	H100.2z"/>
</svg>
